<svg xmlns="http://www.w3.org/2000/svg" xmlns:xlink="http://www.w3.org/1999/xlink" viewBox="0 0 398.87 325.15"><defs><style>.cls-1{fill:none;}.cls-2{fill:#5f699e;}.cls-3{fill:#cecce4;}.cls-4{fill:#999;}.cls-5{fill:#666;}.cls-6{fill:#48426b;}.cls-7{clip-path:url(#clip-path);}.cls-8{fill:#9a9a9a;}.cls-9{fill:#9b9b9b;}.cls-10{fill:#9b9b9c;}.cls-11{fill:#9c9c9d;}.cls-12{fill:#9d9d9f;}.cls-13{fill:#9e9ea0;}.cls-14{fill:#9e9ea1;}.cls-15{fill:#9f9fa2;}.cls-16{fill:#a0a0a3;}.cls-17{fill:#a1a1a4;}.cls-18{fill:#a2a1a5;}.cls-19{fill:#a2a2a6;}.cls-20{fill:#a3a3a7;}.cls-21{fill:#a4a3a8;}.cls-22{fill:#a5a4aa;}.cls-23{fill:#a5a5ab;}.cls-24{fill:#a6a6ac;}.cls-25{fill:#a7a6ad;}.cls-26{fill:#a8a7ae;}.cls-27{fill:#a8a8af;}.cls-28{fill:#a9a9b0;}.cls-29{fill:#aaa9b1;}.cls-30{fill:#abaab2;}.cls-31{fill:#acabb3;}.cls-32{fill:#acacb4;}.cls-33{fill:#adacb5;}.cls-34{fill:#aeadb6;}.cls-35{fill:#afaeb7;}.cls-36{fill:#afaeb9;}.cls-37{fill:#b0afba;}.cls-38{fill:#b1b0bb;}.cls-39{fill:#b2b1bc;}.cls-40{fill:#b2b1bd;}.cls-41{fill:#b3b2be;}.cls-42{fill:#b4b3bf;}.cls-43{fill:#b5b3c0;}.cls-44{fill:#b5b4c1;}.cls-45{fill:#b6b5c2;}.cls-46{fill:#b7b6c3;}.cls-47{fill:#b7b6c4;}.cls-48{fill:#b8b7c5;}.cls-49{fill:#b9b8c6;}.cls-50{fill:#bab8c7;}.cls-51{fill:#bab9c8;}.cls-52{fill:#bbbac9;}.cls-53{fill:#bcbaca;}.cls-54{fill:#bcbbcb;}.cls-55{fill:#bdbccc;}.cls-56{fill:#bebdcd;}.cls-57{fill:#bfbdce;}.cls-58{fill:#bfbecf;}.cls-59{fill:#c0bfd0;}.cls-60{fill:#c1bfd1;}.cls-61{fill:#c1c0d2;}.cls-62{fill:#c2c1d3;}.cls-63{fill:#c3c1d4;}.cls-64{fill:#c3c2d5;}.cls-65{fill:#c4c3d6;}.cls-66{fill:#c5c3d7;}.cls-67{fill:#c5c4d8;}.cls-68{fill:#c6c4d9;}.cls-69{fill:#c7c5da;}.cls-70{fill:#c7c6db;}.cls-71{fill:#c8c6dc;}.cls-72{fill:#c9c7dd;}.cls-73{fill:#c9c8dd;}.cls-74{fill:#cac8de;}.cls-75{fill:#cbc9df;}.cls-76{fill:#cbc9e0;}.cls-77{fill:#cccae1;}.cls-78{fill:#cccae2;}.cls-79{fill:#cdcbe3;}.cls-80{fill:#cecce3;}</style><clipPath id="clip-path"><circle class="cls-1" cx="176.14" cy="166.47" r="39"/></clipPath></defs><title>Asset 1</title><g id="Layer_2" data-name="Layer 2"><g id="Layer_1-2" data-name="Layer 1"><polygon class="cls-2" points="21.1 150.13 11.02 144.26 9.22 155.52 18.82 160.51 21.1 150.13"/><polygon class="cls-2" points="136.78 40.9 125.13 40.46 123.12 34.72 136.78 40.9"/><polygon class="cls-2" points="10.78 69.08 11.43 74.42 8.8 75.87 6.4 71.49 2.89 73.42 0 68.16 10.78 69.08"/><polygon class="cls-2" points="39.09 37.54 37.99 43.85 33.83 40.43 39.09 37.54"/><polygon class="cls-2" points="72.17 2.24 74.75 11.09 67.97 9.12 72.17 2.24"/><polygon class="cls-2" points="49.26 0 52.06 3.02 53.2 9.24 47.37 9.03 44.88 2.41 49.26 0"/><polygon class="cls-3" points="90.59 118.78 87.39 117.12 86.8 118.11 90.19 120.14 90.59 118.78"/><polygon class="cls-3" points="78.89 128.64 82.57 131.18 82.96 129.82 79.28 127.28 78.89 128.64"/><polyline class="cls-3" points="117.85 83.26 117.79 83.21 114.17 80.72 113.08 81.98 116.09 84.22"/><polygon class="cls-3" points="124.21 73.46 121 70.67 119.92 72.11 123.33 74.54 124.21 73.46"/><polygon class="cls-2" points="112.36 82.95 121.87 70.19 101.8 54.39 101.76 54.36 98.18 51.54 97.2 50.78 53.98 109.9 65.42 119.18 66.48 120.04 77.86 129.28 101.16 97.99 102.68 95.94 104.22 93.89 105.74 91.84 107.27 89.79 108.8 87.74 110.32 85.69 111.84 83.65 112.34 82.97 112.36 82.95"/><polygon class="cls-4" points="90.97 87.35 91.13 87.16 102.31 96.51 102.14 96.7 90.97 87.35"/><polygon class="cls-4" points="97.17 78.91 97.33 78.72 108.42 88.02 108.27 88.2 97.17 78.91"/><polygon class="cls-4" points="95.63 81.01 95.79 80.82 106.9 90.13 106.74 90.32 95.63 81.01"/><polygon class="cls-4" points="101.83 72.57 102 72.38 113.03 81.63 112.86 81.82 101.83 72.57"/><polygon class="cls-4" points="100.29 74.69 100.44 74.49 111.5 83.77 111.33 83.96 100.29 74.69"/><rect class="cls-4" x="110.3" y="65.87" width="0.25" height="14.38" transform="translate(-17.54 107.04) rotate(-48.36)"/><polygon class="cls-4" points="103.38 70.47 103.54 70.27 114.56 79.51 114.39 79.7 103.38 70.47"/><rect class="cls-4" x="111.88" y="63.68" width="0.25" height="14.3" transform="translate(-13.7 112.79) rotate(-50.77)"/><polygon class="cls-4" points="108.05 64.12 108.21 63.93 119.2 73.07 119.04 73.27 108.05 64.12"/><polygon class="cls-4" points="98.73 76.8 98.89 76.61 109.96 85.89 109.79 86.09 98.73 76.8"/><polygon class="cls-4" points="92.53 85.23 92.68 85.04 103.83 94.4 103.67 94.59 92.53 85.23"/><polygon class="cls-4" points="92.77 82.02 92.77 82.02 93 81.92 92.77 82.02"/><polygon class="cls-4" points="94.07 83.12 94.23 82.93 105.37 92.26 105.2 92.45 94.07 83.12"/><polygon class="cls-4" points="92.03 82.97 92.03 82.96 92.27 83.03 92.03 82.97"/><polygon class="cls-4" points="78.07 77.22 78.24 77.03 90.19 87.19 90.03 87.39 78.07 77.22"/><rect class="cls-4" x="90.47" y="65.31" width="0.25" height="15.59" transform="translate(-23.81 94.63) rotate(-49.56)"/><rect class="cls-4" x="88.84" y="67.57" width="0.25" height="15.61" transform="translate(-26.1 94.2) rotate(-49.56)"/><rect class="cls-4" x="95.33" y="58.56" width="0.25" height="15.5" transform="translate(-16.93 95.95) rotate(-49.56)"/><rect class="cls-4" x="93.7" y="60.82" width="0.25" height="15.53" transform="translate(-19.23 95.51) rotate(-49.56)"/><rect class="cls-4" x="98.46" y="54.23" width="0.25" height="15.49" transform="translate(-13.47 93.65) rotate(-47.94)"/><rect class="cls-4" x="96.94" y="56.3" width="0.25" height="15.47" transform="translate(-14.63 96.38) rotate(-49.56)"/><rect class="cls-4" x="100.11" y="51.94" width="0.25" height="15.4" transform="translate(-9.64 98.76) rotate(-50.35)"/><polygon class="cls-4" points="96.03 52.37 96.19 52.18 107.94 62.1 107.78 62.29 96.03 52.37"/><rect class="cls-4" x="92.08" y="63.06" width="0.25" height="15.56" transform="translate(-21.52 95.07) rotate(-49.56)"/><rect class="cls-4" x="85.61" y="72.07" width="0.25" height="15.67" transform="translate(-30.69 93.33) rotate(-49.56)"/><polygon class="cls-4" points="80.64 71.08 80.64 71.08 80.86 70.95 80.64 71.08"/><rect class="cls-4" x="87.22" y="69.81" width="0.25" height="15.64" transform="matrix(0.65, -0.76, 0.76, 0.65, -28.4, 93.76)"/><rect class="cls-4" x="62.3" y="103.63" width="0.25" height="14.93" transform="translate(-62.94 88.26) rotate(-50.35)"/><rect class="cls-4" x="68.7" y="94.95" width="0.25" height="14.83" transform="translate(-53.91 90.03) rotate(-50.35)"/><rect class="cls-4" x="67.11" y="97.12" width="0.25" height="14.86" transform="translate(-56.17 89.59) rotate(-50.35)"/><polygon class="cls-4" points="67.92 91.21 68.07 91.02 79.42 100.45 79.26 100.64 67.92 91.21"/><polygon class="cls-4" points="66.3 93.39 66.46 93.2 77.83 102.64 77.67 102.83 66.3 93.39"/><polygon class="cls-4" points="71.13 86.88 71.31 86.69 82.36 96.42 82.19 96.61 71.13 86.88"/><polygon class="cls-4" points="69.52 89.05 69.68 88.86 81 98.27 80.84 98.46 69.52 89.05"/><polygon class="cls-4" points="72.63 84.88 72.78 84.68 84.19 93.89 84.03 94.09 72.63 84.88"/><rect class="cls-4" x="79.97" y="79.73" width="0.25" height="14.64" transform="translate(-38.01 93.6) rotate(-50.56)"/><polygon class="cls-4" points="64.69 95.56 64.85 95.37 76.23 104.83 76.08 105.02 64.69 95.56"/><polygon class="cls-4" points="58.25 104.23 58.41 104.04 69.86 113.57 69.71 113.76 58.25 104.23"/><polygon class="cls-4" points="58.73 101.04 58.73 101.03 58.95 100.94 58.73 101.04"/><rect class="cls-4" x="65.5" y="99.28" width="0.25" height="14.88" transform="translate(-58.42 89.14) rotate(-50.35)"/><polygon class="cls-4" points="69.5 115.85 69.66 115.66 81.02 125.03 80.85 125.23 69.5 115.85"/><polygon class="cls-4" points="75.9 107.27 76.05 107.08 87.33 116.41 87.17 116.6 75.9 107.27"/><polygon class="cls-4" points="74.3 109.41 74.46 109.22 85.76 118.55 85.6 118.75 74.3 109.41"/><polygon class="cls-4" points="80.71 100.84 80.87 100.64 92.08 109.92 91.92 110.11 80.71 100.84"/><rect class="cls-4" x="84.64" y="100.25" width="0.25" height="14.58" transform="translate(-52.12 104.18) rotate(-50.35)"/><rect class="cls-4" x="89.33" y="93.95" width="0.25" height="14.52" transform="translate(-45.62 101.67) rotate(-48.72)"/><rect class="cls-4" x="87.82" y="95.97" width="0.25" height="14.52" transform="translate(-47.66 105.06) rotate(-50.35)"/><polygon class="cls-4" points="85.38 94.57 85.54 94.39 96.81 103.44 96.65 103.64 85.38 94.57"/><polygon class="cls-4" points="87.12 92.25 87.28 92.06 98.45 101.22 98.29 101.41 87.12 92.25"/><rect class="cls-4" x="83.05" y="102.39" width="0.25" height="14.6" transform="translate(-54.35 103.73) rotate(-50.35)"/><rect class="cls-4" x="76.69" y="110.94" width="0.25" height="14.71" transform="translate(-63.28 101.95) rotate(-50.35)"/><polygon class="cls-4" points="71.25 110.43 71.25 110.42 71.48 110.33 71.25 110.43"/><polygon class="cls-4" points="72.7 111.56 72.85 111.37 84.17 120.71 84.01 120.9 72.7 111.56"/><path class="cls-3" d="M81,128.46l-.42-.93-.72.09h0l20.61-28,.79-1.1,19.24-26.16h0l1.13.42.8-2.67-11.46-9.3-1.3-1.06h0l-12.29-10L94.78,51l.43.92.58-.07L55.18,107.11l-1-.38-.8,2.65,12.06,9.8,1.06.86,11.92,9.68Zm39.18-57.05L100.58,98,89.39,89.52l21.06-28.06,9.35,7.65ZM98.3,51.53l10.83,8.85h0l-21,28.21L76.37,79.66,97,51.7ZM55.94,110.34l-.37-2.45h0L75.32,81.06l11.89,8.79L65.92,118.5Zm21.51,17.57L67,119.36,88.45,90.75l11.3,8.35-21.1,28.66Z"/><polygon class="cls-3" points="126.77 128.56 123.09 126.02 123.88 123.3 129.88 127.99 126.77 128.56"/><polygon class="cls-3" points="136.06 114.32 132.39 111.78 130.24 114.1 135.76 117.92 136.06 114.32"/><path class="cls-2" d="M144,99.69l-14.37-24-5-2.94L81.21,130.78l5.52,3.82,28.43,6.05ZM93.26,129.87l-1.05-4,31-43.28,4.56,2.06,4.9,11,.75,7.58L113,130.44l-4.38,2.41Z"/><polygon class="cls-2" points="136.06 114.32 126.77 128.56 146.35 137.19 151.04 131.19 136.06 114.32"/><polyline class="cls-3" points="218.32 180.94 213.29 178 212.89 179.36 217.05 182.78 218.32 180.94"/><polygon class="cls-3" points="214.51 186.46 210.35 183.04 211.23 182.56 216.26 185.49 214.51 186.46"/><polygon class="cls-3" points="272.95 193.13 276.55 194.76 275.74 196 272.56 194.49 272.95 193.13"/><polygon class="cls-3" points="282.94 185.89 278.43 184.41 278.04 185.77 281.65 186.93 282.94 185.89"/><polygon class="cls-3" points="246.26 241.67 242.93 238.16 243.81 237.68 246.61 240.7 246.26 241.67"/><polygon class="cls-3" points="251.7 233.34 248.41 229.44 248.02 230.8 250.87 234.33 251.7 233.34"/><polygon class="cls-2" points="389.59 276.54 398.36 263.27 377.44 248.62 377.4 248.6 373.67 245.98 372.65 245.27 332.8 306.72 344.74 315.34 345.86 316.14 357.73 324.74 379.25 292.19 380.65 290.06 382.07 287.92 383.48 285.79 384.88 283.66 386.3 281.53 387.7 279.4 389.11 277.27 389.57 276.57 389.59 276.54"/><rect class="cls-4" x="374.27" y="279.07" width="0.25" height="14.57" transform="translate(-79.04 415.09) rotate(-53.26)"/><rect class="cls-4" x="379.94" y="270.32" width="0.25" height="14.48" transform="translate(-69.71 416.1) rotate(-53.26)"/><rect class="cls-4" x="378.52" y="272.5" width="0.25" height="14.5" transform="translate(-72.04 415.84) rotate(-53.26)"/><rect class="cls-4" x="384.21" y="263.76" width="0.25" height="14.39" transform="translate(-62.7 416.86) rotate(-53.26)"/><rect class="cls-4" x="382.79" y="265.94" width="0.25" height="14.43" transform="translate(-65.04 416.61) rotate(-53.26)"/><polygon class="cls-4" points="381.35 262.39 381.51 262.19 392.78 271.11 392.63 271.31 381.35 262.39"/><rect class="cls-4" x="385.62" y="261.57" width="0.25" height="14.37" transform="translate(-60.37 417.12) rotate(-53.26)"/><polygon class="cls-4" points="382.68 260.36 382.82 260.17 394.4 268.57 394.25 268.76 382.68 260.36"/><rect class="cls-4" x="389.9" y="255.04" width="0.25" height="14.29" transform="translate(-52.84 419.45) rotate(-53.46)"/><rect class="cls-4" x="381.36" y="268.13" width="0.25" height="14.45" transform="matrix(0.6, -0.8, 0.8, 0.6, -67.37, 416.35)"/><rect class="cls-4" x="375.69" y="276.88" width="0.25" height="14.55" transform="translate(-76.71 415.34) rotate(-53.26)"/><polygon class="cls-4" points="369.99 276.71 369.98 276.7 370.2 276.58 369.99 276.71"/><rect class="cls-4" x="377.11" y="274.68" width="0.25" height="14.53" transform="translate(-74.36 415.59) rotate(-53.26)"/><polygon class="cls-4" points="369.28 277.69 369.29 277.68 369.53 277.74 369.28 277.69"/><polygon class="cls-4" points="355.04 272.75 355.19 272.54 367.69 282.02 367.54 282.22 355.04 272.75"/><polygon class="cls-4" points="361.04 263.36 361.19 263.16 373.6 272.58 373.46 272.77 361.04 263.36"/><polygon class="cls-4" points="359.54 265.69 359.69 265.5 372.13 274.93 371.98 275.13 359.54 265.69"/><rect class="cls-4" x="371.64" y="253.14" width="0.25" height="15.5" transform="translate(-60.92 398.96) rotate(-52.76)"/><rect class="cls-4" x="370.14" y="255.48" width="0.25" height="15.53" transform="translate(-63.38 398.7) rotate(-52.76)"/><rect class="cls-4" x="374.52" y="248.63" width="0.25" height="15.49" transform="translate(-59.77 388.17) rotate(-51.26)"/><rect class="cls-4" x="373.12" y="250.81" width="0.25" height="15.47" transform="translate(-58.46 399.21) rotate(-52.76)"/><rect class="cls-4" x="376.08" y="246.26" width="0.25" height="15.4" transform="translate(-51.57 405.72) rotate(-53.56)"/><rect class="cls-4" x="377.71" y="243.74" width="0.25" height="15.39" transform="translate(-50.2 402.3) rotate(-53.06)"/><rect class="cls-4" x="368.65" y="257.83" width="0.25" height="15.56" transform="translate(-65.85 398.44) rotate(-52.76)"/><rect class="cls-4" x="362.69" y="267.19" width="0.25" height="15.67" transform="translate(-75.7 397.41) rotate(-52.76)"/><polygon class="cls-4" points="357.25 266.46 357.24 266.46 357.46 266.34 357.25 266.46"/><polygon class="cls-4" points="358.03 268.04 358.19 267.84 370.65 277.29 370.49 277.49 358.03 268.04"/><rect class="cls-4" x="341.21" y="299.98" width="0.25" height="14.93" transform="translate(-108.75 399.38) rotate(-53.56)"/><rect class="cls-4" x="347.11" y="290.98" width="0.25" height="14.83" transform="matrix(0.59, -0.8, 0.8, 0.59, -99.07, 400.46)"/><rect class="cls-4" x="345.65" y="293.22" width="0.25" height="14.86" transform="translate(-101.48 400.2) rotate(-53.56)"/><polygon class="cls-4" points="345.68 287.28 345.83 287.09 357.68 295.86 357.53 296.06 345.68 287.28"/><polygon class="cls-4" points="344.19 289.54 344.34 289.34 356.21 298.14 356.06 298.34 344.19 289.54"/><polygon class="cls-4" points="348.65 282.77 348.8 282.57 360.38 291.67 360.23 291.87 348.65 282.77"/><polygon class="cls-4" points="347.16 285.03 347.31 284.83 359.14 293.58 359 293.79 347.16 285.03"/><polygon class="cls-4" points="350.02 280.69 350.17 280.49 362.07 289.04 361.93 289.25 350.02 280.69"/><rect class="cls-4" x="357.47" y="275.18" width="0.25" height="14.64" transform="translate(-81.66 403.89) rotate(-53.76)"/><polygon class="cls-4" points="342.7 291.8 342.85 291.6 354.75 300.41 354.59 300.61 342.7 291.8"/><polygon class="cls-4" points="336.75 300.82 336.9 300.62 348.87 309.49 348.73 309.69 336.75 300.82"/><polygon class="cls-4" points="337.07 297.62 337.06 297.61 337.28 297.49 337.07 297.62"/><rect class="cls-4" x="344.16" y="295.47" width="0.25" height="14.88" transform="translate(-103.91 399.92) rotate(-53.56)"/><polygon class="cls-4" points="348.64 311.78 348.79 311.59 360.65 320.32 360.51 320.52 348.64 311.78"/><polygon class="cls-4" points="354.55 302.87 354.69 302.66 366.47 311.34 366.33 311.54 354.55 302.87"/><polygon class="cls-4" points="353.07 305.09 353.21 304.89 365.02 313.58 364.87 313.78 353.07 305.09"/><rect class="cls-4" x="364.79" y="293.14" width="0.25" height="14.55" transform="translate(-93.52 415.5) rotate(-53.56)"/><rect class="cls-4" x="363.32" y="295.37" width="0.25" height="14.58" transform="translate(-95.92 415.23) rotate(-53.56)"/><rect class="cls-4" x="367.56" y="288.79" width="0.25" height="14.52" transform="translate(-92.04 403.24) rotate(-51.96)"/><rect class="cls-4" x="366.25" y="290.92" width="0.25" height="14.52" transform="translate(-91.13 415.77) rotate(-53.56)"/><rect class="cls-4" x="369.1" y="286.54" width="0.25" height="14.46" transform="translate(-84.22 424.22) rotate(-54.56)"/><polygon class="cls-4" points="364.91 287.24 365.06 287.03 376.72 295.56 376.58 295.76 364.91 287.24"/><rect class="cls-4" x="361.84" y="297.59" width="0.25" height="14.6" transform="translate(-98.32 414.95) rotate(-53.56)"/><rect class="cls-4" x="355.98" y="306.48" width="0.25" height="14.71" transform="translate(-107.9 413.86) rotate(-53.56)"/><polygon class="cls-4" points="350.09 306.29 350.09 306.28 350.31 306.16 350.09 306.29"/><polygon class="cls-4" points="351.59 307.32 351.74 307.13 363.56 315.82 363.41 316.02 351.59 307.32"/><path class="cls-3" d="M360.78,323.73l-.47-.89-.72.13h0l19-29.16.74-1.14,17.74-27.2h0l1.15.35.65-2.71-12-8.65-1.37-1h0l-12.82-9.27-2.48,1.42.48.89.58-.1-37.46,57.44-1-.32-.65,2.7,12.59,9.1,1.12.8,12.44,9Zm35.93-59.15-18,27.64L367,284.39l19.45-29.19,9.76,7.11ZM373.78,246l11.31,8.24h0l-19.35,29.33-12.28-8.24,19-29.07Zm-39,61.09-.5-2.42h0l18.22-27.89,12.36,8.1-19.66,29.8Zm22.46,16.34-10.92-7.95,19.82-29.76,11.76,7.7-19.47,29.8Z"/><polygon class="cls-2" points="360.26 255.85 369.04 242.58 348.11 227.93 348.07 227.9 344.34 225.29 343.33 224.58 303.48 286.02 315.42 294.65 316.53 295.45 328.41 304.04 349.92 271.49 351.33 269.36 352.75 267.23 354.15 265.1 355.56 262.96 356.97 260.84 358.38 258.71 359.79 256.58 360.25 255.88 360.26 255.85"/><polygon class="cls-4" points="339.16 261.45 339.31 261.24 350.99 269.96 350.84 270.16 339.16 261.45"/><rect class="cls-4" x="350.6" y="249.67" width="0.25" height="14.48" transform="translate(-65.16 383.6) rotate(-53.17)"/><rect class="cls-4" x="349.18" y="251.85" width="0.25" height="14.5" transform="translate(-67.48 383.34) rotate(-53.17)"/><rect class="cls-4" x="354.89" y="243.07" width="0.25" height="14.39" transform="translate(-57.9 385.05) rotate(-53.26)"/><rect class="cls-4" x="353.47" y="245.26" width="0.25" height="14.43" transform="translate(-60.24 384.8) rotate(-53.26)"/><polygon class="cls-4" points="352.03 241.69 352.19 241.5 363.46 250.43 363.31 250.63 352.03 241.69"/><rect class="cls-4" x="356.3" y="240.88" width="0.25" height="14.37" transform="translate(-55.57 385.3) rotate(-53.26)"/><polygon class="cls-4" points="353.36 239.67 353.5 239.47 365.08 247.87 364.93 248.08 353.36 239.67"/><rect class="cls-4" x="360.58" y="234.35" width="0.25" height="14.29" transform="translate(-48.08 387.52) rotate(-53.46)"/><rect class="cls-4" x="352.05" y="247.44" width="0.25" height="14.45" transform="translate(-62.57 384.55) rotate(-53.26)"/><rect class="cls-4" x="346.34" y="256.23" width="0.25" height="14.55" transform="translate(-72.14 382.83) rotate(-53.17)"/><polygon class="cls-4" points="340.67 256.03 340.66 256.02 340.88 255.9 340.67 256.03"/><rect class="cls-4" x="347.75" y="254.04" width="0.25" height="14.52" transform="translate(-69.82 383.08) rotate(-53.17)"/><polygon class="cls-4" points="339.96 257.01 339.97 257 340.21 257.06 339.96 257.01"/><polygon class="cls-4" points="325.71 252.05 325.87 251.85 338.37 261.33 338.21 261.53 325.71 252.05"/><polygon class="cls-4" points="331.72 242.67 331.86 242.46 344.28 251.89 344.13 252.09 331.72 242.67"/><polygon class="cls-4" points="330.22 245.01 330.37 244.81 342.81 254.25 342.66 254.44 330.22 245.01"/><rect class="cls-4" x="342.32" y="232.46" width="0.25" height="15.5" transform="translate(-56.03 367.45) rotate(-52.76)"/><rect class="cls-4" x="340.82" y="234.8" width="0.25" height="15.53" transform="translate(-58.5 367.19) rotate(-52.76)"/><rect class="cls-4" x="345.2" y="227.94" width="0.25" height="15.49" transform="translate(-54.6 357.55) rotate(-51.26)"/><rect class="cls-4" x="343.8" y="230.13" width="0.25" height="15.47" transform="translate(-53.57 367.7) rotate(-52.76)"/><rect class="cls-4" x="346.76" y="225.57" width="0.25" height="15.4" transform="translate(-46.83 373.74) rotate(-53.56)"/><rect class="cls-4" x="348.38" y="223.06" width="0.25" height="15.39" transform="translate(-45.38 370.61) rotate(-53.06)"/><rect class="cls-4" x="339.33" y="237.14" width="0.25" height="15.56" transform="translate(-60.96 366.93) rotate(-52.76)"/><rect class="cls-4" x="333.36" y="246.5" width="0.25" height="15.67" transform="translate(-70.81 365.9) rotate(-52.76)"/><polygon class="cls-4" points="327.93 245.78 327.92 245.77 328.14 245.65 327.93 245.78"/><polygon class="cls-4" points="328.71 247.36 328.87 247.16 341.33 256.6 341.17 256.8 328.71 247.36"/><rect class="cls-4" x="311.89" y="279.29" width="0.25" height="14.93" transform="translate(-104.01 367.4) rotate(-53.56)"/><rect class="cls-4" x="317.79" y="270.29" width="0.25" height="14.83" transform="translate(-94.34 368.47) rotate(-53.56)"/><rect class="cls-4" x="316.31" y="272.53" width="0.25" height="14.86" transform="translate(-96.75 368.2) rotate(-53.56)"/><polygon class="cls-4" points="316.36 266.6 316.5 266.39 328.35 275.17 328.21 275.37 316.36 266.6"/><polygon class="cls-4" points="314.87 268.86 315.01 268.65 326.89 277.44 326.74 277.65 314.87 268.86"/><polygon class="cls-4" points="319.33 262.09 319.48 261.89 331.06 270.99 330.91 271.18 319.33 262.09"/><polygon class="cls-4" points="317.84 264.34 317.99 264.14 329.82 272.9 329.68 273.11 317.84 264.34"/><polygon class="cls-4" points="320.71 260.01 320.85 259.81 332.75 268.36 332.6 268.55 320.71 260.01"/><rect class="cls-4" x="328.14" y="254.48" width="0.25" height="14.64" transform="translate(-76.95 371.78) rotate(-53.76)"/><polygon class="cls-4" points="313.38 271.11 313.52 270.91 325.42 279.73 325.27 279.92 313.38 271.11"/><polygon class="cls-4" points="307.43 280.13 307.58 279.93 319.55 288.8 319.41 289.01 307.43 280.13"/><polygon class="cls-4" points="307.74 276.93 307.74 276.92 307.96 276.8 307.74 276.93"/><rect class="cls-4" x="314.84" y="274.78" width="0.25" height="14.88" transform="translate(-99.17 367.93) rotate(-53.56)"/><polygon class="cls-4" points="319.32 291.1 319.47 290.91 331.33 299.63 331.17 299.83 319.32 291.1"/><polygon class="cls-4" points="325.22 282.17 325.37 281.98 337.15 290.65 337 290.85 325.22 282.17"/><polygon class="cls-4" points="323.75 284.41 323.89 284.2 335.7 292.89 335.55 293.09 323.75 284.41"/><rect class="cls-4" x="335.47" y="272.45" width="0.25" height="14.55" transform="translate(-88.78 383.52) rotate(-53.56)"/><rect class="cls-4" x="334" y="274.68" width="0.25" height="14.58" transform="translate(-91.19 383.24) rotate(-53.56)"/><rect class="cls-4" x="338.24" y="268.11" width="0.25" height="14.52" transform="translate(-87 372.21) rotate(-51.96)"/><rect class="cls-4" x="336.93" y="270.24" width="0.25" height="14.52" transform="translate(-86.4 383.78) rotate(-53.56)"/><polygon class="cls-4" points="333.99 268.97 334.12 268.77 345.89 277.18 345.74 277.39 333.99 268.97"/><polygon class="cls-4" points="335.59 266.55 335.74 266.35 347.4 274.88 347.25 275.07 335.59 266.55"/><rect class="cls-4" x="332.52" y="276.91" width="0.25" height="14.6" transform="translate(-93.59 382.97) rotate(-53.56)"/><rect class="cls-4" x="326.66" y="285.8" width="0.25" height="14.71" transform="matrix(0.59, -0.8, 0.8, 0.59, -103.16, 381.88)"/><polygon class="cls-4" points="320.77 285.6 320.77 285.59 320.99 285.47 320.77 285.6"/><polygon class="cls-4" points="322.27 286.64 322.42 286.43 334.24 295.13 334.09 295.34 322.27 286.64"/><path class="cls-3" d="M331.45,303l-.46-.89-.72.13h0l19-29.15L350,272l17.74-27.2h0l1.15.35.65-2.7-12-8.65-1.36-1h0l-12.82-9.28L340.92,225l.47.89.59-.11-37.46,57.45-1-.32-.65,2.69,12.59,9.1,1.11.81,12.45,9Zm35.94-59.14-18.05,27.64-11.64-7.83,19.45-29.19,9.77,7.1Zm-22.93-18.62,11.31,8.23h0l-19.35,29.34-12.28-8.24,19-29.08Zm-39,61.08-.49-2.42h0L323.18,256l12.37,8.11L315.89,294Zm22.46,16.34L317,294.75,336.83,265l11.75,7.7-19.46,29.8Z"/><polygon class="cls-2" points="330.94 235.16 339.72 221.9 318.79 207.24 318.76 207.22 315.02 204.6 314.01 203.9 274.16 265.34 286.1 273.96 287.21 274.77 299.09 283.36 320.6 250.81 322.01 248.68 323.43 246.54 324.83 244.41 326.24 242.28 327.65 240.16 329.06 238.03 330.47 235.89 330.93 235.19 330.94 235.16"/><polygon class="cls-4" points="309.84 240.75 309.99 240.55 321.66 249.27 321.51 249.48 309.84 240.75"/><polygon class="cls-4" points="315.55 231.97 315.7 231.78 327.31 240.44 327.15 240.64 315.55 231.97"/><polygon class="cls-4" points="314.13 234.17 314.27 233.96 325.89 242.64 325.75 242.84 314.13 234.17"/><rect class="cls-4" x="325.54" y="222.41" width="0.25" height="14.39" transform="translate(-53.34 352.61) rotate(-53.17)"/><rect class="cls-4" x="324.12" y="224.6" width="0.25" height="14.43" transform="translate(-55.68 352.35) rotate(-53.17)"/><polygon class="cls-4" points="322.71 221.01 322.86 220.81 334.14 229.74 333.98 229.93 322.71 221.01"/><rect class="cls-4" x="326.96" y="220.23" width="0.25" height="14.37" transform="translate(-51.02 352.86) rotate(-53.17)"/><polygon class="cls-4" points="324.03 218.99 324.18 218.79 335.76 227.19 335.61 227.4 324.03 218.99"/><rect class="cls-4" x="331.3" y="213.6" width="0.25" height="14.29" transform="translate(-43.14 355.94) rotate(-53.51)"/><rect class="cls-4" x="322.7" y="226.8" width="0.25" height="14.45" transform="translate(-58.02 352.1) rotate(-53.17)"/><rect class="cls-4" x="317.02" y="235.54" width="0.25" height="14.55" transform="translate(-67.33 351.08) rotate(-53.17)"/><polygon class="cls-4" points="311.33 235.34 311.33 235.33 311.55 235.21 311.33 235.34"/><polygon class="cls-4" points="312.69 236.36 312.85 236.16 324.48 244.85 324.33 245.05 312.69 236.36"/><polygon class="cls-4" points="310.64 236.32 310.64 236.3 310.88 236.38 310.64 236.32"/><polygon class="cls-4" points="296.39 231.37 296.55 231.17 309.05 240.65 308.89 240.85 296.39 231.37"/><polygon class="cls-4" points="302.39 221.98 302.54 221.78 314.96 231.2 314.81 231.4 302.39 221.98"/><polygon class="cls-4" points="300.89 224.32 301.05 224.12 313.48 233.56 313.34 233.75 300.89 224.32"/><rect class="cls-4" x="313" y="211.77" width="0.25" height="15.5" transform="translate(-51.13 335.94) rotate(-52.76)"/><rect class="cls-4" x="311.5" y="214.12" width="0.25" height="15.53" transform="translate(-53.6 335.68) rotate(-52.76)"/><polygon class="cls-4" points="309.91 210.24 310.07 210.06 322.13 219.75 321.98 219.95 309.91 210.24"/><rect class="cls-4" x="314.48" y="209.44" width="0.25" height="15.47" transform="translate(-48.68 336.2) rotate(-52.76)"/><rect class="cls-4" x="317.44" y="204.88" width="0.25" height="15.4" transform="translate(-42.09 341.76) rotate(-53.56)"/><rect class="cls-4" x="319.03" y="202.41" width="0.25" height="15.39" transform="translate(-40.8 338.32) rotate(-52.96)"/><rect class="cls-4" x="310.01" y="216.45" width="0.25" height="15.56" transform="translate(-56.06 335.42) rotate(-52.76)"/><rect class="cls-4" x="304.05" y="225.81" width="0.25" height="15.67" transform="matrix(0.61, -0.8, 0.8, 0.61, -65.91, 334.39)"/><polygon class="cls-4" points="298.61 225.1 298.6 225.09 298.82 224.97 298.61 225.1"/><polygon class="cls-4" points="299.39 226.67 299.54 226.47 312 235.92 311.85 236.12 299.39 226.67"/><rect class="cls-4" x="282.57" y="258.6" width="0.25" height="14.93" transform="translate(-99.27 335.42) rotate(-53.56)"/><rect class="cls-4" x="288.46" y="249.6" width="0.25" height="14.83" transform="translate(-89.6 336.48) rotate(-53.56)"/><rect class="cls-4" x="286.99" y="251.85" width="0.25" height="14.86" transform="translate(-92.01 336.22) rotate(-53.56)"/><polygon class="cls-4" points="287.03 245.91 287.18 245.71 299.04 254.48 298.88 254.68 287.03 245.91"/><polygon class="cls-4" points="285.55 248.17 285.69 247.96 297.57 256.76 297.42 256.97 285.55 248.17"/><polygon class="cls-4" points="290 241.4 290.16 241.21 301.74 250.29 301.59 250.49 290 241.4"/><polygon class="cls-4" points="288.52 243.66 288.67 243.45 300.5 252.22 300.35 252.41 288.52 243.66"/><polygon class="cls-4" points="291.38 239.31 291.53 239.12 303.42 247.67 303.27 247.87 291.38 239.31"/><rect class="cls-4" x="298.82" y="233.8" width="0.25" height="14.64" transform="translate(-72.26 339.68) rotate(-53.76)"/><polygon class="cls-4" points="284.06 250.43 284.2 250.22 296.09 259.03 295.95 259.24 284.06 250.43"/><polygon class="cls-4" points="278.1 259.44 278.26 259.24 290.24 268.12 290.08 268.32 278.1 259.44"/><polygon class="cls-4" points="278.41 256.25 278.41 256.24 278.63 256.12 278.41 256.25"/><rect class="cls-4" x="285.51" y="254.1" width="0.25" height="14.88" transform="translate(-94.44 335.95) rotate(-53.56)"/><polygon class="cls-4" points="289.99 270.42 290.14 270.21 302 278.94 301.85 279.15 289.99 270.42"/><polygon class="cls-4" points="295.9 261.49 296.05 261.3 307.83 269.96 307.68 270.17 295.9 261.49"/><polygon class="cls-4" points="294.42 263.72 294.58 263.52 306.38 272.21 306.23 272.4 294.42 263.72"/><rect class="cls-4" x="306.14" y="251.76" width="0.25" height="14.55" transform="translate(-84.04 351.53) rotate(-53.56)"/><rect class="cls-4" x="304.67" y="253.99" width="0.25" height="14.58" transform="matrix(0.59, -0.8, 0.8, 0.59, -86.45, 351.25)"/><rect class="cls-4" x="308.92" y="247.41" width="0.25" height="14.52" transform="translate(-81.96 341.17) rotate(-51.96)"/><rect class="cls-4" x="307.6" y="249.54" width="0.25" height="14.52" transform="translate(-81.66 351.79) rotate(-53.56)"/><polygon class="cls-4" points="304.67 248.28 304.81 248.08 316.56 256.5 316.42 256.69 304.67 248.28"/><polygon class="cls-4" points="306.27 245.86 306.42 245.66 318.07 254.19 317.94 254.39 306.27 245.86"/><rect class="cls-4" x="303.2" y="256.21" width="0.25" height="14.6" transform="translate(-88.85 350.97) rotate(-53.56)"/><rect class="cls-4" x="297.33" y="265.11" width="0.25" height="14.71" transform="translate(-98.42 349.89) rotate(-53.56)"/><polygon class="cls-4" points="291.45 264.92 291.45 264.91 291.67 264.79 291.45 264.92"/><polygon class="cls-4" points="292.94 265.94 293.1 265.75 304.91 274.45 304.77 274.65 292.94 265.94"/><path class="cls-3" d="M302.13,282.36l-.46-.9-.72.13h0l19-29.15.74-1.15,17.74-27.2h0l1.15.35.65-2.71-12-8.64-1.36-1h0l-12.82-9.27-2.48,1.42.47.89.59-.1L275.2,262.5l-1.05-.33-.65,2.7,12.59,9.1,1.11.8,12.45,9Zm35.93-59.16-18,27.65L308.38,243l19.45-29.2,9.76,7.11Zm-22.92-18.62,11.3,8.24h0l-19.35,29.34-12.28-8.25,19-29.07Zm-39,61.09-.49-2.42h0l18.21-27.89,12.37,8.11-19.66,29.79ZM298.6,282l-10.92-8,19.83-29.76,11.75,7.7L299.8,281.8Z"/><polygon class="cls-2" points="301.62 214.48 310.4 201.21 289.47 186.56 289.44 186.53 285.7 183.92 284.69 183.21 244.84 244.66 256.78 253.28 257.89 254.08 269.77 262.67 291.28 230.13 292.69 227.99 294.11 225.86 295.51 223.73 296.92 221.59 298.33 219.47 299.74 217.34 301.15 215.21 301.61 214.51 301.62 214.48"/><polygon class="cls-4" points="280.52 220.07 280.67 219.87 292.34 228.59 292.19 228.78 280.52 220.07"/><polygon class="cls-4" points="286.23 211.29 286.38 211.09 297.99 219.75 297.83 219.95 286.23 211.29"/><polygon class="cls-4" points="284.8 213.48 284.96 213.28 296.57 221.96 296.42 222.16 284.8 213.48"/><polygon class="cls-4" points="290.53 204.7 290.68 204.51 302.22 213.13 302.06 213.32 290.53 204.7"/><rect class="cls-4" x="294.8" y="203.91" width="0.25" height="14.43" transform="translate(-50.87 320.6) rotate(-53.17)"/><polygon class="cls-4" points="293.39 200.33 293.54 200.13 304.81 209.05 304.66 209.25 293.39 200.33"/><rect class="cls-4" x="297.64" y="199.54" width="0.25" height="14.37" transform="translate(-46.2 321.11) rotate(-53.17)"/><rect class="cls-4" x="300.42" y="195.27" width="0.25" height="14.3" transform="translate(-39.96 326.35) rotate(-53.96)"/><polygon class="cls-4" points="296.26 195.93 296.41 195.72 307.89 204.23 307.75 204.44 296.26 195.93"/><rect class="cls-4" x="293.37" y="206.11" width="0.25" height="14.45" transform="translate(-53.2 320.34) rotate(-53.17)"/><rect class="cls-4" x="287.7" y="214.85" width="0.25" height="14.55" transform="translate(-62.51 319.33) rotate(-53.17)"/><polygon class="cls-4" points="282.01 214.66 282.01 214.65 282.23 214.53 282.01 214.66"/><polygon class="cls-4" points="283.38 215.68 283.52 215.47 295.16 224.16 295.01 224.37 283.38 215.68"/><polygon class="cls-4" points="281.32 215.63 281.32 215.62 281.56 215.68 281.32 215.63"/><polygon class="cls-4" points="267.07 210.68 267.22 210.48 279.72 219.96 279.57 220.15 267.07 210.68"/><polygon class="cls-4" points="273.07 201.29 273.23 201.09 285.64 210.52 285.49 210.72 273.07 201.29"/><polygon class="cls-4" points="271.57 203.63 271.73 203.44 284.16 212.87 284.01 213.07 271.57 203.63"/><rect class="cls-4" x="283.67" y="191.08" width="0.25" height="15.5" transform="translate(-46.24 304.43) rotate(-52.76)"/><rect class="cls-4" x="282.18" y="193.43" width="0.25" height="15.53" transform="translate(-48.71 304.17) rotate(-52.76)"/><polygon class="cls-4" points="280.58 189.56 280.73 189.37 292.81 199.07 292.66 199.27 280.58 189.56"/><rect class="cls-4" x="285.16" y="188.75" width="0.25" height="15.47" transform="translate(-43.78 304.68) rotate(-52.76)"/><rect class="cls-4" x="288.11" y="184.19" width="0.25" height="15.4" transform="translate(-37.35 309.76) rotate(-53.56)"/><rect class="cls-4" x="289.71" y="181.72" width="0.25" height="15.39" transform="translate(-35.95 306.68) rotate(-52.96)"/><rect class="cls-4" x="280.69" y="195.77" width="0.25" height="15.56" transform="translate(-51.17 303.92) rotate(-52.76)"/><rect class="cls-4" x="274.73" y="205.13" width="0.25" height="15.67" transform="translate(-61.02 302.89) rotate(-52.76)"/><polygon class="cls-4" points="269.28 204.4 269.28 204.39 269.5 204.27 269.28 204.4"/><polygon class="cls-4" points="270.07 205.98 270.22 205.78 282.67 215.23 282.53 215.42 270.07 205.98"/><rect class="cls-4" x="253.24" y="237.91" width="0.25" height="14.93" transform="translate(-94.53 303.43) rotate(-53.56)"/><rect class="cls-4" x="259.14" y="228.91" width="0.25" height="14.83" transform="translate(-84.86 304.5) rotate(-53.56)"/><rect class="cls-4" x="257.67" y="231.16" width="0.25" height="14.86" transform="translate(-87.27 304.24) rotate(-53.56)"/><polygon class="cls-4" points="257.71 225.22 257.86 225.02 269.71 233.8 269.56 234 257.71 225.22"/><polygon class="cls-4" points="256.22 227.48 256.37 227.28 268.25 236.08 268.1 236.27 256.22 227.48"/><polygon class="cls-4" points="260.68 220.71 260.84 220.51 272.42 229.61 272.27 229.81 260.68 220.71"/><polygon class="cls-4" points="259.2 222.97 259.34 222.77 271.17 231.53 271.03 231.73 259.2 222.97"/><polygon class="cls-4" points="262.06 218.63 262.2 218.43 274.1 226.98 273.95 227.19 262.06 218.63"/><rect class="cls-4" x="269.5" y="213.12" width="0.25" height="14.64" transform="translate(-67.57 307.57) rotate(-53.76)"/><polygon class="cls-4" points="254.73 229.73 254.88 229.54 266.77 238.35 266.63 238.54 254.73 229.73"/><polygon class="cls-4" points="248.78 238.75 248.94 238.56 260.91 247.43 260.76 247.63 248.78 238.75"/><polygon class="cls-4" points="249.09 235.56 249.09 235.55 249.31 235.43 249.09 235.56"/><rect class="cls-4" x="256.19" y="233.41" width="0.25" height="14.88" transform="translate(-89.7 303.96) rotate(-53.56)"/><polygon class="cls-4" points="260.67 249.73 260.82 249.53 272.68 258.25 272.53 258.46 260.67 249.73"/><polygon class="cls-4" points="266.58 240.8 266.72 240.6 278.51 249.28 278.36 249.48 266.58 240.8"/><polygon class="cls-4" points="265.1 243.03 265.25 242.82 277.06 251.51 276.91 251.72 265.1 243.03"/><rect class="cls-4" x="276.82" y="231.07" width="0.25" height="14.55" transform="translate(-79.31 319.54) rotate(-53.56)"/><rect class="cls-4" x="275.35" y="233.3" width="0.25" height="14.58" transform="translate(-81.71 319.27) rotate(-53.56)"/><rect class="cls-4" x="279.6" y="226.73" width="0.25" height="14.52" transform="translate(-76.92 310.14) rotate(-51.96)"/><rect class="cls-4" x="278.28" y="228.86" width="0.25" height="14.52" transform="translate(-76.92 319.81) rotate(-53.56)"/><polygon class="cls-4" points="275.35 227.6 275.49 227.4 287.24 235.81 287.1 236.01 275.35 227.6"/><polygon class="cls-4" points="276.95 225.18 277.09 224.98 288.76 233.5 288.61 233.71 276.95 225.18"/><rect class="cls-4" x="273.88" y="235.53" width="0.25" height="14.6" transform="translate(-84.11 318.99) rotate(-53.56)"/><rect class="cls-4" x="268.01" y="244.42" width="0.25" height="14.71" transform="translate(-93.68 317.9) rotate(-53.56)"/><polygon class="cls-4" points="262.13 244.22 262.12 244.21 262.34 244.09 262.13 244.22"/><polygon class="cls-4" points="263.62 245.26 263.78 245.06 275.59 253.76 275.45 253.96 263.62 245.26"/><path class="cls-3" d="M272.82,261.67l-.47-.89-.72.13h0l19-29.15.74-1.15,17.74-27.2h0l1.15.35.65-2.7-12-8.65-1.36-1h0l-12.82-9.27-2.48,1.42.47.89.59-.11-37.46,57.45-1-.32-.65,2.69,12.59,9.1,1.11.81,12.45,9Zm35.92-59.15-18,27.64-11.64-7.83,19.45-29.19,9.76,7.11ZM285.82,183.9l11.3,8.23h0l-19.35,29.34-12.28-8.24,19-29.08Zm-39,61.09-.49-2.42h0l18.21-27.89,12.37,8.1-19.66,29.8Zm22.46,16.34-10.92-7.95,19.83-29.76,11.75,7.7-19.46,29.8Z"/><polygon class="cls-3" points="306.56 215.38 302.25 212.69 301.34 213.87 305.87 216.44 306.56 215.38"/><polygon class="cls-3" points="281.26 253.33 277.89 251.29 277.3 252.2 280.43 254.48 281.26 253.33"/><polygon class="cls-3" points="294.47 234.03 290.67 230.78 290.17 232.16 293.84 235.28 294.47 234.03"/><polygon class="cls-3" points="337.25 234.23 332.93 231.53 332.02 232.71 336.56 235.28 337.25 234.23"/><polygon class="cls-3" points="323.94 254.34 320.15 251.09 319.64 252.47 323.32 255.59 323.94 254.34"/><polygon class="cls-3" points="281.26 253.33 277.89 251.29 277.3 252.2 280.43 254.48 281.26 253.33"/><polygon class="cls-3" points="310.9 274.16 307.23 271.58 306.69 272.56 310.12 275.4 310.9 274.16"/><polygon class="cls-3" points="340.16 294.17 336.49 291.59 335.95 292.57 339.38 295.42 340.16 294.17"/><polygon class="cls-3" points="353.49 274.53 349.7 271.28 349.19 272.66 352.87 275.78 353.49 274.53"/><polygon class="cls-3" points="366.84 253.96 362.79 251.78 361.77 252.9 366.06 254.94 366.84 253.96"/><polygon class="cls-3" points="237.85 187.04 241.53 189.19 240.92 191.83 234.88 187.82 237.85 187.04"/><polygon class="cls-3" points="229.65 201.29 233.34 203.43 235.28 201.06 229.76 197.85 229.65 201.29"/><path class="cls-2" d="M222.78,215.79l15.1,21.79,5,2.41,38.73-58.5-5.52-3.2-27.7-3.61Zm47.29-32.52,1.22,3.71-27.57,43.49-4.5-1.61-5.3-10.09-1.11-7.15L251,184.22l4.1-2.62Z"/><polygon class="cls-2" points="229.65 201.29 237.85 187.04 218.53 180.32 214.34 186.38 229.65 201.29"/><polygon class="cls-5" points="197.62 97.6 198.98 98 199.77 95.28 199.29 94.41 197.93 94.01 195.78 96.33 196.26 97.21 173.78 128.97 175.14 129.36 197.62 97.6"/><polygon class="cls-5" points="167.56 130.1 173.92 120.9 172.95 119.15 176.76 113.63 175.41 113.24 171.59 118.76 169.36 118.84 164.28 126.2 162.92 125.81 164.19 123.97 162.83 123.57 155.21 134.61 167.56 130.1"/><path class="cls-5" d="M189.12,132a4.56,4.56,0,0,1,1.66-3.2,4.86,4.86,0,0,1,2.63-1.44,5.62,5.62,0,0,1,4.07,1.18,8.39,8.39,0,0,1,2.81,3c0,2.69-.09,5.38-.14,8.06C193.36,138.42,189.05,135,189.12,132Z"/><path class="cls-5" d="M180.16,223.6l1.75-1,2.32,2.14,2.94-5-1.84-1.27,8.41-13.75,5.92,2.45L206,198l-5.21-3.2-1.67-1-9.64,5.3-9.33,1.7-14.85-2.1-10.64-9s-9.38-10.82-9.86-11.7-3.19-24.49-3.19-24.49l-4.38,2.41-2.46,5.91-3.19-1.66-2.07,4.55-5-2.93-2.06,4.55-1.84-1.27-.88.48-.79,2.72-1.49.05-.74,0,1.92,3.5-.87.48,4.16,3.42,2.63-1.44a1,1,0,0,1,1.36.39l-2.3,4.78-5.16,10.73,6.4,3.33,1.31-2.25,1.63-2.79,6,4.69-1.36-.39.09,2.23,3.28,3.9,5.13,5.17,3.68,2.54-2.24.09-.88.48,1.45,2.63,5,2.94,2.71.79-.08-2.24,3.19,1.67,6.88,4.21,5,.7,2.15-2.32,3.28,3.9-1.57,5.43,6.39,3.33L177,227ZM131,179.86l-3.68-2.54.79-2.71,5,2.93Zm-9.43,5.38,5.71,2.38-2.15,2.32-4.49-2Zm22.35,16-.88.48,1.67-3.2,2.72.79-.79,2.72ZM154.49,208,149,204.23l1.27-1.84.87-.48,4.17,3.41.17,4.47Zm27,3.42,3.68,2.55-1.66,3.19-3.68-2.54ZM171.22,224l1.66-3.2,4.56,2.06-1.13,3.88-1.73-.79Z"/><path class="cls-4" d="M135.31,175.22l-6.4-3.33-3.73,7.75,6.4,3.33Zm-8,2.1.79-2.71,5,2.93L131,179.86Z"/><polygon class="cls-2" points="120.65 187.91 120.58 187.88 121.37 185.16 121.58 185.24 120.65 187.91"/><polygon class="cls-2" points="176.26 226.88 174.57 225.9 176.31 226.69 176.26 226.88"/><polygon class="cls-4" points="129.61 166.94 128.25 166.54 124.44 172.06 123.08 171.67 126.02 166.63 125.54 165.75 122.6 170.79 117.43 168.3 118.92 168.25 119.71 165.53 120.59 165.05 122.43 166.32 124.49 161.77 129.53 164.7 131.59 160.15 134.78 161.81 137.24 155.9 139.87 154.46 130.27 172.28 127.95 170.14 129.61 166.94"/><polygon class="cls-4" points="191.81 201.21 187.78 212.56 177.31 208.04 181.61 203.4 191.81 201.21"/><polygon class="cls-4" points="200.39 206.11 195.49 203.76 196.76 201.92 199.96 203.58 202.11 201.26 200.27 199.99 200.66 198.63 203.38 199.42 203.78 198.06 199.7 196.88 200.8 194.78 206.01 197.97 200.39 206.11"/><polygon class="cls-4" points="148.71 197.52 148.31 198.88 149.67 199.28 150.15 200.15 148.79 199.76 144.98 205.28 145.94 207.03 149.76 201.51 150.63 201.03 155.67 203.97 155.58 201.73 151.51 200.55 151.03 199.67 155.1 200.85 154.62 199.98 148.71 197.52"/><polygon class="cls-4" points="143.27 195.94 136.48 193.97 139.42 188.93 143.49 190.12 143.58 192.35 140.87 191.56 139.99 192.04 143.19 193.71 143.27 195.94"/><path class="cls-4" d="M124.83,193.53l-6.4-3.33,5.16-10.73-2,5.77-.93,2.67-.46,1.33a62.47,62.47,0,0,1,6,2Z"/><polygon class="cls-4" points="175.86 228.24 169.47 224.91 169.81 223.74 174.57 225.9 176.31 226.69 177.01 227.01 175.86 228.24"/><polyline class="cls-6" points="58.06 88.67 57.61 87.84 56.34 89.68 54.89 87.05 54.01 87.53 52.74 89.38 52.26 88.5 50.9 88.1 50.03 88.59 54.58 90.65 56.82 90.56 58.57 89.59 58.09 88.72"/><path class="cls-6" d="M38.09,87.64l-.68-1.25L33.9,88.32l-.39,1.36.09,2.23-4.08-1.18-.87.48-.4,1.36-.39,1.36s.08,2.23,1,1.75a43.8,43.8,0,0,1,4.86-1.53l3.51-1.93Z"/><polygon class="cls-6" points="43.23 85.27 41.4 85.34 41 86.7 40.61 88.06 38.37 88.14 37.98 89.5 40.7 90.29 42.71 89.01 43.23 85.27"/><polygon class="cls-6" points="67.87 52.53 67.87 52.53 66.99 53.02 66.03 51.26 66.42 51.05 67.87 52.53"/><polyline class="cls-6" points="61.25 57.53 59.98 56.87 62.04 52.31 63.4 52.71 63.88 53.58 64.84 55.34 66.11 53.5 66.99 53.02 67.47 53.89 66.2 55.73 61.34 57.26"/><polygon class="cls-6" points="74.11 67.6 72.46 67.12 73.03 70.23 75.35 72.38 76.62 70.54 74.11 67.6"/><polygon class="cls-6" points="76.39 73.42 74.48 72.86 75.75 71.02 76.23 71.9 76.39 73.42"/><path class="cls-6" d="M74.44,60.33c.87-.48.65,5.35.65,5.35l.48.88-.29,1.57L77,69.18l2.15-2.32-1-4-1.93-3.51Z"/><polygon class="cls-6" points="68.26 51.18 70.58 53.32 68.35 54.55 70.28 56.91 73.25 54.85 71.85 51.48 69.14 50.69 68.26 51.18"/><polygon class="cls-6" points="81.42 40.78 85 44.26 82.94 48.81 80.76 50.01 83.03 51.05 86.53 49.12 87.32 46.41 87.23 44.17 81.23 39.48 81.42 40.78"/><polygon class="cls-3" points="75.22 80.44 72.5 79.65 72.9 78.3 73.78 77.81 73.29 76.94 71.54 77.9 71.15 79.26 70.27 79.74 68.43 78.47 68.03 79.83 69.88 81.1 70.75 80.62 73.95 82.28 75.22 80.44"/><polygon class="cls-3" points="77.91 72.59 77.19 73.65 75.83 73.26 76.23 71.9 74.39 70.63 73.82 67.52 76.54 68.31 76.45 66.07 75.97 65.2 75.79 60.73 73.56 60.81 72.77 63.53 74 64.37 74.61 64.8 74.22 66.16 72.38 64.89 70.62 65.85 65.1 62.04 63.35 63 61.12 63.09 60.15 61.34 62.3 59.02 60.46 57.74 60.74 57.26 63.4 52.71 65.72 54.85 66.99 53.02 68.03 53.97 68.68 54.57 69.31 55.16 71.94 53.72 69.62 51.57 67.87 52.53 66.32 51.1 65.55 50.39 69.53 49.34 70.89 49.73 73.52 48.28 74 49.16 71.37 50.61 76.02 54.9 79.04 52.1 78.08 50.35 78.47 48.99 81.19 49.78 83.42 49.69 85.88 43.78 85.63 43.58 81.71 40.36 80.44 42.2 79.48 40.45 80.75 38.6 82.59 39.88 86.43 42.71 93.39 47.85 94.11 48.38 93.79 48.85 96.43 50.52 96.04 51.88 92.87 50.23 86.2 60.2 88.81 61.56 88.41 62.92 85.42 61.36 78.61 71.53 80.3 73.08 79.91 74.44 77.91 72.59"/><polygon class="cls-3" points="53.53 109.48 50.95 107.92 25.32 97.61 23.48 96.33 21.55 92.83 22.43 92.35 23.87 94.98 25.71 96.25 26.89 92.17 27.29 92.45 28.73 93.44 30.09 93.84 29.52 90.73 31.76 90.64 34.47 91.43 34.39 89.19 37.89 87.27 38.85 89.02 41.09 88.93 42.76 85.74 43.15 84.38 44.9 83.42 47.14 83.33 47.22 85.56 48.98 84.6 50.42 87.23 50.03 88.59 51.38 88.98 52.26 88.5 53.62 88.89 54.89 87.05 57.69 90.08 57.93 88.43 58.4 85.13 56.95 82.5 58.7 81.53 59.75 85.52 59.93 89.99 51.98 107.56 53.92 108.13 53.53 109.48"/><polygon class="cls-2" points="50.72 106.46 37.54 101.16 44.51 84.77 49.06 86.83 50.18 86.79 50.42 87.23 50.03 88.59 51.38 88.98 52.26 88.5 53.62 88.89 54.89 87.05 57.69 90.08 57.93 88.43 59.05 90.47 50.72 106.46"/><polygon class="cls-2" points="36.18 100.76 25.71 96.25 27.29 92.45 28.73 93.44 30.09 93.84 29.52 90.73 31.76 90.64 34.47 91.43 34.39 89.19 37.89 87.27 38.85 89.02 41.09 88.93 42.76 85.74 42.88 85.29 43.63 85.25 36.18 100.76"/><polygon class="cls-2" points="63.75 61.65 62.87 62.13 61.51 61.73 63.18 58.53 60.74 57.26 63.4 52.71 65.72 54.85 66.99 53.02 68.03 53.97 63.75 61.65"/><polygon class="cls-2" points="76.7 73.51 75.83 73.26 76.23 71.9 74.39 70.63 73.82 67.52 76.54 68.31 76.45 66.07 75.97 65.2 75.79 60.73 73.56 60.81 72.77 63.53 74 64.37 73.73 65.28 71.89 64.01 71.02 64.5 65.5 60.68 68.68 54.57 69.31 55.16 71.94 53.72 69.62 51.57 67.87 52.53 66.32 51.1 67.78 50.3 70.01 50.21 71.37 50.61 74.74 56.74 76.58 58.01 77.46 57.53 76.5 55.78 79.52 52.98 79.43 50.74 78.95 49.86 83.42 49.69 85.88 43.78 85.63 43.58 86.43 42.71 93.39 47.85 84.73 60.38 76.7 73.51"/><rect class="cls-4" x="89.06" y="42.34" width="0.25" height="8.39" transform="translate(1.21 95.32) rotate(-56.57)"/><polygon class="cls-4" points="84.5 47.08 84.62 46.86 91.37 50.76 91.24 50.98 84.5 47.08"/><rect class="cls-4" x="86.29" y="48.06" width="0.25" height="7.16" transform="translate(-4.29 95.3) rotate(-56.57)"/><polygon class="cls-4" points="78.88 49.97 79.02 49.77 87.97 55.7 87.83 55.91 78.88 49.97"/><rect class="cls-4" x="82.94" y="51.05" width="0.25" height="8.5" transform="translate(-8.85 94.16) rotate(-56.57)"/><rect class="cls-4" x="80.8" y="53.11" width="0.25" height="9.27" transform="translate(-10.42 96.99) rotate(-58.76)"/><polygon class="cls-4" points="76.73 58 76.88 57.8 83.56 62.33 83.42 62.53 76.73 58"/><polygon class="cls-4" points="71.03 54.32 71.11 54.09 73.83 54.9 73.76 55.14 71.03 54.32"/><polygon class="cls-4" points="70.39 52.33 71.26 50.55 71.49 50.67 70.61 52.44 70.39 52.33"/><rect class="cls-4" x="68.18" y="50.29" width="0.25" height="1.94" transform="translate(-8.68 14.29) rotate(-11.24)"/><polygon class="cls-4" points="69.5 51.54 69.9 50.19 70.14 50.25 69.74 51.61 69.5 51.54"/><polygon class="cls-4" points="75.88 64.3 75.99 64.07 81.01 66.44 80.91 66.67 75.88 64.3"/><polygon class="cls-4" points="67.25 57.52 67.4 57.32 73.3 61.9 73.14 62.09 67.25 57.52"/><polygon class="cls-4" points="62.38 54.47 62.51 54.25 66.58 56.6 66.44 56.82 62.38 54.47"/><polygon class="cls-4" points="66.33 54.13 66.4 53.9 67.8 54.34 67.72 54.58 66.33 54.13"/><polygon class="cls-4" points="76.51 68.13 76.55 67.89 79.79 68.37 79.75 68.62 76.51 68.13"/><polygon class="cls-4" points="66.1 59.49 66.25 59.29 73.98 64.58 73.84 64.78 66.1 59.49"/><polygon class="cls-4" points="61.13 56.61 61.25 56.39 65.37 58.73 65.25 58.95 61.13 56.61"/><rect class="cls-4" x="62.83" y="59.82" width="0.25" height="2.11" transform="translate(-21.54 37.85) rotate(-28.8)"/><polygon class="cls-4" points="76.28 72.02 76.19 71.78 78.08 71.08 78.18 71.31 76.28 72.02"/><polygon class="cls-4" points="74.26 69.85 74.28 69.6 78.76 70.05 78.74 70.29 74.26 69.85"/><polygon class="cls-4" points="38.41 99.13 38.5 98.89 51.99 104.01 51.9 104.24 38.41 99.13"/><polygon class="cls-4" points="39.69 96.13 39.77 95.89 53.72 100.67 53.64 100.91 39.69 96.13"/><polygon class="cls-4" points="41.13 92.75 41.21 92.51 55.43 97.39 55.35 97.63 41.13 92.75"/><rect class="cls-4" x="49.62" y="84.33" width="0.25" height="15.26" transform="translate(-53.92 105.55) rotate(-69.06)"/><polygon class="cls-4" points="43.78 86.48 43.88 86.26 50.54 89.34 55.51 90.06 58.55 91.42 58.45 91.66 55.42 90.29 50.46 89.58 43.78 86.48"/><polygon class="cls-4" points="26.5 94.34 26.6 94.11 37.31 98.4 37.21 98.63 26.5 94.34"/><polygon class="cls-4" points="29.63 91.73 29.75 91.52 31.91 92.77 39.02 94.82 38.95 95.06 31.81 93 29.63 91.73"/><polygon class="cls-4" points="34.4 89.32 34.39 89.07 36.7 88.98 37.2 89.89 40.52 91.77 40.39 91.99 37.02 90.08 36.55 89.24 34.4 89.32"/><rect class="cls-4" x="41.66" y="87.9" width="0.25" height="0.61" transform="translate(-46.14 45.83) rotate(-38.92)"/><polygon class="cls-4" points="68.2 55.48 68.34 55.27 74 59.33 76.27 59.25 77.25 61.03 82.44 64.13 82.32 64.34 77.07 61.22 76.12 59.5 73.92 59.59 73.89 59.56 68.2 55.48"/><g class="cls-7"><rect class="cls-4" x="137.14" y="127.47" width="78" height="78" transform="translate(-58.41 105.43) rotate(-28.8)"/></g><g class="cls-7"><circle class="cls-4" cx="175.77" cy="174.82" r="24.71" transform="translate(-62.48 106.29) rotate(-28.8)"/></g><g class="cls-7"><circle class="cls-8" cx="175.77" cy="175.04" r="24.4" transform="translate(-62.58 106.32) rotate(-28.8)"/></g><g class="cls-7"><circle class="cls-9" cx="175.77" cy="175.24" r="24.09" transform="translate(-62.68 106.34) rotate(-28.8)"/></g><g class="cls-7"><circle class="cls-10" cx="175.78" cy="175.45" r="23.77" transform="translate(-62.78 106.37) rotate(-28.8)"/></g><g class="cls-7"><circle class="cls-11" cx="175.78" cy="175.66" r="23.46" transform="translate(-62.88 106.4) rotate(-28.8)"/></g><g class="cls-7"><circle class="cls-12" cx="175.79" cy="175.87" r="23.15" transform="translate(-62.98 106.43) rotate(-28.8)"/></g><g class="cls-7"><circle class="cls-13" cx="175.79" cy="176.09" r="22.84" transform="translate(-63.08 106.45) rotate(-28.8)"/></g><g class="cls-7"><circle class="cls-14" cx="175.8" cy="176.29" r="22.53" transform="translate(-63.18 106.48) rotate(-28.8)"/></g><g class="cls-7"><circle class="cls-15" cx="175.8" cy="176.5" r="22.22" transform="translate(-63.28 106.51) rotate(-28.8)"/></g><g class="cls-7"><circle class="cls-16" cx="175.8" cy="176.71" r="21.9" transform="translate(-63.38 106.54) rotate(-28.8)"/></g><g class="cls-7"><circle class="cls-17" cx="175.8" cy="176.92" r="21.59" transform="translate(-63.48 106.56) rotate(-28.8)"/></g><g class="cls-7"><circle class="cls-18" cx="175.8" cy="177.13" r="21.28" transform="translate(-63.58 106.59) rotate(-28.8)"/></g><g class="cls-7"><circle class="cls-19" cx="175.82" cy="177.34" r="20.97" transform="translate(-63.68 106.62) rotate(-28.8)"/></g><g class="cls-7"><circle class="cls-20" cx="175.81" cy="177.54" r="20.66" transform="translate(-63.78 106.65) rotate(-28.8)"/></g><g class="cls-7"><circle class="cls-21" cx="175.82" cy="177.76" r="20.35" transform="translate(-63.88 106.68) rotate(-28.8)"/></g><g class="cls-7"><circle class="cls-22" cx="175.82" cy="177.97" r="20.03" transform="translate(-63.99 106.7) rotate(-28.8)"/></g><g class="cls-7"><circle class="cls-23" cx="175.82" cy="178.18" r="19.72" transform="translate(-64.09 106.73) rotate(-28.8)"/></g><g class="cls-7"><circle class="cls-24" cx="175.83" cy="178.39" r="19.41" transform="translate(-64.19 106.76) rotate(-28.8)"/></g><g class="cls-7"><circle class="cls-25" cx="175.83" cy="178.6" r="19.1" transform="translate(-64.29 106.79) rotate(-28.8)"/></g><g class="cls-7"><circle class="cls-26" cx="175.84" cy="178.81" r="18.79" transform="translate(-64.39 106.81) rotate(-28.8)"/></g><g class="cls-7"><circle class="cls-27" cx="175.84" cy="179.02" r="18.48" transform="translate(-64.49 106.84) rotate(-28.8)"/></g><g class="cls-7"><circle class="cls-28" cx="175.84" cy="179.23" r="18.16" transform="translate(-64.59 106.87) rotate(-28.8)"/></g><g class="cls-7"><circle class="cls-29" cx="175.85" cy="179.43" r="17.85" transform="translate(-64.69 106.9) rotate(-28.8)"/></g><g class="cls-7"><circle class="cls-30" cx="175.85" cy="179.65" r="17.54" transform="translate(-64.79 106.92) rotate(-28.8)"/></g><g class="cls-7"><circle class="cls-31" cx="175.86" cy="179.86" r="17.23" transform="translate(-64.89 106.95) rotate(-28.8)"/></g><g class="cls-7"><circle class="cls-32" cx="175.85" cy="180.07" r="16.92" transform="translate(-64.99 106.98) rotate(-28.8)"/></g><g class="cls-7"><circle class="cls-33" cx="175.87" cy="180.28" r="16.61" transform="translate(-65.09 107.01) rotate(-28.8)"/></g><g class="cls-7"><circle class="cls-34" cx="175.87" cy="180.48" r="16.29" transform="translate(-65.19 107.04) rotate(-28.8)"/></g><g class="cls-7"><circle class="cls-35" cx="175.87" cy="180.7" r="15.98" transform="translate(-65.29 107.06) rotate(-28.8)"/></g><g class="cls-7"><circle class="cls-36" cx="175.87" cy="180.9" r="15.67" transform="translate(-65.39 107.09) rotate(-28.8)"/></g><g class="cls-7"><circle class="cls-37" cx="175.87" cy="181.12" r="15.36"/></g><g class="cls-7"><circle class="cls-38" cx="175.88" cy="181.32" r="15.05"/></g><g class="cls-7"><circle class="cls-39" cx="175.88" cy="181.53" r="14.74"/></g><g class="cls-7"><circle class="cls-40" cx="175.89" cy="181.75" r="14.42" transform="translate(-65.8 107.2) rotate(-28.8)"/></g><g class="cls-7"><circle class="cls-41" cx="175.89" cy="181.95" r="14.11"/></g><g class="cls-7"><circle class="cls-42" cx="175.89" cy="182.17" r="13.8"/></g><g class="cls-7"><circle class="cls-43" cx="175.9" cy="182.37" r="13.49"/></g><g class="cls-7"><circle class="cls-44" cx="175.9" cy="182.58" r="13.18"/></g><g class="cls-7"><circle class="cls-45" cx="175.9" cy="182.79" r="12.87"/></g><g class="cls-7"><circle class="cls-46" cx="175.91" cy="183.01" r="12.55"/></g><g class="cls-7"><circle class="cls-47" cx="175.91" cy="183.21" r="12.24"/></g><g class="cls-7"><circle class="cls-48" cx="175.92" cy="183.42" r="11.93"/></g><g class="cls-7"><circle class="cls-49" cx="175.92" cy="183.64" r="11.62"/></g><g class="cls-7"><circle class="cls-50" cx="175.92" cy="183.84" r="11.31"/></g><g class="cls-7"><circle class="cls-51" cx="175.93" cy="184.06" r="11"/></g><g class="cls-7"><circle class="cls-52" cx="175.92" cy="184.26" r="10.68"/></g><g class="cls-7"><circle class="cls-53" cx="175.94" cy="184.47" r="10.37"/></g><g class="cls-7"><circle class="cls-54" cx="175.94" cy="184.68" r="10.06"/></g><g class="cls-7"><circle class="cls-55" cx="175.94" cy="184.89" r="9.75"/></g><g class="cls-7"><circle class="cls-56" cx="175.94" cy="185.1" r="9.44"/></g><g class="cls-7"><circle class="cls-57" cx="175.95" cy="185.31" r="9.13"/></g><g class="cls-7"><circle class="cls-58" cx="175.96" cy="185.52" r="8.81"/></g><g class="cls-7"><circle class="cls-59" cx="175.95" cy="185.73" r="8.5"/></g><g class="cls-7"><circle class="cls-60" cx="175.96" cy="185.94" r="8.19"/></g><g class="cls-7"><circle class="cls-61" cx="175.96" cy="186.15" r="7.88"/></g><g class="cls-7"><circle class="cls-62" cx="175.97" cy="186.36" r="7.57"/></g><g class="cls-7"><circle class="cls-63" cx="175.97" cy="186.57" r="7.26"/></g><g class="cls-7"><circle class="cls-64" cx="175.97" cy="186.78" r="6.94"/></g><g class="cls-7"><circle class="cls-65" cx="175.98" cy="186.99" r="6.63"/></g><g class="cls-7"><circle class="cls-66" cx="175.98" cy="187.2" r="6.32"/></g><g class="cls-7"><circle class="cls-67" cx="175.99" cy="187.41" r="6.01"/></g><g class="cls-7"><circle class="cls-68" cx="175.99" cy="187.62" r="5.7"/></g><g class="cls-7"><circle class="cls-69" cx="175.99" cy="187.83" r="5.39"/></g><g class="cls-7"><circle class="cls-70" cx="175.99" cy="188.04" r="5.07"/></g><g class="cls-7"><circle class="cls-71" cx="175.99" cy="188.25" r="4.76"/></g><g class="cls-7"><circle class="cls-72" cx="176" cy="188.45" r="4.45"/></g><g class="cls-7"><circle class="cls-73" cx="176.01" cy="188.67" r="4.14"/></g><g class="cls-7"><circle class="cls-74" cx="176.01" cy="188.88" r="3.83" transform="translate(-69.22 108.14) rotate(-28.8)"/></g><g class="cls-7"><circle class="cls-75" cx="176.01" cy="189.09" r="3.52" transform="translate(-69.32 108.17) rotate(-28.8)"/></g><g class="cls-7"><circle class="cls-76" cx="176.02" cy="189.3" r="3.2"/></g><g class="cls-7"><circle class="cls-77" cx="176.02" cy="189.5" r="2.89"/></g><g class="cls-7"><circle class="cls-78" cx="176.02" cy="189.72" r="2.58" transform="translate(-69.62 108.25) rotate(-28.8)"/></g><g class="cls-7"><circle class="cls-79" cx="176.02" cy="189.92" r="2.27" transform="translate(-69.72 108.28) rotate(-28.8)"/></g><g class="cls-7"><circle class="cls-80" cx="176.03" cy="190.14" r="1.96" transform="translate(-69.82 108.31) rotate(-28.8)"/></g><g class="cls-7"><circle class="cls-3" cx="176.04" cy="190.34" r="1.65" transform="translate(-69.92 108.34) rotate(-28.8)"/></g><path class="cls-5" d="M156.24,196.88l13.65-33.56-11-32.16,24.78,25.21L214.31,170l-30.21.7Zm5-61.88L171,163.35l-.07.18L158.9,193l24.81-23.31h.19l25.94-.6L183.1,157.21l-.07-.06Z"/><path class="cls-5" d="M156.08,196.55l2.31.33a49.21,49.21,0,0,0,6.59-.27,66.56,66.56,0,0,0,14.94-3.69,79.8,79.8,0,0,0,16.54-9.1,89.29,89.29,0,0,0,15.91-14.41l.8.6a95.57,95.57,0,0,1-8.55,11.58c-3.19,3.7-7.13,7.2-14.28,13.58-7.87,7-10,7.38-11.59,7.66l-.43.08c-6,1.27-11.51-.61-15.15-2.13a18.56,18.56,0,0,1-4-2.25c-.34-.24-.69-.48-1.07-.72Zm52.66-21.78a89.2,89.2,0,0,1-11.7,9.88,81.89,81.89,0,0,1-16.75,9.21,68.21,68.21,0,0,1-15.21,3.75c-1.5.15-3.56.27-5.07.31a17.63,17.63,0,0,0,3.55,1.92c3.5,1.48,8.83,3.29,14.55,2.08l.46-.08c1.45-.25,3.44-.6,11.1-7.41s11.17-10,14.2-13.49C205.57,179,207.2,176.91,208.74,174.77Z"/><path class="cls-5" d="M163.8,195.79l-.1-.34c-.63-2.33-1.17-4.73-1.62-7.13a103.11,103.11,0,0,1-1.5-23.52c0-.7,0-1.36,0-2,0-1.75.18-3.74.34-6,.44-6.22,1-14-.11-22.54l.73-.13c.35,1.5.92,4,1.62,7.1A128,128,0,0,1,166,159.06c.23,2.31.46,4.69.86,7.5a46.88,46.88,0,0,0,3,11.08c.22.55.42,1.11.63,1.68a88.65,88.65,0,0,0,6.32,13.58l.27.46Zm-1.69-56.11a130.89,130.89,0,0,1-.39,17.13c-.16,2.29-.3,4.27-.34,6,0,.64,0,1.31,0,2a101.36,101.36,0,0,0,1.48,23.38c.43,2.26.94,4.52,1.53,6.73l11.58-2.12a89.47,89.47,0,0,1-6.12-13.22c-.21-.56-.41-1.12-.62-1.67a46.47,46.47,0,0,1-3-11.23c-.41-2.83-.64-5.22-.86-7.54a127.34,127.34,0,0,0-2.8-17.8C162.36,140.76,162.23,140.21,162.11,139.68Z"/><path class="cls-5" d="M178.15,172.21c0,.5,0,1.28.09,2.23.24,2.62.8,3.41.66,5.35a4.29,4.29,0,0,1-.79,2.71c-1.09,1.24-3,1.12-4,1.05-.46,0-4-.25-4.56-2.06-.21-.63.14-.87,1.19-4.07a24,24,0,0,0,.79-2.72,24.9,24.9,0,0,0,.3-3.59c.06-.84.14-2.07.31-3.59Z"/><ellipse class="cls-4" cx="178.92" cy="163.23" rx="9" ry="9.5" transform="translate(-56.5 106.37) rotate(-28.8)"/><path class="cls-3" d="M168.67,161.59l16.57-8.16L184,171.87Zm15.46-6.5-13.47,6.64,12.47,8.35Z"/><circle class="cls-3" cx="179.56" cy="162.31" r="3"/><rect class="cls-3" x="182" y="161.38" width="1" height="3.22" transform="translate(-8.61 315.8) rotate(-80.42)"/><rect class="cls-3" x="178.19" y="157.48" width="1" height="4.44" transform="translate(-55.55 109.03) rotate(-29.58)"/><rect class="cls-3" x="175.85" y="164.6" width="3.61" height="1" transform="translate(-50.85 246.39) rotate(-62.49)"/><ellipse class="cls-5" cx="172.21" cy="197.76" rx="6.31" ry="9.9" transform="translate(-45.31 344.22) rotate(-82.9)"/></g></g></svg>