<?xml version="1.0" encoding="utf-8"?>
<!-- Generator: Adobe Illustrator 23.1.0, SVG Export Plug-In . SVG Version: 6.00 Build 0)  -->
<svg version="1.1" id="Layer_1" xmlns="http://www.w3.org/2000/svg" xmlns:xlink="http://www.w3.org/1999/xlink" x="0px" y="0px"
	 viewBox="0 0 1920 1080" style="enable-background:new 0 0 1920 1080;" xml:space="preserve">
<style type="text/css">
	.st0{fill:#1C1C1C;}
	.st1{fill:#E5E5E5;}
	.st2{fill:#8A8C91;}
	.st3{fill:#4C4C4C;}
	.st4{fill:#A8A8A8;}
	.st5{fill:#C67A00;}
	.st6{fill:#BE4F00;}
	.st7{fill:#CCCCCC;}
	.st8{fill:#F9F9F9;}
	.st9{fill:#111111;}
	.st10{fill:url(#SVGID_1_);}
	.st11{opacity:0.7;fill:#F9F9F9;}
	.st12{opacity:0.09;fill:#F9F9F9;}
	.st13{opacity:0.14;fill:#0C0C0C;}
</style>
<path class="st0" d="M847.76,455.18c-9.69,0-17.54,9.56-17.54,21.34c0,11.79,7.85,21.34,17.54,21.34V455.18z"/>
<path class="st1" d="M1232.31,625.33v55.12l-171.22,47.35l-165.1-52.99l-7.53-49.48c0,0,43.8,30.45,89.91,45.6
	c46.11,15.16,51.28,14.73,76.02,17.76c24.74,3.03,65.91-8.64,65.91-8.64s32.49-8.86,48.34-16.14c15.85-7.27,22.32-9.71,41.1-21.78
	C1228.03,630.38,1217.42,637.43,1232.31,625.33z"/>
<path class="st1" d="M1231.68,621.96c-4.86,1.61-15.97,5.58-32.72,11.61c-16.77,6.03-33.6,9.17-65.86,15.34
	c-28.76,5.49-65.74,5.8-73.42,5.8c-0.93,0-1.43,0-1.43,0c-7.62,0-44.15-0.31-72.57-5.8c-31.9-6.17-48.52-9.31-65.1-15.34
	c-16.56-6.03-27.55-10.01-32.34-11.61c0,0-26.41-173.55-3.53-220.01c22.7-46.11,50.72-97.78,172.82-103.56
	c0.48-0.03,0.95-0.05,1.43-0.06c0.48,0.01,0.96,0.04,1.43,0.06c123.54,5.76,151.89,57.45,174.86,103.56
	C1258.39,448.41,1231.68,621.96,1231.68,621.96z"/>
<path class="st2" d="M1060.39,298.27v0.13c-0.47-0.03-0.95-0.05-1.43-0.06C1059.42,298.31,1059.91,298.3,1060.39,298.27z"/>
<path class="st2" d="M1058.95,298.34c-0.48,0.01-0.95,0.04-1.43,0.06v-0.13C1058,298.3,1058.47,298.31,1058.95,298.34z"/>
<path class="st3" d="M1060.39,331.49c-97.99,0-177.42,68.33-177.42,152.61S962.4,636.7,1060.39,636.7s177.42-68.33,177.42-152.61
	S1158.37,331.49,1060.39,331.49z M1059.67,628.72c-91.03,0-164.83-64.75-164.83-144.62s73.8-144.62,164.83-144.62
	s164.83,64.75,164.83,144.62S1150.71,628.72,1059.67,628.72z"/>
<path class="st4" d="M888.23,620.33c-29.31-10.52-0.75,10.52-0.75,10.52s115.93,76.1,206.12,58.62s126.83-49.23,146.75-65.39
	s-21.42,1.8-21.42,1.8c-173.61,60.8-314.91,0-314.91,0L888.23,620.33z"/>
<ellipse class="st5" cx="1060.03" cy="484.09" rx="165.19" ry="144.62"/>
<polygon class="st6" points="920.47,682.68 920.47,649.72 930.34,654.71 930.34,685.84 "/>
<polygon class="st6" points="978.93,701.44 981.26,676.1 992.53,679.8 989.69,704.89 "/>
<path class="st6" d="M1054.8,725.79v-33.71c0,0,8.83,0.12,12.78,0v33.71l-6.49,2.02L1054.8,725.79z"/>
<polygon class="st6" points="1124.17,710.36 1120.74,683.41 1131.5,680.52 1134.51,707.5 "/>
<polygon class="st6" points="1198.05,689.93 1192.97,656.47 1201.63,651.68 1208.32,687.09 "/>
<path class="st6" d="M895.99,674.82l165.1,52.99l0.1,13.2l-165.63-57.78C895.56,683.22,887.59,678.81,895.99,674.82z"/>
<path class="st6" d="M1233.77,674.82l-173.28,52.99l-0.1,13.2l173.84-57.78C1234.22,683.22,1242.59,678.81,1233.77,674.82z"/>
<path class="st7" d="M879.16,416.91c-19.38,0-35.09,26.69-35.09,59.61s15.71,59.61,35.09,59.61V416.91z"/>
<path class="st8" d="M1241.4,420.31c19.38,0,35.09,26.69,35.09,59.61s-15.71,59.61-35.09,59.61V420.31z"/>
<rect x="835.6" y="302.55" class="st0" width="6.76" height="183.76"/>
<circle class="st9" cx="839.14" cy="300.91" r="12.82"/>
<path class="st3" d="M1060.39,591.34c-33.55,0-60.74,18.59-60.74,41.53c0,22.93,27.19,41.53,60.74,41.53
	c33.55,0,60.74-18.59,60.74-41.53C1121.13,609.93,1093.93,591.34,1060.39,591.34z M1060.39,670.81c-30.35,0-54.96-16.99-54.96-37.94
	s24.61-37.94,54.96-37.94s54.96,16.99,54.96,37.94S1090.74,670.81,1060.39,670.81z"/>
<ellipse class="st1" cx="1060.39" cy="632.87" rx="54.96" ry="37.94"/>
<path class="st3" d="M1080.34,612.06h-39.92c-8.51,0-15.41,7.17-15.41,16.01v9.59c0,8.84,6.9,16.01,15.41,16.01h39.92
	c8.51,0,15.41-7.17,15.41-16.01v-9.59C1095.76,619.23,1088.86,612.06,1080.34,612.06z M1092.63,634.71c0,8.84-6.9,16.01-15.41,16.01
	h-33.67c-8.51,0-15.41-7.17-15.41-16.01v-3.69c0-8.84,6.9-16.01,15.41-16.01h33.67c8.51,0,15.41,7.17,15.41,16.01V634.71z"/>
<path class="st1" d="M1083.45,615.59h-46.12c-5.17,0-9.36,4.19-9.36,9.36v15.84c0,5.17,4.19,9.36,9.36,9.36h46.12
	c5.17,0,9.36-4.19,9.36-9.36v-15.84C1092.81,619.78,1088.62,615.59,1083.45,615.59z"/>
<path class="st0" d="M1071.7,620.71h-2.65v24.32h2.65c1.73,0,3.13-1.4,3.13-3.13v-18.05
	C1074.83,622.11,1073.43,620.71,1071.7,620.71z"/>
<rect x="1055.98" y="620.71" class="st0" width="5.78" height="24.32"/>
<path class="st0" d="M1046.06,620.71h2.65v24.32h-2.65c-1.73,0-3.13-1.4-3.13-3.13v-18.05
	C1042.92,622.11,1044.33,620.71,1046.06,620.71z"/>
<radialGradient id="SVGID_1_" cx="1088.6163" cy="465.8534" r="116.5598" gradientUnits="userSpaceOnUse">
	<stop  offset="0.1717" style="stop-color:#FFD055"/>
	<stop  offset="0.3737" style="stop-color:#EAB035"/>
	<stop  offset="0.6506" style="stop-color:#D0890F"/>
	<stop  offset="0.7955" style="stop-color:#C67A00"/>
</radialGradient>
<ellipse class="st10" cx="1088.62" cy="465.85" rx="128.8" ry="102.87"/>
<path class="st11" d="M1082.73,587.96c0,0,15.47,0.84,30.64,12.75c15.17,11.92,23.9,5.54,23.9,5.54s16.39-8.56,24.36-18.29
	c7.97-9.73,10.11-9.23,16.55-24.33c0,0-17.93,22.52-39.99,31.9C1138.2,595.53,1118.89,581.75,1082.73,587.96z"/>
<path class="st11" d="M1137.09,368.81c0,0,51.71,20.75,72.75,79.51c16.12,45.01-7.67,6.57-7.67,6.57s-26.67-45.03-57.55-64.76
	C1144.61,390.13,1097.22,349.61,1137.09,368.81z"/>
<path class="st12" d="M851.96,298.34c0.61,2.75-0.29,5.28-0.29,5.28c-1.42,7.64-9.31,9.7-9.31,9.7s2.62-0.99,4.52-10.01
	c1.9-9.02-7.03-15.19-7.03-15.19s7.2-0.47,10.85,7.29C850.71,295.4,851.72,297.23,851.96,298.34z"/>
<path class="st13" d="M971.24,605.89c-42.14-22.33-58.75-53.88-66.04-71.89c-7.29-18.01-13-37.79-9.07-66.58
	s15.41-46.52,15.41-46.52c22.44-47.41,78.68-67.97,78.68-67.97c-64.88,61.05-69.84,83.81-69.54,147.64
	c0.3,63.83,82.23,119.12,82.23,119.12S989.41,615.52,971.24,605.89z"/>
<path class="st13" d="M949.69,603.36c6.65,4.8,15.66,9.62,25.21,14.49s25.22,9.82,25.22,9.82c-1.01,3.96-0.22,9.03-0.22,9.03
	c0.16,6.17,4.96,13.02,4.96,13.02s-21.86-2.12-31.08-4.6c-9.22-2.48-43.75-45.04-56.15-61.39c-12.4-16.35-30.1-45.88-38.47-47.6
	V416.91c0,0,14.52-45.42,43.69-72.33c29.17-26.91,55.32-32.73,55.32-32.73s22.16-7.54,42.02-9.9l14.84-1.88
	c0,0-22.47,10.16-40.64,29.9c-18.18,19.74,3.72,11.17,3.72,11.17s-23.17,7.45-37.29,16.61c-14.12,9.16-26.04,16.65-43.49,36.05
	c-17.45,19.4-23.88,38.36-24.79,40.7c-0.91,2.34-10.84,27.46-9.57,50.99c1.27,23.53,3.22,29.1,5.18,35.34s6.94,24.8,22.79,45.53
	c15.85,20.73,32.87,32.76,32.87,32.76L949.69,603.36z"/>
<path class="st13" d="M1025.01,632.42c-0.21-7.86,1.02-10.08,1.02-10.08c2.29-5.36,4.74-6.75,4.74-6.75
	c-9.74,0-11.54,4.21-13.37,6.1s-3.85,4.51-2.68,16.3c1.14,11.48,17.55,13.26,17.55,13.26s-3.27-1.89-5.2-5.57
	c-1.93-3.68-2.06-4.6-2.07-10.44S1025.01,632.42,1025.01,632.42z"/>
<path class="st13" d="M992.06,683.92c18.21,7.84,62.73,11.52,62.73,11.52v-3.36c0,0-2.24,0.02-21.29-2.59
	c-19.06-2.6-40.97-9.69-40.97-9.69s-28.81-8.42-54.29-21.29s-41.33-20.8-48.75-26.37l1.17,7.71c0,0,60.88,30.63,79.1,36.72
	S992.06,683.92,992.06,683.92z"/>
</svg>
