<?xml version="1.0" encoding="utf-8"?>
<!-- Generator: Adobe Illustrator 24.0.0, SVG Export Plug-In . SVG Version: 6.00 Build 0)  -->
<svg version="1.1" xmlns="http://www.w3.org/2000/svg" xmlns:xlink="http://www.w3.org/1999/xlink" x="0px" y="0px"
	 viewBox="0 0 1920 1080" style="enable-background:new 0 0 1920 1080;" xml:space="preserve">
<style type="text/css">
	.st0{fill:#0E0023;}
	.st1{fill:url(#SVGID_1_);}
	.st2{opacity:0.2;fill:#FF9FA5;}
	.st3{opacity:0.25;fill:#C9AAF7;}
	.st4{opacity:0.2;fill:#C8E4FF;}
	.st5{opacity:0.2;fill:#388DFF;}
	.st6{fill:#388DFF;}
	.st7{fill:#D5DFFF;}
	.st8{fill:#FFCBF8;}
	.st9{fill:#FFFFFF;}
	.st10{fill:#F3FFB1;}
	.st11{fill:#C9AAF7;}
	.st12{fill:#FF9FA5;}
	.st13{fill:#C8E4FF;}
	.st14{fill:#C6DEFF;}
	.st15{fill:#DFFFDA;}
	.st16{fill:#E0FEFF;}
	.st17{fill:#DCEDFF;}
	.st18{fill:#FFF1ED;}
	.st19{opacity:0.2;fill:#D1FFE6;}
	.st20{fill:#D1FFE6;}
	.st21{opacity:0.2;fill:#D65483;}
	.st22{fill:#D65483;}
	.st23{fill:#D888D0;}
	.st24{fill:#FFF3FE;}
	.st25{fill:#9E4400;}
	.st26{fill:#FF6700;}
	.st27{fill:#C45306;}
</style>
<g id="Background">
	<g>
		<rect x="571.63" y="55.13" class="st0" width="1102" height="714"/>
		<path d="M1673.13,55.63v713h-1101v-713H1673.13 M1674.13,54.63h-1103v715h1103V54.63L1674.13,54.63z"/>
	</g>
</g>
<g id="Gradient">
	
		<radialGradient id="SVGID_1_" cx="1122.625" cy="412.125" r="366.7903" gradientTransform="matrix(1.1463 0 0 1.294 -167.8815 -128.7897)" gradientUnits="userSpaceOnUse">
		<stop  offset="0" style="stop-color:#483660;stop-opacity:0.1"/>
		<stop  offset="0" style="stop-color:#45335D;stop-opacity:0.1454"/>
		<stop  offset="0.273" style="stop-color:#230F40;stop-opacity:0.6965"/>
		<stop  offset="0.4227" style="stop-color:#160035;stop-opacity:0.9989"/>
		<stop  offset="0.4893" style="stop-color:#12002C;stop-opacity:0.9991"/>
		<stop  offset="0.6002" style="stop-color:#0F0025;stop-opacity:0.9993"/>
		<stop  offset="0.9087" style="stop-color:#0E0023"/>
	</radialGradient>
	<ellipse class="st1" cx="1119" cy="404.5" rx="521" ry="323.5"/>
</g>
<g id="Stars">
	<circle class="st2" cx="1119.8" cy="266.8" r="4.1"/>
	<ellipse class="st3" cx="766.82" cy="262.54" rx="4.92" ry="7.38"/>
	<ellipse class="st4" cx="1568.2" cy="255.51" rx="5.95" ry="4.46"/>
	<circle class="st5" cx="1100.72" cy="398.28" r="4.72"/>
	<circle class="st6" cx="1100.72" cy="398.28" r="2.89"/>
	<circle class="st7" cx="930.79" cy="129.54" r="3.69"/>
	<circle class="st8" cx="1266.66" cy="486.69" r="4.1"/>
	<circle class="st9" cx="1209.62" cy="411.36" r="1.85"/>
	<circle class="st10" cx="1207.59" cy="556.02" r="1.64"/>
	<circle class="st11" cx="767.03" cy="262.74" r="3.08"/>
	<circle class="st12" cx="1119.8" cy="266.8" r="2.46"/>
	<circle class="st12" cx="1119.8" cy="266.8" r="2.46"/>
	<circle class="st12" cx="1119.8" cy="266.8" r="2.46"/>
	<circle class="st13" cx="1568.2" cy="255.51" r="3.08"/>
	<circle class="st9" cx="1259.07" cy="383.51" r="1.85"/>
	<polygon class="st14" points="905.37,340.21 909.34,344.93 903.23,345.73 898.51,349.7 897.71,343.58 893.74,338.86 899.85,338.07 
		904.57,334.09 	"/>
	<polygon class="st15" points="1227.23,345.57 1231.57,347.25 1228.24,349.66 1227.07,353.61 1224.05,350.07 1219.7,348.4 
		1223.03,345.98 1224.2,342.04 	"/>
	<polygon class="st16" points="1203.16,445.06 1209.06,446.39 1204.76,450.64 1203.42,456.53 1199.18,452.23 1193.29,450.9 
		1197.59,446.65 1198.92,440.76 	"/>
	<polygon class="st17" points="1543.08,142.03 1546.04,137.7 1547.79,141.91 1551.77,144.13 1547.13,146.58 1544.16,150.91 
		1542.41,146.7 1538.43,144.48 	"/>
	<polygon class="st18" points="996.45,522.94 1002.95,521.79 1000.42,527.88 1001.57,534.37 995.48,531.84 988.99,533 991.52,526.9 
		990.36,520.41 	"/>
	<g>
		<ellipse class="st19" cx="1619.57" cy="604.13" rx="5.13" ry="4.92"/>
		<path class="st20" d="M1621.25,591.7c0.39,0.05,0.15,4.32-0.52,9.98c0.9,0.39,1.54,1.23,1.68,2.2c4.27,0.66,7.37,1.41,7.32,1.78
			c-0.05,0.37-3.24,0.27-7.53-0.2c-0.39,0.9-1.23,1.54-2.2,1.68c-0.84,5.64-1.72,9.82-2.11,9.77s-0.15-4.32,0.52-9.98
			c-0.9-0.39-1.54-1.24-1.68-2.22c-4.05-0.64-6.97-1.35-6.92-1.71s3.05-0.28,7.13,0.16c0.39-0.91,1.23-1.55,2.2-1.7
			C1619.98,595.83,1620.87,591.65,1621.25,591.7z"/>
	</g>
	<g>
		<ellipse class="st21" cx="675.63" cy="415.81" rx="3.41" ry="3.27"/>
		<path class="st22" d="M674.51,407.55c-0.26,0.03-0.1,2.87,0.35,6.63c-0.6,0.26-1.02,0.82-1.12,1.46c-2.84,0.44-4.9,0.93-4.87,1.18
			c0.03,0.25,2.16,0.18,5.01-0.13c0.26,0.6,0.82,1.02,1.46,1.12c0.56,3.75,1.15,6.53,1.4,6.49s0.1-2.87-0.35-6.63
			c0.6-0.26,1.03-0.82,1.12-1.47c2.69-0.43,4.63-0.9,4.6-1.14c-0.03-0.24-2.02-0.19-4.74,0.11c-0.26-0.6-0.82-1.03-1.47-1.13
			C675.35,410.29,674.76,407.51,674.51,407.55z"/>
	</g>
	<g>
		<g>
			<path class="st8" d="M1622.95,230.36c-0.59-0.24-1.12-0.57-1.58-0.97l-29.88-12.48c-0.64-0.27-0.97-0.94-0.73-1.51
				c0.12-0.29,0.36-0.49,0.65-0.59c0.28-0.1,0.62-0.09,0.94,0.04l6.95,2.9l0.64-1.54l-9.75-4.07c-0.35-0.15-0.61-0.4-0.75-0.7
				c-0.14-0.3-0.17-0.63-0.04-0.94c0.25-0.61,1.03-0.88,1.72-0.59l9.75,4.07l0.72-1.72l-3.09-1.29c-0.37-0.16-0.66-0.43-0.81-0.75
				c-0.15-0.32-0.18-0.68-0.04-1.01c0.28-0.66,1.11-0.95,1.85-0.64l25.66,10.72c0.71,0,1.43,0.14,2.12,0.42
				c2.94,1.2,4.35,4.55,3.15,7.48S1625.89,231.55,1622.95,230.36z"/>
			<path class="st23" d="M1622.59,228.34c-0.49-0.2-0.94-0.46-1.34-0.76l-24.92-10.36c-0.53-0.22-0.84-0.7-0.68-1.08
				c0.08-0.19,0.26-0.31,0.49-0.36c0.22-0.05,0.5-0.03,0.76,0.08l5.8,2.4l0.43-1.02l-8.13-3.38c-0.29-0.12-0.52-0.31-0.65-0.53
				c-0.13-0.21-0.17-0.45-0.09-0.65c0.17-0.41,0.78-0.54,1.35-0.3l8.13,3.38l0.48-1.14l-2.58-1.07c-0.31-0.13-0.55-0.34-0.7-0.56
				c-0.14-0.23-0.18-0.48-0.09-0.7c0.18-0.44,0.84-0.59,1.46-0.33l21.4,8.89c0.57,0.04,1.16,0.18,1.74,0.42c2.45,1,3.79,3.39,3,5.33
				S1625.04,229.34,1622.59,228.34z"/>
		</g>
		<path class="st24" d="M1622.7,222.28L1622.7,222.28c0.17-0.42-0.03-0.9-0.45-1.07l-15.2-6.19c-0.42-0.17-0.9,0.03-1.07,0.45l0,0
			c-0.17,0.42,0.03,0.9,0.45,1.07l15.2,6.19C1622.05,222.9,1622.53,222.7,1622.7,222.28z"/>
	</g>
	<g>
		<g>
			<path class="st25" d="M648.8,267.57c0.8,0.49,1.52,1.06,2.16,1.69c0.01,0.01,0.01,0.01,0.02,0.02c0.32,0.32,0.62,0.65,0.89,1
				c0.5,0.63,0.94,1.32,1.29,2.03c0.33,0.66,0.59,1.34,0.79,2.04c0.32,1.13,0.47,2.31,0.44,3.49c-0.05,1.98-0.6,3.97-1.71,5.79
				c-1.05,1.72-2.47,3.07-4.1,4.02c-1.65,0.96-3.51,1.5-5.41,1.57c-1.32,0.05-2.66-0.11-3.95-0.52c-0.89-0.28-1.77-0.67-2.6-1.18
				c-0.33-0.2-0.65-0.42-0.96-0.65c-0.32-0.24-0.63-0.5-0.92-0.77c-0.49-0.45-0.93-0.94-1.32-1.46c-0.21-0.27-0.4-0.55-0.58-0.83
				c-0.75-1.18-1.27-2.48-1.56-3.83c-0.11-0.52-0.19-1.05-0.23-1.58c0,0,0,0,0-0.01c-0.04-0.61-0.04-1.22,0.01-1.83
				c0-0.01,0-0.01,0-0.01c0.15-1.75,0.69-3.49,1.67-5.09c2.01-3.29,5.38-5.23,8.94-5.55c0.59-0.05,1.18-0.06,1.78-0.02
				c1.73,0.11,3.46,0.6,5.06,1.52l0.01,0.01C648.61,267.46,648.71,267.52,648.8,267.57z"/>
			<g>
				<path class="st26" d="M642.09,274.19c0,0-0.01,0.01-0.01,0.01C642.08,274.2,642.09,274.19,642.09,274.19L642.09,274.19z"/>
				<path class="st26" d="M632.85,283.79c0,0-1.35-2.27-1.55-3.83c-4.54,4.77-6.17,9.05-4.74,10.98c2.15,2.9,11.78-0.6,21.51-7.81
					c9.73-7.21,15.88-15.41,13.74-18.31c-1.59-2.15-6.71-1.37-13.53,2.43c0,0,1.68,1.03,2.85,2.17c2.42-0.85,3.73-0.87,4.41,0.05
					c1.39,1.87-2.58,7.16-8.86,11.81c-6.28,4.65-12.5,6.91-13.88,5.04C632.78,286.33,631.96,285.57,632.85,283.79z"/>
			</g>
			<path class="st27" d="M637.77,274.54c-3.42,2.33-6.71,2.01-6.71,2.01s-0.16,1.09-0.01,1.86c0,0,3.36,0.2,7.11-1.9
				C640.46,275.21,638.88,273.78,637.77,274.54z"/>
			<path class="st27" d="M643.72,273.64c-1.96,2.8-4.55,4.8-7.89,5.89c-0.71,0.31-0.61,0.89-0.19,1.29l0,0
				c0.22,0.28,0.78,0.33,1.29,0.19c3.16-1,5.78-2.97,7.89-5.89c0.29-0.46,0.28-1.17,0.19-1.29l0,0
				C644.56,273.26,644.02,273.21,643.72,273.64z"/>
			<path class="st27" d="M650.67,283.14c0.11,0.07,0.23,0.17,0.34,0.29c0.1,0.11,0.15,0.82-0.11,1.3c-0.7,1.09-1.47,2.07-2.32,2.92
				c-1.65,0.96-3.51,1.5-5.41,1.57c2.78-1.3,4.93-3.31,6.54-5.91C649.92,282.98,650.29,282.91,650.67,283.14z"/>
			<path class="st27" d="M643.5,280.11c0.16,0.1,0.32,0.28,0.45,0.52c0.06,0.13-0.06,0.83-0.43,1.23c-2.61,2.43-5.53,3.85-8.78,4.24
				c-0.49-0.45-0.93-0.94-1.32-1.46c0.1-0.08,0.24-0.15,0.43-0.19c3.48-0.42,6.41-1.89,8.88-4.25
				C642.95,279.98,643.24,279.95,643.5,280.11z"/>
		</g>
		<path class="st27" d="M651.87,270.29c0.5,0.63,0.94,1.32,1.29,2.03c-0.59,1.91-1.72,3.39-3.4,4.43c-0.18,0.1-0.38,0.16-0.58,0.18
			c-0.2,0.01-0.4-0.02-0.55-0.11c-0.52-0.25-0.86-0.68-0.43-1.05C650.28,274.45,651.46,272.6,651.87,270.29z"/>
		<path class="st27" d="M643.45,265.88c-0.1,2.05-0.85,3.79-2.28,5.23c-0.15,0.14-0.33,0.25-0.52,0.31
			c-0.19,0.06-0.39,0.07-0.56,0.02c-0.56-0.12-1-0.46-0.66-0.92c1.32-1.36,2.05-2.91,2.25-4.62
			C642.26,265.85,642.86,265.85,643.45,265.88z"/>
	</g>
	<circle class="st8" cx="1239.98" cy="491.32" r="4.1"/>
	<circle class="st9" cx="1153.12" cy="528.54" r="1.85"/>
	<circle class="st10" cx="1011.55" cy="557.9" r="1.64"/>
	<circle class="st9" cx="1138.01" cy="473.83" r="1.85"/>
	<polygon class="st15" points="1093.52,495.59 1096.19,491.78 1097.73,495.59 1101.28,497.68 1097.12,499.76 1094.45,503.58 
		1092.9,499.76 1089.36,497.68 	"/>
	<polygon class="st18" points="1298.81,514.34 1294.76,509.13 1301.32,508.53 1306.53,504.48 1307.13,511.04 1311.18,516.25 
		1304.62,516.85 1299.41,520.9 	"/>
	
		<ellipse transform="matrix(0.6808 -0.7325 0.7325 0.6808 391.9785 1081.5856)" class="st3" cx="1436.86" cy="91.09" rx="4.92" ry="7.38"/>
	<circle class="st11" cx="1437.15" cy="91.08" r="3.08"/>
	<g>
		
			<ellipse transform="matrix(0.6808 -0.7325 0.7325 0.6808 282.6371 1172.985)" class="st21" cx="1487.05" cy="262.23" rx="3.41" ry="3.27"/>
		<path class="st22" d="M1480.24,257.43c-0.15,0.21,2.04,2.03,5.1,4.26c-0.22,0.62-0.1,1.31,0.31,1.82
			c-1.61,2.38-2.65,4.23-2.45,4.37c0.2,0.14,1.6-1.46,3.31-3.76c0.62,0.22,1.31,0.1,1.82-0.31c3.12,2.14,5.56,3.6,5.71,3.39
			c0.15-0.21-2.04-2.03-5.1-4.26c0.22-0.62,0.1-1.31-0.32-1.82c1.52-2.26,2.5-4,2.3-4.14s-1.52,1.36-3.15,3.54
			c-0.62-0.22-1.31-0.1-1.82,0.31C1482.82,258.68,1480.39,257.22,1480.24,257.43z"/>
	</g>
	<circle class="st9" cx="882.67" cy="265.24" r="1.85"/>
	<circle class="st9" cx="867.56" cy="210.53" r="1.85"/>
	
		<ellipse transform="matrix(0.9591 -0.2831 0.2831 0.9591 -128.7688 235.206)" class="st4" cx="749.34" cy="563.1" rx="4.46" ry="5.95"/>
	<circle class="st13" cx="749.34" cy="563.1" r="3.08"/>
	<polygon class="st17" points="647.62,619.32 642.62,617.7 646.17,614.83 647.17,610.39 650.83,614.15 655.83,615.77 652.29,618.64 
		651.28,623.09 	"/>
	
		<ellipse transform="matrix(0.4455 -0.8953 0.8953 0.4455 -309.8991 970.8752)" class="st3" cx="628.83" cy="735.62" rx="7.38" ry="4.92"/>
	<circle class="st11" cx="628.74" cy="735.34" r="3.08"/>
	<g>
		
			<ellipse transform="matrix(0.4455 -0.8953 0.8953 0.4455 -140.2874 1051.5453)" class="st21" cx="778.77" cy="639.03" rx="3.27" ry="3.41"/>
		<path class="st22" d="M776.09,646.92c0.25,0.08,1.37-2.53,2.64-6.09c0.65,0.03,1.28-0.28,1.65-0.81c2.74,0.87,4.8,1.35,4.89,1.11
			c0.08-0.24-1.85-1.12-4.54-2.11c0.03-0.65-0.28-1.28-0.81-1.65c1.17-3.6,1.88-6.35,1.64-6.44c-0.25-0.08-1.37,2.53-2.64,6.09
			c-0.65-0.03-1.29,0.28-1.66,0.82c-2.6-0.82-4.55-1.26-4.63-1.03c-0.08,0.23,1.73,1.07,4.29,2.01c-0.04,0.66,0.27,1.29,0.81,1.66
			C776.55,644.09,775.84,646.84,776.09,646.92z"/>
	</g>
	<circle class="st8" cx="1531.49" cy="399.62" r="4.1"/>
	<circle class="st10" cx="1541.88" cy="490.11" r="1.64"/>
	<circle class="st8" cx="1516.67" cy="422.28" r="4.1"/>
	<circle class="st9" cx="1484.63" cy="511.18" r="1.85"/>
	<polygon class="st18" points="1573.63,394.97 1567.06,394.39 1571.1,389.17 1571.69,382.6 1576.9,386.64 1583.47,387.23 
		1579.43,392.44 1578.85,399.01 	"/>
	<g>
		
			<ellipse transform="matrix(0.6188 -0.7856 0.7856 0.6188 198.75 584.3156)" class="st19" cx="701.4" cy="87.38" rx="5.13" ry="4.92"/>
		<path class="st20" d="M692.68,78.37c0.28-0.27,3.49,2.56,7.51,6.59c0.87-0.46,1.92-0.45,2.77,0.04c3.16-2.94,5.67-4.92,5.93-4.65
			c0.26,0.27-1.79,2.72-4.82,5.79c0.46,0.87,0.45,1.92-0.04,2.77c3.91,4.14,6.65,7.43,6.37,7.7c-0.28,0.27-3.49-2.56-7.51-6.59
			c-0.87,0.47-1.93,0.45-2.78-0.05c-3.01,2.79-5.37,4.64-5.63,4.37c-0.26-0.26,1.66-2.57,4.54-5.5c-0.47-0.87-0.46-1.93,0.03-2.78
			C695.13,81.93,692.4,78.64,692.68,78.37z"/>
	</g>
	<circle class="st2" cx="852" cy="428" r="4.1"/>
	<circle class="st12" cx="852" cy="428" r="2.46"/>
	<circle class="st12" cx="852" cy="428" r="2.46"/>
	<circle class="st12" cx="852" cy="428" r="2.46"/>
</g>
</svg>
