<?xml version="1.0" encoding="utf-8"?>
<!-- Generator: Adobe Illustrator 24.0.0, SVG Export Plug-In . SVG Version: 6.00 Build 0)  -->
<svg version="1.1" xmlns="http://www.w3.org/2000/svg" xmlns:xlink="http://www.w3.org/1999/xlink" x="0px" y="0px"
	 viewBox="0 0 1920 1080" style="enable-background:new 0 0 1920 1080;" xml:space="preserve">
<style type="text/css">
	.st0{fill:#0E0023;}
	.st1{fill:url(#SVGID_1_);}
	.st2{opacity:0.2;fill:#FF9FA5;}
	.st3{opacity:0.25;fill:#C9AAF7;}
	.st4{opacity:0.2;fill:#C8E4FF;}
	.st5{opacity:0.2;fill:#388DFF;}
	.st6{fill:#388DFF;}
	.st7{fill:#D5DFFF;}
	.st8{fill:#FFCBF8;}
	.st9{fill:#FFFFFF;}
	.st10{fill:#F3FFB1;}
	.st11{fill:#C9AAF7;}
	.st12{fill:#FF9FA5;}
	.st13{fill:#C8E4FF;}
	.st14{fill:#C6DEFF;}
	.st15{fill:#DFFFDA;}
	.st16{fill:#E0FEFF;}
	.st17{fill:#DCEDFF;}
	.st18{fill:#FFF1ED;}
	.st19{opacity:0.2;fill:#D1FFE6;}
	.st20{fill:#D1FFE6;}
	.st21{opacity:0.2;fill:#D65483;}
	.st22{fill:#D65483;}
	.st23{fill:#D888D0;}
	.st24{fill:#FFF3FE;}
	.st25{fill:#9E4400;}
	.st26{fill:#FF6700;}
	.st27{fill:#C45306;}
</style>
<g id="Background">
	<g>
		<rect x="0.5" y="0.5" class="st0" width="1919" height="1079"/>
		<path d="M1919,1v1078H1V1H1919 M1920,0H0v1080h1920V0L1920,0z"/>
	</g>
</g>
<g id="Gradient">
	
		<radialGradient id="SVGID_1_" cx="982.6639" cy="507.4233" r="556.7115" gradientTransform="matrix(1.1503 0 0 1.2878 -168.9163 -124.964)" gradientUnits="userSpaceOnUse">
		<stop  offset="0" style="stop-color:#483660;stop-opacity:0.1"/>
		<stop  offset="0" style="stop-color:#45335D;stop-opacity:0.1454"/>
		<stop  offset="0.273" style="stop-color:#230F40;stop-opacity:0.6965"/>
		<stop  offset="0.4227" style="stop-color:#160035;stop-opacity:0.9989"/>
		<stop  offset="0.4893" style="stop-color:#12002C;stop-opacity:0.9991"/>
		<stop  offset="0.6002" style="stop-color:#0F0025;stop-opacity:0.9993"/>
		<stop  offset="0.9087" style="stop-color:#0E0023"/>
	</radialGradient>
	<ellipse class="st1" cx="961.48" cy="528.48" rx="793.54" ry="488.64"/>
</g>
<g id="Stars">
	<ellipse class="st2" cx="962.69" cy="320.49" rx="6.25" ry="6.2"/>
	<ellipse class="st3" cx="425.07" cy="314.05" rx="7.5" ry="11.15"/>
	<ellipse class="st4" cx="1645.66" cy="303.44" rx="9.06" ry="6.74"/>
	<ellipse class="st5" cx="933.64" cy="519.09" rx="7.19" ry="7.13"/>
	<ellipse class="st6" cx="933.64" cy="519.09" rx="4.4" ry="4.37"/>
	<ellipse class="st7" cx="674.82" cy="113.16" rx="5.62" ry="5.58"/>
	<ellipse class="st8" cx="1186.39" cy="652.63" rx="6.25" ry="6.2"/>
	<ellipse class="st9" cx="1099.5" cy="538.84" rx="2.81" ry="2.79"/>
	<ellipse class="st10" cx="1096.41" cy="757.35" rx="2.5" ry="2.48"/>
	<ellipse class="st11" cx="425.38" cy="314.36" rx="4.69" ry="4.65"/>
	<ellipse class="st12" cx="962.69" cy="320.49" rx="3.75" ry="3.72"/>
	<ellipse class="st12" cx="962.69" cy="320.49" rx="3.75" ry="3.72"/>
	<ellipse class="st12" cx="962.69" cy="320.49" rx="3.75" ry="3.72"/>
	<ellipse class="st13" cx="1645.66" cy="303.44" rx="4.69" ry="4.65"/>
	<ellipse class="st9" cx="1174.83" cy="496.78" rx="2.81" ry="2.79"/>
	<polygon class="st14" points="636.09,431.37 642.14,438.5 632.83,439.71 625.64,445.71 624.43,436.47 618.38,429.34 627.69,428.13 
		634.88,422.13 	"/>
	<polygon class="st15" points="1126.33,439.47 1132.94,442 1127.87,445.65 1126.09,451.61 1121.48,446.27 1114.86,443.74 
		1119.93,440.09 1121.72,434.13 	"/>
	<polygon class="st16" points="1089.67,589.75 1098.65,591.76 1092.1,598.17 1090.07,607.07 1083.6,600.57 1074.63,598.56 
		1081.18,592.15 1083.21,583.25 	"/>
	<polygon class="st17" points="1607.4,132.03 1611.92,125.48 1614.58,131.84 1620.65,135.2 1613.57,138.9 1609.05,145.44 
		1606.38,139.08 1600.32,135.73 	"/>
	<polygon class="st18" points="774.83,707.39 784.72,705.64 780.86,714.84 782.62,724.65 773.35,720.83 763.46,722.57 
		767.31,713.37 765.55,703.57 	"/>
	<g>
		<ellipse class="st19" cx="1723.9" cy="830.02" rx="7.81" ry="7.44"/>
		<path class="st20" d="M1726.47,811.25c0.59,0.08,0.22,6.53-0.8,15.07c1.37,0.59,2.35,1.86,2.57,3.33c6.5,1,11.23,2.12,11.16,2.69
			c-0.08,0.57-4.94,0.42-11.48-0.31c-0.6,1.36-1.88,2.33-3.36,2.54c-1.27,8.52-2.63,14.83-3.21,14.75s-0.22-6.53,0.8-15.07
			c-1.38-0.59-2.35-1.87-2.56-3.35c-6.17-0.97-10.61-2.04-10.54-2.59c0.07-0.55,4.64-0.42,10.85,0.24c0.59-1.37,1.87-2.35,3.36-2.56
			C1724.53,817.48,1725.88,811.17,1726.47,811.25z"/>
	</g>
	<g>
		<ellipse class="st21" cx="286.17" cy="545.56" rx="5.19" ry="4.94"/>
		<path class="st22" d="M284.46,533.09c-0.39,0.05-0.15,4.34,0.53,10.02c-0.91,0.39-1.56,1.24-1.71,2.21
			c-4.32,0.67-7.47,1.41-7.41,1.79c0.05,0.38,3.28,0.28,7.63-0.2c0.4,0.9,1.25,1.55,2.23,1.69c0.85,5.66,1.75,9.86,2.14,9.81
			c0.39-0.05,0.15-4.34-0.53-10.02c0.91-0.4,1.56-1.24,1.7-2.22c4.1-0.65,7.05-1.35,7-1.72c-0.05-0.37-3.08-0.28-7.21,0.16
			c-0.4-0.91-1.24-1.56-2.23-1.7C285.75,537.23,284.85,533.03,284.46,533.09z"/>
	</g>
	<g>
		<g>
			<path class="st8" d="M1824.06,270.44c-0.9-0.36-1.71-0.86-2.41-1.46l-45.52-18.86c-0.98-0.4-1.47-1.42-1.11-2.28
				c0.18-0.43,0.55-0.74,0.98-0.89c0.43-0.15,0.95-0.14,1.43,0.06l10.59,4.38l0.98-2.33l-14.85-6.15c-0.53-0.22-0.92-0.61-1.14-1.06
				c-0.21-0.45-0.26-0.95-0.06-1.42c0.39-0.93,1.56-1.33,2.62-0.89l14.85,6.15l1.09-2.59l-4.7-1.94c-0.57-0.24-1-0.65-1.23-1.13
				c-0.23-0.48-0.27-1.03-0.07-1.53c0.42-1,1.69-1.43,2.82-0.96l39.09,16.19c1.08,0,2.17,0.21,3.23,0.64
				c4.47,1.81,6.63,6.87,4.8,11.31S1828.53,272.25,1824.06,270.44z"/>
			<path class="st23" d="M1823.51,267.4c-0.75-0.3-1.44-0.69-2.03-1.14l-37.96-15.65c-0.81-0.33-1.28-1.06-1.04-1.64
				c0.12-0.28,0.4-0.48,0.74-0.55c0.34-0.08,0.76-0.04,1.16,0.13l8.83,3.63l0.65-1.54l-12.38-5.1c-0.44-0.18-0.79-0.47-0.99-0.79
				c-0.2-0.32-0.26-0.67-0.13-0.98c0.26-0.62,1.19-0.82,2.06-0.46l12.38,5.1l0.73-1.72l-3.93-1.61c-0.47-0.2-0.84-0.51-1.07-0.85
				c-0.21-0.35-0.28-0.72-0.14-1.06c0.28-0.66,1.27-0.88,2.23-0.49l32.6,13.43c0.87,0.06,1.77,0.27,2.65,0.63
				c3.73,1.51,5.77,5.11,4.57,8.06C1831.24,267.74,1827.24,268.91,1823.51,267.4z"/>
		</g>
		<path class="st24" d="M1823.51,258.63l0.32-0.78c0.17-0.42-0.03-0.89-0.45-1.06l-23.94-9.66c-0.42-0.17-0.9,0.03-1.07,0.45
			l-0.32,0.78c-0.17,0.42,0.03,0.89,0.45,1.06l23.94,9.66C1822.86,259.25,1823.34,259.05,1823.51,258.63z"/>
	</g>
	<g>
		<g>
			<path class="st25" d="M109.3,364.66c1.22,0.74,2.32,1.6,3.29,2.56c0.01,0.01,0.02,0.02,0.03,0.03c0.49,0.48,0.94,0.99,1.36,1.51
				c0.77,0.96,1.42,1.99,1.97,3.07c0.5,0.99,0.9,2.03,1.2,3.09c0.49,1.71,0.72,3.49,0.67,5.27c-0.08,2.99-0.92,6-2.6,8.74
				c-1.6,2.6-3.77,4.64-6.25,6.07c-2.51,1.45-5.35,2.26-8.24,2.37c-2.01,0.08-4.05-0.17-6.02-0.79c-1.36-0.42-2.69-1.01-3.97-1.78
				c-0.51-0.31-1-0.64-1.46-0.99c-0.49-0.37-0.96-0.76-1.4-1.17c-0.74-0.68-1.41-1.42-2.02-2.2c-0.31-0.41-0.61-0.83-0.88-1.26
				c-1.14-1.78-1.94-3.75-2.38-5.79c-0.17-0.79-0.28-1.58-0.34-2.39c0,0,0-0.01,0-0.01c-0.07-0.92-0.06-1.84,0.02-2.76
				c0-0.01,0-0.02,0-0.02c0.22-2.64,1.06-5.27,2.54-7.69c3.06-4.97,8.19-7.91,13.62-8.39c0.9-0.08,1.8-0.09,2.71-0.03
				c2.64,0.16,5.27,0.91,7.71,2.3l0.01,0.01C109.03,364.49,109.17,364.57,109.3,364.66z"/>
			<g>
				<path class="st26" d="M99.09,374.65c-0.01,0-0.01,0.01-0.02,0.01C99.07,374.66,99.08,374.65,99.09,374.65L99.09,374.65z"/>
				<path class="st26" d="M85.01,389.15c0,0-2.06-3.43-2.37-5.79c-6.91,7.21-9.39,13.68-7.22,16.59c3.27,4.38,17.94-0.9,32.77-11.79
					c14.83-10.89,24.19-23.27,20.92-27.65c-2.43-3.25-10.22-2.07-20.61,3.67c0,0,2.56,1.55,4.35,3.28c3.68-1.28,5.68-1.31,6.71,0.07
					c2.11,2.83-3.93,10.82-13.5,17.84c-9.57,7.03-19.04,10.44-21.15,7.61C84.91,392.98,83.66,391.84,85.01,389.15z"/>
			</g>
			<path class="st27" d="M92.51,375.18c-5.21,3.52-10.22,3.04-10.22,3.04s-0.24,1.65-0.02,2.81c0,0,5.13,0.3,10.83-2.88
				C96.6,376.2,94.2,374.04,92.51,375.18z"/>
			<path class="st27" d="M101.57,373.82c-2.99,4.22-6.93,7.26-12.02,8.89c-1.08,0.48-0.92,1.34-0.29,1.95l0,0
				c0.34,0.43,1.18,0.5,1.97,0.28c4.81-1.51,8.8-4.49,12.02-8.89c0.44-0.7,0.42-1.77,0.29-1.95h0
				C102.84,373.24,102.02,373.18,101.57,373.82z"/>
			<path class="st27" d="M112.16,388.17c0.17,0.11,0.35,0.25,0.52,0.44c0.15,0.17,0.23,1.24-0.17,1.96
				c-1.07,1.65-2.24,3.13-3.54,4.42c-2.51,1.45-5.35,2.26-8.24,2.37c4.24-1.97,7.51-4.99,9.96-8.93
				C111.02,387.93,111.58,387.82,112.16,388.17z"/>
			<path class="st27" d="M101.24,383.6c0.25,0.15,0.49,0.42,0.68,0.79c0.1,0.2-0.09,1.26-0.66,1.86c-3.97,3.66-8.42,5.82-13.37,6.4
				c-0.74-0.68-1.41-1.42-2.02-2.2c0.15-0.13,0.37-0.23,0.65-0.29c5.3-0.63,9.77-2.85,13.52-6.42
				C100.4,383.4,100.83,383.35,101.24,383.6z"/>
		</g>
		<path class="st27" d="M113.99,368.76c0.77,0.96,1.42,1.99,1.97,3.07c-0.9,2.88-2.61,5.12-5.19,6.69
			c-0.27,0.15-0.58,0.24-0.89,0.27c-0.31,0.02-0.6-0.03-0.84-0.17c-0.79-0.38-1.32-1.03-0.65-1.58
			C111.56,375.05,113.36,372.25,113.99,368.76z"/>
		<path class="st27" d="M101.16,362.11c-0.15,3.09-1.3,5.73-3.47,7.91c-0.22,0.21-0.51,0.37-0.8,0.47
			c-0.29,0.09-0.59,0.11-0.85,0.03c-0.86-0.18-1.52-0.7-1.01-1.39c2.02-2.06,3.12-4.39,3.43-6.98
			C99.35,362.06,100.26,362.05,101.16,362.11z"/>
	</g>
	<ellipse class="st8" cx="1145.75" cy="659.62" rx="6.25" ry="6.2"/>
	<ellipse class="st9" cx="1013.45" cy="715.84" rx="2.81" ry="2.79"/>
	<ellipse class="st10" cx="797.82" cy="760.19" rx="2.5" ry="2.48"/>
	<ellipse class="st9" cx="990.44" cy="633.2" rx="2.81" ry="2.79"/>
	<polygon class="st15" points="922.67,666.08 926.73,660.32 929.09,666.08 934.49,669.23 928.15,672.38 924.09,678.14 
		921.73,672.38 916.33,669.22 	"/>
	<polygon class="st18" points="1235.35,694.39 1229.18,686.53 1239.18,685.61 1247.11,679.49 1248.03,689.41 1254.2,697.27 
		1244.2,698.19 1236.27,704.31 	"/>
	
		<ellipse transform="matrix(0.6728 -0.7398 0.7398 0.6728 432.2205 1087.486)" class="st3" cx="1445.62" cy="55.08" rx="7.46" ry="11.2"/>
	<ellipse class="st11" cx="1446.06" cy="55.06" rx="4.69" ry="4.65"/>
	<g>
		
			<ellipse transform="matrix(0.7517 -0.6595 0.6595 0.7517 171.0842 1081.6163)" class="st21" cx="1522.06" cy="313.59" rx="5.17" ry="4.96"/>
		<path class="st22" d="M1511.68,306.33c-0.23,0.32,3.1,3.06,7.76,6.43c-0.33,0.93-0.15,1.98,0.47,2.74
			c-2.45,3.59-4.04,6.38-3.73,6.6c0.31,0.22,2.44-2.2,5.04-5.68c0.94,0.33,1.99,0.15,2.77-0.47c4.76,3.24,8.47,5.44,8.7,5.12
			c0.23-0.32-3.1-3.06-7.76-6.43c0.33-0.93,0.15-1.98-0.48-2.75c2.32-3.42,3.8-6.05,3.5-6.26s-2.31,2.05-4.79,5.35
			c-0.94-0.33-2-0.16-2.78,0.46C1515.63,308.22,1511.91,306.01,1511.68,306.33z"/>
	</g>
	<ellipse class="st9" cx="601.51" cy="318.14" rx="2.81" ry="2.79"/>
	<ellipse class="st9" cx="578.5" cy="235.5" rx="2.81" ry="2.79"/>
	
		<ellipse transform="matrix(0.9567 -0.2911 0.2911 0.9567 -206.2939 149.2237)" class="st4" cx="398.45" cy="768.04" rx="6.79" ry="8.99"/>
	<ellipse class="st13" cx="398.45" cy="768.04" rx="4.69" ry="4.65"/>
	<polygon class="st17" points="243.51,852.97 235.9,850.53 241.3,846.19 242.83,839.47 248.41,845.16 256.02,847.6 250.62,851.94 
		249.09,858.65 	"/>
	
		<ellipse transform="matrix(0.4533 -0.8913 0.8913 0.4533 -799.3903 753.8871)" class="st3" cx="214.9" cy="1028.63" rx="11.17" ry="7.49"/>
	<ellipse class="st11" cx="214.76" cy="1028.22" rx="4.69" ry="4.65"/>
	<g>
		
			<ellipse transform="matrix(0.38 -0.925 0.925 0.38 -541.6907 957.3406)" class="st21" cx="443.26" cy="882.73" rx="4.95" ry="5.18"/>
		<path class="st22" d="M439.18,894.66c0.37,0.13,2.08-3.82,4.03-9.2c0.99,0.05,1.95-0.42,2.52-1.23c4.17,1.31,7.32,2.03,7.44,1.68
			c0.12-0.36-2.82-1.7-6.92-3.19c0.05-0.98-0.42-1.94-1.24-2.5c1.79-5.44,2.87-9.6,2.49-9.72c-0.37-0.13-2.08,3.82-4.03,9.2
			c-1-0.05-1.96,0.42-2.52,1.24c-3.96-1.23-6.92-1.91-7.04-1.55s2.63,1.61,6.53,3.04c-0.06,0.99,0.41,1.95,1.23,2.51
			C439.89,890.37,438.81,894.53,439.18,894.66z"/>
	</g>
	<ellipse class="st8" cx="1589.75" cy="521.11" rx="6.25" ry="6.2"/>
	<ellipse class="st10" cx="1605.57" cy="657.79" rx="2.5" ry="2.48"/>
	<ellipse class="st8" cx="1567.17" cy="555.34" rx="6.25" ry="6.2"/>
	<ellipse class="st9" cx="1518.37" cy="689.62" rx="2.81" ry="2.79"/>
	<polygon class="st18" points="1653.94,514.09 1643.93,513.21 1650.08,505.33 1650.98,495.41 1658.92,501.51 1668.92,502.4 
		1662.77,510.27 1661.88,520.19 	"/>
	<g>
		
			<ellipse transform="matrix(0.696 -0.718 0.718 0.696 63.3845 248.6924)" class="st19" cx="325.42" cy="49.48" rx="7.77" ry="7.47"/>
		<path class="st20" d="M312.14,35.87c0.43-0.41,5.31,3.86,11.45,9.95c1.32-0.7,2.93-0.68,4.22,0.06c4.81-4.44,8.63-7.44,9.03-7.03
			c0.4,0.41-2.73,4.11-7.34,8.75c0.71,1.31,0.68,2.9-0.06,4.19c5.96,6.26,10.12,11.22,9.7,11.63s-5.31-3.86-11.45-9.95
			c-1.32,0.7-2.94,0.68-4.24-0.07c-4.59,4.21-8.18,7.01-8.57,6.61c-0.39-0.4,2.54-3.88,6.91-8.31c-0.72-1.31-0.7-2.91,0.05-4.2
			C315.88,41.24,311.71,36.28,312.14,35.87z"/>
	</g>
	<ellipse class="st2" cx="554.81" cy="563.98" rx="6.25" ry="6.2"/>
	<ellipse class="st12" cx="554.81" cy="563.98" rx="3.75" ry="3.72"/>
	<ellipse class="st12" cx="554.81" cy="563.98" rx="3.75" ry="3.72"/>
	<ellipse class="st12" cx="554.81" cy="563.98" rx="3.75" ry="3.72"/>
	<g>
		
			<ellipse transform="matrix(0.5676 -0.8233 0.8233 0.5676 -269.8617 1403.3197)" class="st19" cx="1200.99" cy="958.56" rx="7.81" ry="7.44"/>
		<path class="st20" d="M1214.99,971.33c-0.4,0.44-5.5-3.52-11.96-9.21c-1.27,0.79-2.86,0.88-4.2,0.22
			c-4.51,4.78-8.12,8.04-8.55,7.66c-0.42-0.38,2.46-4.3,6.77-9.27c-0.78-1.26-0.85-2.87-0.19-4.21
			c-6.29-5.88-10.72-10.58-10.32-11.02s5.5,3.52,11.96,9.21c1.27-0.8,2.87-0.88,4.21-0.21c4.3-4.53,7.7-7.58,8.11-7.21
			c0.41,0.38-2.28,4.06-6.36,8.8c0.79,1.27,0.87,2.87,0.2,4.22C1210.96,966.19,1215.39,970.89,1214.99,971.33z"/>
	</g>
	
		<ellipse transform="matrix(0.5676 -0.8233 0.8233 0.5676 -179.7669 1575.5011)" class="st10" cx="1409.95" cy="958.88" rx="2.5" ry="2.48"/>
	
		<ellipse transform="matrix(0.5676 -0.8233 0.8233 0.5676 -95.7116 1555.819)" class="st9" cx="1433.24" cy="869.02" rx="2.81" ry="2.79"/>
	
		<ellipse transform="matrix(0.7669 -0.6418 0.6418 0.7669 133.5449 701.2587)" class="st3" cx="1032.1" cy="166.8" rx="11.15" ry="7.5"/>
	
		<ellipse transform="matrix(0.7669 -0.6418 0.6418 0.7669 166.6393 917.5871)" class="st7" cx="1346.44" cy="229.4" rx="5.58" ry="5.62"/>
	
		<ellipse transform="matrix(0.7669 -0.6418 0.6418 0.7669 133.2549 701.3371)" class="st11" cx="1032.07" cy="167.23" rx="4.65" ry="4.69"/>
	
		<ellipse transform="matrix(0.7669 -0.6418 0.6418 0.7669 70.685 804.0726)" class="st9" cx="1142.2" cy="304.73" rx="2.79" ry="2.81"/>
	
		<ellipse transform="matrix(0.7669 -0.6418 0.6418 0.7669 127.3792 818.7889)" class="st9" cx="1190.81" cy="234.05" rx="2.79" ry="2.81"/>
</g>
</svg>
