<svg xmlns="http://www.w3.org/2000/svg" xmlns:xlink="http://www.w3.org/1999/xlink" viewBox="0 0 730.75 487.9"><defs><style>.cls-1{fill:none;}.cls-2{fill:#5f699e;}.cls-3{fill:#cecce4;}.cls-4{fill:#999;}.cls-5{fill:#666;}.cls-6{fill:#48426b;}.cls-7{clip-path:url(#clip-path);}.cls-8{fill:#9a9a9a;}.cls-9{fill:#9b9b9b;}.cls-10{fill:#9b9b9c;}.cls-11{fill:#9c9c9d;}.cls-12{fill:#9d9d9f;}.cls-13{fill:#9e9ea0;}.cls-14{fill:#9e9ea1;}.cls-15{fill:#9f9fa2;}.cls-16{fill:#a0a0a3;}.cls-17{fill:#a1a1a4;}.cls-18{fill:#a2a1a5;}.cls-19{fill:#a2a2a6;}.cls-20{fill:#a3a3a7;}.cls-21{fill:#a4a3a8;}.cls-22{fill:#a5a4aa;}.cls-23{fill:#a5a5ab;}.cls-24{fill:#a6a6ac;}.cls-25{fill:#a7a6ad;}.cls-26{fill:#a8a7ae;}.cls-27{fill:#a8a8af;}.cls-28{fill:#a9a9b0;}.cls-29{fill:#aaa9b1;}.cls-30{fill:#abaab2;}.cls-31{fill:#acabb3;}.cls-32{fill:#acacb4;}.cls-33{fill:#adacb5;}.cls-34{fill:#aeadb6;}.cls-35{fill:#afaeb7;}.cls-36{fill:#afaeb9;}.cls-37{fill:#b0afba;}.cls-38{fill:#b1b0bb;}.cls-39{fill:#b2b1bc;}.cls-40{fill:#b2b1bd;}.cls-41{fill:#b3b2be;}.cls-42{fill:#b4b3bf;}.cls-43{fill:#b5b3c0;}.cls-44{fill:#b5b4c1;}.cls-45{fill:#b6b5c2;}.cls-46{fill:#b7b6c3;}.cls-47{fill:#b7b6c4;}.cls-48{fill:#b8b7c5;}.cls-49{fill:#b9b8c6;}.cls-50{fill:#bab8c7;}.cls-51{fill:#bab9c8;}.cls-52{fill:#bbbac9;}.cls-53{fill:#bcbaca;}.cls-54{fill:#bcbbcb;}.cls-55{fill:#bdbccc;}.cls-56{fill:#bebdcd;}.cls-57{fill:#bfbdce;}.cls-58{fill:#bfbecf;}.cls-59{fill:#c0bfd0;}.cls-60{fill:#c1bfd1;}.cls-61{fill:#c1c0d2;}.cls-62{fill:#c2c1d3;}.cls-63{fill:#c3c1d4;}.cls-64{fill:#c3c2d5;}.cls-65{fill:#c4c3d6;}.cls-66{fill:#c5c3d7;}.cls-67{fill:#c5c4d8;}.cls-68{fill:#c6c4d9;}.cls-69{fill:#c7c5da;}.cls-70{fill:#c7c6db;}.cls-71{fill:#c8c6dc;}.cls-72{fill:#c9c7dd;}.cls-73{fill:#c9c8dd;}.cls-74{fill:#cac8de;}.cls-75{fill:#cbc9df;}.cls-76{fill:#cbc9e0;}.cls-77{fill:#cccae1;}.cls-78{fill:#cccae2;}.cls-79{fill:#cdcbe3;}.cls-80{fill:#cecce3;}</style><clipPath id="clip-path"><circle class="cls-1" cx="348.7" cy="250.38" r="65.7"/></clipPath></defs><title>broken sat normal</title><g id="Layer_2" data-name="Layer 2"><g id="Layer_1-2" data-name="Layer 1"><polygon class="cls-2" points="198.78 466 181.93 476.11 197.09 487.9 212.25 477.8 198.78 466"/><polygon class="cls-2" points="131.4 206.58 121.29 223.43 111.18 221.75 131.4 206.58"/><polygon class="cls-2" points="70.75 415.47 79.17 418.84 79.17 423.89 70.75 423.89 70.75 430.63 60.64 430.63 70.75 415.47"/><polygon class="cls-2" points="47.17 348.09 55.59 354.82 47.17 358.19 47.17 348.09"/><polygon class="cls-2" points="21.9 270.6 37.06 273.97 28.64 282.39 21.9 270.6"/><polygon class="cls-2" points="0 302.6 6.74 300.92 16.85 304.29 11.79 312.71 0 311.03 0 302.6"/><polygon class="cls-3" points="208.88 337.98 203.83 341.35 204.82 343.03 210.57 339.66 208.88 337.98"/><polygon class="cls-3" points="213.94 363.25 220.68 359.88 218.99 358.19 212.25 361.56 213.94 363.25"/><polyline class="cls-3" points="178.56 268.91 178.44 268.98 171.82 272.28 172.8 274.91 178.56 272.28"/><polygon class="cls-3" points="169.26 251.59 162.53 254.07 163.78 256.81 170.14 253.75 169.26 251.59"/><polygon class="cls-2" points="173.65 276.76 162.53 252.38 122.92 269.19 122.85 269.22 115.78 272.22 113.86 273.04 166.05 384.82 189.03 375.46 191.17 374.59 214.05 365.29 186.76 305.5 184.97 301.59 183.19 297.66 181.4 293.75 179.61 289.83 177.84 285.92 176.05 282.01 174.26 278.1 173.68 276.81 173.65 276.76"/><polygon class="cls-4" points="162.79 311.91 162.64 311.51 185.52 302.62 185.67 303.01 162.79 311.91"/><polygon class="cls-4" points="155.36 295.91 155.2 295.52 177.93 286.68 178.09 287.07 155.36 295.91"/><polygon class="cls-4" points="157.21 299.9 157.06 299.51 179.83 290.65 179.98 291.05 157.21 299.9"/><polygon class="cls-4" points="149.79 283.89 149.64 283.49 172.25 274.72 172.4 275.11 149.79 283.89"/><polygon class="cls-4" points="151.65 287.89 151.49 287.5 174.15 278.71 174.31 279.1 151.65 287.89"/><rect class="cls-4" x="145.3" y="271.42" width="24.22" height="0.42" transform="translate(-81.87 68.39) rotate(-19.56)"/><polygon class="cls-4" points="147.94 279.89 147.78 279.5 170.35 270.74 170.51 271.13 147.94 279.89"/><rect class="cls-4" x="143.41" y="267.27" width="24.09" height="0.42" transform="translate(-88.77 77.57) rotate(-21.97)"/><polygon class="cls-4" points="142.36 267.85 142.2 267.46 164.62 258.66 164.77 259.05 142.36 267.85"/><polygon class="cls-4" points="153.5 291.9 153.35 291.51 176.04 282.7 176.2 283.1 153.5 291.9"/><polygon class="cls-4" points="160.92 307.9 160.77 307.51 183.62 298.64 183.78 299.03 160.92 307.9"/><polygon class="cls-4" points="156.39 304.93 156.38 304.93 156.41 304.51 156.39 304.93"/><polygon class="cls-4" points="159.06 303.91 158.91 303.51 181.72 294.65 181.87 295.04 159.06 303.91"/><polygon class="cls-4" points="157.17 306.81 157.16 306.79 157.46 306.5 157.17 306.81"/><polygon class="cls-4" points="137.37 322.73 137.22 322.34 161.93 312.94 162.07 313.34 137.37 322.73"/><rect class="cls-4" x="128.39" y="300.71" width="26.26" height="0.42" transform="translate(-97.49 69.72) rotate(-20.77)"/><rect class="cls-4" x="130.4" y="304.93" width="26.3" height="0.42" transform="translate(-98.86 70.71) rotate(-20.77)"/><rect class="cls-4" x="122.37" y="288" width="26.11" height="0.42" transform="translate(-93.39 66.74) rotate(-20.77)"/><rect class="cls-4" x="124.38" y="292.24" width="26.17" height="0.42" transform="translate(-94.76 67.73) rotate(-20.77)"/><rect class="cls-4" x="118.48" y="279.87" width="26.09" height="0.42" transform="translate(-84.57 58.61) rotate(-19.14)"/><rect class="cls-4" x="120.36" y="283.78" width="26.07" height="0.42" transform="translate(-92.02 65.74) rotate(-20.77)"/><rect class="cls-4" x="116.44" y="275.49" width="25.94" height="0.42" transform="translate(-92.23 66.81) rotate(-21.55)"/><polygon class="cls-4" points="115.25 276.06 115.09 275.67 139.3 266.37 139.45 266.76 115.25 276.06"/><rect class="cls-4" x="126.39" y="296.48" width="26.21" height="0.42" transform="translate(-96.13 68.73) rotate(-20.77)"/><rect class="cls-4" x="134.41" y="313.4" width="26.4" height="0.42" transform="translate(-101.6 72.7) rotate(-20.77)"/><polygon class="cls-4" points="130.4 313.97 130.38 313.97 130.38 313.55 130.4 313.97"/><rect class="cls-4" x="132.4" y="309.17" width="26.34" height="0.42" transform="translate(-100.23 71.71) rotate(-20.77)"/><rect class="cls-4" x="162.11" y="373.05" width="25.15" height="0.42" transform="translate(-124.9 90.26) rotate(-21.55)"/><rect class="cls-4" x="154.52" y="356.53" width="24.99" height="0.42" transform="translate(-119.37 86.29) rotate(-21.55)"/><rect class="cls-4" x="156.42" y="360.65" width="25.02" height="0.42" transform="translate(-120.75 87.28) rotate(-21.55)"/><polygon class="cls-4" points="149.79 349.08 149.64 348.69 172.75 339.59 172.91 339.99 149.79 349.08"/><polygon class="cls-4" points="151.69 353.23 151.53 352.84 174.7 343.73 174.85 344.12 151.69 353.23"/><polygon class="cls-4" points="146 340.81 145.86 340.42 169.19 331.99 169.33 332.39 146 340.81"/><polygon class="cls-4" points="147.9 344.95 147.74 344.56 170.82 335.48 170.98 335.88 147.9 344.95"/><polygon class="cls-4" points="144.26 336.99 144.1 336.6 166.94 327.24 167.1 327.63 144.26 336.99"/><rect class="cls-4" x="141.25" y="327.53" width="24.67" height="0.42" transform="translate(-110.56 80.29) rotate(-21.76)"/><polygon class="cls-4" points="153.58 357.37 153.42 356.98 176.63 347.86 176.78 348.25 153.58 357.37"/><polygon class="cls-4" points="161.15 373.92 161 373.53 184.37 364.34 184.53 364.73 161.15 373.92"/><polygon class="cls-4" points="156.85 370.62 156.83 370.62 156.87 370.2 156.85 370.62"/><rect class="cls-4" x="158.31" y="364.79" width="25.07" height="0.42" transform="translate(-122.14 88.28) rotate(-21.55)"/><polygon class="cls-4" points="187.44 366.74 187.29 366.34 210.34 357.19 210.5 357.58 187.44 366.74"/><polygon class="cls-4" points="179.97 350.33 179.81 349.94 202.72 340.86 202.88 341.25 179.97 350.33"/><polygon class="cls-4" points="181.83 354.43 181.68 354.03 204.62 344.93 204.78 345.32 181.83 354.43"/><polygon class="cls-4" points="174.37 338.01 174.22 337.62 197 328.59 197.16 328.98 174.37 338.01"/><rect class="cls-4" x="175.3" y="337.19" width="24.56" height="0.42" transform="translate(-110.83 92.5) rotate(-21.55)"/><rect class="cls-4" x="169.83" y="325.22" width="24.47" height="0.42" transform="matrix(0.94, -0.34, 0.34, 0.94, -100.01, 81.53)"/><rect class="cls-4" x="171.57" y="329.01" width="24.47" height="0.42" transform="translate(-108.09 90.54) rotate(-21.55)"/><polygon class="cls-4" points="168.92 326.02 168.76 325.63 191.28 316.35 191.44 316.74 168.92 326.02"/><polygon class="cls-4" points="166.9 321.57 166.74 321.18 189.33 312.13 189.49 312.52 166.9 321.57"/><rect class="cls-4" x="177.16" y="341.29" width="24.6" height="0.42" transform="translate(-112.2 93.47) rotate(-21.55)"/><rect class="cls-4" x="184.61" y="357.66" width="24.77" height="0.42" transform="translate(-117.69 97.39) rotate(-21.55)"/><polygon class="cls-4" points="180.87 359.75 180.85 359.75 180.89 359.33 180.87 359.75"/><polygon class="cls-4" points="183.69 358.53 183.54 358.14 206.52 349.02 206.68 349.42 183.69 358.53"/><path class="cls-3" d="M215.34,360.05l-1.7-.13-.45,1.14v0L188.52,307.9l-1-2.08-23-49.63h0l1.53-1.33-3.28-3.34-23,9.37-2.63,1.06h0l-24.69,10-.19,4.81,1.69.12.37-.92,48.62,104.8-1.39,1.2,3.27,3.34L189,375.46l2.14-.87,24-9.74ZM162.92,255.92l23.37,50.45L164.71,316l-24.33-53.85,18.87-7.6ZM115.86,272l21.85-8.8h0l24.63,53.84-22.75,10.17L115,274.16ZM168.3,382.28l-3.9-1.45h0L140.82,329.9l22.62-10.42,25,54.69Zm43.4-17.49-21.11,8.5L165.78,318.4l21.49-9.91,25.19,54.4Z"/><polygon class="cls-3" points="252.68 292.5 245.94 295.87 242.58 292.5 254.37 287.44 252.68 292.5"/><polygon class="cls-3" points="239.21 267.23 232.47 270.6 234.15 275.65 244.26 270.6 239.21 267.23"/><path class="cls-2" d="M224.05,243.64l-47.17,1.69-8.42,5L219,361.56l10.11-5.05,32-37.06ZM227.41,343l-6.73-1.68-38.75-80.86,6.74-5.05,20.21,1.68,11.8,5.05,23.58,52.23v8.42Z"/><polygon class="cls-2" points="239.21 267.23 252.68 292.5 281.32 270.6 276.27 258.81 239.21 267.23"/><polyline class="cls-3" points="404.29 199.85 395.87 204.9 397.55 206.58 405.98 203.22 404.29 199.85"/><polygon class="cls-3" points="409.35 209.95 400.92 213.32 400.92 211.64 409.35 206.58 409.35 209.95"/><polygon class="cls-3" points="466.62 129.09 471.94 125.12 473.12 127.31 468.31 130.78 466.62 129.09"/><polygon class="cls-3" points="464.04 108.47 458.2 113.93 459.88 115.62 464.53 111.23 464.04 108.47"/><polygon class="cls-3" points="516.61 207.89 508.74 209.95 508.74 208.27 515.47 206.58 516.61 207.89"/><polygon class="cls-3" points="508.74 193.11 500.31 194.79 502 196.48 509.52 195.13 508.74 193.11"/><polygon class="cls-2" points="684.39 24.6 671.92 0.88 633.31 19.88 633.25 19.92 626.36 23.3 624.49 24.23 682.86 132.92 705.28 122.29 707.37 121.29 729.69 110.73 699.09 52.56 697.09 48.76 695.09 44.93 693.08 41.13 691.08 37.32 689.09 33.51 687.08 29.7 685.08 25.9 684.42 24.65 684.39 24.6"/><rect class="cls-4" x="674.33" y="54.81" width="24.55" height="0.42" transform="translate(38.85 289.26) rotate(-24.46)"/><rect class="cls-4" x="666.02" y="39.29" width="24.39" height="0.42" transform="translate(44.52 284.39) rotate(-24.46)"/><rect class="cls-4" x="668.09" y="43.16" width="24.43" height="0.42" transform="translate(43.11 285.61) rotate(-24.46)"/><rect class="cls-4" x="659.8" y="27.63" width="24.25" height="0.42" transform="translate(48.79 280.74) rotate(-24.46)"/><rect class="cls-4" x="661.87" y="31.52" width="24.3" height="0.42" transform="translate(47.37 281.96) rotate(-24.46)"/><polygon class="cls-4" points="656.81 25.27 656.65 24.88 678.97 15.49 679.14 15.88 656.81 25.27"/><rect class="cls-4" x="657.72" y="23.76" width="24.21" height="0.42" transform="translate(50.2 279.53) rotate(-24.46)"/><polygon class="cls-4" points="654.9 21.68 654.72 21.3 676.52 11.03 676.7 11.41 654.9 21.68"/><rect class="cls-4" x="651.46" y="12.03" width="24.08" height="0.42" transform="translate(55.43 278.01) rotate(-24.67)"/><rect class="cls-4" x="663.95" y="35.41" width="24.34" height="0.42" transform="translate(45.94 283.18) rotate(-24.46)"/><rect class="cls-4" x="672.24" y="50.93" width="24.52" height="0.42" transform="translate(40.27 288.04) rotate(-24.46)"/><polygon class="cls-4" points="668.75 53.69 668.73 53.69 668.73 53.27 668.75 53.69"/><rect class="cls-4" x="670.16" y="47.05" width="24.47" height="0.42" transform="translate(41.69 286.82) rotate(-24.46)"/><polygon class="cls-4" points="669.62 55.52 669.6 55.5 669.9 55.2 669.62 55.52"/><polygon class="cls-4" points="650.75 72.53 650.57 72.14 674.71 61.38 674.88 61.77 650.75 72.53"/><polygon class="cls-4" points="641.76 56.06 641.59 55.67 665.57 44.98 665.74 45.37 641.76 56.06"/><polygon class="cls-4" points="644 60.17 643.83 59.78 667.85 49.07 668.02 49.46 644 60.17"/><rect class="cls-4" x="633.81" y="37.96" width="26.11" height="0.42" transform="translate(40.25 266.01) rotate(-23.96)"/><rect class="cls-4" x="636.06" y="42.08" width="26.17" height="0.42" transform="translate(38.77 267.29) rotate(-23.96)"/><rect class="cls-4" x="629.47" y="30.06" width="26.09" height="0.42" transform="translate(37.19 247.82) rotate(-22.47)"/><rect class="cls-4" x="631.57" y="33.86" width="26.07" height="0.42" transform="translate(41.72 264.74) rotate(-23.96)"/><rect class="cls-4" x="627.19" y="25.8" width="25.94" height="0.42" transform="translate(47.95 270.5) rotate(-24.76)"/><rect class="cls-4" x="624.81" y="21.45" width="25.93" height="0.42" transform="translate(47.42 263.94) rotate(-24.26)"/><rect class="cls-4" x="638.3" y="46.2" width="26.21" height="0.42" transform="translate(37.29 268.56) rotate(-23.96)"/><rect class="cls-4" x="647.26" y="62.64" width="26.4" height="0.42" transform="translate(31.4 273.65) rotate(-23.96)"/><polygon class="cls-4" points="643.28 64.17 643.26 64.17 643.26 63.75 643.28 64.17"/><polygon class="cls-4" points="646.24 64.29 646.07 63.91 670.13 53.18 670.3 53.57 646.24 64.29"/><rect class="cls-4" x="678.25" y="120.68" width="25.15" height="0.42" transform="translate(12.88 300.44) rotate(-24.76)"/><rect class="cls-4" x="669.75" y="104.62" width="24.98" height="0.42" transform="translate(18.81 295.37) rotate(-24.76)"/><rect class="cls-4" x="671.87" y="108.62" width="25.03" height="0.42" transform="translate(17.33 296.63) rotate(-24.76)"/><polygon class="cls-4" points="664.62 98.14 664.45 97.76 687.01 87.38 687.19 87.77 664.62 98.14"/><polygon class="cls-4" points="666.74 102.17 666.57 101.79 689.19 91.4 689.37 91.78 666.74 102.17"/><polygon class="cls-4" points="660.37 90.1 660.21 89.71 683.03 79.99 683.19 80.38 660.37 90.1"/><polygon class="cls-4" points="662.5 94.13 662.32 93.75 684.86 83.39 685.03 83.77 662.5 94.13"/><polygon class="cls-4" points="658.42 86.38 658.24 86 680.52 75.38 680.7 75.76 658.42 86.38"/><rect class="cls-4" x="654.88" y="76.41" width="24.67" height="0.42" transform="translate(29.99 288.74) rotate(-24.96)"/><polygon class="cls-4" points="668.87 106.21 668.69 105.83 691.35 95.42 691.52 95.8 668.87 106.21"/><polygon class="cls-4" points="677.35 122.3 677.18 121.92 700 111.44 700.18 111.82 677.35 122.3"/><polygon class="cls-4" points="672.88 119.25 672.87 119.25 672.87 118.83 672.88 119.25"/><rect class="cls-4" x="673.99" y="112.65" width="25.06" height="0.42" transform="translate(15.84 297.9) rotate(-24.76)"/><polygon class="cls-4" points="703.2 113.66 703.02 113.28 725.53 102.85 725.71 103.23 703.2 113.66"/><polygon class="cls-4" points="694.82 97.7 694.64 97.32 717.01 86.96 717.18 87.35 694.82 97.7"/><polygon class="cls-4" points="696.91 101.68 696.73 101.3 719.13 90.93 719.31 91.31 696.91 101.68"/><rect class="cls-4" x="687.32" y="80.17" width="24.51" height="0.42" transform="translate(30.65 300.38) rotate(-24.76)"/><rect class="cls-4" x="689.41" y="84.15" width="24.56" height="0.42" transform="translate(29.17 301.63) rotate(-24.76)"/><rect class="cls-4" x="683.28" y="72.51" width="24.47" height="0.42" transform="translate(27.48 279.52) rotate(-23.17)"/><rect class="cls-4" x="685.23" y="76.19" width="24.47" height="0.42" transform="translate(32.12 299.13) rotate(-24.76)"/><rect class="cls-4" x="681.14" y="68.38" width="24.35" height="0.42" transform="translate(39.1 308.16) rotate(-25.76)"/><polygon class="cls-4" points="680.16 69.72 679.98 69.34 702.03 59.03 702.21 59.41 680.16 69.72"/><rect class="cls-4" x="691.5" y="88.14" width="24.6" height="0.42" transform="translate(27.69 302.88) rotate(-24.76)"/><rect class="cls-4" x="699.86" y="104.06" width="24.77" height="0.42" transform="translate(21.8 307.88) rotate(-24.76)"/><polygon class="cls-4" points="696.26 107.05 696.24 107.05 696.24 106.63 696.26 107.05"/><polygon class="cls-4" points="699 105.68 698.82 105.3 721.26 94.91 721.44 95.29 699 105.68"/><path class="cls-3" d="M730.68,105.42l-1.7,0-.39,1.16v0L701,54.85l-1.09-2L674.13,4.57h0l1.45-1.41L672.11,0,649.64,10.64l-2.56,1.21h0L623,23.26l.08,4.81,1.7,0,.31-.94L679.5,129.06l-1.33,1.28,3.46,3.15,23.65-11.2,2.09-1,23.38-11.06Zm-58.16-101,26.15,49.07-21,10.83L650.36,11.88l18.41-8.65ZM626.43,23.12l21.32-10h0l27.61,52.37L653.22,76.92,625.7,25.29ZM685,130.25,681,129h0L654.59,79.5l22-11.68,28,53.2Zm42.35-19.89L706.71,120,678.86,66.61l20.91-11.1L728,108.42Z"/><polygon class="cls-2" points="630.06 51.1 617.59 27.38 578.98 46.38 578.91 46.42 572.02 49.8 570.15 50.73 628.52 159.42 650.94 148.79 653.03 147.79 675.35 137.23 644.76 79.06 642.76 75.25 640.75 71.43 638.75 67.62 636.74 63.82 634.76 60.01 632.75 56.2 630.75 52.4 630.09 51.15 630.06 51.1"/><polygon class="cls-4" points="621.19 86.8 621.01 86.41 643.36 76.25 643.53 76.63 621.19 86.8"/><rect class="cls-4" x="611.68" y="65.79" width="24.39" height="0.42" transform="translate(28.35 263.31) rotate(-24.37)"/><rect class="cls-4" x="613.76" y="69.66" width="24.43" height="0.42" transform="translate(26.94 264.52) rotate(-24.37)"/><rect class="cls-4" x="605.47" y="54.13" width="24.25" height="0.42" transform="translate(32.94 260.62) rotate(-24.46)"/><rect class="cls-4" x="607.54" y="58.02" width="24.3" height="0.42" transform="translate(31.51 261.84) rotate(-24.46)"/><polygon class="cls-4" points="602.48 51.77 602.32 51.38 624.64 41.99 624.8 42.38 602.48 51.77"/><rect class="cls-4" x="603.39" y="50.26" width="24.21" height="0.42" transform="translate(34.35 259.41) rotate(-24.46)"/><polygon class="cls-4" points="600.57 48.18 600.39 47.8 622.19 37.53 622.37 37.91 600.57 48.18"/><rect class="cls-4" x="597.13" y="38.53" width="24.08" height="0.42" transform="translate(39.41 257.76) rotate(-24.67)"/><rect class="cls-4" x="609.61" y="61.91" width="24.34" height="0.42" transform="translate(30.09 263.06) rotate(-24.46)"/><rect class="cls-4" x="617.91" y="77.43" width="24.52" height="0.42" transform="translate(24.11 266.94) rotate(-24.37)"/><polygon class="cls-4" points="614.41 80.19 614.4 80.19 614.4 79.77 614.41 80.19"/><rect class="cls-4" x="615.83" y="73.55" width="24.47" height="0.42" transform="translate(25.52 265.73) rotate(-24.37)"/><polygon class="cls-4" points="615.29 82.02 615.27 82.01 615.56 81.69 615.29 82.02"/><polygon class="cls-4" points="596.41 99.03 596.24 98.64 620.38 87.88 620.55 88.27 596.41 99.03"/><polygon class="cls-4" points="587.42 82.56 587.25 82.17 611.24 71.48 611.41 71.87 587.42 82.56"/><polygon class="cls-4" points="589.67 86.67 589.5 86.28 613.52 75.57 613.69 75.96 589.67 86.67"/><rect class="cls-4" x="579.48" y="64.46" width="26.11" height="0.42" transform="translate(24.8 246.23) rotate(-23.96)"/><rect class="cls-4" x="581.72" y="68.58" width="26.17" height="0.42" transform="translate(23.33 247.5) rotate(-23.96)"/><rect class="cls-4" x="575.14" y="56.56" width="26.09" height="0.42" transform="translate(22.94 229.07) rotate(-22.47)"/><rect class="cls-4" x="577.24" y="60.36" width="26.07" height="0.42" transform="translate(26.27 244.95) rotate(-23.96)"/><rect class="cls-4" x="572.86" y="52.3" width="25.94" height="0.42" transform="translate(31.86 250.18) rotate(-24.76)"/><rect class="cls-4" x="570.48" y="47.95" width="25.93" height="0.42" transform="translate(31.73 243.96) rotate(-24.26)"/><rect class="cls-4" x="583.96" y="72.7" width="26.21" height="0.42" transform="translate(21.85 248.78) rotate(-23.96)"/><rect class="cls-4" x="592.93" y="89.14" width="26.4" height="0.42" transform="translate(15.95 253.87) rotate(-23.96)"/><polygon class="cls-4" points="588.95 90.67 588.93 90.67 588.93 90.25 588.95 90.67"/><polygon class="cls-4" points="591.91 90.79 591.74 90.41 615.8 79.68 615.97 80.07 591.91 90.79"/><rect class="cls-4" x="623.92" y="147.18" width="25.15" height="0.42" transform="translate(-3.22 280.12) rotate(-24.76)"/><rect class="cls-4" x="615.42" y="131.12" width="24.99" height="0.42" transform="translate(2.72 275.05) rotate(-24.76)"/><rect class="cls-4" x="617.54" y="135.12" width="25.03" height="0.42" transform="translate(1.24 276.31) rotate(-24.76)"/><polygon class="cls-4" points="610.29 124.64 610.11 124.26 632.68 113.88 632.86 114.27 610.29 124.64"/><polygon class="cls-4" points="612.41 128.68 612.23 128.29 634.86 117.9 635.03 118.28 612.41 128.68"/><polygon class="cls-4" points="606.04 116.6 605.87 116.21 628.7 106.49 628.86 106.88 606.04 116.6"/><polygon class="cls-4" points="608.17 120.63 607.99 120.24 630.52 109.89 630.7 110.27 608.17 120.63"/><polygon class="cls-4" points="604.09 112.88 603.9 112.5 626.19 101.87 626.37 102.25 604.09 112.88"/><rect class="cls-4" x="600.55" y="102.91" width="24.67" height="0.42" transform="translate(13.73 268.29) rotate(-24.96)"/><polygon class="cls-4" points="614.53 132.71 614.36 132.32 637.02 121.92 637.19 122.3 614.53 132.71"/><polygon class="cls-4" points="623.02 148.8 622.85 148.42 645.67 137.94 645.84 138.32 623.02 148.8"/><polygon class="cls-4" points="618.55 145.75 618.53 145.75 618.53 145.33 618.55 145.75"/><rect class="cls-4" x="619.66" y="139.15" width="25.07" height="0.42" transform="translate(-0.25 277.58) rotate(-24.76)"/><polygon class="cls-4" points="648.87 140.16 648.69 139.78 671.2 129.35 671.38 129.73 648.87 140.16"/><polygon class="cls-4" points="640.49 124.2 640.31 123.82 662.67 113.47 662.85 113.85 640.49 124.2"/><polygon class="cls-4" points="642.58 128.18 642.4 127.8 664.8 117.43 664.98 117.81 642.58 128.18"/><rect class="cls-4" x="632.99" y="106.66" width="24.51" height="0.42" transform="translate(14.55 280.06) rotate(-24.76)"/><rect class="cls-4" x="635.08" y="110.65" width="24.56" height="0.42" transform="translate(13.08 281.31) rotate(-24.76)"/><rect class="cls-4" x="628.95" y="99.01" width="24.47" height="0.42" transform="translate(12.67 260.28) rotate(-23.17)"/><rect class="cls-4" x="630.9" y="102.69" width="24.47" height="0.42" transform="translate(16.02 278.81) rotate(-24.76)"/><polygon class="cls-4" points="628.1 100.55 627.92 100.17 649.88 89.64 650.06 90.02 628.1 100.55"/><polygon class="cls-4" points="625.83 96.22 625.65 95.84 647.7 85.53 647.88 85.92 625.83 96.22"/><rect class="cls-4" x="637.17" y="114.64" width="24.6" height="0.42" transform="translate(11.6 282.56) rotate(-24.76)"/><rect class="cls-4" x="645.53" y="130.56" width="24.77" height="0.42" transform="translate(5.71 287.56) rotate(-24.76)"/><polygon class="cls-4" points="641.92 133.55 641.91 133.55 641.91 133.13 641.92 133.55"/><polygon class="cls-4" points="644.67 132.18 644.49 131.8 666.93 121.41 667.11 121.79 644.67 132.18"/><path class="cls-3" d="M676.35,131.92l-1.7,0-.39,1.16v0L646.65,81.35l-1.1-2L619.8,31.07h0l1.45-1.41-3.46-3.15L595.31,37.14l-2.57,1.21h0l-24.1,11.41.08,4.81,1.71,0,.31-.94,54.41,101.91-1.32,1.28,3.45,3.15,23.65-11.2,2.09-1,23.38-11.07Zm-58.17-101L644.34,80l-21,10.83L596,38.38l18.41-8.65ZM572.09,49.62l21.33-10h0L621,92l-22.15,11.44L571.37,51.79Zm58.54,107.13-4-1.23h0L600.26,106l22-11.68,28,53.2ZM673,136.86l-20.6,9.67L624.53,93.11,645.44,82l28.2,52.91Z"/><polygon class="cls-2" points="575.72 77.6 563.26 53.88 524.65 72.88 524.58 72.92 517.69 76.3 515.82 77.23 574.19 185.91 596.61 175.29 598.7 174.29 621.02 163.73 590.43 105.56 588.42 101.75 586.42 97.93 584.42 94.12 582.41 90.32 580.42 86.51 578.42 82.7 576.41 78.9 575.76 77.65 575.72 77.6"/><polygon class="cls-4" points="566.85 113.3 566.68 112.91 589.02 102.75 589.2 103.13 566.85 113.3"/><polygon class="cls-4" points="558.53 97.74 558.36 97.36 580.56 87.26 580.74 87.64 558.53 97.74"/><polygon class="cls-4" points="560.61 101.62 560.43 101.24 582.67 91.12 582.85 91.51 560.61 101.62"/><rect class="cls-4" x="551.13" y="80.63" width="24.25" height="0.42" transform="translate(16.83 239.62) rotate(-24.37)"/><rect class="cls-4" x="553.21" y="84.52" width="24.3" height="0.42" transform="translate(15.41 240.83) rotate(-24.37)"/><polygon class="cls-4" points="548.15 78.27 547.98 77.88 570.31 68.49 570.47 68.88 548.15 78.27"/><rect class="cls-4" x="549.06" y="76.76" width="24.21" height="0.42" transform="translate(18.24 238.41) rotate(-24.37)"/><polygon class="cls-4" points="546.24 74.68 546.06 74.3 567.86 64.03 568.03 64.41 546.24 74.68"/><rect class="cls-4" x="542.8" y="65.03" width="24.08" height="0.42" transform="translate(23.54 237.94) rotate(-24.71)"/><rect class="cls-4" x="555.28" y="88.41" width="24.34" height="0.42" transform="translate(13.99 242.04) rotate(-24.37)"/><rect class="cls-4" x="563.58" y="103.93" width="24.52" height="0.42" transform="translate(8.34 246.89) rotate(-24.37)"/><polygon class="cls-4" points="560.08 106.69 560.06 106.69 560.06 106.27 560.08 106.69"/><polygon class="cls-4" points="562.68 105.52 562.51 105.13 584.78 95 584.96 95.39 562.68 105.52"/><polygon class="cls-4" points="560.95 108.51 560.93 108.49 561.24 108.2 560.95 108.51"/><polygon class="cls-4" points="542.08 125.53 541.91 125.14 566.05 114.38 566.22 114.77 542.08 125.53"/><polygon class="cls-4" points="533.09 109.06 532.92 108.67 556.91 97.98 557.08 98.37 533.09 109.06"/><polygon class="cls-4" points="535.33 113.17 535.16 112.78 559.19 102.07 559.36 102.46 535.33 113.17"/><rect class="cls-4" x="525.15" y="90.96" width="26.11" height="0.42" transform="translate(9.36 226.44) rotate(-23.96)"/><rect class="cls-4" x="527.39" y="95.08" width="26.17" height="0.42" transform="translate(7.88 227.72) rotate(-23.96)"/><polygon class="cls-4" points="521.87 88.44 521.71 88.05 545.83 78.11 545.99 78.5 521.87 88.44"/><rect class="cls-4" x="522.91" y="86.86" width="26.07" height="0.42" transform="translate(10.83 225.17) rotate(-23.96)"/><rect class="cls-4" x="518.53" y="78.8" width="25.94" height="0.42" transform="translate(15.77 229.86) rotate(-24.76)"/><rect class="cls-4" x="516.15" y="74.45" width="25.92" height="0.42" transform="translate(15.81 223.16) rotate(-24.17)"/><rect class="cls-4" x="529.63" y="99.2" width="26.21" height="0.42" transform="translate(6.4 228.99) rotate(-23.96)"/><rect class="cls-4" x="538.59" y="115.64" width="26.4" height="0.42" transform="translate(0.51 234.09) rotate(-23.96)"/><polygon class="cls-4" points="534.62 117.17 534.6 117.17 534.6 116.75 534.62 117.17"/><polygon class="cls-4" points="537.58 117.29 537.41 116.91 561.47 106.18 561.64 106.57 537.58 117.29"/><rect class="cls-4" x="569.59" y="173.68" width="25.15" height="0.42" transform="translate(-19.31 259.8) rotate(-24.76)"/><rect class="cls-4" x="561.09" y="157.62" width="24.98" height="0.42" transform="translate(-13.37 254.73) rotate(-24.76)"/><rect class="cls-4" x="563.21" y="161.62" width="25.02" height="0.42" transform="translate(-14.85 256) rotate(-24.76)"/><polygon class="cls-4" points="555.96 151.14 555.78 150.76 578.35 140.38 578.53 140.77 555.96 151.14"/><polygon class="cls-4" points="558.08 155.17 557.9 154.79 580.53 144.4 580.7 144.78 558.08 155.17"/><polygon class="cls-4" points="551.71 143.1 551.54 142.71 574.36 132.99 574.53 133.38 551.71 143.1"/><polygon class="cls-4" points="553.83 147.13 553.66 146.74 576.19 136.39 576.37 136.77 553.83 147.13"/><polygon class="cls-4" points="549.75 139.38 549.57 139 571.86 128.37 572.04 128.76 549.75 139.38"/><rect class="cls-4" x="546.21" y="129.41" width="24.67" height="0.42" transform="translate(-2.53 247.83) rotate(-24.96)"/><polygon class="cls-4" points="560.2 159.21 560.02 158.83 582.68 148.41 582.86 148.8 560.2 159.21"/><polygon class="cls-4" points="568.69 175.3 568.51 174.92 591.34 164.44 591.51 164.82 568.69 175.3"/><polygon class="cls-4" points="564.22 172.25 564.2 172.25 564.2 171.83 564.22 172.25"/><rect class="cls-4" x="565.33" y="165.65" width="25.06" height="0.42" transform="translate(-16.34 257.26) rotate(-24.76)"/><polygon class="cls-4" points="594.54 166.66 594.36 166.28 616.87 155.85 617.04 156.23 594.54 166.66"/><polygon class="cls-4" points="586.15 150.7 585.98 150.32 608.34 139.96 608.52 140.34 586.15 150.7"/><polygon class="cls-4" points="588.24 154.68 588.07 154.3 610.47 143.93 610.65 144.31 588.24 154.68"/><rect class="cls-4" x="578.66" y="133.16" width="24.51" height="0.42" transform="translate(-1.54 259.74) rotate(-24.76)"/><rect class="cls-4" x="580.75" y="137.15" width="24.56" height="0.42" transform="translate(-3.01 260.99) rotate(-24.76)"/><rect class="cls-4" x="574.62" y="125.51" width="24.47" height="0.42" transform="translate(-2.13 241.04) rotate(-23.17)"/><rect class="cls-4" x="576.57" y="129.19" width="24.47" height="0.42" transform="translate(-0.07 258.49) rotate(-24.76)"/><polygon class="cls-4" points="573.77 127.05 573.58 126.67 595.54 116.14 595.73 116.52 573.77 127.05"/><polygon class="cls-4" points="571.5 122.72 571.32 122.33 593.37 112.03 593.54 112.41 571.5 122.72"/><rect class="cls-4" x="582.84" y="141.14" width="24.6" height="0.42" transform="translate(-4.49 262.24) rotate(-24.76)"/><rect class="cls-4" x="591.2" y="157.06" width="24.78" height="0.42" transform="translate(-10.38 267.24) rotate(-24.76)"/><polygon class="cls-4" points="587.59 160.05 587.58 160.05 587.58 159.63 587.59 160.05"/><polygon class="cls-4" points="590.34 158.68 590.16 158.3 612.6 147.91 612.77 148.29 590.34 158.68"/><path class="cls-3" d="M622,158.42l-1.71,0-.38,1.16v0l-27.61-51.72-1.1-2L565.46,57.57h0l1.45-1.41L563.45,53,541,63.64l-2.57,1.21h0L514.32,76.26l.08,4.81,1.7,0,.32-.94,54.41,101.91-1.32,1.28,3.45,3.15,23.65-11.2,2.09-1,23.38-11.07Zm-58.17-101L590,106.46l-21,10.83L541.7,64.88l18.41-8.65ZM517.76,76.12l21.32-10h0l27.61,52.37-22.14,11.44L517,78.29ZM576.3,183.25l-4-1.23h0L545.93,132.5l22-11.68L596,174Zm42.35-19.89L598,173,570.2,119.61l20.9-11.1,28.2,52.91Z"/><polygon class="cls-2" points="521.39 104.1 508.93 80.38 470.32 99.38 470.25 99.42 463.36 102.8 461.49 103.73 519.86 212.41 542.28 201.78 544.37 200.79 566.69 190.23 536.1 132.06 534.09 128.25 532.09 124.43 530.08 120.62 528.08 116.82 526.09 113.01 524.09 109.2 522.08 105.39 521.42 104.15 521.39 104.1"/><polygon class="cls-4" points="512.52 139.8 512.35 139.41 534.69 129.25 534.86 129.63 512.52 139.8"/><polygon class="cls-4" points="504.2 124.24 504.03 123.86 526.23 113.76 526.4 114.15 504.2 124.24"/><polygon class="cls-4" points="506.28 128.12 506.1 127.74 528.34 117.62 528.51 118.01 506.28 128.12"/><polygon class="cls-4" points="497.97 112.55 497.8 112.16 519.88 102.14 520.05 102.52 497.97 112.55"/><rect class="cls-4" x="498.88" y="111.02" width="24.3" height="0.42" transform="translate(-0.36 220.78) rotate(-24.37)"/><polygon class="cls-4" points="493.82 104.77 493.65 104.38 515.98 94.99 516.14 95.38 493.82 104.77"/><rect class="cls-4" x="494.73" y="103.26" width="24.21" height="0.42" transform="translate(2.46 218.35) rotate(-24.37)"/><rect class="cls-4" x="490.67" y="95.64" width="24.09" height="0.42" transform="translate(6.96 222.87) rotate(-25.17)"/><polygon class="cls-4" points="489.65 96.96 489.48 96.58 511.36 86.53 511.54 86.91 489.65 96.96"/><rect class="cls-4" x="500.95" y="114.91" width="24.34" height="0.42" transform="translate(-1.78 221.99) rotate(-24.37)"/><rect class="cls-4" x="509.25" y="130.43" width="24.52" height="0.42" transform="translate(-7.44 226.83) rotate(-24.37)"/><polygon class="cls-4" points="505.75 133.19 505.73 133.19 505.73 132.77 505.75 133.19"/><polygon class="cls-4" points="508.35 132.02 508.18 131.63 530.45 121.5 530.63 121.89 508.35 132.02"/><polygon class="cls-4" points="506.62 135.02 506.61 135 506.9 134.7 506.62 135.02"/><polygon class="cls-4" points="487.75 152.03 487.58 151.64 511.71 140.88 511.89 141.26 487.75 152.03"/><polygon class="cls-4" points="478.76 135.56 478.59 135.17 502.57 124.48 502.74 124.87 478.76 135.56"/><polygon class="cls-4" points="481 139.67 480.83 139.28 504.85 128.57 505.02 128.96 481 139.67"/><rect class="cls-4" x="470.82" y="117.46" width="26.11" height="0.42" transform="translate(-6.09 206.66) rotate(-23.96)"/><rect class="cls-4" x="473.06" y="121.58" width="26.17" height="0.42" transform="translate(-7.56 207.94) rotate(-23.96)"/><polygon class="cls-4" points="467.54 114.94 467.38 114.55 491.5 104.61 491.66 105 467.54 114.94"/><rect class="cls-4" x="468.58" y="113.36" width="26.07" height="0.42" transform="translate(-4.62 205.39) rotate(-23.96)"/><rect class="cls-4" x="464.19" y="105.3" width="25.94" height="0.42" transform="translate(-0.33 209.54) rotate(-24.76)"/><rect class="cls-4" x="461.81" y="100.95" width="25.92" height="0.42" transform="translate(0.2 203.24) rotate(-24.17)"/><rect class="cls-4" x="475.3" y="125.7" width="26.21" height="0.42" transform="translate(-9.04 209.21) rotate(-23.96)"/><rect class="cls-4" x="484.26" y="142.13" width="26.4" height="0.42" transform="matrix(0.91, -0.41, 0.41, 0.91, -14.94, 214.31)"/><polygon class="cls-4" points="480.28 143.67 480.26 143.67 480.26 143.25 480.28 143.67"/><polygon class="cls-4" points="483.24 143.79 483.07 143.41 507.13 132.68 507.31 133.07 483.24 143.79"/><rect class="cls-4" x="515.26" y="200.18" width="25.15" height="0.42" transform="translate(-35.4 239.48) rotate(-24.76)"/><rect class="cls-4" x="506.76" y="184.12" width="24.99" height="0.42" transform="translate(-29.46 234.41) rotate(-24.76)"/><rect class="cls-4" x="508.88" y="188.12" width="25.03" height="0.42" transform="translate(-30.95 235.68) rotate(-24.76)"/><polygon class="cls-4" points="501.62 177.64 501.45 177.26 524.02 166.88 524.19 167.26 501.62 177.64"/><polygon class="cls-4" points="503.75 181.67 503.57 181.29 526.19 170.9 526.37 171.28 503.75 181.67"/><polygon class="cls-4" points="497.37 169.6 497.21 169.21 520.03 159.49 520.2 159.88 497.37 169.6"/><polygon class="cls-4" points="499.5 173.63 499.33 173.24 521.86 162.89 522.04 163.27 499.5 173.63"/><polygon class="cls-4" points="495.42 165.88 495.24 165.5 517.52 154.87 517.7 155.25 495.42 165.88"/><rect class="cls-4" x="491.88" y="155.91" width="24.67" height="0.42" transform="translate(-18.79 227.38) rotate(-24.96)"/><polygon class="cls-4" points="505.87 185.71 505.69 185.32 528.35 174.91 528.53 175.3 505.87 185.71"/><polygon class="cls-4" points="514.36 201.8 514.18 201.42 537 190.94 537.18 191.32 514.36 201.8"/><polygon class="cls-4" points="509.88 198.75 509.87 198.75 509.87 198.33 509.88 198.75"/><rect class="cls-4" x="511" y="192.15" width="25.06" height="0.42" transform="translate(-32.43 236.94) rotate(-24.76)"/><polygon class="cls-4" points="540.2 193.16 540.03 192.78 562.53 182.35 562.71 182.73 540.2 193.16"/><polygon class="cls-4" points="531.82 177.2 531.64 176.82 554.01 166.46 554.19 166.85 531.82 177.2"/><polygon class="cls-4" points="533.91 181.18 533.73 180.8 556.14 170.43 556.31 170.81 533.91 181.18"/><rect class="cls-4" x="524.33" y="159.66" width="24.51" height="0.42" transform="translate(-17.63 239.42) rotate(-24.76)"/><rect class="cls-4" x="526.42" y="163.65" width="24.56" height="0.42" transform="translate(-19.11 240.68) rotate(-24.76)"/><rect class="cls-4" x="520.29" y="152.01" width="24.47" height="0.42" transform="translate(-16.94 221.8) rotate(-23.17)"/><rect class="cls-4" x="522.24" y="155.69" width="24.47" height="0.42" transform="translate(-16.16 238.17) rotate(-24.76)"/><polygon class="cls-4" points="519.43 153.55 519.25 153.17 541.21 142.64 541.39 143.01 519.43 153.55"/><polygon class="cls-4" points="517.16 149.22 516.99 148.84 539.03 138.53 539.21 138.91 517.16 149.22"/><rect class="cls-4" x="528.51" y="167.64" width="24.6" height="0.42" transform="translate(-20.58 241.92) rotate(-24.76)"/><rect class="cls-4" x="536.86" y="183.56" width="24.77" height="0.42" transform="translate(-26.48 246.93) rotate(-24.76)"/><polygon class="cls-4" points="533.26 186.55 533.24 186.55 533.24 186.13 533.26 186.55"/><polygon class="cls-4" points="536 185.18 535.83 184.8 558.26 174.41 558.44 174.79 536 185.18"/><path class="cls-3" d="M567.68,184.92l-1.7,0-.39,1.16v0L538,134.35l-1.09-2L511.13,84.07h0l1.45-1.41-3.47-3.15L486.65,90.14l-2.57,1.21h0L460,102.76l.08,4.81,1.7,0,.31-.94L516.5,208.56l-1.32,1.28,3.45,3.15,23.65-11.2,2.09-1,23.38-11.07Zm-58.16-101L535.68,133l-21,10.84L487.36,91.38l18.42-8.65Zm-46.09,18.73,21.32-10h0L512.36,145l-22.14,11.44-27.51-51.63ZM522,209.75l-4-1.23h0L491.6,159l22-11.68,28,53.2Zm42.35-19.89-20.6,9.67-27.84-53.42,20.9-11.1L565,187.92Z"/><polygon class="cls-3" points="526.73 97.55 519.25 101.73 520.26 104.04 527.73 99.41 526.73 97.55"/><polygon class="cls-3" points="562.24 165.69 556.49 169.01 557.35 170.62 563.26 167.85 562.24 165.69"/><polygon class="cls-3" points="544.45 130.54 536.58 133.49 538.2 135.36 545.79 132.46 544.45 130.54"/><polygon class="cls-3" points="579.46 67.54 571.97 71.73 572.98 74.03 580.46 69.41 579.46 67.54"/><polygon class="cls-3" points="598.35 103.51 590.48 106.46 592.1 108.33 599.7 105.43 598.35 103.51"/><polygon class="cls-3" points="562.24 165.69 556.49 169.01 557.35 170.62 563.26 167.85 562.24 165.69"/><polygon class="cls-3" points="617.02 138.83 610.23 142.16 611.24 143.76 618.23 140.99 617.02 138.83"/><polygon class="cls-3" points="670.31 111.88 663.52 115.2 664.53 116.81 671.52 114.04 670.31 111.88"/><polygon class="cls-3" points="652.14 76.26 644.27 79.21 645.89 81.09 653.48 78.19 652.14 76.26"/><polygon class="cls-3" points="632.59 39.87 626.09 44.09 626.91 46.49 633.42 41.81 632.59 39.87"/><polygon class="cls-3" points="429.16 175.98 435.3 172.29 438.7 175.34 427.9 180.99 429.16 175.98"/><polygon class="cls-3" points="443.52 199.64 449.66 195.95 447.74 191.15 438.53 196.69 443.52 199.64"/><path class="cls-2" d="M459.36,221.56l44.42-4.62,7.62-5.43L456.47,106.86l-9.21,5.54-27.8,38Zm-9.63-96.19,6.47,1.2,41.82,76-6,5.33-19.19-.36-11.46-4.16-25.65-49.16-.55-8.17Z"/><polygon class="cls-2" points="443.52 199.64 429.16 175.98 403.55 199.04 409.08 210.15 443.52 199.64"/><polygon class="cls-5" points="264.48 162.79 266.16 161.1 262.79 157.73 261.11 157.73 259.42 159.42 261.11 164.47 262.79 164.47 291.43 223.43 293.11 221.75 264.48 162.79"/><polygon class="cls-5" points="288.06 233.54 279.64 216.69 276.27 216.69 271.21 206.58 269.53 208.27 274.58 218.38 272.9 221.75 279.64 235.22 277.95 236.91 276.27 233.54 274.58 235.22 284.69 255.44 288.06 233.54"/><path class="cls-5" d="M308.27,203.21c-.89-.51-2.45-1.76-3.37-5.05a8.24,8.24,0,0,1,0-5c1-2.85,3.44-4.18,5.06-5.06a14.33,14.33,0,0,1,6.74-1.68l11.79,6.74C321.28,202.2,312.75,205.81,308.27,203.21Z"/><path class="cls-5" d="M436.3,290.81v-3.37l5.05-1.68-5.05-8.42L432.93,279l-13.48-23.58,8.43-6.74-8.43-16.85L410.51,237l-2.85,1.63v18.53l-5.05,15.16L387.45,292.5l-21.9,8.42S342,306,340.28,306s-38.75-15.16-38.75-15.16v8.42l6.74,8.43-5,3.37,5,6.73-8.42,5.06,5,6.74-3.37,1.68v1.69l3.37,3.36-1.12,2.24-.56,1.13H310v1.69l8.42-3.37v-5.05a1.65,1.65,0,0,1,1.68-1.69l5.19,7.26,11.66,16.32L347,348.09l-2.26-3.76-2.8-4.67,11.8-5.05-1.69,1.68,3.37,1.69,8.42-1.69,11.8-3.36,6.73-3.37-1.68,3.37v1.68h5.05l8.43-5.05,3.36-3.37-3.36-1.69,5.05-3.37L411,314.4l5.05-6.74-1.68-5.06,8.42-1.68,6.74,6.74,10.11-6.74-.89-2.7ZM331.86,327.87l-6.74,3.37-3.37-3.37,8.42-5.05Zm.28,18.3,8.14-6.51,1.68,5.06-6.63,5Zm41.83-20v1.68l-3.37-5.05,3.37-3.37,3.37,3.37Zm18.53-10.11-10.11,5.05-1.68-3.37v-1.68l8.42-3.37,6.74,3.37ZM419.45,279l6.74-3.37,3.37,5.05-6.74,3.37Zm10.11,25.27-3.37-5.06,6.74-5.05,4.82,4.82-2.58,1.92Z"/><path class="cls-4" d="M328.49,317.76l-10.11,6.74,8.42,11.79,10.11-6.73Zm-3.37,13.48-3.37-3.37,8.42-5.05,1.69,5.05Z"/><polygon class="cls-2" points="335.33 349.7 335.23 349.77 331.86 346.4 332.14 346.17 335.33 349.7"/><polygon class="cls-2" points="437.98 299.23 435.17 300.92 437.75 299 437.98 299.23"/><polygon class="cls-4" points="311.64 319.45 309.96 321.13 315.01 331.24 313.33 332.93 308.27 324.5 306.59 324.5 311.64 332.93 303.77 338.54 304.9 336.29 301.54 332.93 301.54 331.24 304.9 329.56 299.85 322.82 308.27 317.76 303.22 311.03 308.27 307.66 301.54 299.23 301.54 294.18 320.06 322.82 315.01 324.5 311.64 319.45"/><polygon class="cls-4" points="412.71 255.44 426.19 270.6 411.03 282.39 407.66 272.28 412.71 255.44"/><polygon class="cls-4" points="426.9 246.74 419.45 252.07 417.77 248.7 422.82 245.33 421.14 240.28 417.77 241.96 416.08 240.28 419.45 236.91 417.77 235.22 412.71 240.28 410.51 236.96 419.45 231.85 426.9 246.74"/><polygon class="cls-4" points="372.29 316.08 373.97 317.76 375.65 316.08 377.34 316.08 375.65 317.76 380.71 327.87 384.08 327.87 379.02 317.76 379.02 316.08 387.45 311.03 384.08 309.34 379.02 314.39 377.34 314.39 382.39 309.34 380.71 309.34 372.29 316.08"/><polygon class="cls-4" points="365.55 322.82 357.13 331.24 352.07 322.82 357.13 317.76 360.49 319.45 357.13 322.82 357.13 324.5 362.18 321.13 365.55 322.82"/><path class="cls-4" d="M347,348.09l-10.11,6.73L325.25,338.5l6.89,7.67,3.19,3.53,1.58,1.76s4.77-4.77,7.85-7.13Z"/><polygon class="cls-4" points="439.67 300.92 429.56 307.66 428.11 306.21 435.17 300.92 437.75 299 438.77 298.22 439.67 300.92"/><polyline class="cls-6" points="138.05 361.56 136.45 361.56 138.13 364.93 133.08 364.93 133.08 366.62 134.76 369.99 133.08 369.99 131.4 371.67 131.4 373.36 138.13 368.3 139.82 364.93 139.82 361.56 138.13 361.56"/><path class="cls-6" d="M120.31,390.2h-2.39v6.74l1.68,1.68,3.37,1.69-5,5.05v1.69l1.68,1.68,1.69,1.68s3.37,1.69,3.37,0,1.68-8.42,1.68-8.42v-6.74Z"/><polygon class="cls-6" points="120.98 380.71 119.6 383.46 121.29 385.15 122.97 386.83 121.29 390.2 122.97 391.88 126.34 388.52 126.08 384.51 120.98 380.71"/><polygon class="cls-6" points="92.65 317.76 92.65 317.76 92.65 319.45 89.28 319.45 89.28 318.69 92.65 317.76"/><polyline class="cls-6" points="94.65 331.58 92.65 332.93 87.6 326.19 89.28 324.5 90.97 324.5 94.33 324.5 92.65 321.13 92.65 319.45 94.33 319.45 96.02 322.82 94.33 331.24"/><polygon class="cls-6" points="119.95 320.79 117.92 322.82 122.97 324.5 128.03 322.82 126.34 319.45 119.95 320.79"/><polygon class="cls-6" points="130.4 322.13 128.03 324.5 126.34 321.13 128.03 321.13 130.4 322.13"/><path class="cls-6" d="M109.5,314.4c0-1.69,8.42,3.36,8.42,3.36h1.68l2.09,1.72,3-1.72L123,312.71,116.23,311H109.5Z"/><polygon class="cls-6" points="90.97 316.08 96.02 314.39 96.02 318.69 101.07 317.76 100.43 311.71 94.33 311.03 90.97 314.39 90.97 316.08"/><polygon class="cls-6" points="86.3 288.21 94.33 285.76 99.39 292.5 99.39 296.69 102.76 294.18 102.76 287.44 99.39 284.07 96.02 282.39 84.23 287.44 86.3 288.21"/><polygon class="cls-3" points="139.82 329.56 136.45 332.93 134.76 331.24 134.76 329.56 133.08 329.56 133.08 332.93 134.76 334.61 134.76 336.29 131.4 337.98 133.08 339.66 136.45 337.98 136.45 336.29 141.5 332.93 139.82 329.56"/><polygon class="cls-3" points="130.4 319.21 131.4 321.13 129.71 322.82 128.03 321.13 124.66 322.82 119.6 321.13 122.97 317.76 119.6 316.08 117.92 316.08 111.18 312.71 109.5 316.08 112.86 319.45 115.11 318.32 116.23 317.76 117.92 319.45 114.55 321.13 114.55 324.5 104.44 329.56 104.44 332.93 102.76 336.29 99.39 336.29 97.7 331.24 94.33 332.93 93.85 332.12 89.28 324.5 94.33 322.82 92.65 319.45 94.91 318.69 96.32 318.22 97.7 317.76 97.7 312.71 92.65 314.39 92.65 317.76 89.28 318.89 87.6 319.45 89.28 312.71 90.97 311.03 90.97 305.97 92.65 305.97 92.65 311.03 102.76 307.66 101.07 300.92 97.7 300.92 96.02 299.23 99.39 295.87 101.07 292.5 94.33 284.07 93.85 284.27 85.91 287.44 87.6 290.81 84.23 290.81 82.54 287.44 85.91 285.76 93.21 282.39 106.45 276.29 107.81 275.65 108.25 276.51 112.86 273.97 114.55 275.65 109.55 278.99 118.84 296.93 122.97 294.18 124.66 295.87 119.92 299.01 129.41 317.31 133.08 316.08 134.76 317.76 130.4 319.21"/><polygon class="cls-3" points="165.09 385.15 160.69 387.67 124.66 417.15 121.29 418.84 114.55 418.84 114.55 417.15 119.6 417.15 122.97 415.47 117.92 410.42 118.64 410.06 121.29 408.73 122.97 407.05 117.92 405.36 119.6 401.99 122.97 398.62 119.6 396.94 119.6 390.2 122.97 390.2 124.66 386.83 121.29 381.78 119.6 380.09 119.6 376.72 121.29 373.36 124.66 375.04 124.66 371.67 129.71 371.67 131.4 373.36 133.08 371.67 133.08 369.99 134.76 368.3 133.08 364.93 139.82 363.25 137.58 361.56 133.08 358.19 128.03 358.19 128.03 354.82 134.76 356.51 141.5 359.88 160.99 385.87 163.4 383.46 165.09 385.15"/><polygon class="cls-2" points="158.35 386.83 139.82 401.99 121.29 378.41 128.03 373.36 128.87 371.67 129.71 371.67 131.4 373.36 133.08 371.67 133.08 369.99 134.76 368.3 133.08 364.93 139.82 363.25 137.58 361.56 141.5 361.56 158.35 386.83"/><polygon class="cls-2" points="138.13 403.68 122.97 415.47 118.64 410.06 121.29 408.73 122.97 407.05 117.92 405.36 119.6 401.99 122.97 398.62 119.6 396.94 119.6 390.2 122.97 390.2 124.66 386.83 121.29 381.78 120.73 381.22 121.29 380.09 138.13 403.68"/><polygon class="cls-2" points="102.76 331.24 102.76 332.93 101.07 334.61 97.7 329.56 93.85 332.12 89.28 324.5 94.33 322.82 92.65 319.45 94.91 318.69 102.76 331.24"/><polygon class="cls-2" points="130.79 321.74 129.71 322.82 128.03 321.13 124.66 322.82 119.6 321.13 122.97 317.76 119.6 316.08 117.92 316.08 111.18 312.71 109.5 316.08 112.86 319.45 115.11 318.32 116.23 319.45 112.86 321.13 112.86 322.82 102.76 327.87 96.32 318.22 97.7 317.76 97.7 312.71 92.65 314.39 92.65 317.76 89.28 318.89 89.28 316.08 90.97 312.71 92.65 311.03 104.44 311.03 107.81 309.34 107.81 307.66 104.44 307.66 102.76 300.92 99.39 299.23 97.7 299.23 101.07 292.5 94.33 284.07 93.85 284.27 93.21 282.39 106.45 276.29 117.92 299.23 130.79 321.74"/><rect class="cls-4" x="94.06" y="281.24" width="14.14" height="0.42" transform="translate(-119.48 79.53) rotate(-27.77)"/><polygon class="cls-4" points="98.08 288.8 97.86 288.44 109.1 281.64 109.32 282 98.08 288.8"/><rect class="cls-4" x="100.38" y="289.48" width="12.06" height="0.42" transform="translate(-122.71 82.94) rotate(-27.77)"/><polygon class="cls-4" points="97.8 299.42 97.61 299.05 113.63 290.67 113.83 291.04 97.8 299.42"/><rect class="cls-4" x="101.94" y="297.38" width="14.32" height="0.42" transform="translate(-126.09 85.1) rotate(-27.77)"/><rect class="cls-4" x="103.14" y="302.53" width="15.62" height="0.42" transform="translate(-136.39 95.89) rotate(-29.97)"/><polygon class="cls-4" points="107.91 309.12 107.72 308.74 119.83 302.55 120.02 302.93 107.91 309.12"/><polygon class="cls-4" points="97.85 314.55 97.56 314.25 100.98 310.88 101.27 311.18 97.85 314.55"/><polygon class="cls-4" points="94.39 313.88 92.48 311.15 92.82 310.91 94.74 313.64 94.39 313.88"/><rect class="cls-4" x="90.89" y="314.42" width="0.42" height="3.26" transform="translate(-237.71 307.56) rotate(-72.44)"/><polygon class="cls-4" points="92.5 314.55 90.82 312.86 91.11 312.56 92.8 314.25 92.5 314.55"/><polygon class="cls-4" points="116.51 315.48 116.26 315.14 123.84 309.64 124.09 309.99 116.51 315.48"/><polygon class="cls-4" points="99.5 322.73 99.33 322.34 110.87 317.35 111.04 317.73 99.5 322.73"/><polygon class="cls-4" points="91.04 327.43 90.82 327.07 97.59 322.98 97.81 323.34 91.04 327.43"/><polygon class="cls-4" points="93.75 321.34 93.46 321.03 95.26 319.33 95.55 319.63 93.75 321.34"/><polygon class="cls-4" points="122.69 317.67 122.35 317.41 125.7 313.01 126.04 313.27 122.69 317.67"/><polygon class="cls-4" points="101.49 326.02 101.3 325.64 115.38 318.5 115.57 318.88 101.49 326.02"/><polygon class="cls-4" points="93.19 331.02 92.97 330.67 99.78 326.47 100 326.83 93.19 331.02"/><rect class="cls-4" x="99.2" y="331.59" width="3.56" height="0.42"/><polygon class="cls-4" points="128.23 321.16 127.82 321.1 128.31 317.74 128.72 317.79 128.23 321.16"/><polygon class="cls-4" points="123.39 322.38 123.05 322.14 127.34 315.89 127.69 316.13 123.39 322.38"/><polygon class="cls-4" points="137.53 399.06 137.25 398.75 155.75 382.98 156.02 383.3 137.53 399.06"/><polygon class="cls-4" points="134.14 394.74 133.85 394.43 152.23 377.71 152.51 378.03 134.14 394.74"/><polygon class="cls-4" points="130.31 389.87 130.03 389.56 148.78 372.53 149.06 372.84 130.31 389.87"/><rect class="cls-4" x="123.28" y="376.3" width="25.7" height="0.42" transform="translate(-211.09 177.18) rotate(-40.26)"/><polygon class="cls-4" points="123.22 380.88 122.97 380.54 132.93 373.2 138.01 366.45 142.5 363.08 142.75 363.42 138.28 366.77 133.21 373.52 123.22 380.88"/><polygon class="cls-4" points="120.8 412.75 120.53 412.43 135.56 400.1 135.82 400.42 120.8 412.75"/><polygon class="cls-4" points="119.47 406.02 119.25 405.66 122.86 403.5 131.66 394.68 131.96 394.97 123.12 403.82 119.47 406.02"/><polygon class="cls-4" points="119.79 397.03 119.42 396.85 121.16 393.36 122.91 393.36 128.37 389.99 128.59 390.35 123.03 393.78 121.42 393.78 119.79 397.03"/><rect class="cls-4" x="123.64" y="385.03" width="1.02" height="0.42" transform="translate(-65.79 27.82) rotate(-10.12)"/><polygon class="cls-4" points="97.25 319.67 97.07 319.29 107.66 314.24 109.37 310.82 112.81 310.82 121.59 305.65 121.8 306.01 112.92 311.24 109.63 311.24 107.97 314.56 107.9 314.58 97.25 319.67"/><g class="cls-7"><rect class="cls-4" x="283" y="184.68" width="131.4" height="131.4"/><circle class="cls-4" cx="360.73" cy="257.71" r="41.63"/><circle class="cls-8" cx="361.04" cy="257.88" r="41.1"/><circle class="cls-9" cx="361.35" cy="258.04" r="40.57"/><circle class="cls-10" cx="361.67" cy="258.21" r="40.05"/><circle class="cls-11" cx="361.98" cy="258.37" r="39.52"/><circle class="cls-12" cx="362.29" cy="258.54" r="39"/><circle class="cls-13" cx="362.6" cy="258.7" r="38.47"/><circle class="cls-14" cx="362.92" cy="258.87" r="37.95"/><circle class="cls-15" cx="363.23" cy="259.03" r="37.42"/><circle class="cls-16" cx="363.54" cy="259.2" r="36.9"/><circle class="cls-17" cx="363.85" cy="259.36" r="36.37"/><circle class="cls-18" cx="364.17" cy="259.53" r="35.85"/><circle class="cls-19" cx="364.48" cy="259.69" r="35.32"/><circle class="cls-20" cx="364.79" cy="259.86" r="34.8"/><circle class="cls-21" cx="365.1" cy="260.02" r="34.27"/><circle class="cls-22" cx="365.42" cy="260.19" r="33.75"/><circle class="cls-23" cx="365.73" cy="260.35" r="33.22"/><circle class="cls-24" cx="366.04" cy="260.52" r="32.7"/><circle class="cls-25" cx="366.35" cy="260.68" r="32.17"/><circle class="cls-26" cx="366.67" cy="260.85" r="31.65"/><circle class="cls-27" cx="366.98" cy="261.01" r="31.12"/><circle class="cls-28" cx="367.29" cy="261.18" r="30.6"/><circle class="cls-29" cx="367.6" cy="261.34" r="30.07"/><circle class="cls-30" cx="367.92" cy="261.51" r="29.55"/><circle class="cls-31" cx="368.23" cy="261.67" r="29.02"/><circle class="cls-32" cx="368.54" cy="261.84" r="28.5"/><circle class="cls-33" cx="368.86" cy="262" r="27.97"/><circle class="cls-34" cx="369.17" cy="262.17" r="27.45"/><circle class="cls-35" cx="369.48" cy="262.33" r="26.92"/><circle class="cls-36" cx="369.79" cy="262.5" r="26.4"/><circle class="cls-37" cx="370.11" cy="262.66" r="25.87"/><circle class="cls-38" cx="370.42" cy="262.83" r="25.35"/><circle class="cls-39" cx="370.73" cy="262.99" r="24.82"/><circle class="cls-40" cx="371.04" cy="263.16" r="24.3"/><circle class="cls-41" cx="371.36" cy="263.32" r="23.77"/><circle class="cls-42" cx="371.67" cy="263.49" r="23.25"/><circle class="cls-43" cx="371.98" cy="263.65" r="22.72"/><circle class="cls-44" cx="372.29" cy="263.82" r="22.2"/><circle class="cls-45" cx="372.61" cy="263.98" r="21.67"/><circle class="cls-46" cx="372.92" cy="264.15" r="21.15"/><circle class="cls-47" cx="373.23" cy="264.31" r="20.62"/><circle class="cls-48" cx="373.54" cy="264.48" r="20.1"/><circle class="cls-49" cx="373.86" cy="264.64" r="19.57"/><circle class="cls-50" cx="374.17" cy="264.81" r="19.05"/><circle class="cls-51" cx="374.48" cy="264.97" r="18.52"/><circle class="cls-52" cx="374.79" cy="265.14" r="18"/><circle class="cls-53" cx="375.11" cy="265.3" r="17.47"/><circle class="cls-54" cx="375.42" cy="265.47" r="16.95"/><circle class="cls-55" cx="375.73" cy="265.63" r="16.42"/><circle class="cls-56" cx="376.04" cy="265.8" r="15.9"/><circle class="cls-57" cx="376.36" cy="265.96" r="15.37"/><circle class="cls-58" cx="376.67" cy="266.12" r="14.85"/><circle class="cls-59" cx="376.98" cy="266.29" r="14.32"/><circle class="cls-60" cx="377.3" cy="266.45" r="13.8"/><circle class="cls-61" cx="377.61" cy="266.62" r="13.27"/><circle class="cls-62" cx="377.92" cy="266.78" r="12.75"/><circle class="cls-63" cx="378.23" cy="266.95" r="12.22"/><circle class="cls-64" cx="378.55" cy="267.11" r="11.7"/><circle class="cls-65" cx="378.86" cy="267.28" r="11.17"/><circle class="cls-66" cx="379.17" cy="267.44" r="10.65"/><circle class="cls-67" cx="379.48" cy="267.61" r="10.12"/><circle class="cls-68" cx="379.8" cy="267.77" r="9.6"/><circle class="cls-69" cx="380.11" cy="267.94" r="9.07"/><circle class="cls-70" cx="380.42" cy="268.1" r="8.55"/><circle class="cls-71" cx="380.73" cy="268.27" r="8.02"/><circle class="cls-72" cx="381.05" cy="268.43" r="7.5"/><circle class="cls-73" cx="381.36" cy="268.6" r="6.97"/><circle class="cls-74" cx="381.67" cy="268.76" r="6.45"/><circle class="cls-75" cx="381.98" cy="268.93" r="5.92"/><circle class="cls-76" cx="382.3" cy="269.09" r="5.4"/><circle class="cls-77" cx="382.61" cy="269.26" r="4.87"/><circle class="cls-78" cx="382.92" cy="269.42" r="4.35"/><circle class="cls-79" cx="383.23" cy="269.59" r="3.82"/><circle class="cls-80" cx="383.55" cy="269.75" r="3.3"/><circle class="cls-3" cx="383.86" cy="269.92" r="2.77"/></g><path class="cls-5" d="M377.43,304.45,339,257.05l-56.4-9.84,57.32-16.13,45-34.18-23.48,45.16Zm-87.26-57.63,49.72,8.68.2.25,33.79,41.64L359.6,241.86l.15-.29,20.16-38.78-39.25,29.83-.15,0Z"/><path class="cls-5" d="M376.83,304.4l2.36-3.14a79.47,79.47,0,0,0,4.95-9.94c4.83-11.39,6.67-24.91,6.68-25a134.7,134.7,0,0,0,0-31.81,150.69,150.69,0,0,0-8.37-35.18l1.52-.7a161.54,161.54,0,0,1,10.16,22c2.87,7.72,4.86,16.38,8.46,32.11,4,17.31,2.76,20.79,1.89,23.33-.08.23-.15.46-.22.69-3,9.89-10.25,16.51-15.45,20.63a31.64,31.64,0,0,1-6.61,4.14c-.63.31-1.25.62-1.93,1ZM387.42,209a151.08,151.08,0,0,1,5.08,25.29,137.35,137.35,0,0,1,0,32.21c0,.13-1.88,13.87-6.79,25.48-1,2.35-2.48,5.48-3.67,7.73a29.27,29.27,0,0,0,5.74-3.66c5-4,12-10.36,14.87-19.8l.25-.75c.81-2.35,1.91-5.56-1.95-22.4s-5.67-24.6-8.39-31.9C391,217.08,389.3,213,387.42,209Z"/><path class="cls-5" d="M382,292.41l-.57-.14c-4-1-7.94-2.11-11.84-3.38-16.21-5.32-27.62-12-35.95-16.89l-2.91-1.7c-2.57-1.48-5.39-3.3-8.66-5.41-8.82-5.7-19.81-12.79-33.37-18.13l.4-1.2c2.5.71,6.66,1.89,11.8,3.37a213,213,0,0,1,28.7,10.37c3.59,1.54,7.3,3.13,11.77,4.81a77.83,77.83,0,0,0,18.78,4.58c1,.14,2,.28,3,.44a148.19,148.19,0,0,0,25.16,1.68l.89,0Zm-84.2-43.06a223.1,223.1,0,0,1,25,14.48c3.25,2.1,6.06,3.91,8.6,5.38l2.92,1.7C343,276,353.88,282.41,370,287.68c3.68,1.21,7.44,2.29,11.18,3.22l6.27-18.81a149.84,149.84,0,0,1-24.49-1.71c-1-.16-2-.3-3-.44a78.46,78.46,0,0,1-19-4.65c-4.51-1.69-8.23-3.29-11.82-4.83a213.73,213.73,0,0,0-28.56-10.31Z"/><path class="cls-5" d="M358.81,252.07a35.86,35.86,0,0,0,3.37,1.68c4.06,1.78,5.68,1.59,8.42,3.37,1.58,1,2.81,1.83,3.37,3.37.95,2.62-.78,5.32-1.68,6.74-.42.65-3.59,5.62-6.74,5-1.11-.2-1.18-.9-5.06-5a37.52,37.52,0,0,0-3.36-3.37,41.37,41.37,0,0,0-5.06-3.37c-1.2-.76-2.95-1.89-5.05-3.37Z"/><ellipse class="cls-4" cx="346.18" cy="243.64" rx="16" ry="15.16"/><path class="cls-3" d="M335.44,257.46l1.4-31.09,26.23,16.76Zm2.95-28.1-1.13,25.26L359.7,243Z"/><circle class="cls-3" cx="345.33" cy="241.96" r="5.05"/><rect class="cls-3" x="345.99" y="237.31" width="5.42" height="1.69" transform="translate(-54.49 363.64) rotate(-51.62)"/><rect class="cls-3" x="337.02" y="240.33" width="7.48" height="1.68" transform="translate(-3.27 4.68) rotate(-0.78)"/><rect class="cls-3" x="347.02" y="243.98" width="1.68" height="6.07" transform="translate(-78.6 234.44) rotate(-33.69)"/><ellipse class="cls-5" cx="391.72" cy="281.62" rx="16.67" ry="10.62" transform="translate(-66.08 433.82) rotate(-54.1)"/></g></g></svg>