<svg xmlns="http://www.w3.org/2000/svg" viewBox="0 0 138.54 105.31"><defs><style>.cls-1{fill:#373737;}.cls-2{fill:#829eab;}.cls-3{fill:#b7bfbf;}.cls-4{fill:#b42018;}.cls-5{fill:#4c646a;}.cls-6{fill:#4d4d4d;}.cls-7{fill:#191816;}</style></defs><title>camera normal</title><g id="Layer_2" data-name="Layer 2"><g id="Layer_1-2" data-name="Layer 1"><rect class="cls-1" x="28.89" y="2.37" width="23.33" height="8" rx="4" transform="matrix(0.98, 0.19, -0.19, 0.98, 1.97, -7.66)"/><path class="cls-2" d="M138.18,47.13,129.87,89.7a19.29,19.29,0,0,1-22.64,15.24L15.6,87.05A19.31,19.31,0,0,1,.36,64.41L8.68,21.84A19.29,19.29,0,0,1,31.32,6.6l91.62,17.89a19.31,19.31,0,0,1,15.54,17.4A19,19,0,0,1,138.18,47.13Z"/><path class="cls-3" d="M138.48,41.89,49.86,26.52l-6.12,3.55L8.41,23.17l.27-1.33A19.29,19.29,0,0,1,31.32,6.6l91.62,17.89A19.31,19.31,0,0,1,138.48,41.89Z"/><circle class="cls-4" cx="131.51" cy="46.54" r="3.33"/><rect class="cls-1" x="20.68" y="12.62" width="12.66" height="8" rx="4" transform="matrix(0.98, 0.19, -0.19, 0.98, 3.69, -4.87)"/><rect class="cls-1" x="35.24" y="15.01" width="8" height="8" rx="4" transform="translate(4.37 -7.17) rotate(11.05)"/><path class="cls-1" d="M63.71,25.15,72.5,4.46A10.35,10.35,0,0,1,77.32.64a10.46,10.46,0,0,1,7.45.1L106.36,5a13.34,13.34,0,0,1,10,8.05q0,8.83,0,17.65Z"/><polygon class="cls-1" points="82.2 10.42 105.1 14.89 104.16 9.28 85.19 5.57 82.2 10.42"/><circle class="cls-5" cx="85.09" cy="60.56" r="40.99"/><path class="cls-6" d="M76.59,104.05a44.32,44.32,0,1,1,52-35A44.37,44.37,0,0,1,76.59,104.05ZM92.31,23.6A37.65,37.65,0,1,0,122,67.77,37.7,37.7,0,0,0,92.31,23.6Z"/><circle class="cls-7" cx="85.09" cy="60.56" r="24.66"/><path class="cls-6" d="M79.08,91.3a31.33,31.33,0,1,1,36.75-24.74A31.35,31.35,0,0,1,79.08,91.3ZM90.71,31.78a29.32,29.32,0,1,0,23.16,34.4A29.36,29.36,0,0,0,90.71,31.78Z"/></g></g></svg>