<?xml version="1.0" encoding="utf-8"?>
<!-- Generator: Adobe Illustrator 23.1.0, SVG Export Plug-In . SVG Version: 6.00 Build 0)  -->
<svg version="1.1" id="Layer_1" xmlns="http://www.w3.org/2000/svg" xmlns:xlink="http://www.w3.org/1999/xlink" x="0px" y="0px"
	 viewBox="0 0 1920 1080" style="enable-background:new 0 0 1920 1080;" xml:space="preserve">
<style type="text/css">
	.st0{clip-path:url(#SVGID_4_);fill:#A6A4B5;}
	.st1{clip-path:url(#SVGID_6_);fill:#5F699E;}
	.st2{clip-path:url(#SVGID_8_);fill:#B3B3B3;}
	.st3{clip-path:url(#SVGID_8_);fill:#B2B2B2;}
	.st4{clip-path:url(#SVGID_8_);fill:#B1B1B1;}
	.st5{clip-path:url(#SVGID_8_);fill:#B0B0B0;}
	.st6{clip-path:url(#SVGID_8_);fill:#AFAFAF;}
	.st7{clip-path:url(#SVGID_8_);fill:#AEAEAE;}
	.st8{clip-path:url(#SVGID_8_);fill:#ADADAD;}
	.st9{clip-path:url(#SVGID_8_);fill:#ACACAC;}
	.st10{clip-path:url(#SVGID_8_);fill:#ABABAB;}
	.st11{clip-path:url(#SVGID_8_);fill:#AAAAAA;}
	.st12{clip-path:url(#SVGID_8_);fill:#A9A9A9;}
	.st13{clip-path:url(#SVGID_8_);fill:#A8A8A8;}
	.st14{clip-path:url(#SVGID_8_);fill:#A7A7A7;}
	.st15{clip-path:url(#SVGID_8_);fill:#A6A6A6;}
	.st16{clip-path:url(#SVGID_8_);fill:#A5A5A5;}
	.st17{clip-path:url(#SVGID_8_);fill:#A4A4A4;}
	.st18{clip-path:url(#SVGID_8_);fill:#A3A3A3;}
	.st19{clip-path:url(#SVGID_8_);fill:#A2A2A2;}
	.st20{clip-path:url(#SVGID_8_);fill:#A1A1A1;}
	.st21{clip-path:url(#SVGID_8_);fill:#A0A0A0;}
	.st22{clip-path:url(#SVGID_8_);fill:#9F9F9F;}
	.st23{clip-path:url(#SVGID_8_);fill:#9E9E9E;}
	.st24{clip-path:url(#SVGID_8_);fill:#9D9D9D;}
	.st25{clip-path:url(#SVGID_8_);fill:#9C9C9C;}
	.st26{clip-path:url(#SVGID_8_);fill:#9B9B9B;}
	.st27{clip-path:url(#SVGID_8_);fill:#9A9A9A;}
	.st28{clip-path:url(#SVGID_8_);fill:#999999;}
	.st29{clip-path:url(#SVGID_8_);fill:#989898;}
	.st30{clip-path:url(#SVGID_8_);fill:#979797;}
	.st31{clip-path:url(#SVGID_8_);fill:#969696;}
	.st32{clip-path:url(#SVGID_8_);fill:#959595;}
	.st33{clip-path:url(#SVGID_8_);fill:#949494;}
	.st34{clip-path:url(#SVGID_8_);fill:#939393;}
	.st35{clip-path:url(#SVGID_8_);fill:#929292;}
	.st36{clip-path:url(#SVGID_8_);fill:#909090;}
	.st37{clip-path:url(#SVGID_8_);fill:#8F8F8F;}
	.st38{clip-path:url(#SVGID_8_);fill:#8E8E8E;}
	.st39{clip-path:url(#SVGID_8_);fill:#8D8D8D;}
	.st40{clip-path:url(#SVGID_8_);fill:#8C8C8C;}
	.st41{clip-path:url(#SVGID_8_);fill:#8B8B8B;}
	.st42{clip-path:url(#SVGID_8_);fill:#8A8A8A;}
	.st43{clip-path:url(#SVGID_8_);fill:#898989;}
	.st44{clip-path:url(#SVGID_8_);fill:#888888;}
	.st45{clip-path:url(#SVGID_8_);fill:#878787;}
	.st46{clip-path:url(#SVGID_8_);fill:#868686;}
	.st47{clip-path:url(#SVGID_8_);fill:#848484;}
	.st48{clip-path:url(#SVGID_8_);fill:#838383;}
	.st49{clip-path:url(#SVGID_8_);fill:#828282;}
	.st50{clip-path:url(#SVGID_8_);fill:#818181;}
	.st51{clip-path:url(#SVGID_8_);fill:#808080;}
	.st52{clip-path:url(#SVGID_10_);fill:#999999;}
	.st53{clip-path:url(#SVGID_10_);fill:#989898;}
	.st54{clip-path:url(#SVGID_10_);fill:#979797;}
	.st55{clip-path:url(#SVGID_10_);fill:#969696;}
	.st56{clip-path:url(#SVGID_10_);fill:#959595;}
	.st57{clip-path:url(#SVGID_10_);fill:#949494;}
	.st58{clip-path:url(#SVGID_10_);fill:#939393;}
	.st59{clip-path:url(#SVGID_10_);fill:#929292;}
	.st60{clip-path:url(#SVGID_10_);fill:#919191;}
	.st61{clip-path:url(#SVGID_10_);fill:#909090;}
	.st62{clip-path:url(#SVGID_10_);fill:#8F8F8F;}
	.st63{clip-path:url(#SVGID_10_);fill:#8E8E8E;}
	.st64{clip-path:url(#SVGID_10_);fill:#8D8D8D;}
	.st65{clip-path:url(#SVGID_10_);fill:#8C8C8C;}
	.st66{clip-path:url(#SVGID_10_);fill:#8B8B8B;}
	.st67{clip-path:url(#SVGID_10_);fill:#8A8A8A;}
	.st68{clip-path:url(#SVGID_10_);fill:#898989;}
	.st69{clip-path:url(#SVGID_10_);fill:#888888;}
	.st70{clip-path:url(#SVGID_10_);fill:#878787;}
	.st71{clip-path:url(#SVGID_10_);fill:#868686;}
	.st72{clip-path:url(#SVGID_10_);fill:#858585;}
	.st73{clip-path:url(#SVGID_10_);fill:#848484;}
	.st74{clip-path:url(#SVGID_10_);fill:#838383;}
	.st75{clip-path:url(#SVGID_10_);fill:#828282;}
	.st76{clip-path:url(#SVGID_10_);fill:#818181;}
	.st77{clip-path:url(#SVGID_10_);fill:#808080;}
	.st78{clip-path:url(#SVGID_10_);fill:#7E7E7E;}
	.st79{clip-path:url(#SVGID_10_);fill:#7D7D7D;}
	.st80{clip-path:url(#SVGID_10_);fill:#7C7C7C;}
	.st81{clip-path:url(#SVGID_10_);fill:#7B7B7B;}
	.st82{clip-path:url(#SVGID_10_);fill:#7A7A7A;}
	.st83{clip-path:url(#SVGID_10_);fill:#797979;}
	.st84{clip-path:url(#SVGID_10_);fill:#787878;}
	.st85{clip-path:url(#SVGID_10_);fill:#777777;}
	.st86{clip-path:url(#SVGID_10_);fill:#757575;}
	.st87{clip-path:url(#SVGID_10_);fill:#747474;}
	.st88{clip-path:url(#SVGID_10_);fill:#737373;}
	.st89{clip-path:url(#SVGID_10_);fill:#727272;}
	.st90{clip-path:url(#SVGID_10_);fill:#707070;}
	.st91{clip-path:url(#SVGID_10_);fill:#6F6F6F;}
	.st92{clip-path:url(#SVGID_10_);fill:#6E6E6E;}
	.st93{clip-path:url(#SVGID_10_);fill:#6D6D6D;}
	.st94{clip-path:url(#SVGID_10_);fill:#6B6B6B;}
	.st95{clip-path:url(#SVGID_10_);fill:#6A6A6A;}
	.st96{clip-path:url(#SVGID_10_);fill:#696969;}
	.st97{clip-path:url(#SVGID_10_);fill:#676767;}
	.st98{clip-path:url(#SVGID_10_);fill:#666666;}
	.st99{clip-path:url(#SVGID_10_);fill:#656565;}
	.st100{clip-path:url(#SVGID_10_);fill:#636363;}
	.st101{clip-path:url(#SVGID_10_);fill:#626262;}
	.st102{clip-path:url(#SVGID_10_);fill:#606060;}
	.st103{clip-path:url(#SVGID_10_);fill:#5F5F5F;}
	.st104{clip-path:url(#SVGID_10_);fill:#5E5E5E;}
	.st105{clip-path:url(#SVGID_10_);fill:#5C5C5C;}
	.st106{clip-path:url(#SVGID_10_);fill:#5B5B5B;}
	.st107{clip-path:url(#SVGID_10_);fill:#595959;}
	.st108{clip-path:url(#SVGID_10_);fill:#585858;}
	.st109{clip-path:url(#SVGID_10_);fill:#565656;}
	.st110{clip-path:url(#SVGID_10_);fill:#555555;}
	.st111{clip-path:url(#SVGID_10_);fill:#535353;}
	.st112{clip-path:url(#SVGID_10_);fill:#525252;}
	.st113{clip-path:url(#SVGID_10_);fill:#505050;}
	.st114{clip-path:url(#SVGID_10_);fill:#4F4F4F;}
	.st115{clip-path:url(#SVGID_10_);fill:#4D4D4D;}
	.st116{clip-path:url(#SVGID_12_);fill:#CECCE4;}
	.st117{clip-path:url(#SVGID_14_);fill:#E2E2E2;}
	.st118{clip-path:url(#SVGID_14_);fill:#E1E1E1;}
	.st119{clip-path:url(#SVGID_14_);fill:#E0E0E0;}
	.st120{clip-path:url(#SVGID_14_);fill:#DFDFDF;}
	.st121{clip-path:url(#SVGID_14_);fill:#DDDDDD;}
	.st122{clip-path:url(#SVGID_14_);fill:#DCDCDC;}
	.st123{clip-path:url(#SVGID_14_);fill:#DBDBDB;}
	.st124{clip-path:url(#SVGID_14_);fill:#DADADA;}
	.st125{clip-path:url(#SVGID_14_);fill:#D9D9D9;}
	.st126{clip-path:url(#SVGID_14_);fill:#D8D8D8;}
	.st127{clip-path:url(#SVGID_14_);fill:#D7D7D7;}
	.st128{clip-path:url(#SVGID_14_);fill:#D5D5D5;}
	.st129{clip-path:url(#SVGID_14_);fill:#D4D4D4;}
	.st130{clip-path:url(#SVGID_14_);fill:#D3D3D3;}
	.st131{clip-path:url(#SVGID_14_);fill:#D2D2D2;}
	.st132{clip-path:url(#SVGID_14_);fill:#D1D1D1;}
	.st133{clip-path:url(#SVGID_14_);fill:#D0D0D0;}
	.st134{clip-path:url(#SVGID_14_);fill:#CFCFCF;}
	.st135{clip-path:url(#SVGID_14_);fill:#CDCDCD;}
	.st136{clip-path:url(#SVGID_14_);fill:#CCCCCC;}
	.st137{clip-path:url(#SVGID_14_);fill:#CBCBCB;}
	.st138{clip-path:url(#SVGID_14_);fill:#CACACA;}
	.st139{clip-path:url(#SVGID_14_);fill:#C9C9C9;}
	.st140{clip-path:url(#SVGID_14_);fill:#C8C8C8;}
	.st141{clip-path:url(#SVGID_14_);fill:#C7C7C7;}
	.st142{clip-path:url(#SVGID_14_);fill:#C6C6C6;}
	.st143{clip-path:url(#SVGID_14_);fill:#C5C5C5;}
	.st144{clip-path:url(#SVGID_14_);fill:#C3C3C3;}
	.st145{clip-path:url(#SVGID_14_);fill:#C2C2C2;}
	.st146{clip-path:url(#SVGID_14_);fill:#C1C1C1;}
	.st147{clip-path:url(#SVGID_14_);fill:#C0C0C0;}
	.st148{clip-path:url(#SVGID_14_);fill:#BFBFBF;}
	.st149{clip-path:url(#SVGID_14_);fill:#BEBEBE;}
	.st150{clip-path:url(#SVGID_14_);fill:#BDBDBD;}
	.st151{clip-path:url(#SVGID_14_);fill:#BCBCBC;}
	.st152{clip-path:url(#SVGID_14_);fill:#BBBBBB;}
	.st153{clip-path:url(#SVGID_14_);fill:#BABABA;}
	.st154{clip-path:url(#SVGID_14_);fill:#B9B9B9;}
	.st155{clip-path:url(#SVGID_14_);fill:#B8B8B8;}
	.st156{clip-path:url(#SVGID_14_);fill:#B6B6B6;}
	.st157{clip-path:url(#SVGID_14_);fill:#B5B5B5;}
	.st158{clip-path:url(#SVGID_14_);fill:#B4B4B4;}
	.st159{clip-path:url(#SVGID_14_);fill:#B3B3B3;}
	.st160{clip-path:url(#SVGID_14_);fill:#B2B2B2;}
	.st161{clip-path:url(#SVGID_14_);fill:#B1B1B1;}
	.st162{clip-path:url(#SVGID_14_);fill:#B0B0B0;}
	.st163{clip-path:url(#SVGID_14_);fill:#AFAFAF;}
	.st164{clip-path:url(#SVGID_14_);fill:#AEAEAE;}
	.st165{clip-path:url(#SVGID_14_);fill:#ADADAD;}
	.st166{clip-path:url(#SVGID_14_);fill:#ACACAC;}
	.st167{clip-path:url(#SVGID_14_);fill:#ABABAB;}
	.st168{clip-path:url(#SVGID_14_);fill:#AAAAAA;}
	.st169{clip-path:url(#SVGID_14_);fill:#A9A9A9;}
	.st170{clip-path:url(#SVGID_14_);fill:#A8A8A8;}
	.st171{clip-path:url(#SVGID_14_);fill:#A7A7A7;}
	.st172{clip-path:url(#SVGID_14_);fill:#A6A6A6;}
	.st173{clip-path:url(#SVGID_14_);fill:#A5A5A5;}
	.st174{clip-path:url(#SVGID_14_);fill:#A4A4A4;}
	.st175{clip-path:url(#SVGID_14_);fill:#A3A3A3;}
	.st176{clip-path:url(#SVGID_14_);fill:#A2A2A2;}
	.st177{clip-path:url(#SVGID_14_);fill:#A1A1A1;}
	.st178{clip-path:url(#SVGID_14_);fill:#A0A0A0;}
	.st179{clip-path:url(#SVGID_14_);fill:#9F9F9F;}
	.st180{clip-path:url(#SVGID_14_);fill:#9E9E9E;}
	.st181{clip-path:url(#SVGID_14_);fill:#9D9D9D;}
	.st182{clip-path:url(#SVGID_14_);fill:#9C9C9C;}
	.st183{clip-path:url(#SVGID_14_);fill:#9B9B9B;}
	.st184{clip-path:url(#SVGID_14_);fill:#9A9A9A;}
	.st185{clip-path:url(#SVGID_14_);fill:#999999;}
	.st186{clip-path:url(#SVGID_14_);fill:#989898;}
	.st187{clip-path:url(#SVGID_14_);fill:#979797;}
	.st188{clip-path:url(#SVGID_14_);fill:#969696;}
	.st189{clip-path:url(#SVGID_14_);fill:#959595;}
	.st190{clip-path:url(#SVGID_14_);fill:#949494;}
	.st191{clip-path:url(#SVGID_14_);fill:#939393;}
	.st192{clip-path:url(#SVGID_14_);fill:#929292;}
	.st193{clip-path:url(#SVGID_14_);fill:#919191;}
	.st194{clip-path:url(#SVGID_14_);fill:#909090;}
	.st195{clip-path:url(#SVGID_14_);fill:#8F8F8F;}
	.st196{clip-path:url(#SVGID_14_);fill:#8E8E8E;}
	.st197{clip-path:url(#SVGID_14_);fill:#8D8D8D;}
	.st198{clip-path:url(#SVGID_14_);fill:#8C8C8C;}
	.st199{clip-path:url(#SVGID_14_);fill:#8B8B8B;}
	.st200{clip-path:url(#SVGID_14_);fill:#8A8A8A;}
	.st201{clip-path:url(#SVGID_14_);fill:#898989;}
	.st202{clip-path:url(#SVGID_14_);fill:#888888;}
	.st203{clip-path:url(#SVGID_14_);fill:#878787;}
	.st204{clip-path:url(#SVGID_14_);fill:#868686;}
	.st205{clip-path:url(#SVGID_14_);fill:#858585;}
	.st206{clip-path:url(#SVGID_14_);fill:#848484;}
	.st207{clip-path:url(#SVGID_16_);fill:#999999;}
	.st208{clip-path:url(#SVGID_16_);fill:#E6E6E6;}
	.st209{clip-path:url(#SVGID_16_);fill:#808080;}
	.st210{fill:none;}
</style>
<g>
	<defs>
		<rect id="SVGID_1_" x="192" y="-29.93" width="1558.79" height="876.39"/>
	</defs>
	<clipPath id="SVGID_2_">
		<use xlink:href="#SVGID_1_"  style="overflow:visible;"/>
	</clipPath>
</g>
<g>
	<defs>
		<path id="SVGID_3_" d="M953.13,712.19h12.32l-5.28,15.44h-12.32L953.13,712.19z M969.27,712.19h12.32l-5.28,15.44h-12.32
			L969.27,712.19z M985.11,712.19h12.32l-5.28,15.44h-12.32L985.11,712.19z M958.41,693.32h12.32l-5.28,15.44h-12.32L958.41,693.32z
			 M974.55,693.32h12.32l-5.28,15.44h-12.32L974.55,693.32z M965.3,674.45h12.32l-5.28,15.44h-12.32L965.3,674.45z M970.73,655.58
			h12.32l-5.28,15.44h-12.32L970.73,655.58z M986.87,655.58h12.32l-5.28,15.44h-12.32L986.87,655.58z M995.12,580.11h12.32
			l-5.28,15.44h-12.32L995.12,580.11z M1002.01,559.52h12.32l-5.28,15.44h-12.32L1002.01,559.52z M1018.15,559.52h12.32l-5.28,15.44
			h-12.32L1018.15,559.52z M995.89,554.38l-62.52,197.26h58.84l12.58-38.55l-2.78-0.9l1.76-6.86l-3.64-4.44l-2.69,7.87h-12.32
			l5.23-15.28l-6.99-3.58h-7.19l5.28-15.44h12.32l-5.28,15.44H992l5.28-15.44h0.79l0.42-3.43h-1.06l5.28-15.44h12.32l-5.08,14.85
			l8.9-0.46l37.71-115.6H995.89z"/>
	</defs>
	<clipPath id="SVGID_4_">
		<use xlink:href="#SVGID_3_"  style="overflow:visible;"/>
	</clipPath>
	<polygon class="st0" points="980.25,712.19 979.83,712.72 979.83,712.19 	"/>
	<polygon class="st0" points="981.01,712.19 979.83,713.67 979.83,712.72 980.25,712.19 	"/>
	<polygon class="st0" points="981.77,712.19 979.83,714.63 979.83,713.67 981.01,712.19 	"/>
	<polygon class="st0" points="982.53,712.19 979.83,715.59 979.83,714.63 981.77,712.19 	"/>
	<polygon class="st0" points="983.29,712.19 979.83,716.55 979.83,715.59 982.53,712.19 	"/>
	<polygon class="st0" points="984.05,712.19 979.83,717.5 979.83,716.55 983.29,712.19 	"/>
	<polygon class="st0" points="984.81,712.19 979.83,718.46 979.83,717.5 984.05,712.19 	"/>
	<polygon class="st0" points="985.57,712.19 979.83,719.42 979.83,718.46 984.81,712.19 	"/>
	<polygon class="st0" points="986.33,712.19 979.83,720.38 979.83,719.42 985.57,712.19 	"/>
	<polygon class="st0" points="987.09,712.19 979.83,721.33 979.83,720.38 986.33,712.19 	"/>
	<polygon class="st0" points="987.84,712.19 979.83,722.29 979.83,721.33 987.09,712.19 	"/>
	<polygon class="st0" points="988.6,712.19 979.83,723.25 979.83,722.29 987.84,712.19 	"/>
	<polygon class="st0" points="989.36,712.19 979.83,724.21 979.83,723.25 988.6,712.19 	"/>
	<polygon class="st0" points="990.12,712.19 979.83,725.16 979.83,724.21 989.36,712.19 	"/>
	<polygon class="st0" points="990.88,712.19 979.83,726.12 979.83,725.16 990.12,712.19 	"/>
	<polygon class="st0" points="991.64,712.19 979.83,727.08 979.83,726.12 990.88,712.19 	"/>
	<polygon class="st0" points="992.4,712.19 980.16,727.62 979.83,727.62 979.83,727.08 991.64,712.19 	"/>
	<polygon class="st0" points="993.16,712.19 980.92,727.62 980.16,727.62 992.4,712.19 	"/>
	<polygon class="st0" points="993.92,712.19 981.68,727.62 980.92,727.62 993.16,712.19 	"/>
	<polygon class="st0" points="994.68,712.19 982.44,727.62 981.68,727.62 993.92,712.19 	"/>
	<polygon class="st0" points="995.44,712.19 983.2,727.62 982.44,727.62 994.68,712.19 	"/>
	<polygon class="st0" points="996.2,712.19 983.96,727.62 983.2,727.62 995.44,712.19 	"/>
	<polygon class="st0" points="996.96,712.19 984.72,727.62 983.96,727.62 996.2,712.19 	"/>
	<polygon class="st0" points="997.43,712.55 985.47,727.62 984.71,727.62 996.96,712.19 997.43,712.19 	"/>
	<polygon class="st0" points="997.43,713.51 986.23,727.62 985.47,727.62 997.43,712.55 	"/>
	<polygon class="st0" points="997.43,714.47 986.99,727.62 986.23,727.62 997.43,713.51 	"/>
	<polygon class="st0" points="997.43,715.42 987.75,727.62 986.99,727.62 997.43,714.47 	"/>
	<polygon class="st0" points="997.43,716.38 988.51,727.62 987.75,727.62 997.43,715.42 	"/>
	<polygon class="st0" points="997.43,717.34 989.27,727.62 988.51,727.62 997.43,716.38 	"/>
	<polygon class="st0" points="997.43,718.3 990.03,727.62 989.27,727.62 997.43,717.34 	"/>
	<polygon class="st0" points="997.43,719.25 990.79,727.62 990.03,727.62 997.43,718.3 	"/>
	<polygon class="st0" points="997.43,720.21 991.55,727.62 990.79,727.62 997.43,719.25 	"/>
	<polygon class="st0" points="997.43,721.17 992.31,727.62 991.55,727.62 997.43,720.21 	"/>
	<polygon class="st0" points="997.43,722.13 993.07,727.62 992.31,727.62 997.43,721.17 	"/>
	<polygon class="st0" points="997.43,723.08 993.83,727.62 993.07,727.62 997.43,722.13 	"/>
	<polygon class="st0" points="997.43,724.04 994.59,727.62 993.83,727.62 997.43,723.08 	"/>
	<polygon class="st0" points="997.43,725 995.35,727.62 994.59,727.62 997.43,724.04 	"/>
	<polygon class="st0" points="997.43,725.96 996.11,727.62 995.35,727.62 997.43,725 	"/>
	<polygon class="st0" points="997.43,726.91 996.87,727.62 996.11,727.62 997.43,725.96 	"/>
	<polygon class="st0" points="996.87,727.62 997.43,726.91 997.43,727.62 	"/>
	<polygon class="st0" points="964.3,712.19 963.99,712.58 963.99,712.19 	"/>
	<polygon class="st0" points="965.06,712.19 963.99,713.53 963.99,712.58 964.3,712.19 	"/>
	<polygon class="st0" points="965.82,712.19 963.99,714.49 963.99,713.53 965.06,712.19 	"/>
	<polygon class="st0" points="966.58,712.19 963.99,715.45 963.99,714.49 965.82,712.19 	"/>
	<polygon class="st0" points="967.34,712.19 963.99,716.41 963.99,715.45 966.58,712.19 	"/>
	<polygon class="st0" points="968.1,712.19 963.99,717.36 963.99,716.41 967.34,712.19 	"/>
	<polygon class="st0" points="968.86,712.19 963.99,718.32 963.99,717.36 968.1,712.19 	"/>
	<polygon class="st0" points="969.62,712.19 963.99,719.28 963.99,718.32 968.86,712.19 	"/>
	<polygon class="st0" points="970.38,712.19 963.99,720.24 963.99,719.28 969.62,712.19 	"/>
	<polygon class="st0" points="971.14,712.19 963.99,721.19 963.99,720.24 970.38,712.19 	"/>
	<polygon class="st0" points="971.9,712.19 963.99,722.15 963.99,721.19 971.14,712.19 	"/>
	<polygon class="st0" points="972.66,712.19 963.99,723.11 963.99,722.15 971.9,712.19 	"/>
	<polygon class="st0" points="973.41,712.19 963.99,724.07 963.99,723.11 972.66,712.19 	"/>
	<polygon class="st0" points="974.17,712.19 963.99,725.02 963.99,724.07 973.41,712.19 	"/>
	<polygon class="st0" points="974.93,712.19 963.99,725.98 963.99,725.02 974.17,712.19 	"/>
	<polygon class="st0" points="975.69,712.19 963.99,726.94 963.99,725.98 974.93,712.19 	"/>
	<polygon class="st0" points="976.45,712.19 964.21,727.62 963.99,727.62 963.99,726.94 975.69,712.19 	"/>
	<polygon class="st0" points="977.21,712.19 964.97,727.62 964.21,727.62 976.45,712.19 	"/>
	<polygon class="st0" points="977.97,712.19 965.73,727.62 964.97,727.62 977.21,712.19 	"/>
	<polygon class="st0" points="978.73,712.19 966.49,727.62 965.73,727.62 977.97,712.19 	"/>
	<polygon class="st0" points="979.49,712.19 967.25,727.62 966.49,727.62 978.73,712.19 	"/>
	<polygon class="st0" points="980.25,712.19 968,727.62 967.25,727.62 979.49,712.19 	"/>
	<polygon class="st0" points="981.01,712.19 968.76,727.62 968,727.62 980.25,712.19 	"/>
	<polygon class="st0" points="981.59,712.41 969.52,727.62 968.76,727.62 981.01,712.19 981.59,712.19 	"/>
	<polygon class="st0" points="981.59,713.37 970.28,727.62 969.52,727.62 981.59,712.41 	"/>
	<polygon class="st0" points="981.59,714.33 971.04,727.62 970.28,727.62 981.59,713.37 	"/>
	<polygon class="st0" points="981.59,715.28 971.8,727.62 971.04,727.62 981.59,714.33 	"/>
	<polygon class="st0" points="981.59,716.24 972.56,727.62 971.8,727.62 981.59,715.28 	"/>
	<polygon class="st0" points="981.59,717.2 973.32,727.62 972.56,727.62 981.59,716.24 	"/>
	<polygon class="st0" points="981.59,718.16 974.08,727.62 973.32,727.62 981.59,717.2 	"/>
	<polygon class="st0" points="981.59,719.11 974.84,727.62 974.08,727.62 981.59,718.16 	"/>
	<polygon class="st0" points="981.59,720.07 975.6,727.62 974.84,727.62 981.59,719.11 	"/>
	<polygon class="st0" points="981.59,721.03 976.36,727.62 975.6,727.62 981.59,720.07 	"/>
	<polygon class="st0" points="981.59,721.99 977.12,727.62 976.36,727.62 981.59,721.03 	"/>
	<polygon class="st0" points="981.59,722.94 977.88,727.62 977.12,727.62 981.59,721.99 	"/>
	<polygon class="st0" points="981.59,723.9 978.64,727.62 977.88,727.62 981.59,722.94 	"/>
	<polygon class="st0" points="981.59,724.86 979.4,727.62 978.64,727.62 981.59,723.9 	"/>
	<polygon class="st0" points="981.59,725.82 980.16,727.62 979.4,727.62 981.59,724.86 	"/>
	<polygon class="st0" points="981.59,726.77 980.92,727.62 980.16,727.62 981.59,725.82 	"/>
	<polygon class="st0" points="980.92,727.62 981.59,726.77 981.59,727.62 	"/>
	<polygon class="st0" points="948.35,712.19 947.85,712.82 947.85,712.19 	"/>
	<polygon class="st0" points="949.11,712.19 947.85,713.78 947.85,712.82 948.35,712.19 	"/>
	<polygon class="st0" points="949.87,712.19 947.85,714.73 947.85,713.78 949.11,712.19 	"/>
	<polygon class="st0" points="950.63,712.19 947.85,715.69 947.85,714.73 949.87,712.19 	"/>
	<polygon class="st0" points="951.39,712.19 947.85,716.65 947.85,715.69 950.63,712.19 	"/>
	<polygon class="st0" points="952.15,712.19 947.85,717.61 947.85,716.65 951.39,712.19 	"/>
	<polygon class="st0" points="952.91,712.19 947.85,718.56 947.85,717.61 952.15,712.19 	"/>
	<polygon class="st0" points="953.67,712.19 947.85,719.52 947.85,718.56 952.91,712.19 	"/>
	<polygon class="st0" points="954.43,712.19 947.85,720.48 947.85,719.52 953.67,712.19 	"/>
	<polygon class="st0" points="955.19,712.19 947.85,721.44 947.85,720.48 954.43,712.19 	"/>
	<polygon class="st0" points="955.95,712.19 947.85,722.39 947.85,721.44 955.19,712.19 	"/>
	<polygon class="st0" points="956.71,712.19 947.85,723.35 947.85,722.39 955.95,712.19 	"/>
	<polygon class="st0" points="957.47,712.19 947.85,724.31 947.85,723.35 956.71,712.19 	"/>
	<polygon class="st0" points="958.22,712.19 947.85,725.27 947.85,724.31 957.46,712.19 	"/>
	<polygon class="st0" points="958.98,712.19 947.85,726.22 947.85,725.27 958.22,712.19 	"/>
	<polygon class="st0" points="959.74,712.19 947.85,727.18 947.85,726.22 958.98,712.19 	"/>
	<polygon class="st0" points="960.5,712.19 948.26,727.62 947.85,727.62 947.85,727.18 959.74,712.19 	"/>
	<polygon class="st0" points="961.26,712.19 949.02,727.62 948.26,727.62 960.5,712.19 	"/>
	<polygon class="st0" points="962.02,712.19 949.78,727.62 949.02,727.62 961.26,712.19 	"/>
	<polygon class="st0" points="962.78,712.19 950.54,727.62 949.78,727.62 962.02,712.19 	"/>
	<polygon class="st0" points="963.54,712.19 951.3,727.62 950.54,727.62 962.78,712.19 	"/>
	<polygon class="st0" points="964.3,712.19 952.06,727.62 951.3,727.62 963.54,712.19 	"/>
	<polygon class="st0" points="965.06,712.19 952.81,727.62 952.06,727.62 964.3,712.19 	"/>
	<polygon class="st0" points="965.45,712.65 953.57,727.62 952.81,727.62 965.06,712.19 965.45,712.19 	"/>
	<polygon class="st0" points="965.45,713.61 954.33,727.62 953.57,727.62 965.45,712.65 	"/>
	<polygon class="st0" points="965.45,714.57 955.09,727.62 954.33,727.62 965.45,713.61 	"/>
	<polygon class="st0" points="965.45,715.53 955.85,727.62 955.09,727.62 965.45,714.57 	"/>
	<polygon class="st0" points="965.45,716.48 956.61,727.62 955.85,727.62 965.45,715.53 	"/>
	<polygon class="st0" points="965.45,717.44 957.37,727.62 956.61,727.62 965.45,716.48 	"/>
	<polygon class="st0" points="965.45,718.4 958.13,727.62 957.37,727.62 965.45,717.44 	"/>
	<polygon class="st0" points="965.45,719.36 958.89,727.62 958.13,727.62 965.45,718.4 	"/>
	<polygon class="st0" points="965.45,720.31 959.65,727.62 958.89,727.62 965.45,719.36 	"/>
	<polygon class="st0" points="965.45,721.27 960.41,727.62 959.65,727.62 965.45,720.32 	"/>
	<polygon class="st0" points="965.45,722.23 961.17,727.62 960.41,727.62 965.45,721.27 	"/>
	<polygon class="st0" points="965.45,723.19 961.93,727.62 961.17,727.62 965.45,722.23 	"/>
	<polygon class="st0" points="965.45,724.14 962.69,727.62 961.93,727.62 965.45,723.19 	"/>
	<polygon class="st0" points="965.45,725.1 963.45,727.62 962.69,727.62 965.45,724.14 	"/>
	<polygon class="st0" points="965.45,726.06 964.21,727.62 963.45,727.62 965.45,725.1 	"/>
	<polygon class="st0" points="965.45,727.02 964.97,727.62 964.21,727.62 965.45,726.06 	"/>
	<polygon class="st0" points="964.97,727.62 965.45,727.02 965.45,727.62 	"/>
	<polygon class="st0" points="958.76,693.32 953.13,700.42 953.13,693.32 	"/>
	<polygon class="st0" points="959.52,693.32 953.13,701.37 953.13,700.42 958.76,693.32 	"/>
	<polygon class="st0" points="960.28,693.32 953.13,702.33 953.13,701.37 959.52,693.32 	"/>
	<polygon class="st0" points="961.04,693.32 953.13,703.29 953.13,702.33 960.28,693.32 	"/>
	<polygon class="st0" points="961.8,693.32 953.13,704.25 953.13,703.29 961.04,693.32 	"/>
	<polygon class="st0" points="962.56,693.32 953.13,705.21 953.13,704.25 961.8,693.32 	"/>
	<polygon class="st0" points="963.32,693.32 953.13,706.16 953.13,705.21 962.56,693.32 	"/>
	<polygon class="st0" points="964.08,693.32 953.13,707.12 953.13,706.16 963.32,693.32 	"/>
	<polygon class="st0" points="964.84,693.32 953.13,708.08 953.13,707.12 964.08,693.32 	"/>
	<polygon class="st0" points="965.6,693.32 953.35,708.76 953.13,708.76 953.13,708.08 964.84,693.32 	"/>
	<polygon class="st0" points="966.36,693.32 954.11,708.76 953.35,708.76 965.6,693.32 	"/>
	<polygon class="st0" points="967.12,693.32 954.87,708.76 954.11,708.76 966.36,693.32 	"/>
	<polygon class="st0" points="967.87,693.32 955.63,708.76 954.87,708.76 967.11,693.32 	"/>
	<polygon class="st0" points="968.63,693.32 956.39,708.76 955.63,708.76 967.87,693.32 	"/>
	<polygon class="st0" points="969.39,693.32 957.15,708.76 956.39,708.76 968.63,693.32 	"/>
	<polygon class="st0" points="970.15,693.32 957.91,708.76 957.15,708.76 969.39,693.32 	"/>
	<polygon class="st0" points="970.73,693.55 958.67,708.76 957.91,708.76 970.15,693.32 970.73,693.32 	"/>
	<polygon class="st0" points="970.73,694.51 959.43,708.76 958.67,708.76 970.73,693.55 	"/>
	<polygon class="st0" points="970.73,695.47 960.19,708.75 959.43,708.75 970.73,694.51 	"/>
	<polygon class="st0" points="970.73,696.42 960.95,708.76 960.19,708.76 970.73,695.47 	"/>
	<polygon class="st0" points="970.73,697.38 961.7,708.76 960.95,708.76 970.73,696.42 	"/>
	<polygon class="st0" points="970.73,698.34 962.46,708.75 961.7,708.75 970.73,697.38 	"/>
	<polygon class="st0" points="970.73,699.3 963.22,708.76 962.46,708.76 970.73,698.34 	"/>
	<polygon class="st0" points="970.73,700.25 963.98,708.76 963.22,708.76 970.73,699.3 	"/>
	<polygon class="st0" points="970.73,701.21 964.74,708.76 963.98,708.76 970.73,700.25 	"/>
	<polygon class="st0" points="970.73,702.17 965.5,708.76 964.74,708.76 970.73,701.21 	"/>
	<polygon class="st0" points="970.73,703.13 966.26,708.76 965.5,708.76 970.73,702.17 	"/>
	<polygon class="st0" points="970.73,704.08 967.02,708.76 966.26,708.76 970.73,703.13 	"/>
	<polygon class="st0" points="970.73,705.04 967.78,708.76 967.02,708.76 970.73,704.08 	"/>
	<polygon class="st0" points="970.73,706 968.54,708.75 967.78,708.75 970.73,705.04 	"/>
	<polygon class="st0" points="970.73,706.96 969.3,708.76 968.54,708.76 970.73,706 	"/>
	<polygon class="st0" points="970.73,707.91 970.06,708.76 969.3,708.76 970.73,706.96 	"/>
	<polygon class="st0" points="970.06,708.76 970.73,707.91 970.73,708.76 	"/>
	<polygon class="st0" points="973.73,674.45 961.48,689.89 960.02,689.89 960.02,674.45 	"/>
	<polygon class="st0" points="974.49,674.45 962.24,689.89 961.48,689.89 973.73,674.45 	"/>
	<polygon class="st0" points="975.25,674.45 963,689.89 962.24,689.89 974.49,674.45 	"/>
	<polygon class="st0" points="976.01,674.45 963.76,689.89 963,689.89 975.25,674.45 	"/>
	<polygon class="st0" points="976.76,674.45 964.52,689.89 963.76,689.89 976.01,674.45 	"/>
	<polygon class="st0" points="977.52,674.45 965.28,689.89 964.52,689.89 976.76,674.45 	"/>
	<polygon class="st0" points="977.62,675.29 966.04,689.89 965.28,689.89 977.52,674.45 977.62,674.45 	"/>
	<polygon class="st0" points="977.62,676.25 966.8,689.89 966.04,689.89 977.62,675.29 	"/>
	<polygon class="st0" points="977.62,677.21 967.56,689.89 966.8,689.89 977.62,676.25 	"/>
	<polygon class="st0" points="977.62,678.16 968.32,689.89 967.56,689.89 977.62,677.21 	"/>
	<polygon class="st0" points="977.62,679.12 969.08,689.89 968.32,689.89 977.62,678.16 	"/>
	<polygon class="st0" points="977.62,680.08 969.84,689.89 969.08,689.89 977.62,679.12 	"/>
	<polygon class="st0" points="977.62,681.04 970.6,689.89 969.84,689.89 977.62,680.08 	"/>
	<polygon class="st0" points="977.62,681.99 971.36,689.89 970.6,689.89 977.62,681.04 	"/>
	<polygon class="st0" points="977.62,682.95 972.11,689.89 971.36,689.89 977.62,681.99 	"/>
	<polygon class="st0" points="977.62,683.91 972.87,689.89 972.11,689.89 977.62,682.95 	"/>
	<polygon class="st0" points="977.62,684.87 973.63,689.89 972.87,689.89 977.62,683.91 	"/>
	<polygon class="st0" points="977.62,685.82 974.39,689.89 973.63,689.89 977.62,684.87 	"/>
	<polygon class="st0" points="977.62,686.78 975.15,689.89 974.39,689.89 977.62,685.82 	"/>
	<polygon class="st0" points="977.62,687.74 975.91,689.89 975.15,689.89 977.62,686.78 	"/>
	<polygon class="st0" points="977.62,688.7 976.67,689.89 975.91,689.89 977.62,687.74 	"/>
	<polygon class="st0" points="977.62,689.65 977.43,689.89 976.67,689.89 977.62,688.7 	"/>
	<polygon class="st0" points="977.43,689.89 977.62,689.65 977.62,689.89 	"/>
	<polygon class="st0" points="983.05,662.7 976.45,671.02 965.45,671.02 965.45,655.58 983.05,655.58 	"/>
	<polygon class="st0" points="983.05,663.66 977.21,671.02 976.45,671.02 983.05,662.7 	"/>
	<polygon class="st0" points="983.05,664.61 977.97,671.02 977.21,671.02 983.05,663.66 	"/>
	<polygon class="st0" points="983.05,665.57 978.73,671.02 977.97,671.02 983.05,664.61 	"/>
	<polygon class="st0" points="983.05,666.53 979.49,671.02 978.73,671.02 983.05,665.57 	"/>
	<polygon class="st0" points="983.05,667.49 980.25,671.02 979.49,671.02 983.05,666.53 	"/>
	<polygon class="st0" points="983.05,668.44 981,671.02 980.25,671.02 983.05,667.49 	"/>
	<polygon class="st0" points="983.05,669.4 981.76,671.02 981,671.02 983.05,668.44 	"/>
	<polygon class="st0" points="983.05,670.36 982.52,671.02 981.76,671.02 983.05,669.4 	"/>
	<polygon class="st0" points="982.52,671.02 983.05,670.36 983.05,671.02 	"/>
	<polygon class="st0" points="988.69,655.58 981.59,664.54 981.59,655.58 	"/>
	<polygon class="st0" points="989.45,655.58 981.59,665.49 981.59,664.54 988.69,655.58 	"/>
	<polygon class="st0" points="990.21,655.58 981.59,666.45 981.59,665.49 989.45,655.58 	"/>
	<polygon class="st0" points="990.97,655.58 981.59,667.41 981.59,666.45 990.21,655.58 	"/>
	<polygon class="st0" points="991.73,655.58 981.59,668.37 981.59,667.41 990.97,655.58 	"/>
	<polygon class="st0" points="992.49,655.58 981.59,669.32 981.59,668.37 991.73,655.58 	"/>
	<polygon class="st0" points="993.25,655.58 981.59,670.28 981.59,669.32 992.49,655.58 	"/>
	<polygon class="st0" points="994.01,655.58 981.77,671.02 981.59,671.02 981.59,670.28 993.25,655.58 	"/>
	<polygon class="st0" points="994.77,655.58 982.52,671.02 981.77,671.02 994.01,655.58 	"/>
	<polygon class="st0" points="995.53,655.58 983.28,671.02 982.52,671.02 994.77,655.58 	"/>
	<polygon class="st0" points="996.29,655.58 984.04,671.02 983.28,671.02 995.53,655.58 	"/>
	<polygon class="st0" points="997.05,655.58 984.8,671.02 984.04,671.02 996.29,655.58 	"/>
	<polygon class="st0" points="997.81,655.58 985.56,671.02 984.8,671.02 997.05,655.58 	"/>
	<polygon class="st0" points="998.57,655.58 986.32,671.02 985.56,671.02 997.81,655.58 	"/>
	<polygon class="st0" points="999.19,655.75 987.08,671.02 986.32,671.02 998.57,655.58 999.19,655.58 	"/>
	<polygon class="st0" points="999.19,656.71 987.84,671.02 987.08,671.02 999.19,655.75 	"/>
	<polygon class="st0" points="999.19,657.67 988.6,671.02 987.84,671.02 999.19,656.71 	"/>
	<polygon class="st0" points="999.19,658.63 989.36,671.02 988.6,671.02 999.19,657.67 	"/>
	<polygon class="st0" points="999.19,659.58 990.12,671.02 989.36,671.02 999.19,658.63 	"/>
	<polygon class="st0" points="999.19,660.54 990.88,671.02 990.12,671.02 999.19,659.58 	"/>
	<polygon class="st0" points="999.19,661.5 991.64,671.02 990.88,671.02 999.19,660.54 	"/>
	<polygon class="st0" points="999.19,662.46 992.4,671.02 991.64,671.02 999.19,661.5 	"/>
	<polygon class="st0" points="999.19,663.41 993.16,671.02 992.4,671.02 999.19,662.46 	"/>
	<polygon class="st0" points="999.19,664.37 993.92,671.02 993.16,671.02 999.19,663.41 	"/>
	<polygon class="st0" points="999.19,665.33 994.68,671.02 993.92,671.02 999.19,664.37 	"/>
	<polygon class="st0" points="999.19,666.29 995.44,671.02 994.68,671.02 999.19,665.33 	"/>
	<polygon class="st0" points="999.19,667.24 996.2,671.02 995.44,671.02 999.19,666.29 	"/>
	<polygon class="st0" points="999.19,668.2 996.96,671.02 996.2,671.02 999.19,667.24 	"/>
	<polygon class="st0" points="999.19,669.16 997.71,671.02 996.96,671.02 999.19,668.2 	"/>
	<polygon class="st0" points="999.19,670.12 998.47,671.02 997.71,671.02 999.19,669.16 	"/>
	<polygon class="st0" points="998.47,671.02 999.19,670.12 999.19,671.02 	"/>
	<rect x="989.84" y="580.11" class="st0" width="17.6" height="15.44"/>
	<rect x="996.73" y="559.52" class="st0" width="17.6" height="15.44"/>
	<rect x="1012.87" y="559.52" class="st0" width="17.6" height="15.44"/>
	<polygon class="st0" points="969.39,693.32 969.27,693.47 969.27,693.32 	"/>
	<polygon class="st0" points="970.15,693.32 969.27,694.43 969.27,693.47 969.39,693.32 	"/>
	<polygon class="st0" points="970.91,693.32 969.27,695.39 969.27,694.43 970.15,693.32 	"/>
	<polygon class="st0" points="971.67,693.32 969.27,696.35 969.27,695.39 970.91,693.32 	"/>
	<polygon class="st0" points="972.43,693.32 969.27,697.3 969.27,696.35 971.67,693.32 	"/>
	<polygon class="st0" points="973.19,693.32 969.27,698.26 969.27,697.3 972.43,693.32 	"/>
	<polygon class="st0" points="973.95,693.32 969.27,699.22 969.27,698.26 973.19,693.32 	"/>
	<polygon class="st0" points="974.71,693.32 969.27,700.17 969.27,699.22 973.95,693.32 	"/>
	<polygon class="st0" points="975.47,693.32 969.27,701.13 969.27,700.17 974.71,693.32 	"/>
	<polygon class="st0" points="976.23,693.32 969.27,702.09 969.27,701.13 975.47,693.32 	"/>
	<polygon class="st0" points="976.99,693.32 969.27,703.05 969.27,702.09 976.23,693.32 	"/>
	<polygon class="st0" points="977.75,693.32 969.27,704.01 969.27,703.05 976.99,693.32 	"/>
	<polygon class="st0" points="978.51,693.32 969.27,704.96 969.27,704.01 977.75,693.32 	"/>
	<polygon class="st0" points="979.27,693.32 969.27,705.92 969.27,704.96 978.51,693.32 	"/>
	<polygon class="st0" points="980.03,693.32 969.27,706.88 969.27,705.92 979.27,693.32 	"/>
	<polygon class="st0" points="980.79,693.32 969.27,707.84 969.27,706.88 980.03,693.32 	"/>
	<polygon class="st0" points="981.55,693.32 969.3,708.76 969.27,708.76 969.27,707.84 980.79,693.32 	"/>
	<polygon class="st0" points="982.31,693.32 970.06,708.76 969.3,708.76 981.55,693.32 	"/>
	<polygon class="st0" points="983.06,693.32 970.82,708.76 970.06,708.76 982.31,693.32 	"/>
	<polygon class="st0" points="983.82,693.32 971.58,708.76 970.82,708.76 983.06,693.32 	"/>
	<polygon class="st0" points="984.58,693.32 972.34,708.76 971.58,708.76 983.82,693.32 	"/>
	<polygon class="st0" points="985.34,693.32 973.1,708.76 972.34,708.76 984.58,693.32 	"/>
	<polygon class="st0" points="986.1,693.32 973.86,708.76 973.1,708.76 985.34,693.32 	"/>
	<polygon class="st0" points="986.86,693.32 974.62,708.76 973.86,708.76 986.1,693.32 	"/>
	<polygon class="st0" points="986.87,694.27 975.38,708.75 974.62,708.75 986.86,693.32 986.87,693.32 	"/>
	<polygon class="st0" points="986.87,695.22 976.14,708.76 975.38,708.76 986.87,694.27 	"/>
	<polygon class="st0" points="986.87,696.18 976.9,708.76 976.14,708.76 986.87,695.22 	"/>
	<polygon class="st0" points="986.87,697.14 977.66,708.75 976.9,708.75 986.87,696.18 	"/>
	<polygon class="st0" points="986.87,698.09 978.42,708.76 977.66,708.76 986.87,697.14 	"/>
	<polygon class="st0" points="986.87,699.05 979.17,708.76 978.42,708.76 986.87,698.1 	"/>
	<polygon class="st0" points="986.87,700.01 979.93,708.75 979.17,708.75 986.87,699.05 	"/>
	<polygon class="st0" points="986.87,700.97 980.69,708.76 979.93,708.76 986.87,700.01 	"/>
	<polygon class="st0" points="986.87,701.93 981.45,708.76 980.69,708.76 986.87,700.97 	"/>
	<polygon class="st0" points="986.87,702.88 982.21,708.75 981.45,708.75 986.87,701.93 	"/>
	<polygon class="st0" points="986.87,703.84 982.97,708.76 982.21,708.76 986.87,702.88 	"/>
	<polygon class="st0" points="986.87,704.8 983.73,708.76 982.97,708.76 986.87,703.84 	"/>
	<polygon class="st0" points="986.87,705.76 984.49,708.75 983.73,708.75 986.87,704.8 	"/>
	<polygon class="st0" points="986.87,706.71 985.25,708.76 984.49,708.76 986.87,705.76 	"/>
	<polygon class="st0" points="986.87,707.67 986.01,708.76 985.25,708.76 986.87,706.71 	"/>
	<polygon class="st0" points="986.87,708.63 986.77,708.75 986.01,708.75 986.87,707.67 	"/>
	<polygon class="st0" points="986.77,708.76 986.87,708.63 986.87,708.76 	"/>
	<polygon class="st0" points="1056.56,570.02 933.37,725.33 933.37,554.38 1056.56,554.38 	"/>
	<polygon class="st0" points="1056.56,570.97 933.37,726.29 933.37,725.33 1056.56,570.02 	"/>
	<polygon class="st0" points="1056.56,571.93 933.37,727.24 933.37,726.29 1056.56,570.97 	"/>
	<polygon class="st0" points="1056.56,572.89 933.37,728.2 933.37,727.24 1056.56,571.93 	"/>
	<polygon class="st0" points="1056.56,573.85 933.37,729.16 933.37,728.2 1056.56,572.89 	"/>
	<polygon class="st0" points="1056.56,574.8 933.37,730.12 933.37,729.16 1056.56,573.85 	"/>
	<polygon class="st0" points="1056.56,575.76 933.37,731.07 933.37,730.12 1056.56,574.8 	"/>
	<polygon class="st0" points="1056.56,576.72 933.37,732.03 933.37,731.07 1056.56,575.76 	"/>
	<polygon class="st0" points="1056.56,577.68 933.37,732.99 933.37,732.03 1056.56,576.72 	"/>
	<polygon class="st0" points="1056.56,578.63 933.37,733.95 933.37,732.99 1056.56,577.68 	"/>
	<polygon class="st0" points="1056.56,579.59 933.37,734.9 933.37,733.95 1056.56,578.63 	"/>
	<polygon class="st0" points="1056.56,580.55 933.37,735.86 933.37,734.9 1056.56,579.59 	"/>
	<polygon class="st0" points="1056.56,581.51 933.37,736.82 933.37,735.86 1056.56,580.55 	"/>
	<polygon class="st0" points="1056.56,582.46 933.37,737.78 933.37,736.82 1056.56,581.51 	"/>
	<polygon class="st0" points="1056.56,583.42 933.37,738.73 933.37,737.78 1056.56,582.46 	"/>
	<polygon class="st0" points="1056.56,584.38 933.37,739.69 933.37,738.73 1056.56,583.42 	"/>
	<polygon class="st0" points="1056.56,585.34 933.37,740.65 933.37,739.69 1056.56,584.38 	"/>
	<polygon class="st0" points="1056.56,586.29 933.37,741.61 933.37,740.65 1056.56,585.34 	"/>
	<polygon class="st0" points="1056.56,587.25 933.37,742.56 933.37,741.61 1056.56,586.29 	"/>
	<polygon class="st0" points="1056.56,588.21 933.37,743.52 933.37,742.56 1056.56,587.25 	"/>
	<polygon class="st0" points="1056.56,589.17 933.37,744.48 933.37,743.52 1056.56,588.21 	"/>
	<polygon class="st0" points="1056.56,590.12 933.37,745.44 933.37,744.48 1056.56,589.17 	"/>
	<polygon class="st0" points="1056.56,591.08 933.37,746.39 933.37,745.44 1056.56,590.12 	"/>
	<polygon class="st0" points="1056.56,592.04 933.37,747.35 933.37,746.4 1056.56,591.08 	"/>
	<polygon class="st0" points="1056.56,593 933.37,748.31 933.37,747.35 1056.56,592.04 	"/>
	<polygon class="st0" points="1056.56,593.95 933.37,749.27 933.37,748.31 1056.56,593 	"/>
	<polygon class="st0" points="1056.56,594.91 933.37,750.22 933.37,749.27 1056.56,593.95 	"/>
	<polygon class="st0" points="1056.56,595.87 933.37,751.18 933.37,750.22 1056.56,594.91 	"/>
	<polygon class="st0" points="1056.56,596.83 933.77,751.64 933.37,751.64 933.37,751.18 1056.56,595.87 	"/>
	<polygon class="st0" points="1056.56,597.78 934.53,751.64 933.77,751.64 1056.56,596.83 	"/>
	<polygon class="st0" points="1056.56,598.74 935.29,751.64 934.53,751.64 1056.56,597.78 	"/>
	<polygon class="st0" points="1056.56,599.7 936.05,751.64 935.29,751.64 1056.56,598.74 	"/>
	<polygon class="st0" points="1056.56,600.66 936.81,751.64 936.05,751.64 1056.56,599.7 	"/>
	<polygon class="st0" points="1056.56,601.61 937.56,751.64 936.81,751.64 1056.56,600.66 	"/>
	<polygon class="st0" points="1056.56,602.57 938.32,751.64 937.56,751.64 1056.56,601.61 	"/>
	<polygon class="st0" points="1056.56,603.53 939.08,751.64 938.32,751.64 1056.56,602.57 	"/>
	<polygon class="st0" points="1056.56,604.49 939.84,751.64 939.08,751.64 1056.56,603.53 	"/>
	<polygon class="st0" points="1056.56,605.44 940.6,751.64 939.84,751.64 1056.56,604.49 	"/>
	<polygon class="st0" points="1056.56,606.4 941.36,751.64 940.6,751.64 1056.56,605.44 	"/>
	<polygon class="st0" points="1056.56,607.36 942.12,751.64 941.36,751.64 1056.56,606.4 	"/>
	<polygon class="st0" points="1056.56,608.32 942.88,751.64 942.12,751.64 1056.56,607.36 	"/>
	<polygon class="st0" points="1056.56,609.27 943.64,751.64 942.88,751.64 1056.56,608.32 	"/>
	<polygon class="st0" points="1056.56,610.23 944.4,751.64 943.64,751.64 1056.56,609.27 	"/>
	<polygon class="st0" points="1056.56,611.19 945.16,751.64 944.4,751.64 1056.56,610.23 	"/>
	<polygon class="st0" points="1056.56,612.15 945.92,751.64 945.16,751.64 1056.56,611.19 	"/>
	<polygon class="st0" points="1056.56,613.1 946.68,751.64 945.92,751.64 1056.56,612.15 	"/>
	<polygon class="st0" points="1056.56,614.06 947.44,751.64 946.68,751.64 1056.56,613.1 	"/>
	<polygon class="st0" points="1056.56,615.02 948.2,751.64 947.44,751.64 1056.56,614.06 	"/>
	<polygon class="st0" points="1056.56,615.98 948.96,751.64 948.2,751.64 1056.56,615.02 	"/>
	<polygon class="st0" points="1056.56,616.93 949.72,751.64 948.96,751.64 1056.56,615.98 	"/>
	<polygon class="st0" points="1056.56,617.89 950.48,751.64 949.72,751.64 1056.56,616.93 	"/>
	<polygon class="st0" points="1056.56,618.85 951.24,751.64 950.48,751.64 1056.56,617.89 	"/>
	<polygon class="st0" points="1056.56,619.81 951.99,751.64 951.24,751.64 1056.56,618.85 	"/>
	<polygon class="st0" points="1056.56,620.76 952.75,751.64 951.99,751.64 1056.56,619.81 	"/>
	<polygon class="st0" points="1056.56,621.72 953.51,751.64 952.75,751.64 1056.56,620.76 	"/>
	<polygon class="st0" points="1056.56,622.68 954.27,751.64 953.51,751.64 1056.56,621.72 	"/>
	<polygon class="st0" points="1056.56,623.64 955.03,751.64 954.27,751.64 1056.56,622.68 	"/>
	<polygon class="st0" points="1056.56,624.59 955.79,751.64 955.03,751.64 1056.56,623.64 	"/>
	<polygon class="st0" points="1056.56,625.55 956.55,751.64 955.79,751.64 1056.56,624.59 	"/>
	<polygon class="st0" points="1056.56,626.51 957.31,751.64 956.55,751.64 1056.56,625.55 	"/>
	<polygon class="st0" points="1056.56,627.47 958.07,751.64 957.31,751.64 1056.56,626.51 	"/>
	<polygon class="st0" points="1056.56,628.42 958.83,751.64 958.07,751.64 1056.56,627.47 	"/>
	<polygon class="st0" points="1056.56,629.38 959.59,751.64 958.83,751.64 1056.56,628.42 	"/>
	<polygon class="st0" points="1056.56,630.34 960.35,751.64 959.59,751.64 1056.56,629.38 	"/>
	<polygon class="st0" points="1056.56,631.3 961.11,751.64 960.35,751.64 1056.56,630.34 	"/>
	<polygon class="st0" points="1056.56,632.25 961.87,751.64 961.11,751.64 1056.56,631.3 	"/>
	<polygon class="st0" points="1056.56,633.21 962.63,751.64 961.87,751.64 1056.56,632.25 	"/>
	<polygon class="st0" points="1056.56,634.17 963.39,751.64 962.63,751.64 1056.56,633.21 	"/>
	<polygon class="st0" points="1056.56,635.13 964.15,751.64 963.39,751.64 1056.56,634.17 	"/>
	<polygon class="st0" points="1056.56,636.08 964.91,751.64 964.15,751.64 1056.56,635.13 	"/>
	<polygon class="st0" points="1056.56,637.04 965.67,751.64 964.91,751.64 1056.56,636.08 	"/>
	<polygon class="st0" points="1056.56,638 966.43,751.64 965.67,751.64 1056.56,637.04 	"/>
	<polygon class="st0" points="1056.56,638.96 967.19,751.64 966.43,751.64 1056.56,638 	"/>
	<polygon class="st0" points="1056.56,639.91 967.94,751.64 967.19,751.64 1056.56,638.96 	"/>
	<polygon class="st0" points="1056.56,640.87 968.7,751.64 967.94,751.64 1056.56,639.91 	"/>
	<polygon class="st0" points="1056.56,641.83 969.46,751.64 968.7,751.64 1056.56,640.87 	"/>
	<polygon class="st0" points="1056.56,642.79 970.22,751.64 969.46,751.64 1056.56,641.83 	"/>
	<polygon class="st0" points="1056.56,643.74 970.98,751.64 970.22,751.64 1056.56,642.79 	"/>
	<polygon class="st0" points="1056.56,644.7 971.74,751.64 970.98,751.64 1056.56,643.74 	"/>
	<polygon class="st0" points="1056.56,645.66 972.5,751.64 971.74,751.64 1056.56,644.7 	"/>
	<polygon class="st0" points="1056.56,646.62 973.26,751.64 972.5,751.64 1056.56,645.66 	"/>
	<polygon class="st0" points="1056.56,647.57 974.02,751.64 973.26,751.64 1056.56,646.62 	"/>
	<polygon class="st0" points="1056.56,648.53 974.78,751.64 974.02,751.64 1056.56,647.57 	"/>
	<polygon class="st0" points="1056.56,649.49 975.54,751.64 974.78,751.64 1056.56,648.53 	"/>
	<polygon class="st0" points="1056.56,650.45 976.3,751.64 975.54,751.64 1056.56,649.49 	"/>
	<polygon class="st0" points="1056.56,651.4 977.06,751.64 976.3,751.64 1056.56,650.45 	"/>
	<polygon class="st0" points="1056.56,652.36 977.82,751.64 977.06,751.64 1056.56,651.4 	"/>
	<polygon class="st0" points="1056.56,653.32 978.58,751.64 977.82,751.64 1056.56,652.36 	"/>
	<polygon class="st0" points="1056.56,654.28 979.34,751.64 978.58,751.64 1056.56,653.32 	"/>
	<polygon class="st0" points="1056.56,655.23 980.1,751.64 979.34,751.64 1056.56,654.28 	"/>
	<polygon class="st0" points="1056.56,656.19 980.86,751.64 980.1,751.64 1056.56,655.23 	"/>
	<polygon class="st0" points="1056.56,657.15 981.62,751.64 980.86,751.64 1056.56,656.19 	"/>
	<polygon class="st0" points="1056.56,658.11 982.38,751.64 981.62,751.64 1056.56,657.15 	"/>
	<polygon class="st0" points="1056.56,659.06 983.13,751.64 982.38,751.64 1056.56,658.11 	"/>
	<polygon class="st0" points="1056.56,660.02 983.89,751.64 983.13,751.64 1056.56,659.07 	"/>
	<polygon class="st0" points="1056.56,660.98 984.65,751.64 983.89,751.64 1056.56,660.02 	"/>
	<polygon class="st0" points="1056.56,661.94 985.41,751.64 984.65,751.64 1056.56,660.98 	"/>
	<polygon class="st0" points="1056.56,662.89 986.17,751.64 985.41,751.64 1056.56,661.94 	"/>
	<polygon class="st0" points="1056.56,663.85 986.93,751.64 986.17,751.64 1056.56,662.89 	"/>
	<polygon class="st0" points="1056.56,664.81 987.69,751.64 986.93,751.64 1056.56,663.85 	"/>
	<polygon class="st0" points="1056.56,665.77 988.45,751.64 987.69,751.64 1056.56,664.81 	"/>
	<polygon class="st0" points="1056.56,666.72 989.21,751.64 988.45,751.64 1056.56,665.77 	"/>
	<polygon class="st0" points="1056.56,667.68 989.97,751.64 989.21,751.64 1056.56,666.72 	"/>
	<polygon class="st0" points="1056.56,668.64 990.73,751.64 989.97,751.64 1056.56,667.68 	"/>
	<polygon class="st0" points="1056.56,669.6 991.49,751.64 990.73,751.64 1056.56,668.64 	"/>
	<polygon class="st0" points="1056.56,670.55 992.25,751.64 991.49,751.64 1056.56,669.6 	"/>
	<polygon class="st0" points="1056.56,671.51 993.01,751.64 992.25,751.64 1056.56,670.55 	"/>
	<polygon class="st0" points="1056.56,672.47 993.77,751.64 993.01,751.64 1056.56,671.51 	"/>
	<polygon class="st0" points="1056.56,673.43 994.53,751.64 993.77,751.64 1056.56,672.47 	"/>
	<polygon class="st0" points="1056.56,674.38 995.29,751.64 994.53,751.64 1056.56,673.43 	"/>
	<polygon class="st0" points="1056.56,675.34 996.05,751.64 995.29,751.64 1056.56,674.38 	"/>
	<polygon class="st0" points="1056.56,676.3 996.81,751.64 996.05,751.64 1056.56,675.34 	"/>
	<polygon class="st0" points="1056.56,677.26 997.57,751.64 996.81,751.64 1056.56,676.3 	"/>
	<polygon class="st0" points="1056.56,678.21 998.32,751.64 997.57,751.64 1056.56,677.26 	"/>
	<polygon class="st0" points="1056.56,679.17 999.08,751.64 998.32,751.64 1056.56,678.22 	"/>
	<polygon class="st0" points="1056.56,680.13 999.84,751.64 999.08,751.64 1056.56,679.17 	"/>
	<polygon class="st0" points="1056.56,681.09 1000.6,751.64 999.84,751.64 1056.56,680.13 	"/>
	<polygon class="st0" points="1056.56,682.04 1001.36,751.64 1000.6,751.64 1056.56,681.09 	"/>
	<polygon class="st0" points="1056.56,683 1002.12,751.64 1001.36,751.64 1056.56,682.04 	"/>
	<polygon class="st0" points="1056.56,683.96 1002.88,751.64 1002.12,751.64 1056.56,683 	"/>
	<polygon class="st0" points="1056.56,684.92 1003.64,751.64 1002.88,751.64 1056.56,683.96 	"/>
	<polygon class="st0" points="1056.56,685.87 1004.4,751.64 1003.64,751.64 1056.56,684.92 	"/>
	<polygon class="st0" points="1056.56,686.83 1005.16,751.64 1004.4,751.64 1056.56,685.87 	"/>
	<polygon class="st0" points="1056.56,687.79 1005.92,751.64 1005.16,751.64 1056.56,686.83 	"/>
	<polygon class="st0" points="1056.56,688.75 1006.68,751.64 1005.92,751.64 1056.56,687.79 	"/>
	<polygon class="st0" points="1056.56,689.7 1007.44,751.64 1006.68,751.64 1056.56,688.75 	"/>
	<polygon class="st0" points="1056.56,690.66 1008.2,751.64 1007.44,751.64 1056.56,689.71 	"/>
	<polygon class="st0" points="1056.56,691.62 1008.96,751.64 1008.2,751.64 1056.56,690.66 	"/>
	<polygon class="st0" points="1056.56,692.58 1009.72,751.64 1008.96,751.64 1056.56,691.62 	"/>
	<polygon class="st0" points="1056.56,693.53 1010.48,751.64 1009.72,751.64 1056.56,692.58 	"/>
	<polygon class="st0" points="1056.56,694.49 1011.24,751.64 1010.48,751.64 1056.56,693.53 	"/>
	<polygon class="st0" points="1056.56,695.45 1012,751.64 1011.24,751.64 1056.56,694.49 	"/>
	<polygon class="st0" points="1056.56,696.41 1012.76,751.64 1012,751.64 1056.56,695.45 	"/>
	<polygon class="st0" points="1056.56,697.36 1013.51,751.64 1012.76,751.64 1056.56,696.41 	"/>
	<polygon class="st0" points="1056.56,698.32 1014.27,751.64 1013.51,751.64 1056.56,697.36 	"/>
	<polygon class="st0" points="1056.56,699.28 1015.03,751.64 1014.27,751.64 1056.56,698.32 	"/>
	<polygon class="st0" points="1056.56,700.24 1015.79,751.64 1015.03,751.64 1056.56,699.28 	"/>
	<polygon class="st0" points="1056.56,701.19 1016.55,751.64 1015.79,751.64 1056.56,700.24 	"/>
	<polygon class="st0" points="1056.56,702.15 1017.31,751.64 1016.55,751.64 1056.56,701.2 	"/>
	<polygon class="st0" points="1056.56,703.11 1018.07,751.64 1017.31,751.64 1056.56,702.15 	"/>
	<polygon class="st0" points="1056.56,704.07 1018.83,751.64 1018.07,751.64 1056.56,703.11 	"/>
	<polygon class="st0" points="1056.56,705.02 1019.59,751.64 1018.83,751.64 1056.56,704.07 	"/>
	<polygon class="st0" points="1056.56,705.98 1020.35,751.64 1019.59,751.64 1056.56,705.02 	"/>
	<polygon class="st0" points="1056.56,706.94 1021.11,751.64 1020.35,751.64 1056.56,705.98 	"/>
	<polygon class="st0" points="1056.56,707.9 1021.87,751.64 1021.11,751.64 1056.56,706.94 	"/>
	<polygon class="st0" points="1056.56,708.86 1022.63,751.64 1021.87,751.64 1056.56,707.9 	"/>
	<polygon class="st0" points="1056.56,709.81 1023.39,751.64 1022.63,751.64 1056.56,708.86 	"/>
	<polygon class="st0" points="1056.56,710.77 1024.15,751.64 1023.39,751.64 1056.56,709.81 	"/>
	<polygon class="st0" points="1056.56,711.73 1024.91,751.64 1024.15,751.64 1056.56,710.77 	"/>
	<polygon class="st0" points="1056.56,712.68 1025.67,751.64 1024.91,751.64 1056.56,711.73 	"/>
	<polygon class="st0" points="1056.56,713.64 1026.43,751.64 1025.67,751.64 1056.56,712.69 	"/>
	<polygon class="st0" points="1056.56,714.6 1027.19,751.64 1026.43,751.64 1056.56,713.64 	"/>
	<polygon class="st0" points="1027.19,751.64 1056.56,714.6 1056.56,751.64 	"/>
</g>
<g>
	<defs>
		<rect id="SVGID_5_" x="192" y="-29.93" width="1558.79" height="854.15"/>
	</defs>
	<clipPath id="SVGID_6_">
		<use xlink:href="#SVGID_5_"  style="overflow:visible;"/>
	</clipPath>
	<polygon class="st1" points="1035.75,559.52 1048.07,559.52 1042.79,574.96 1030.47,574.96 	"/>
	<polygon class="st1" points="1013.02,580.11 1025.34,580.11 1020.06,595.55 1007.74,595.55 	"/>
	<polygon class="st1" points="1028.86,580.11 1041.18,580.11 1035.9,595.55 1023.58,595.55 	"/>
	<polygon class="st1" points="1013.02,580.11 1025.34,580.11 1020.06,595.55 1007.74,595.55 	"/>
	<polygon class="st1" points="1028.86,580.11 1041.18,580.11 1035.9,595.55 1023.58,595.55 	"/>
	<polygon class="st1" points="1013.02,580.11 1025.34,580.11 1020.06,595.55 1007.74,595.55 	"/>
	<polygon class="st1" points="1028.86,580.11 1041.18,580.11 1035.9,595.55 1023.58,595.55 	"/>
	<polygon class="st1" points="991.6,598.98 1003.92,598.98 998.64,614.41 986.32,614.41 	"/>
	<polygon class="st1" points="1007.74,598.98 1020.06,598.98 1014.78,614.41 1002.46,614.41 	"/>
	<polygon class="st1" points="1023.58,598.98 1035.9,598.98 1030.62,614.41 1018.3,614.41 	"/>
	<polygon class="st1" points="984.66,617.84 996.98,617.84 991.7,633.28 979.38,633.28 	"/>
	<polygon class="st1" points="1000.8,617.84 1013.12,617.84 1007.84,633.28 995.52,633.28 	"/>
	<polygon class="st1" points="1016.64,617.84 1028.96,617.84 1023.68,633.28 1011.36,633.28 	"/>
	<polygon class="st1" points="977.77,636.71 990.09,636.71 984.81,652.15 972.49,652.15 	"/>
	<polygon class="st1" points="993.91,636.71 1006.23,636.71 1000.95,652.15 988.63,652.15 	"/>
	<polygon class="st1" points="1009.75,636.71 1022.07,636.71 1016.79,652.15 1004.47,652.15 	"/>
	<polygon class="st1" points="977.77,636.71 990.09,636.71 984.81,652.15 972.49,652.15 	"/>
	<polygon class="st1" points="993.91,636.71 1006.23,636.71 1000.95,652.15 988.63,652.15 	"/>
	<polygon class="st1" points="1009.75,636.71 1022.07,636.71 1016.79,652.15 1004.47,652.15 	"/>
	<polygon class="st1" points="977.77,636.71 990.09,636.71 984.81,652.15 972.49,652.15 	"/>
	<polygon class="st1" points="993.91,636.71 1006.23,636.71 1000.95,652.15 988.63,652.15 	"/>
	<polygon class="st1" points="1009.75,636.71 1022.07,636.71 1016.79,652.15 1004.47,652.15 	"/>
	<polygon class="st1" points="946.37,731.05 958.69,731.05 953.41,746.49 941.09,746.49 	"/>
	<polygon class="st1" points="962.51,731.05 974.83,731.05 969.55,746.49 957.23,746.49 	"/>
	<polygon class="st1" points="980.63,731.05 992.95,731.05 987.67,746.49 975.35,746.49 	"/>
	<polygon class="st1" points="1036.11,559.52 1048.43,559.52 1043.15,574.96 1030.83,574.96 	"/>
</g>
<g>
	<defs>
		<path id="SVGID_7_" d="M1095.37,427.53c0,0-8.67,34.81,4.3,49.29c12.97,14.48,46.74,10.55,46.74,10.55l72.16-59.84
			c0,0-0.85-27.1-11.69-39.21c-11.78-13.15-41.11-15.35-41.11-15.35L1095.37,427.53z"/>
	</defs>
	<clipPath id="SVGID_8_">
		<use xlink:href="#SVGID_7_"  style="overflow:visible;"/>
	</clipPath>
	<polygon class="st2" points="1189.42,372.97 1096.34,482.01 1086.71,473.79 1086.71,372.97 	"/>
	<polygon class="st2" points="1190.97,372.97 1097.24,482.78 1096.34,482.01 1189.42,372.97 	"/>
	<polygon class="st3" points="1192.52,372.97 1098.14,483.55 1097.24,482.78 1190.97,372.97 	"/>
	<polygon class="st4" points="1194.08,372.97 1099.03,484.31 1098.14,483.55 1192.53,372.97 	"/>
	<polygon class="st4" points="1195.63,372.97 1099.93,485.08 1099.03,484.31 1194.08,372.97 	"/>
	<polygon class="st5" points="1197.18,372.97 1100.83,485.85 1099.93,485.08 1195.63,372.97 	"/>
	<polygon class="st6" points="1197.95,372.97 1198.4,373.36 1101.73,486.61 1100.83,485.85 1197.18,372.97 	"/>
	
		<rect x="1076.06" y="429.78" transform="matrix(0.6494 -0.7605 0.7605 0.6494 76.1156 1025.8224)" class="st7" width="148.91" height="1.18"/>
	
		<rect x="1076.96" y="430.54" transform="matrix(0.6494 -0.7605 0.7605 0.6494 75.8475 1026.7743)" class="st8" width="148.91" height="1.18"/>
	
		<rect x="1077.86" y="431.31" transform="matrix(0.6494 -0.7605 0.7605 0.6494 75.5794 1027.7261)" class="st9" width="148.91" height="1.18"/>
	
		<rect x="1078.76" y="432.08" transform="matrix(0.6494 -0.7605 0.7605 0.6494 75.3113 1028.678)" class="st10" width="148.91" height="1.18"/>
	
		<rect x="1079.65" y="432.84" transform="matrix(0.6494 -0.7605 0.7605 0.6494 75.0431 1029.6299)" class="st11" width="148.91" height="1.18"/>
	
		<rect x="1080.55" y="433.61" transform="matrix(0.6494 -0.7605 0.7605 0.6494 74.775 1030.5818)" class="st12" width="148.91" height="1.18"/>
	<polygon class="st13" points="1203.79,377.96 1204.69,378.72 1108.6,491.3 1107.22,491.3 1107.12,491.21 	"/>
	<polygon class="st14" points="1204.69,378.72 1205.59,379.49 1110.15,491.3 1108.6,491.3 	"/>
	<polygon class="st15" points="1205.59,379.49 1206.49,380.26 1111.7,491.3 1110.15,491.3 	"/>
	<polygon class="st16" points="1206.49,380.26 1207.39,381.02 1113.26,491.3 1111.7,491.3 	"/>
	<polygon class="st17" points="1207.39,381.02 1208.29,381.79 1114.81,491.3 1113.26,491.3 	"/>
	<polygon class="st18" points="1208.29,381.79 1209.18,382.56 1116.36,491.3 1114.81,491.3 	"/>
	<polygon class="st19" points="1209.18,382.56 1210.08,383.32 1117.91,491.3 1116.36,491.3 	"/>
	<polygon class="st20" points="1210.08,383.32 1210.98,384.09 1119.47,491.3 1117.91,491.3 	"/>
	<polygon class="st21" points="1210.98,384.09 1211.88,384.86 1121.02,491.3 1119.47,491.3 	"/>
	<polygon class="st22" points="1211.88,384.86 1212.78,385.62 1122.57,491.3 1121.02,491.3 	"/>
	<polygon class="st23" points="1212.78,385.62 1213.67,386.39 1124.12,491.3 1122.57,491.3 	"/>
	<polygon class="st24" points="1213.67,386.39 1214.57,387.16 1125.68,491.3 1124.12,491.3 	"/>
	<polygon class="st25" points="1214.57,387.16 1215.47,387.92 1127.23,491.3 1125.68,491.3 	"/>
	<polygon class="st26" points="1215.47,387.92 1216.37,388.69 1128.78,491.3 1127.23,491.3 	"/>
	<polygon class="st27" points="1216.37,388.69 1217.27,389.46 1130.33,491.3 1128.78,491.3 	"/>
	<polygon class="st28" points="1217.27,389.46 1218.17,390.22 1131.89,491.3 1130.33,491.3 	"/>
	<polygon class="st29" points="1218.17,390.22 1218.57,390.57 1218.57,391.57 1133.44,491.3 1131.89,491.3 	"/>
	<polygon class="st30" points="1218.57,393.39 1134.99,491.3 1133.44,491.3 1218.57,391.57 	"/>
	<polygon class="st31" points="1218.57,395.21 1136.55,491.3 1134.99,491.3 1218.57,393.39 	"/>
	<polygon class="st32" points="1218.57,397.02 1138.1,491.3 1136.55,491.3 1218.57,395.21 	"/>
	<polygon class="st33" points="1218.57,398.84 1139.65,491.3 1138.1,491.3 1218.57,397.02 	"/>
	<polygon class="st34" points="1218.57,400.66 1141.2,491.3 1139.65,491.3 1218.57,398.84 	"/>
	<polygon class="st35" points="1218.57,402.48 1142.76,491.3 1141.2,491.3 1218.57,400.66 	"/>
	<polygon class="st36" points="1218.57,404.3 1144.31,491.3 1142.76,491.3 1218.57,402.48 	"/>
	<polygon class="st37" points="1218.57,406.12 1145.86,491.3 1144.31,491.3 1218.57,404.3 	"/>
	<polygon class="st38" points="1218.57,407.94 1147.41,491.3 1145.86,491.3 1218.57,406.12 	"/>
	<polygon class="st39" points="1218.57,409.76 1148.97,491.3 1147.41,491.3 1218.57,407.94 	"/>
	<polygon class="st40" points="1218.57,411.58 1150.52,491.3 1148.97,491.3 1218.57,409.76 	"/>
	<polygon class="st41" points="1218.57,413.39 1152.07,491.3 1150.52,491.3 1218.57,411.58 	"/>
	<polygon class="st42" points="1218.57,415.21 1153.62,491.3 1152.07,491.3 1218.57,413.39 	"/>
	<polygon class="st43" points="1218.57,417.03 1155.18,491.3 1153.62,491.3 1218.57,415.21 	"/>
	<polygon class="st44" points="1218.57,418.85 1156.73,491.3 1155.18,491.3 1218.57,417.03 	"/>
	<polygon class="st45" points="1218.57,420.67 1158.28,491.3 1156.73,491.3 1218.57,418.85 	"/>
	<polygon class="st46" points="1218.57,422.49 1159.83,491.3 1158.28,491.3 1218.57,420.67 	"/>
	<polygon class="st47" points="1218.57,424.31 1161.39,491.3 1159.83,491.3 1218.57,422.49 	"/>
	<polygon class="st48" points="1218.57,426.13 1162.94,491.3 1161.39,491.3 1218.57,424.31 	"/>
	<polygon class="st49" points="1218.57,427.95 1164.49,491.3 1162.94,491.3 1218.57,426.13 	"/>
	<polygon class="st50" points="1218.57,429.77 1166.05,491.3 1164.49,491.3 1218.57,427.95 	"/>
	<polygon class="st51" points="1218.57,431.58 1167.6,491.3 1166.05,491.3 1218.57,429.77 	"/>
	<polygon class="st51" points="1167.6,491.3 1218.57,431.58 1218.57,491.3 	"/>
</g>
<g>
	<defs>
		<path id="SVGID_9_" d="M1102.33,433.72c-1.93,1.39-2.25,5.29-2.88,13.1c-0.59,7.35-0.89,11.03,0,14.56
			c0.39,1.56,2.91,10.91,11.51,16.01c4.35,2.59,9.61,2.7,20.13,2.91c8.08,0.17,9.39-0.76,10.07-1.46
			c4.83-4.93-1.88-18.38-2.88-20.38c-4.74-9.5-11.74-14.58-15.82-17.47c-3.73-2.65-11.57-8.19-16.97-8.19
			C1104.3,432.81,1103.22,433.08,1102.33,433.72"/>
	</defs>
	<clipPath id="SVGID_10_">
		<use xlink:href="#SVGID_9_"  style="overflow:visible;"/>
	</clipPath>
	<polygon class="st52" points="1098.57,471.2 1115.56,480.47 1098.57,480.47 	"/>
	<polygon class="st52" points="1098.57,470.63 1116.62,480.47 1115.56,480.47 1098.57,471.2 	"/>
	<polygon class="st52" points="1098.57,470.05 1117.68,480.47 1116.62,480.47 1098.57,470.63 	"/>
	<polygon class="st52" points="1098.57,469.47 1118.74,480.47 1117.68,480.47 1098.57,470.05 	"/>
	<polygon class="st53" points="1098.57,468.89 1119.8,480.47 1118.74,480.47 1098.57,469.47 	"/>
	<polygon class="st53" points="1098.57,468.31 1120.86,480.47 1119.8,480.47 1098.57,468.89 	"/>
	<polygon class="st53" points="1098.57,467.73 1121.92,480.47 1120.86,480.47 1098.57,468.31 	"/>
	<polygon class="st54" points="1098.57,467.16 1122.98,480.47 1121.92,480.47 1098.57,467.73 	"/>
	<polygon class="st54" points="1098.57,466.58 1124.04,480.47 1122.98,480.47 1098.57,467.16 	"/>
	<polygon class="st54" points="1098.57,466 1125.1,480.47 1124.04,480.47 1098.57,466.58 	"/>
	<polygon class="st55" points="1098.57,465.42 1126.16,480.47 1125.1,480.47 1098.57,466 	"/>
	<polygon class="st55" points="1098.57,464.84 1127.22,480.47 1126.16,480.47 1098.57,465.42 	"/>
	<polygon class="st56" points="1098.57,464.27 1128.28,480.47 1127.22,480.47 1098.57,464.84 	"/>
	<polygon class="st56" points="1098.57,463.69 1129.34,480.47 1128.28,480.47 1098.57,464.27 	"/>
	<polygon class="st57" points="1098.57,463.11 1130.4,480.47 1129.34,480.47 1098.57,463.69 	"/>
	<polygon class="st58" points="1098.57,462.53 1131.46,480.47 1130.4,480.47 1098.57,463.11 	"/>
	<polygon class="st58" points="1098.57,461.95 1132.52,480.47 1131.46,480.47 1098.57,462.53 	"/>
	<polygon class="st59" points="1098.57,461.37 1133.58,480.47 1132.52,480.47 1098.57,461.95 	"/>
	<polygon class="st60" points="1098.57,460.8 1134.64,480.47 1133.58,480.47 1098.57,461.37 	"/>
	<polygon class="st60" points="1098.57,460.22 1135.7,480.47 1134.64,480.47 1098.57,460.8 	"/>
	<polygon class="st61" points="1098.57,459.64 1136.76,480.47 1135.7,480.47 1098.57,460.22 	"/>
	<polygon class="st62" points="1098.57,459.06 1137.82,480.47 1136.76,480.47 1098.57,459.64 	"/>
	<polygon class="st63" points="1098.57,458.48 1138.88,480.47 1137.82,480.47 1098.57,459.06 	"/>
	<polygon class="st63" points="1098.57,457.91 1139.94,480.47 1138.88,480.47 1098.57,458.48 	"/>
	<polygon class="st64" points="1098.57,457.33 1141,480.47 1139.94,480.47 1098.57,457.91 	"/>
	<polygon class="st65" points="1098.57,456.75 1142.06,480.47 1141,480.47 1098.57,457.33 	"/>
	<polygon class="st66" points="1098.57,456.17 1143.12,480.47 1142.06,480.47 1098.57,456.75 	"/>
	<polygon class="st67" points="1098.57,455.59 1144.18,480.47 1143.12,480.47 1098.57,456.17 	"/>
	<polygon class="st68" points="1098.57,455.01 1145.24,480.47 1144.18,480.47 1098.57,455.59 	"/>
	<polygon class="st69" points="1098.57,454.44 1145.99,480.31 1145.99,480.47 1145.24,480.47 1098.57,455.01 	"/>
	<polygon class="st69" points="1098.57,453.86 1145.99,479.73 1145.99,480.31 1098.57,454.44 	"/>
	<polygon class="st70" points="1098.57,453.28 1145.99,479.15 1145.99,479.73 1098.57,453.86 	"/>
	<polygon class="st71" points="1098.57,452.7 1145.99,478.57 1145.99,479.15 1098.57,453.28 	"/>
	<polygon class="st72" points="1098.57,452.12 1145.99,477.99 1145.99,478.57 1098.57,452.7 	"/>
	<polygon class="st73" points="1098.57,451.55 1145.99,477.42 1145.99,477.99 1098.57,452.12 	"/>
	<polygon class="st74" points="1098.57,450.97 1145.99,476.84 1145.99,477.42 1098.57,451.55 	"/>
	<polygon class="st75" points="1098.57,450.39 1145.99,476.26 1145.99,476.84 1098.57,450.97 	"/>
	<polygon class="st76" points="1098.57,449.81 1145.99,475.68 1145.99,476.26 1098.57,450.39 	"/>
	<polygon class="st77" points="1098.57,449.23 1145.99,475.1 1145.99,475.68 1098.57,449.81 	"/>
	<polygon class="st78" points="1098.57,448.65 1145.99,474.52 1145.99,475.1 1098.57,449.23 	"/>
	<polygon class="st79" points="1098.57,448.08 1145.99,473.95 1145.99,474.52 1098.57,448.65 	"/>
	<polygon class="st80" points="1098.57,447.5 1145.99,473.37 1145.99,473.95 1098.57,448.08 	"/>
	<polygon class="st81" points="1098.57,446.92 1145.99,472.79 1145.99,473.37 1098.57,447.5 	"/>
	<polygon class="st82" points="1098.57,446.34 1145.99,472.21 1145.99,472.79 1098.57,446.92 	"/>
	<polygon class="st83" points="1098.57,445.76 1145.99,471.63 1145.99,472.21 1098.57,446.34 	"/>
	<polygon class="st84" points="1098.57,445.18 1145.99,471.06 1145.99,471.63 1098.57,445.76 	"/>
	<polygon class="st85" points="1098.57,444.61 1145.99,470.48 1145.99,471.06 1098.57,445.18 	"/>
	<polygon class="st86" points="1098.57,444.03 1145.99,469.9 1145.99,470.48 1098.57,444.61 	"/>
	<polygon class="st87" points="1098.57,443.45 1145.99,469.32 1145.99,469.9 1098.57,444.03 	"/>
	<polygon class="st88" points="1098.57,442.87 1145.99,468.74 1145.99,469.32 1098.57,443.45 	"/>
	<polygon class="st89" points="1098.57,442.29 1145.99,468.16 1145.99,468.74 1098.57,442.87 	"/>
	<polygon class="st90" points="1098.57,441.72 1145.99,467.59 1145.99,468.16 1098.57,442.29 	"/>
	<polygon class="st91" points="1098.57,441.14 1145.99,467.01 1145.99,467.59 1098.57,441.72 	"/>
	<polygon class="st92" points="1098.57,440.56 1145.99,466.43 1145.99,467.01 1098.57,441.14 	"/>
	<polygon class="st93" points="1098.57,439.98 1145.99,465.85 1145.99,466.43 1098.57,440.56 	"/>
	<polygon class="st94" points="1098.57,439.4 1145.99,465.27 1145.99,465.85 1098.57,439.98 	"/>
	<polygon class="st95" points="1098.57,438.82 1145.99,464.7 1145.99,465.27 1098.57,439.4 	"/>
	<polygon class="st96" points="1098.57,438.25 1145.99,464.12 1145.99,464.7 1098.57,438.83 	"/>
	<polygon class="st97" points="1098.57,437.67 1145.99,463.54 1145.99,464.12 1098.57,438.25 	"/>
	<polygon class="st98" points="1098.57,437.09 1145.99,462.96 1145.99,463.54 1098.57,437.67 	"/>
	<polygon class="st99" points="1098.57,436.51 1145.99,462.38 1145.99,462.96 1098.57,437.09 	"/>
	<polygon class="st100" points="1098.57,435.93 1145.99,461.8 1145.99,462.38 1098.57,436.51 	"/>
	<polygon class="st101" points="1098.57,435.36 1145.99,461.23 1145.99,461.8 1098.57,435.93 	"/>
	<polygon class="st102" points="1098.57,434.78 1145.99,460.65 1145.99,461.23 1098.57,435.36 	"/>
	<polygon class="st103" points="1098.57,434.2 1145.99,460.07 1145.99,460.65 1098.57,434.78 	"/>
	<polygon class="st104" points="1098.57,433.62 1145.99,459.49 1145.99,460.07 1098.57,434.2 	"/>
	<polygon class="st105" points="1098.57,433.04 1145.99,458.91 1145.99,459.49 1098.57,433.62 	"/>
	<polygon class="st106" points="1098.57,432.46 1145.99,458.33 1145.99,458.91 1098.57,433.04 	"/>
	<polygon class="st107" points="1098.57,431.89 1145.99,457.76 1145.99,458.33 1098.57,432.47 	"/>
	<polygon class="st108" points="1098.57,431.31 1145.99,457.18 1145.99,457.76 1098.57,431.89 	"/>
	<polygon class="st109" points="1098.57,431.12 1098.73,430.82 1145.99,456.6 1145.99,457.18 1098.57,431.31 	"/>
	<polygon class="st110" points="1098.73,430.82 1098.97,430.37 1145.99,456.02 1145.99,456.6 	"/>
	<polygon class="st111" points="1098.97,430.37 1099.07,430.21 1099.72,430.21 1145.99,455.44 1145.99,456.02 	"/>
	<polygon class="st112" points="1100.78,430.21 1145.99,454.86 1145.99,455.44 1099.72,430.21 	"/>
	<polygon class="st113" points="1101.84,430.21 1145.99,454.29 1145.99,454.86 1100.78,430.21 	"/>
	<polygon class="st114" points="1102.9,430.21 1145.99,453.71 1145.99,454.29 1101.84,430.21 	"/>
	<polygon class="st115" points="1103.96,430.21 1145.99,453.13 1145.99,453.71 1102.9,430.21 	"/>
	<polygon class="st115" points="1145.99,453.13 1103.96,430.2 1145.99,430.2 	"/>
</g>
<g>
	<defs>
		<rect id="SVGID_11_" x="192" y="-29.93" width="1558.79" height="876.39"/>
	</defs>
	<clipPath id="SVGID_12_">
		<use xlink:href="#SVGID_11_"  style="overflow:visible;"/>
	</clipPath>
	<polygon class="st116" points="1212.09,408.54 1212.56,418.38 1154.66,460.6 1154.26,452.16 	"/>
	<polygon class="st116" points="1149.04,447.69 1144.02,439.97 1207.14,396.86 1210.45,403.01 	"/>
	<polygon class="st116" points="1141.45,434.11 1129.2,431.59 1193.82,387.28 1204.11,390.03 	"/>
</g>
<g>
	<defs>
		<path id="SVGID_13_" d="M1219.27,568.39l-5.27,8.8l-10.56,3.53l-14.08,3.53l-19.36-3.51l3.52,8.8l1.77,12.32l-3.51,8.8l-7.04,5.28
			l-15.84,1.77l7.04,7.04l15.84,5.27c0,0,19.36-3.53,21.12-3.53c1.76,0,21.11-12.33,21.11-12.33l10.55-15.84l5.27-15.84l-3.53-12.32
			l-5.29-10.56L1219.27,568.39z"/>
	</defs>
	<clipPath id="SVGID_14_">
		<use xlink:href="#SVGID_13_"  style="overflow:visible;"/>
	</clipPath>
	<polygon class="st117" points="1193.91,630.01 1229.85,594.44 1229.88,629.99 	"/>
	<polygon class="st117" points="1192.9,630.01 1229.85,593.44 1229.85,594.44 1193.91,630.01 	"/>
	<polygon class="st118" points="1191.9,630.01 1229.85,592.45 1229.85,593.44 1192.9,630.01 	"/>
	<polygon class="st119" points="1190.89,630.01 1229.85,591.45 1229.85,592.45 1191.9,630.01 	"/>
	<polygon class="st120" points="1189.88,630.01 1229.85,590.46 1229.85,591.45 1190.89,630.01 	"/>
	<polygon class="st121" points="1188.88,630.01 1229.85,589.46 1229.85,590.46 1189.88,630.01 	"/>
	<polygon class="st122" points="1187.87,630.01 1229.85,588.47 1229.85,589.46 1188.88,630.01 	"/>
	<polygon class="st123" points="1186.86,630.01 1229.85,587.47 1229.85,588.47 1187.87,630.01 	"/>
	<polygon class="st124" points="1185.86,630.01 1229.85,586.47 1229.85,587.47 1186.86,630.01 	"/>
	<polygon class="st125" points="1184.85,630.01 1229.85,585.48 1229.85,586.47 1185.86,630.01 	"/>
	<polygon class="st126" points="1183.84,630.01 1229.85,584.48 1229.85,585.48 1184.85,630.01 	"/>
	<polygon class="st127" points="1182.83,630.02 1229.84,583.49 1229.85,584.48 1183.84,630.01 	"/>
	<polygon class="st128" points="1181.83,630.02 1229.84,582.49 1229.84,583.49 1182.84,630.02 	"/>
	<polygon class="st129" points="1180.82,630.02 1229.84,581.5 1229.84,582.49 1181.83,630.02 	"/>
	<polygon class="st130" points="1179.82,630.02 1229.84,580.5 1229.84,581.5 1180.82,630.02 	"/>
	<polygon class="st131" points="1178.81,630.02 1229.84,579.51 1229.84,580.5 1179.82,630.02 	"/>
	<polygon class="st132" points="1177.8,630.02 1229.84,578.51 1229.84,579.51 1178.81,630.02 	"/>
	<polygon class="st133" points="1176.79,630.02 1229.84,577.52 1229.84,578.51 1177.8,630.02 	"/>
	<polygon class="st134" points="1175.79,630.02 1229.84,576.52 1229.84,577.52 1176.79,630.02 	"/>
	<polygon class="st135" points="1174.78,630.02 1229.84,575.53 1229.84,576.52 1175.79,630.02 	"/>
	<polygon class="st136" points="1173.77,630.02 1229.84,574.53 1229.84,575.53 1174.78,630.02 	"/>
	<polygon class="st137" points="1172.77,630.02 1229.84,573.54 1229.84,574.53 1173.77,630.02 	"/>
	<polygon class="st138" points="1171.76,630.02 1229.84,572.54 1229.84,573.54 1172.77,630.02 	"/>
	<polygon class="st139" points="1170.75,630.02 1229.84,571.55 1229.84,572.54 1171.76,630.02 	"/>
	<polygon class="st140" points="1169.75,630.02 1229.84,570.55 1229.84,571.55 1170.75,630.02 	"/>
	<polygon class="st141" points="1168.74,630.02 1229.84,569.56 1229.84,570.55 1169.75,630.02 	"/>
	<polygon class="st142" points="1167.73,630.02 1229.84,568.56 1229.84,569.56 1168.74,630.02 	"/>
	<polygon class="st143" points="1166.73,630.03 1229.83,567.57 1229.84,568.56 1167.73,630.02 	"/>
	<polygon class="st144" points="1165.72,630.03 1229.83,566.57 1229.83,567.57 1166.73,630.03 	"/>
	<polygon class="st145" points="1164.71,630.03 1229.83,565.57 1229.83,566.57 1165.72,630.03 	"/>
	<polygon class="st146" points="1163.71,630.03 1229.83,564.58 1229.83,565.57 1164.71,630.03 	"/>
	<polygon class="st147" points="1162.7,630.03 1229.83,563.58 1229.83,564.58 1163.71,630.03 	"/>
	<polygon class="st148" points="1161.69,630.03 1229.39,563.03 1229.83,563.48 1229.83,563.58 1162.7,630.03 	"/>
	<polygon class="st149" points="1160.69,630.03 1228.89,562.53 1229.39,563.03 1161.69,630.03 	"/>
	<polygon class="st150" points="1159.68,630.03 1228.39,562.02 1228.89,562.53 1160.69,630.03 	"/>
	<polygon class="st151" points="1158.67,630.03 1227.89,561.52 1228.39,562.02 1159.68,630.03 	"/>
	<polygon class="st152" points="1157.66,630.03 1227.39,561.02 1227.89,561.52 1158.67,630.03 	"/>
	<polygon class="st153" points="1156.66,630.03 1226.9,560.52 1227.39,561.02 1157.66,630.03 	"/>
	<polygon class="st154" points="1156.14,630.03 1155.9,629.79 1226.4,560.01 1226.9,560.52 1156.66,630.03 	"/>
	<polygon class="st155" points="1155.9,629.79 1155.4,629.28 1225.82,559.59 1225.98,559.59 1226.4,560.01 	"/>
	<polygon class="st156" points="1155.4,629.28 1154.9,628.78 1224.81,559.59 1225.82,559.59 	"/>
	<polygon class="st157" points="1154.91,628.78 1154.41,628.28 1223.8,559.59 1224.81,559.59 	"/>
	<polygon class="st158" points="1154.41,628.28 1153.91,627.77 1222.8,559.59 1223.8,559.59 	"/>
	<polygon class="st159" points="1153.91,627.77 1153.41,627.27 1221.79,559.59 1222.8,559.59 	"/>
	<polygon class="st160" points="1153.41,627.27 1152.91,626.77 1220.78,559.59 1221.79,559.59 	"/>
	<polygon class="st161" points="1152.91,626.77 1152.42,626.27 1219.78,559.59 1220.78,559.59 	"/>
	<polygon class="st162" points="1152.42,626.27 1151.92,625.76 1218.77,559.59 1219.78,559.59 	"/>
	<polygon class="st163" points="1151.92,625.76 1151.42,625.26 1217.76,559.6 1218.77,559.59 	"/>
	<polygon class="st164" points="1151.42,625.26 1150.92,624.76 1216.76,559.6 1217.76,559.6 	"/>
	<polygon class="st165" points="1150.92,624.75 1150.42,624.25 1215.75,559.6 1216.76,559.6 	"/>
	<polygon class="st166" points="1150.42,624.25 1149.93,623.75 1214.74,559.6 1215.75,559.6 	"/>
	<polygon class="st167" points="1149.93,623.75 1149.43,623.25 1213.74,559.6 1214.74,559.6 	"/>
	<polygon class="st168" points="1149.43,623.25 1148.93,622.74 1212.73,559.6 1213.74,559.6 	"/>
	<polygon class="st169" points="1148.93,622.74 1148.91,622.72 1148.91,621.77 1211.72,559.6 1212.73,559.6 	"/>
	<polygon class="st170" points="1148.91,620.77 1210.72,559.6 1211.72,559.6 1148.91,621.77 	"/>
	<polygon class="st171" points="1148.91,619.78 1209.71,559.6 1210.72,559.6 1148.91,620.77 	"/>
	<polygon class="st172" points="1148.91,618.78 1208.7,559.6 1209.71,559.6 1148.91,619.78 	"/>
	<polygon class="st173" points="1148.91,617.78 1207.7,559.6 1208.7,559.6 1148.91,618.78 	"/>
	<polygon class="st174" points="1148.91,616.79 1206.69,559.6 1207.7,559.6 1148.91,617.78 	"/>
	<polygon class="st175" points="1148.91,615.79 1205.68,559.6 1206.69,559.6 1148.91,616.79 	"/>
	<polygon class="st176" points="1148.91,614.8 1204.67,559.6 1205.68,559.6 1148.91,615.79 	"/>
	<polygon class="st177" points="1148.91,613.8 1203.67,559.6 1204.67,559.6 1148.91,614.8 	"/>
	<polygon class="st178" points="1148.91,612.81 1202.66,559.61 1203.67,559.6 1148.91,613.8 	"/>
	<polygon class="st179" points="1148.91,611.81 1201.65,559.61 1202.66,559.61 1148.91,612.81 	"/>
	<polygon class="st180" points="1148.9,610.82 1200.65,559.61 1201.65,559.61 1148.91,611.81 	"/>
	<polygon class="st181" points="1148.9,609.82 1199.64,559.61 1200.65,559.61 1148.9,610.82 	"/>
	<polygon class="st182" points="1148.9,608.83 1198.63,559.61 1199.64,559.61 1148.9,609.82 	"/>
	<polygon class="st183" points="1148.9,607.83 1197.63,559.61 1198.63,559.61 1148.9,608.83 	"/>
	<polygon class="st184" points="1148.9,606.84 1196.62,559.61 1197.63,559.61 1148.9,607.83 	"/>
	<polygon class="st185" points="1148.9,605.84 1195.61,559.61 1196.62,559.61 1148.9,606.84 	"/>
	<polygon class="st186" points="1148.9,604.85 1194.61,559.61 1195.61,559.61 1148.9,605.84 	"/>
	<polygon class="st187" points="1148.9,603.85 1193.6,559.61 1194.61,559.61 1148.9,604.85 	"/>
	<polygon class="st188" points="1148.9,602.86 1192.59,559.61 1193.6,559.61 1148.9,603.85 	"/>
	<polygon class="st189" points="1148.9,601.86 1191.58,559.61 1192.59,559.61 1148.9,602.86 	"/>
	<polygon class="st190" points="1148.9,600.87 1190.58,559.61 1191.58,559.61 1148.9,601.86 	"/>
	<polygon class="st191" points="1148.9,599.87 1189.57,559.61 1190.58,559.61 1148.9,600.87 	"/>
	<polygon class="st192" points="1148.9,598.88 1188.57,559.61 1189.57,559.61 1148.9,599.87 	"/>
	<polygon class="st193" points="1148.9,597.88 1187.56,559.61 1188.57,559.61 1148.9,598.88 	"/>
	<polygon class="st193" points="1148.9,596.89 1186.55,559.62 1187.56,559.61 1148.9,597.88 	"/>
	<polygon class="st194" points="1148.9,595.89 1185.54,559.62 1186.55,559.62 1148.9,596.89 	"/>
	<polygon class="st195" points="1148.89,594.89 1184.54,559.62 1185.54,559.62 1148.9,595.89 	"/>
	<polygon class="st196" points="1148.89,593.9 1183.53,559.62 1184.54,559.62 1148.89,594.89 	"/>
	<polygon class="st197" points="1148.89,592.9 1182.52,559.62 1183.53,559.62 1148.89,593.9 	"/>
	<polygon class="st198" points="1148.89,591.91 1181.52,559.62 1182.52,559.62 1148.89,592.9 	"/>
	<polygon class="st199" points="1148.89,590.91 1180.51,559.62 1181.52,559.62 1148.89,591.91 	"/>
	<polygon class="st200" points="1148.89,589.92 1179.5,559.62 1180.51,559.62 1148.89,590.91 	"/>
	<polygon class="st200" points="1148.89,588.92 1178.5,559.62 1179.5,559.62 1148.89,589.92 	"/>
	<polygon class="st201" points="1148.89,587.93 1177.49,559.62 1178.5,559.62 1148.89,588.92 	"/>
	<polygon class="st202" points="1148.89,586.93 1176.48,559.62 1177.49,559.62 1148.89,587.93 	"/>
	<polygon class="st203" points="1148.89,585.94 1175.48,559.62 1176.48,559.62 1148.89,586.93 	"/>
	<polygon class="st203" points="1148.89,584.94 1174.47,559.62 1175.48,559.62 1148.89,585.94 	"/>
	<polygon class="st204" points="1148.89,583.95 1173.46,559.62 1174.47,559.62 1148.89,584.94 	"/>
	<polygon class="st205" points="1148.89,582.95 1172.46,559.62 1173.46,559.62 1148.89,583.95 	"/>
	<polygon class="st205" points="1148.89,581.96 1171.45,559.62 1172.46,559.62 1148.89,582.95 	"/>
	<polygon class="st206" points="1148.89,580.96 1170.44,559.63 1171.45,559.62 1148.89,581.96 	"/>
	<polygon class="st206" points="1170.44,559.63 1148.88,580.96 1148.87,559.64 	"/>
</g>
<g>
	<defs>
		<rect id="SVGID_15_" x="192" y="-29.93" width="1558.79" height="876.39"/>
	</defs>
	<clipPath id="SVGID_16_">
		<use xlink:href="#SVGID_15_"  style="overflow:visible;"/>
	</clipPath>
	<path class="st207" d="M1238.64,573.66l-13.47,47.28l-0.58,2.01l-45.62,22.86l-0.12,0.05l-45.78-36.93l7.04-3.52l0.05,0.07
		l3.47,5.21c0,0,3.52,3.52,5.28,5.28c0.33,0.33,1.14,0.88,2.2,1.51c4.47,2.69,13.64,7.28,13.64,7.28l0.16-0.02l15.68-1.75
		l10.56-3.53l3.52-7.04l-0.01-8.8l-5.28-7.04l-0.97-0.65l-4.31-2.87l-10.56-5.27l5.28-1.76l1.16-3.47l0.6-1.81l1.46,2.18l2.06,3.1
		l3.52,5.28l7.04,5.27l10.56,3.51l10.56-3.53l3.52-5.28l3.52-7.04l1.75-10.56l-3.53-14.08L1238.64,573.66z"/>
	<polygon class="st208" points="1180.56,580.74 1178.81,586.02 1173.53,587.78 1175.29,584.26 	"/>
	<polygon class="st208" points="1133.06,608.93 1140.1,605.4 1134.82,601.89 	"/>
	<polygon class="st209" points="1224.59,622.95 1178.97,645.8 1133.26,608.93 1140.15,605.47 1140.29,605.4 1143.82,610.68 
		1149.1,615.96 1151.71,617.4 1164.91,624.73 1164.95,624.75 1180.78,622.98 1191.34,619.45 1194.86,612.41 1194.85,603.61 
		1189.57,596.57 1188.41,595.92 1175.47,588.75 1173.72,587.78 1179,586.02 1214.22,614.16 	"/>
</g>
<g>
	<defs>
		<rect id="SVGID_17_" x="192" y="-29.93" width="1558.79" height="876.39"/>
	</defs>
	<clipPath id="SVGID_18_">
		<use xlink:href="#SVGID_17_"  style="overflow:visible;"/>
	</clipPath>
</g>
<rect x="192" y="-29.93" class="st210" width="1558.79" height="876.39"/>
</svg>
