<svg xmlns="http://www.w3.org/2000/svg" viewBox="0 0 173.43 280.61"><defs><style>.cls-1{fill:#e6e6e6;}.cls-2{fill:#ccc;}.cls-3{fill:#999;}.cls-4{fill:#666;}.cls-5{fill:#b3b3b3;}.cls-6,.cls-7{fill:gray;}.cls-6{opacity:0.56;}.cls-7{opacity:0.52;}</style></defs><title>glove normal</title><g id="Layer_2" data-name="Layer 2"><g id="Layer_1-2" data-name="Layer 1"><path class="cls-1" d="M154.18,117.85c-.11,3.27-.38,11.24-3.2,17.58-.29.64-1.48,3.25-3.19,7.19-1,2.35-1.86,4.3-2.4,5.59a13,13,0,0,1-.8,4.8,12.75,12.75,0,0,1-2.4,4,32.1,32.1,0,0,1-2.4,8.79c-1.51,3.49-2.46,5.67-4.79,7.19a16.21,16.21,0,0,1-4.65,1.89c-1.45.36-2.54.51-2.54.51s-5.19,7.69-9.59,16c-2.21,4.18-7.51,15.75-7.67,16.18,0-.07.19-.38.48-1a11.33,11.33,0,0,1,0,4,12.77,12.77,0,0,1-5.59,8,89.65,89.65,0,0,1-7.68,19.08c-.26.47-.51.92-.76,1.35h0c-.39.68-.77,1.33-1.14,1.93a84.8,84.8,0,0,0-6.39,11.18c-3.53,7.72-2.63,9.54-4.8,13.59-5,9.3-16.49,12.27-21.57,13.58a45.62,45.62,0,0,1-24.77-.8,47.57,47.57,0,0,1-16.78-8.79,42.59,42.59,0,0,1-7.74-8.11,35.27,35.27,0,0,1-4.25-7.87A36.41,36.41,0,0,1,7.16,240.9a49.49,49.49,0,0,1-4.8-10.39c-4-12.38-1.92-22.8-.8-28s1.7-7.82,4-10.38c1.88-2.09,3.8-2.91,4.79-5.6.83-2.25.2-3.64,0-6.39-.4-5.53,1.7-6,3.2-15.18.89-5.47.33-6.41,1.6-9.59a21.61,21.61,0,0,1,4.79-7.19,56.45,56.45,0,0,1,2.4-16.78c.5-1.63,1.93-5.08,4.79-12,3-7.27,3.85-8.83,4.8-10.39,2.66-4.37,3.51-4.11,5.59-8,2.51-4.69,1.6-5.67,4-9.59,1.62-2.64,3.26-4.2,6.4-7.19A85,85,0,0,1,56.7,77.1c5.95-4.39,8.92-6.59,12-8a32,32,0,0,1,5.57-2,36.68,36.68,0,0,1,5.51-1c1.58-.15,3-.21,4.1-.25.88,0,2,0,3.3,0,9,.12,27.3,1.75,42.37,8.86l1.28.62a48,48,0,0,1,12.63,8.83l.58.58a33.09,33.09,0,0,1,7,10.7,42.62,42.62,0,0,1,2.37,8.83,67.82,67.82,0,0,1,.79,7.66C154.27,114.9,154.2,117.09,154.18,117.85Z"/><path class="cls-2" d="M81.47,56.32a5.24,5.24,0,0,0-4,.8c-2.44,1.52-3,4.41-3.2,5.59s0,1.3,0,5.6c0,.4,0,1.6,0,4,0,8.33-.19,8.44,0,10.39a24.71,24.71,0,0,0,1.6,7.19,21.63,21.63,0,0,0,7.19,8.79c9.68,7.6,21.24,13,30.37,16.78,7.64,3.17,11.4,4.3,16,4.79,8.18.89,12.85-.93,14.38-1.59,2.7-1.17,7.57-3.27,8.79-8,.16-.62,1.1-4.26-.8-6.4-3.22-3.61-10,2.26-19.18.8-5.26-.83-10.7-5.88-21.57-16-6.79-6.3-5-5.52-12.78-12.78C89.17,67.8,87,67,85.46,62.71,84.62,60.43,83.9,57.08,81.47,56.32Z"/><path class="cls-3" d="M172.49,92.21c-.69,1.39-1.86,2.85-8,6.39-4.65,2.68-4.67,2.24-7.19,4a40.33,40.33,0,0,0-3.23,2.44c-.31.27-.63.55-1,.87a28.54,28.54,0,0,0-2.21,2.28c-2.11,2.45-1.91,3-3.19,4-2.6,1.93-6.13,1.51-9.59.8a66.33,66.33,0,0,1-17.58-6.4c-2.59-1.47-4.9-3-7-4.41A125.16,125.16,0,0,1,102.17,93,161.65,161.65,0,0,1,87.79,78.63c-.47-.53-.92-1-1.33-1.56a38,38,0,0,1-5.06-8c-.37-.79-.66-1.5-.9-2.15-1.12-3-1-4.63-.7-5.84a8.48,8.48,0,0,1,1.6-3.2c-.1-.29-.19-.6-.28-1a16.23,16.23,0,0,1-.52-3,16,16,0,0,1,0-2.4V37.88a17.21,17.21,0,0,1-1.6-4c-.53-2.08-.61-4,0-8.79.86-6.61,1.32-9.94,3.2-11.18a6.79,6.79,0,0,1,4.79-.8c3.57.49,5.65,3.44,7.19,5.59a23.28,23.28,0,0,1,4,11.19,29.29,29.29,0,0,1,0,7.19q.39,4.79.8,9.59l2.39-.8a25.38,25.38,0,0,1-1.59-8,25,25,0,0,1,.79-7.19,35,35,0,0,1-1.59-8,33.44,33.44,0,0,1,2.39-15.19c1.85-4.46,3.58-5.77,4.8-6.39a7,7,0,0,1,4-.8c3.08.38,4.91,3,5.6,4,.83,1.2,1.43,2.52,2.39,9.59,1.15,8.45.95,11.36.8,12.78a36.43,36.43,0,0,1-.8,4.79,49.37,49.37,0,0,1,.8,6.4,50.31,50.31,0,0,1,0,6.39h1.6a25.42,25.42,0,0,1,0-8.79,24.5,24.5,0,0,1,.8-3.2,27.57,27.57,0,0,1-.8-4,29.15,29.15,0,0,1,.8-11.19c.56-2.91,1.13-5.35,1.6-7.19,1.09-4.35,1.6-5.39,2.39-6.39a9.28,9.28,0,0,1,4.8-3.2,8.15,8.15,0,0,1,6.39.8c1.66,1.1,2.3,2.65,3.2,4.8a23.13,23.13,0,0,1,1.6,7.19,31.16,31.16,0,0,1-.8,9.59c0,.78,0,1.58,0,2.39a62.88,62.88,0,0,1-.8,8.79,33,33,0,0,1,.8,7.19,32.53,32.53,0,0,1-.8,7.19c.53.54,1.06,1.07,1.6,1.6a27.25,27.25,0,0,1,0-4.79,27.85,27.85,0,0,1,1.59-7.19,18,18,0,0,1,5.6-12,19,19,0,0,1,3.19-6.39,14.31,14.31,0,0,1,5.6-4.79c1.38-.63,4.28-1.93,7.19-.8s4.15,4.06,4.79,5.59c2.89,6.93-.63,14.14-1.6,16a19.39,19.39,0,0,1-.8,4,20.4,20.4,0,0,1-4,7.2,33.79,33.79,0,0,1-3.2,10.38.56.56,0,0,1,0,.12,12.4,12.4,0,0,1,.76,5.48A12.74,12.74,0,0,1,158.1,69q-.25,3.42-.79,7.19c-.24,1.65-.52,3.26-.8,4.79a15.12,15.12,0,0,1,4.79-.79,14,14,0,0,1,8,2.39c1.51,1,3.45,2.38,4,4.8A7.21,7.21,0,0,1,172.49,92.21Z"/><path class="cls-4" d="M87,40l-.06,0c-.42-.08-4.14-.84-5-1.7l.57-.57c.51.51,3,1.17,4.52,1.48l6.24-.78,2.32-1.55.44.67-2.48,1.65Z"/><polygon class="cls-4" points="115.71 33.15 104.07 33.15 101.56 30.64 102.12 30.07 104.4 32.35 115.14 32.35 115.84 30.23 116.6 30.48 115.71 33.15"/><path class="cls-4" d="M138.6,34.75H127.3l-.1-.06a24.39,24.39,0,0,0-4.58-2.34v-.8c.81,0,3.84,1.77,4.9,2.4H138.6Z"/><path class="cls-4" d="M137.8,22.76h-8c-.83,0-4.63-1.86-5.77-2.44l.35-.71A34,34,0,0,0,129.81,22h8Z"/><path class="cls-4" d="M116.22,22H105c-1.16,0-2.8-3.5-2.8-4.39h.8c0,.68,1.47,3.48,2,3.6h11.17Z"/><path class="cls-4" d="M160.13,45.93l-8.95-.85c-3.84-2.19-5.79-3.65-5.79-4.34a5.44,5.44,0,0,0-1.48-2.11l.56-.57c.29.29,1.72,1.76,1.72,2.68.18.44,2.89,2.22,5.31,3.61l8.71.79Z"/><polygon class="cls-4" points="165.76 36.35 157.68 36.35 149.46 32.24 147.81 27.29 148.56 27.03 150.11 31.67 157.87 35.55 165.76 35.55 165.76 36.35"/><path class="cls-4" d="M85.86,49.93a17.57,17.57,0,0,1-3.32-.82l.25-.76a16.67,16.67,0,0,0,3.07.78c.56,0,5.92-.94,9.44-1.58L97.62,46l.45.67-2.55,1.66C94.62,48.49,86.67,49.93,85.86,49.93Z"/><path class="cls-4" d="M108.23,47.53a14.49,14.49,0,0,1-2.92-.82,19,19,0,0,0-2.67-.77v-.8a14.49,14.49,0,0,1,2.92.82,19,19,0,0,0,2.67.77c.63,0,3.62-.57,4.72-.79l3.92-1.57.3.74-4,1.6C112.69,46.81,109.05,47.53,108.23,47.53Z"/><path class="cls-4" d="M138.6,48.33h-7.19c-.78,0-6.56-1.59-7.48-2.51a11,11,0,0,0-2.29-1.52l.36-.72a12.07,12.07,0,0,1,2.5,1.67c.68.69,6.19,2.28,6.91,2.28h7.19Z"/><polygon class="cls-4" points="156.94 57.92 146.45 57.11 143.87 55.36 141.47 52.17 142.11 51.69 144.47 54.83 146.72 56.33 157 57.12 156.94 57.92"/><polygon class="cls-4" points="142.26 103.29 138.98 98.37 139.83 91.72 143.08 84.41 148.93 81.1 155.78 79.5 155.78 80.29 149.11 81.88 143.7 84.97 140.58 91.99 139.81 98.17 142.92 102.84 142.26 103.29"/><path class="cls-4" d="M116.59,85.64l-.74-.3,1.64-4.09L124,75.52l.12,0c1.15-.16,11.23-1.6,12-1.6a40.07,40.07,0,0,1,5.32,1.62c2.09.7,4.69,1.56,5.07,1.58v.8a40.07,40.07,0,0,1-5.32-1.62c-2.09-.7-4.7-1.57-5.07-1.58-.56,0-7.33.94-11.81,1.58l-6.23,5.45Z"/><path class="cls-4" d="M122.76,67.34A97.33,97.33,0,0,1,105,65.9a95.15,95.15,0,0,1-19.26-5.61l.3-.74a94.88,94.88,0,0,0,19.1,5.57c11.1,2,20.72,1.53,36.66.79,4.27-.2,8.56-.47,12.78-.8l.06.8c-4.22.33-8.53.6-12.8.8C134.35,67.06,128.26,67.34,122.76,67.34Z"/><path class="cls-4" d="M131.4,63.56c-1.07,0-2.14,0-3.2-.05-12.87-.37-23-2.93-30.45-4.8-4.59-1.16-9.17-2.51-13.62-4l.26-.75c4.43,1.49,9,2.83,13.55,4,7.39,1.86,17.5,4.41,30.28,4.78a112.44,112.44,0,0,0,22.29-1.59l.14.79A113.82,113.82,0,0,1,131.4,63.56Z"/><path class="cls-4" d="M122.39,58.36a79.21,79.21,0,0,1-8.61-.44,72.43,72.43,0,0,1-20.89-5.63l.32-.73a71.55,71.55,0,0,0,20.66,5.56c6.85.75,13.19.39,19.91,0,3.19-.18,6.41-.45,9.57-.79l.08.79c-3.16.35-6.4.62-9.61.8C130,58.14,126.19,58.36,122.39,58.36Z"/><path class="cls-4" d="M121,53.51a53.39,53.39,0,0,1-6.44-.39A53.22,53.22,0,0,1,101.7,49.9l.29-.74a52.49,52.49,0,0,0,12.68,3.17,52.8,52.8,0,0,0,17.45-.79l.17.78A54.35,54.35,0,0,1,121,53.51Z"/><path class="cls-1" d="M90.65,69.51c-.85,1.32-10.45,14.41-24,32.76a5,5,0,0,0-.8,2.39,5.41,5.41,0,0,0,1.6,4l25.57,11.19a4.92,4.92,0,0,0,3.2.79,5,5,0,0,0,4-3.19l17.58-22.37c2-1.37,2.42-2.45,2.4-3.2,0-1.42-1.6-3.2-1.6-3.2h0l-24-20a3.77,3.77,0,0,0-3.2,0A2.47,2.47,0,0,0,90.65,69.51Z"/><path class="cls-5" d="M65.46,238.12l-.13-.05c-.62-.26-15.27-6.44-16.91-8.08s-25.29-20.55-25.53-20.74l-.08-.08L10,191.59l.65-.47,12.75,17.54c1.46,1.17,24,19.19,25.56,20.77,1.25,1.25,12.23,6,16.53,7.85l33.42-8.75.21.77Z"/><path class="cls-5" d="M65.73,174.55,49,167.36c-.55-.28-12.88-6.45-14.51-8.08l.57-.56c1.22,1.22,9.87,5.71,14.27,7.91L66,173.81Z"/><path class="cls-5" d="M132.22,149h-.07c-1-.13-23.29-3.23-29.65-5.62C95.94,140.93,84.7,132,82.32,128l.69-.41c2.32,3.87,13.33,12.6,19.77,15,6.11,2.29,28,5.37,29.41,5.57l11.92-2.39.16.79Z"/><path class="cls-5" d="M99.36,128.29c-.6,0-2.16-.67-8-3.46-3.55-1.69-8-3.79-8.67-3.79v-.8c.82,0,4,1.46,9,3.87a81.53,81.53,0,0,0,7.55,3.36c1-.69,11.55-.32,17.82,0l0,.79c-6-.27-15.67-.54-17.16-.17l-.2.15A.49.49,0,0,1,99.36,128.29Z"/><path class="cls-5" d="M130.71,136.23l-21.78,0-18.38-4.79.21-.77,18.32,4.78h21.43c5.26-2.77,15.37-8.25,16.59-9.47l.57.56c-1.62,1.62-16.26,9.33-16.88,9.66Z"/><path class="cls-5" d="M97.67,151.36c-.18-.08-17.58-8.78-19.93-9.56S64.4,126.53,63.17,124.88c-.07-.1-7.22-9.63-8.8-12-.33-.5-.84-1.24-1.42-2.1-4.48-6.56-5.84-8.73-5.84-9.31h.4l.4,0c.12.72,3.89,6.24,5.7,8.89l1.42,2.1c1.57,2.36,8.71,11.87,8.78,12C68.59,130.78,76.32,140.48,78,141c2.39.8,19.31,9.25,20,9.61Z"/><polygon class="cls-5" points="125.01 173.78 113.66 173.74 82.5 159.36 82.83 158.63 113.91 172.98 125.01 172.98 125.01 173.78"/><polygon class="cls-5" points="40.09 230.44 32.9 225.65 12.92 211.26 13.38 210.61 33.36 224.99 40.54 229.78 40.09 230.44"/><polygon class="cls-5" points="53.05 249.68 34.52 247.23 12.95 234.45 13.35 233.76 34.86 246.5 53.15 248.89 53.05 249.68"/><rect class="cls-5" x="68.55" y="257.68" width="11.44" height="0.8" transform="translate(-101.45 55) rotate(-24.81)"/><rect class="cls-5" x="34.32" y="249.5" width="0.8" height="21.16" transform="translate(-227.23 245.06) rotate(-79.11)"/><path class="cls-5" d="M99.61,191.32l-.33-.73c1.64-.74,16.11-7.22,17.74-7.22v.8C115.91,184.17,106,188.45,99.61,191.32Z"/><polygon class="cls-5" points="86.6 207.35 68.92 199.31 69.25 198.59 86.72 206.53 106.57 203.35 106.7 204.14 86.6 207.35"/><polygon class="cls-5" points="98.11 238.01 97 238.96 96.99 238.97 82.86 251.25 82.76 251.28 62.78 256.07 62.59 255.29 82.47 250.52 97.58 237.4 97.76 237.61 98.11 238.01"/><path class="cls-6" d="M159.77,61.92a12.74,12.74,0,0,1-2.4,6.39q-.26,3.42-.8,7.19c-.24,1.65-.51,3.26-.79,4.79l-6.4,1.6-5.59,3.2-2.4,3.19,3.2-6.39L147,77.1,135.8,73.9l-12,1.6-6.39,6.39-1.6,4L105.44,77.1l-.8-16.78,7.22.7-3.23-3.9,4.89.77-.09-5.56h14.38l4.35-.65.44-.15h9.59l4,4.79,11.18.8,1.64-.69A12.48,12.48,0,0,1,159.77,61.92Z"/><path class="cls-7" d="M154.18,117.85c-.11,3.27-.38,11.24-3.2,17.58-.29.64-1.48,3.25-3.19,7.19-1,2.35-1.86,4.3-2.4,5.59a13,13,0,0,1-.8,4.8,12.75,12.75,0,0,1-2.4,4,32.1,32.1,0,0,1-2.4,8.79c-1.51,3.49-2.46,5.67-4.79,7.19a16.21,16.21,0,0,1-4.65,1.89c-1.45.36-2.54.51-2.54.51s-5.19,7.69-9.59,16c-2.21,4.18-7.51,15.75-7.67,16.18,0-.07.19-.38.48-1a11.33,11.33,0,0,1,0,4,12.77,12.77,0,0,1-5.59,8,89.65,89.65,0,0,1-7.68,19.08l.35.4L97,239h0c-.39.68-.77,1.33-1.14,1.93a84.8,84.8,0,0,0-6.39,11.18c-3.53,7.72-2.63,9.54-4.8,13.59-5,9.3-16.49,12.27-21.57,13.58a45.62,45.62,0,0,1-24.77-.8,47.57,47.57,0,0,1-16.78-8.79,42.59,42.59,0,0,1-7.74-8.11l36.5,3.32,9.59-9.59,17.58-8.79,5.59-8.79L87,232.48l.77-1,4.9-6.54V210.54l8.6-5.53,1.67-1.07.92-.6-1.2-12,2.56-2.48,1.62-1.57,9.8-9.51-.4-4,1-.77,8.2-6.39V151.41l4.6-2.7,1.11-.66,7.88-4.63-1.2-11,.6-1.23,5.39-10.94L154.14,112C154.27,114.9,154.2,117.09,154.18,117.85Z"/></g></g></svg>