<svg id="Layer_1" data-name="Layer 1" xmlns="http://www.w3.org/2000/svg" viewBox="0 0 355.31 126.03"><defs><style>.cls-1{fill:#fff;}.cls-2{fill:#696a6a;}.cls-3{fill:#fcf0b3;}.cls-4{fill:#fcdf7b;}.cls-5{fill:#cf181a;}.cls-6{fill:#362616;}.cls-7{fill:#38341a;}.cls-8{fill:#d4950c;}.cls-9{fill:#f5a90d;}.cls-10{fill:#783310;}.cls-11{fill:#fee308;}.cls-12{opacity:0.42;}.cls-13{fill:#0672a0;}.cls-14{fill:#52a0d9;}.cls-15{fill:#99c442;}.cls-16{fill:#f1eaea;}.cls-17{opacity:0.35;}.cls-18{fill:#cf181d;}.cls-19{fill:#38331c;}.cls-20{opacity:0.74;}.cls-21{opacity:0.58;}.cls-22{fill:#099239;}.cls-23{opacity:0.73;}.cls-24{fill:#eee4ea;}.cls-25{fill:#063;}.cls-26{fill:#706f6f;}.cls-27{fill:#949494;}.cls-28{fill:#1d1d1b;}</style></defs><title>logo med logo med logo done</title><path class="cls-1" d="M309,268v-.63c3-.51,3.15-.79,3.15-4.45V247.39c0-3.66-.27-4-3.15-4.41v-.63h11.23V243c-2.88.52-3.19.71-3.19,4.41v15.44c0,3.78.23,4,3.19,4.49V268Z" transform="translate(-247.16 -218.45)"/><path class="cls-1" d="M320.59,268.32h-12V267l.31-.05c2.68-.47,2.84-.49,2.84-4.08V247.39c0-3.52-.2-3.64-2.83-4l-.32,0V242h12v1.32l-.31,0c-2.66.48-2.88.52-2.88,4v15.44c0,3.62.11,3.64,2.88,4.12l.31.05Zm-10.91-.75h9.85c-2.62-.51-2.88-1.12-2.88-4.74V247.39c0-3.62.38-4.16,2.89-4.66h-9.79c2.47.45,2.77,1.15,2.77,4.66v15.48C312.52,266.42,312.24,267.06,309.68,267.57Z" transform="translate(-247.16 -218.45)"/><path class="cls-1" d="M341.64,261.53c-.36,1.81-1.42,5.83-1.66,6.42H321.36v-.63c3.46-.51,3.66-.83,3.66-4.22V247.2c0-3.51-.28-3.7-3.27-4.22v-.63h11.38V243c-2.95.56-3.23.83-3.23,4.22v16.85c0,2.48.67,2.72,2.64,2.72h2.36c2.13,0,2.68-.32,3.7-1.26a14.38,14.38,0,0,0,2.44-4.14Z" transform="translate(-247.16 -218.45)"/><path class="cls-1" d="M340,268.32H321V267l.32,0c3.25-.48,3.34-.59,3.34-3.85V247.2c0-3.34-.16-3.37-2.95-3.85l-.31,0V242h12.13v1.32l-.31,0c-2.7.51-2.92.55-2.92,3.85v16.85c0,2.25.47,2.34,2.26,2.34h2.36c2,0,2.5-.28,3.45-1.16a14,14,0,0,0,2.35-4l.13-.29,1.24.33-.07.34c-.34,1.77-1.4,5.82-1.67,6.49l-.09.23Zm-17.83-.75h17.56c.3-.92,1-3.72,1.43-5.49a13.45,13.45,0,0,1-2.28,3.7c-1.14,1.05-1.8,1.36-4,1.36h-2.36c-2.05,0-3-.3-3-3.09V247.2c0-3.3.31-3.92,3-4.47h-10c2.65.51,2.94,1.12,2.94,4.47v15.9C325.39,266.46,325.07,267.08,322.15,267.57Z" transform="translate(-247.16 -218.45)"/><path class="cls-1" d="M362.07,261.53c-.35,1.81-1.42,5.83-1.65,6.42H341.79v-.63c3.47-.51,3.66-.83,3.66-4.22V247.2c0-3.51-.27-3.7-3.26-4.22v-.63h11.38V243c-3,.56-3.23.83-3.23,4.22v16.85c0,2.48.67,2.72,2.63,2.72h2.37c2.12,0,2.67-.32,3.7-1.26a14.62,14.62,0,0,0,2.44-4.14Z" transform="translate(-247.16 -218.45)"/><path class="cls-1" d="M360.67,268.32H341.42V267l.32,0c3.25-.48,3.34-.59,3.34-3.85V247.2c0-3.34-.17-3.37-3-3.85l-.31,0V242h12.13v1.32l-.31,0c-2.7.51-2.92.55-2.92,3.85v16.85c0,2.25.47,2.34,2.26,2.34h2.37c2,0,2.49-.28,3.44-1.16a13.75,13.75,0,0,0,2.36-4l.13-.29,1.24.33-.07.34c-.35,1.77-1.41,5.82-1.68,6.49Zm-18.09-.75h17.57c.29-.92,1-3.72,1.42-5.49a13.44,13.44,0,0,1-2.27,3.7c-1.15,1.05-1.81,1.36-4,1.36H353c-2,0-3-.3-3-3.09V247.2c0-3.3.32-3.92,3-4.47h-10c2.66.51,2.95,1.12,2.95,4.47v15.9C345.83,266.46,345.51,267.08,342.58,267.57Z" transform="translate(-247.16 -218.45)"/><path class="cls-1" d="M387.23,243c-3.11.36-3.11,1.46-3.23,3.08-.08,1.18-.16,2.63-.16,5.55v4.64c0,4.14-.35,7.25-2.52,9.61-1.69,1.81-4.05,2.68-7.2,2.68a10.58,10.58,0,0,1-6.93-2.13c-2.09-1.73-2.88-4.17-2.88-8.23V248c0-4.06-.23-4.49-3.18-5v-.63h11.22V243c-3,.56-3.15.91-3.15,5v10.71c0,5.15,2.48,7.67,6.81,7.67,4.72,0,6.54-2.48,6.54-10v-4.76c0-2.92-.08-4.49-.2-5.71-.16-1.93-.63-2.64-4.1-2.92v-.63h9Z" transform="translate(-247.16 -218.45)"/><path class="cls-1" d="M374.12,268.91A10.88,10.88,0,0,1,367,266.7c-2.14-1.77-3-4.24-3-8.52V248c0-4-.24-4.17-2.87-4.6l-.32,0V242h12v1.32l-.31,0c-2.76.5-2.84.63-2.84,4.6v10.71c0,4.84,2.17,7.3,6.44,7.3,4.61,0,6.16-2.42,6.16-9.59v-4.76c0-2.57-.06-4.26-.19-5.68-.14-1.63-.33-2.3-3.76-2.57l-.34,0V242h9.73v1.34l-.34,0c-2.72.31-2.77,1.07-2.89,2.6v.12c-.08,1.14-.16,2.6-.16,5.53v4.64c0,4.44-.43,7.47-2.62,9.86C379.84,268,377.39,268.91,374.12,268.91Zm-12.28-26.18c2.64.52,2.85,1.4,2.85,5.22v10.23c0,4,.79,6.33,2.74,7.94a10.13,10.13,0,0,0,6.69,2c3.05,0,5.32-.83,6.93-2.56,2-2.2,2.42-5.1,2.42-9.35v-4.64c0-3,.08-4.43.16-5.58v-.12c.1-1.43.19-2.69,2.76-3.18h-7c2.61.36,3.15,1.2,3.31,3.14.14,1.43.2,3.15.2,5.74v4.76c0,7.54-1.87,10.34-6.91,10.34-4.64,0-7.19-2.86-7.19-8V248c0-3.91.17-4.65,2.87-5.22Z" transform="translate(-247.16 -218.45)"/><path class="cls-1" d="M402,248c-.83-3.27-2.72-5.24-5.75-5.24-2.37,0-3.7,1.61-3.7,4.13s1.37,3.66,4.76,5.67,6.42,4.14,6.42,8.27c0,4.53-3.82,7.76-9.06,7.76a23.86,23.86,0,0,1-5.94-1c-.24-.74-.83-5.39-.87-6l.63-.12c.87,3.43,3.19,6.18,6.81,6.18,2.72,0,3.9-1.85,3.9-4.49,0-2.48-1.46-4.25-4.25-5.94-3.55-2.17-6.42-4.18-6.42-8.19s3.19-7.21,8.43-7.21a42.14,42.14,0,0,1,5,.51c.15,1.46.39,3.63.67,5.52Z" transform="translate(-247.16 -218.45)"/><path class="cls-1" d="M394.67,268.91a24.08,24.08,0,0,1-6-1l-.2,0-.06-.2c-.25-.8-.85-5.5-.88-6.12l0-.33,1.3-.24.08.34c.94,3.69,3.35,5.9,6.45,5.9,2.91,0,3.53-2.24,3.53-4.12,0-2.21-1.22-3.89-4.08-5.62-3.74-2.29-6.59-4.36-6.59-8.51,0-4.47,3.61-7.58,8.8-7.58a23.2,23.2,0,0,1,3.94.37c.46.07.82.13,1.07.14l.33,0,0,.31c.13,1.24.38,3.55.67,5.5l.05.36-1.33.25-.09-.34c-.57-2.26-2-5-5.38-5-2.12,0-3.33,1.37-3.33,3.76s1.14,3.31,4.58,5.35,6.6,4.27,6.6,8.59C404.1,265.49,400.14,268.91,394.67,268.91ZM389,267.28a22.61,22.61,0,0,0,5.64.88c5,0,8.68-3.1,8.68-7.38,0-3.93-2.82-5.92-6.23-7.94s-4.95-3.36-4.95-6,1.56-4.51,4.08-4.51c2.86,0,4.89,1.65,5.9,4.78-.22-1.62-.41-3.34-.53-4.45l-.84-.12a23.24,23.24,0,0,0-3.82-.36c-4.82,0-8,2.74-8,6.83,0,3.76,2.58,5.64,6.23,7.87,3.07,1.85,4.44,3.79,4.44,6.26,0,3.09-1.56,4.87-4.28,4.87-3.29,0-5.88-2.18-7-5.86C388.45,263.47,388.83,266.37,389,267.28Z" transform="translate(-247.16 -218.45)"/><path class="cls-1" d="M426.17,248.18a8.91,8.91,0,0,0-1.73-3.74c-.67-.75-1.14-.94-3.15-.94h-3.23v19.6c0,3.39.39,3.71,3.47,4.22V268H409.87v-.63c2.87-.63,3.31-.75,3.31-4.22V243.5H409.6a3,3,0,0,0-2.72,1,11,11,0,0,0-1.77,3.74h-.67c.19-2.13.39-4.76.47-6.77h.55c.67.86,1.3.86,2.4.86h15.79a2.89,2.89,0,0,0,2.4-.86h.52c0,1.77,0,4.6.23,6.61Z" transform="translate(-247.16 -218.45)"/><path class="cls-1" d="M421.9,268.32H409.5V267l.29-.07c2.79-.61,3-.66,3-3.85V243.87h-3.2c-1.6,0-2,.4-2.45.91a10.52,10.52,0,0,0-1.69,3.59l-.08.27H404l0-.41c.23-2.42.4-4.95.48-6.76v-.36h1.09l.12.15c.55.72,1,.72,2.1.72h15.79a2.56,2.56,0,0,0,2.14-.76l.11-.11h1v.38c0,1.56,0,4.5.23,6.58l0,.36-1.3.16-.21-.68a7.61,7.61,0,0,0-1.54-3.22c-.55-.61-.84-.82-2.87-.82h-2.85V263.1c0,3.23.26,3.37,3.15,3.85l.31.05Zm-11.45-.75h10.37c-2.74-.53-3.13-1.23-3.13-4.47v-20h3.6c2,0,2.64.19,3.43,1.07a8.12,8.12,0,0,1,1.66,3.38c-.15-1.87-.18-4.21-.19-5.7a3.25,3.25,0,0,1-2.54.86H407.86a2.86,2.86,0,0,1-2.58-.87h0c-.07,1.66-.23,3.83-.42,5.95a11.16,11.16,0,0,1,1.75-3.54,3.36,3.36,0,0,1,3-1.15h3.95v20C413.55,266.57,413.05,267,410.45,267.57Z" transform="translate(-247.16 -218.45)"/><path class="cls-1" d="M452.28,268.22h-1.77c-4.73-.19-6-1.1-7.33-3.19a77.06,77.06,0,0,1-3.86-6.77c-.86-1.65-1.45-2.12-2.79-2.12h-.59v6.93c0,3.3.23,3.62,3.15,4.25V268H428v-.63c2.92-.63,3.15-.87,3.15-4.25V247.2c0-3.31-.23-3.74-3.15-4.22v-.63h10.59c3.23,0,5.2.36,6.82,1.5a5.43,5.43,0,0,1,2.36,4.65c0,4-3,5.75-5,6.57.59,1.07,2.68,4.69,3.78,6.46a32.12,32.12,0,0,0,2.87,4.21,5.37,5.37,0,0,0,3,1.93Zm-15.56-13c1.89,0,3.27-.16,4.22-1.06,1.1-1,1.57-2.41,1.57-4.69,0-4.57-2.28-6.22-4.53-6.22a2.88,2.88,0,0,0-1.61.28c-.28.19-.43.47-.43,1.26v10.43Z" transform="translate(-247.16 -218.45)"/><path class="cls-1" d="M452.58,268.6h-2.07c-4.86-.2-6.23-1.16-7.64-3.36a76.26,76.26,0,0,1-3.88-6.81c-.86-1.64-1.37-1.92-2.46-1.92h-.22v6.56c0,3.14.11,3.29,2.86,3.88l.29.06v1.31H427.61V267l.29-.06c2.7-.58,2.86-.62,2.86-3.88V247.2c0-3.2-.16-3.41-2.84-3.85l-.31,0V242h11c3.51,0,5.41.42,7,1.56a5.82,5.82,0,0,1,2.52,5c0,3-1.63,5.28-4.84,6.75.76,1.35,2.57,4.47,3.57,6.08a31.59,31.59,0,0,0,2.84,4.17,5.07,5.07,0,0,0,2.82,1.82l.32.1Zm-17-12.84h1c1.48,0,2.18.52,3.12,2.33,1.44,2.77,2.62,4.85,3.85,6.74s2.31,2.82,7,3h1.24a5.41,5.41,0,0,1-2.64-1.86,32.16,32.16,0,0,1-2.91-4.26c-1.11-1.79-3.2-5.42-3.79-6.48l-.2-.36.38-.16c3.17-1.33,4.77-3.43,4.77-6.23a5,5,0,0,0-2.2-4.34c-1.47-1-3.26-1.43-6.59-1.43h-9.89c2.58.52,2.82,1.35,2.82,4.47v15.87c0,3.31-.29,3.88-2.95,4.5h9.95c-2.63-.62-2.95-1.22-2.95-4.5Zm1.16-.16h-1.16V244.8c0-.83.17-1.27.59-1.57a3,3,0,0,1,1.83-.35c2.37,0,4.91,1.74,4.91,6.6,0,2.38-.51,3.86-1.7,5C440.18,255.41,438.79,255.6,436.72,255.6Zm-.41-.75h.41c1.87,0,3.12-.15,4-.95,1-1,1.46-2.25,1.46-4.42,0-3.66-1.56-5.85-4.16-5.85-1,0-1.3.14-1.37.19s-.3.22-.3,1Z" transform="translate(-247.16 -218.45)"/><path class="cls-1" d="M471.93,261.77c-.2,1.37-.91,5.23-1.15,6.18H451.57v-.63c3.38-.47,3.66-.67,3.66-4.18v-16c0-3.55-.2-3.86-3-4.18v-.63h11.93c3.86,0,5.39,0,5.71-.07,0,1.49.19,4,.39,5.7l-.63.12a10.43,10.43,0,0,0-1.69-3.46c-.71-.87-1.58-1.1-3.9-1.1H461.1c-.83,0-1,.15-1,.94v9.41h3.82c3.11,0,3.23-.87,3.78-3.31h.63v7.8h-.63c-.55-2.32-.67-3.31-3.78-3.31h-3.82v8.39c0,2.76.59,3.27,3,3.31h2.33c2.32,0,2.87-.32,3.86-1.38a13.79,13.79,0,0,0,2-3.74Z" transform="translate(-247.16 -218.45)"/><path class="cls-1" d="M471.08,268.32H451.19V267l.33,0c3.15-.44,3.34-.47,3.34-3.81v-16c0-3.37-.1-3.51-2.66-3.8l-.34,0V242h12.31c4.69,0,5.52-.06,5.66-.08l.41-.05v.42c0,1.46.2,4,.39,5.67l0,.35-1.29.24-.11-.31a9.94,9.94,0,0,0-1.62-3.34c-.62-.76-1.4-1-3.61-1H461.1c-.61,0-.61,0-.61.57v9h3.44c2.74,0,2.86-.55,3.38-2.85l.1-.46h1.31v8.54h-1.3l-.13-.52c-.5-2.14-.65-2.78-3.36-2.78h-3.44v8c0,2.62.5,2.9,2.66,2.93h2.32c2.3,0,2.72-.32,3.58-1.26A14,14,0,0,0,471,261.5l.12-.28,1.24.25-.05.35c-.19,1.34-.9,5.22-1.15,6.22Zm-18.67-.75h18.08c.23-1.07.73-3.74,1-5.26a12.3,12.3,0,0,1-1.86,3.33c-1.07,1.16-1.75,1.5-4.13,1.5h-2.33c-2.7,0-3.4-.8-3.4-3.68V254.7h4.19c3.18,0,3.56,1.11,4,3.13v-6.67c-.49,2.13-.86,3.11-4,3.11h-4.19v-9.79c0-1,.33-1.32,1.36-1.32h2.95c2.46,0,3.4.28,4.19,1.24a9.74,9.74,0,0,1,1.6,3.12c-.15-1.52-.28-3.49-.33-4.85-.82,0-2.67.06-5.34.06h-11c2.28.38,2.47,1.2,2.47,4.43v16C455.61,266.58,455.18,267.13,452.41,267.57Z" transform="translate(-247.16 -218.45)"/><path class="cls-1" d="M497.36,268.22h-1.77c-4.73-.19-6-1.1-7.33-3.19s-2.59-4.33-3.85-6.77c-.87-1.65-1.46-2.12-2.8-2.12H481v6.93c0,3.3.24,3.62,3.15,4.25V268h-11.1v-.63c2.91-.63,3.15-.87,3.15-4.25V247.2c0-3.31-.24-3.74-3.15-4.22v-.63h10.59c3.23,0,5.2.36,6.81,1.5a5.41,5.41,0,0,1,2.36,4.65c0,4-3,5.75-5,6.57.59,1.07,2.68,4.69,3.78,6.46a31.9,31.9,0,0,0,2.88,4.21,5.31,5.31,0,0,0,3,1.93Zm-15.55-13c1.89,0,3.27-.16,4.21-1.06,1.1-1,1.58-2.41,1.58-4.69,0-4.57-2.29-6.22-4.53-6.22a2.9,2.9,0,0,0-1.62.28c-.27.19-.43.47-.43,1.26v10.43Z" transform="translate(-247.16 -218.45)"/><path class="cls-1" d="M497.66,268.6h-2.07c-4.85-.2-6.23-1.16-7.64-3.36-1.24-1.92-2.44-4-3.88-6.81-.86-1.64-1.37-1.92-2.46-1.92h-.22v6.56c0,3.14.11,3.29,2.86,3.88l.29.06v1.31H472.69V267l.3-.06c2.69-.58,2.85-.62,2.85-3.88V247.2c0-3.2-.16-3.41-2.83-3.85l-.32,0V242h11c3.51,0,5.41.42,7,1.56a5.84,5.84,0,0,1,2.52,5c0,3-1.63,5.28-4.85,6.75.77,1.35,2.57,4.47,3.57,6.08a31.59,31.59,0,0,0,2.84,4.17,5.1,5.1,0,0,0,2.83,1.82l.32.1Zm-17-12.84h1c1.48,0,2.18.52,3.13,2.33a76.12,76.12,0,0,0,3.84,6.74c1.22,1.9,2.31,2.82,7,3h1.25A5.43,5.43,0,0,1,494.2,266a34.26,34.26,0,0,1-2.91-4.26c-1.11-1.79-3.2-5.42-3.79-6.48l-.2-.36.39-.16c3.16-1.33,4.77-3.43,4.77-6.23a5,5,0,0,0-2.2-4.34c-1.48-1-3.26-1.43-6.6-1.43h-9.89c2.58.52,2.82,1.35,2.82,4.47v15.87c0,3.31-.29,3.88-2.95,4.5h10c-2.64-.62-3-1.22-3-4.5Zm1.17-.16h-1.17V244.8c0-.83.17-1.27.6-1.57a3,3,0,0,1,1.83-.35c2.37,0,4.9,1.74,4.9,6.6,0,2.37-.51,3.86-1.69,5C485.26,255.41,483.87,255.6,481.81,255.6Zm-.42-.75h.42c1.87,0,3.11-.15,3.95-.95,1-1,1.46-2.25,1.46-4.42,0-5.42-3.18-5.85-4.15-5.85s-1.31.14-1.38.19-.3.22-.3,1Z" transform="translate(-247.16 -218.45)"/><path class="cls-1" d="M517,261.77c-.2,1.37-.91,5.23-1.14,6.18H496.65v-.63c3.39-.47,3.66-.67,3.66-4.18v-16c0-3.55-.19-3.86-3-4.18v-.63h11.93c3.86,0,5.39,0,5.71-.07,0,1.49.2,4,.39,5.7l-.63.12a10.24,10.24,0,0,0-1.69-3.46c-.71-.87-1.57-1.1-3.9-1.1h-2.95c-.83,0-1,.15-1,.94v9.41H509c3.12,0,3.23-.87,3.78-3.31h.63v7.8h-.63c-.55-2.32-.66-3.31-3.78-3.31h-3.82v8.39c0,2.76.6,3.27,3,3.31h2.32c2.32,0,2.87-.32,3.86-1.38a14.05,14.05,0,0,0,2-3.74Z" transform="translate(-247.16 -218.45)"/><path class="cls-1" d="M516.16,268.32H496.28V267l.32,0c3.15-.44,3.34-.47,3.34-3.81v-16c0-3.37-.1-3.51-2.66-3.8l-.33,0V242h12.3c4.69,0,5.52-.06,5.66-.08l.41-.05v.42c0,1.46.2,4,.4,5.67l0,.35-1.3.24-.1-.31a10,10,0,0,0-1.63-3.34c-.62-.76-1.39-1-3.61-1h-2.95c-.61,0-.61,0-.61.57v9H509c2.74,0,2.86-.55,3.38-2.84l.11-.47h1.3v8.54h-1.3l-.13-.53c-.5-2.13-.65-2.77-3.36-2.77h-3.44v8c0,2.62.5,2.9,2.66,2.93h2.32c2.3,0,2.72-.32,3.58-1.26a13.66,13.66,0,0,0,1.94-3.63l.12-.28,1.24.25,0,.35c-.19,1.34-.9,5.22-1.15,6.22Zm-18.67-.75h18.08c.24-1.07.73-3.73,1-5.26a12.57,12.57,0,0,1-1.85,3.33c-1.08,1.16-1.75,1.5-4.14,1.5h-2.32c-2.71,0-3.41-.8-3.41-3.68V254.7H509c3.18,0,3.56,1.1,4,3.12v-6.66c-.49,2.13-.86,3.11-4,3.11h-4.19v-9.79c0-1,.33-1.32,1.36-1.32h2.95c2.46,0,3.4.28,4.19,1.24a9.54,9.54,0,0,1,1.6,3.12c-.15-1.52-.28-3.49-.32-4.85-.83,0-2.68.06-5.35.06h-11c2.29.38,2.47,1.2,2.47,4.43v16C500.69,266.58,500.26,267.13,497.49,267.57Z" transform="translate(-247.16 -218.45)"/><path class="cls-1" d="M539,248.18a8.91,8.91,0,0,0-1.73-3.74c-.67-.75-1.15-.94-3.16-.94h-3.22v19.6c0,3.39.39,3.71,3.46,4.22V268H522.72v-.63c2.87-.63,3.3-.75,3.3-4.22V243.5h-3.58a3,3,0,0,0-2.72,1,11,11,0,0,0-1.77,3.74h-.67c.2-2.13.4-4.76.47-6.77h.56c.67.86,1.3.86,2.4.86H536.5a2.91,2.91,0,0,0,2.4-.86h.51c0,1.77,0,4.6.24,6.61Z" transform="translate(-247.16 -218.45)"/><path class="cls-1" d="M534.75,268.32H522.34V267l.3-.07c2.78-.61,3-.66,3-3.85V243.87h-3.21c-1.6,0-2,.4-2.44.91a10.62,10.62,0,0,0-1.69,3.59l-.08.27h-1.36l0-.41c.22-2.43.4-4.95.47-6.76v-.36h1.1l.11.15c.56.72,1,.72,2.11.72H536.5a2.56,2.56,0,0,0,2.14-.76l.11-.11h1v.38c0,1.56,0,4.49.23,6.58l0,.36-1.31.16-.21-.68a7.61,7.61,0,0,0-1.54-3.22c-.54-.61-.83-.82-2.87-.82h-2.85V263.1c0,3.23.27,3.37,3.15,3.85l.32.05Zm-11.46-.75h10.38c-2.74-.53-3.14-1.23-3.14-4.47v-20h3.6c2,0,2.65.19,3.43,1.07a8,8,0,0,1,1.66,3.39c-.14-1.89-.18-4.22-.18-5.71a3.26,3.26,0,0,1-2.54.86H520.71a2.84,2.84,0,0,1-2.58-.87h0c-.07,1.66-.22,3.83-.41,6a11,11,0,0,1,1.74-3.55,3.36,3.36,0,0,1,3-1.15h4v20C526.4,266.57,525.89,267,523.29,267.57Z" transform="translate(-247.16 -218.45)"/><path class="cls-1" d="M310.21,279.66c-4.2.59-4.73,1.6-7.27,7.56-2.3,5.44-7.15,17.85-11.52,29.43l-4.94-7c-3.66-10-6.69-16.9-8.94-22.86-2.18-5.61-2.65-6.44-6.61-7.09v-.88h16.95v.88c-4.49.77-4.25,1.83-3.31,4.49,1.07,3.19,5.2,14.18,8.57,23.15,2-5,6-15.65,8.15-21.55,1.71-4.67,1.36-5.32-4.31-6.09v-.88h13.23Z" transform="translate(-247.16 -218.45)"/><path class="cls-1" d="M291.52,317.44l-5.39-7.7c-2.19-6-4.15-10.83-5.87-15.1-1.17-2.88-2.17-5.37-3.07-7.76-2.14-5.5-2.56-6.23-6.32-6.85l-.32,0V278.4h17.7V280l-.31,0c-2,.35-3.08.76-3.41,1.33s-.06,1.37.4,2.67c1,2.91,4.52,12.39,7.66,20.76l.56,1.48c2.11-5.31,5.77-15.2,7.79-20.65.77-2.12,1.11-3.4.69-4.1s-2-1.12-4.71-1.49l-.32,0V278.4h14V280l-.32,0c-3.95.56-4.42,1.35-7,7.34-2.23,5.24-7,17.34-11.52,29.41Zm-4.7-8,4.5,6.41c4.48-11.86,9.09-23.62,11.28-28.77,2.49-5.87,3.14-7.11,7.23-7.74v-.19H297.35v.18c2.84.4,4.32.79,4.92,1.8s.26,2.3-.63,4.74c-2.14,5.79-6.12,16.55-8.16,21.57l-.36.89-1.23-3.28c-3.14-8.37-6.7-17.86-7.67-20.78-.53-1.49-.82-2.46-.34-3.29s1.51-1.24,3.62-1.63v-.2H271.3v.2c3.91.69,4.48,1.84,6.59,7.26.9,2.39,1.9,4.87,3.06,7.75C282.67,298.63,284.63,303.46,286.82,309.44Z" transform="translate(-247.16 -218.45)"/><path class="cls-1" d="M308.73,317.17v-.95c4.43-.77,4.72-1.18,4.72-6.67V286.34c0-5.5-.41-6-4.72-6.62v-.94h16.83v.94c-4.31.77-4.78,1.06-4.78,6.62v23.15c0,5.67.35,6,4.78,6.73v.95Z" transform="translate(-247.16 -218.45)"/><path class="cls-1" d="M325.94,317.54H308.35v-1.63l.31-.06c4.25-.73,4.42-1,4.42-6.3V286.34c0-5.43-.37-5.64-4.41-6.25l-.32,0V278.4h17.59V280l-.31.06c-4.05.72-4.48.8-4.48,6.25v23.15c0,5.59.34,5.64,4.48,6.36l.31.06Zm-16.84-.75h16.09v-.25c-4.42-.79-4.79-1.43-4.79-7.05V286.34c0-5.61.55-6.16,4.79-6.93v-.26H309.1v.25c4.28.67,4.73,1.43,4.73,6.94v23.21c0,5.52-.41,6.21-4.73,7Z" transform="translate(-247.16 -218.45)"/><path class="cls-1" d="M345.17,278.78c7.09,0,12.7,1.65,16.3,5,3.25,3,5.2,7,5.2,12.75,0,7.15-2.66,12.35-7,15.77a24.08,24.08,0,0,1-15.3,4.91H328v-.95c4.19-.71,4.73-1.06,4.73-6.38V286.1c0-5.32-.54-5.67-4.73-6.38v-.94Zm-5.08,29.88c.06,4.84,1.59,6.85,6.67,6.85,7.62,0,11.64-5.84,11.64-18,0-6-1.71-11.05-4.67-13.94-2.36-2.42-5.25-3.37-9.15-3.37-2.36,0-3.43.42-4,.89s-.65,1.48-.65,3.48Z" transform="translate(-247.16 -218.45)"/><path class="cls-1" d="M344.34,317.54H327.67V315.9l.31,0c4-.68,4.41-.89,4.41-6V286.1c0-5.12-.37-5.33-4.41-6l-.31,0V278.4h17.5c7.22,0,12.95,1.75,16.55,5.06s5.32,7.58,5.32,13c0,6.93-2.41,12.34-7.17,16.07A24.33,24.33,0,0,1,344.34,317.54Zm-15.92-.75h15.92A23.62,23.62,0,0,0,359.41,312c4.57-3.58,6.88-8.79,6.88-15.48,0-5.3-1.61-9.27-5.07-12.48s-9-4.86-16.05-4.86H328.42v.25c4.06.71,4.72,1.34,4.72,6.7v23.74c0,5.37-.66,6-4.72,6.7Zm18.34-.9c-5.07,0-7-2-7.05-7.22h0l-.17-24.09c0-2,0-3.18.79-3.78s2.17-1,4.25-1c4.17,0,7.07,1.07,9.42,3.48,3,3,4.77,8.15,4.77,14.2C358.77,309.7,354.73,315.89,346.76,315.89Zm-6.3-7.23c.06,4.84,1.65,6.48,6.3,6.48,7.48,0,11.26-5.94,11.26-17.64,0-5.85-1.66-10.84-4.55-13.67-2.2-2.26-4.94-3.26-8.89-3.26-1.87,0-3.11.26-3.78.8-.44.35-.51,1.23-.51,3.19Z" transform="translate(-247.16 -218.45)"/><path class="cls-1" d="M399.33,307.89c-.3,2.07-1.36,7.86-1.71,9.28H368.79v-.95c5.08-.71,5.5-1,5.5-6.26V286c0-5.31-.3-5.79-4.49-6.26v-.94h17.89c5.79,0,8.09-.06,8.57-.12.06,2.24.29,6,.59,8.56l-1,.18a15.61,15.61,0,0,0-2.54-5.2c-1.06-1.3-2.36-1.65-5.84-1.65h-4.43c-1.24,0-1.48.23-1.48,1.42v14.11h5.73c4.66,0,4.84-1.3,5.67-5H394v11.69H393c-.83-3.48-1-5-5.67-5h-5.73v12.58c0,4.14.89,4.91,4.55,5h3.48c3.49,0,4.31-.47,5.79-2.06a20.93,20.93,0,0,0,3-5.61Z" transform="translate(-247.16 -218.45)"/><path class="cls-1" d="M397.91,317.54H368.42V315.9l.32,0c5-.69,5.17-.91,5.17-5.89V286c0-5.17-.19-5.44-4.16-5.89l-.33,0V278.4h18.27c7.05,0,8.3-.09,8.52-.11l.41-.06v.42c.06,2.21.3,6,.59,8.53l0,.35-1.61.3-.11-.32a15.26,15.26,0,0,0-2.46-5.07c-1-1.19-2.18-1.52-5.56-1.52h-4.43c-1.07,0-1.11.11-1.11,1.05v13.74h5.36c4.25,0,4.46-.94,5.24-4.41l.13-.56h1.62v12.45h-1.62l-.15-.65c-.76-3.23-1-4.31-5.22-4.31H382v12.2c0,4.08.85,4.54,4.18,4.59h3.48c3.35,0,4.08-.39,5.52-1.95a21.45,21.45,0,0,0,2.94-5.5l.11-.28,1.54.31-.05.35c-.29,2-1.35,7.81-1.72,9.31Zm-28.74-.75h28.15c.37-1.64,1.25-6.41,1.58-8.6l-.23-.05a20.65,20.65,0,0,1-3,5.44c-1.6,1.72-2.53,2.19-6.07,2.19h-3.48c-4-.06-4.93-1.11-4.93-5.34V297.48h6.11c4.8,0,5.18,1.63,6,4.89l0,.07h.27V291.49h-.27c-.79,3.51-1.13,5-6,5h-6.11V282c0-1.4.42-1.8,1.86-1.8h4.43c3.62,0,5,.4,6.13,1.79a15.23,15.23,0,0,1,2.51,5l.28-.05c-.27-2.39-.48-5.7-.55-7.86-1.11.06-4,.09-8.2.09H370.17v.24c4.21.51,4.49,1.4,4.49,6.59v24c0,5.38-.63,5.89-5.49,6.59Z" transform="translate(-247.16 -218.45)"/><path class="cls-1" d="M440.79,279.72c-3.9.83-4.79,1.48-4.9,5.49-.06,1.83-.18,3.31-.18,9.45V318h-1.48L407.71,286.1v15.12c0,5.49.06,7.21.18,9.15.24,4,.59,5.08,6.09,5.85v.95H400.33v-.95c4.43-.65,4.9-1.53,5.14-5.67.12-2.12.29-4.43.29-9.33V285.75a5.17,5.17,0,0,0-.94-3.13c-1.54-2.07-2.6-2.49-5.2-2.9v-.94H410.9l22.92,26.75V294.66c0-6.14-.18-7.67-.24-9.33-.17-4.13-1.53-5-6.67-5.61v-.94h13.88Z" transform="translate(-247.16 -218.45)"/><path class="cls-1" d="M436.08,318.37h-2l-26-31.23v14.08c0,5.32.05,7.12.18,9.13.22,3.83.48,4.76,5.76,5.5l.32,0v1.64H400V315.9l.32,0c4.24-.62,4.59-1.31,4.82-5.32l0-.84c.11-1.87.25-4.21.25-8.47V285.75a4.88,4.88,0,0,0-.87-2.91c-1.43-1.93-2.4-2.34-5-2.75l-.31,0V278.4h11.83l22.37,26.12v-9.86c0-4.72-.11-6.69-.19-8.13,0-.43,0-.8-.05-1.19-.16-3.76-1.17-4.59-6.35-5.25l-.33,0V278.4h14.63V280l-.29.07c-3.75.79-4.49,1.28-4.61,5.14l0,1.07c-.06,1.52-.14,3.43-.14,8.36Zm-1.67-.75h.92v-23c0-5,.08-6.86.14-8.39l0-1.07c.12-4.11,1.11-4.95,4.9-5.78v-.27H427.28v.24c4.92.65,6.49,1.62,6.68,5.93,0,.38,0,.75.05,1.17.08,1.45.19,3.43.19,8.17v11.89l-23.47-27.4H400v.25c2.52.43,3.6,1,5.12,3a5.59,5.59,0,0,1,1,3.36v15.47c0,4.28-.14,6.63-.25,8.52l-.05.83c-.23,4.17-.75,5.28-5.13,6v.25H413.6v-.24c-5.23-.78-5.83-1.91-6.08-6.15-.13-2-.18-3.84-.18-9.18V285.06Z" transform="translate(-247.16 -218.45)"/><path class="cls-1" d="M463.23,287.16c-1.24-4.9-4.07-7.85-8.62-7.85-3.54,0-5.55,2.42-5.55,6.2s2.06,5.49,7.14,8.5,9.63,6.21,9.63,12.41c0,6.79-5.73,11.63-13.58,11.63a35.65,35.65,0,0,1-8.92-1.42c-.36-1.12-1.24-8.09-1.3-9l.94-.18c1.3,5.14,4.79,9.27,10.22,9.27,4.08,0,5.85-2.77,5.85-6.73,0-3.72-2.19-6.38-6.38-8.92-5.32-3.25-9.63-6.26-9.63-12.28S447.82,278,455.67,278a59.42,59.42,0,0,1,7.5.77c.24,2.18.59,5.43,1,8.27Z" transform="translate(-247.16 -218.45)"/><path class="cls-1" d="M452.25,318.43a36,36,0,0,1-9-1.43L443,317l-.06-.2c-.37-1.19-1.26-8.21-1.31-9.13l0-.33,1.62-.3.09.34c1.42,5.63,5.11,9,9.85,9s5.47-4,5.47-6.36c0-3.39-1.85-6-6.19-8.6-5.56-3.39-9.81-6.48-9.81-12.6,0-6.59,5.35-11.19,13-11.19a34.51,34.51,0,0,1,5.89.56c.7.11,1.24.19,1.63.21l.32,0,0,.32c.2,1.85.57,5.3,1,8.25l.05.36-1.64.31-.09-.35c-.87-3.45-3-7.57-8.26-7.57-3.24,0-5.18,2.18-5.18,5.83,0,3.44,1.83,5.13,7,8.18s9.81,6.35,9.81,12.73C466.21,313.38,460.34,318.43,452.25,318.43Zm-8.62-2.1a35,35,0,0,0,8.62,1.35c7.65,0,13.21-4.74,13.21-11.26,0-6-4.47-9.13-9.45-12.08-5.17-3.07-7.33-5-7.33-8.83,0-4.06,2.27-6.58,5.93-6.58,4.43,0,7.5,2.7,8.9,7.8l.24-.05c-.38-2.72-.72-5.78-.92-7.61-.37,0-.84-.12-1.39-.2a34.54,34.54,0,0,0-5.77-.55c-7.33,0-12.26,4.2-12.26,10.44,0,5.73,4.09,8.69,9.45,12,4.53,2.75,6.55,5.6,6.55,9.24,0,4.52-2.26,7.11-6.22,7.11-5,0-8.91-3.44-10.49-9.22l-.27,0C442.59,309.54,443.3,314.93,443.63,316.33Z" transform="translate(-247.16 -218.45)"/><path class="cls-1" d="M468.13,278.78h16.72v.94c-4.31.83-4.78,1.18-4.78,6.38v10.81a10.3,10.3,0,0,0,2.77-2,122.48,122.48,0,0,0,11.1-11.52c1.9-2.18,1.66-2.6-1.71-3.42l-1.24-.3v-.94h13.76v.94c-4.49.71-5.78,1.36-8.44,4-3.43,3.42-6.79,6.73-10.22,10.39,4.07,5.55,9,12,13.41,17.25,3.07,3.66,4.19,4.37,7.08,4.84v.95H494.77c-3.48-4.55-9.15-12.11-12.34-16.48-1.3-1.77-1.83-2.48-2.36-2.66v11.81c0,5.2.47,5.5,4.78,6.38v.95H468.13v-.95c4.14-.77,4.73-1.12,4.73-6.38V286.1c0-5.2-.53-5.61-4.73-6.38Z" transform="translate(-247.16 -218.45)"/><path class="cls-1" d="M507,317.54H494.59l-.12-.15c-3.61-4.72-9.27-12.26-12.34-16.48a22.34,22.34,0,0,0-1.69-2.16v11.09c0,5.09.43,5.18,4.48,6l.3.07v1.62H467.76v-1.63l.31-.06c4-.74,4.42-1,4.42-6V286.1c0-5-.44-5.28-4.42-6l-.31-.06V278.4h17.46V280l-.3.06c-4.1.79-4.48,1-4.48,6v10.22a12.59,12.59,0,0,0,2.15-1.64,123.25,123.25,0,0,0,11.07-11.48c.59-.69,1.19-1.44,1.08-1.77s-1.74-.84-2.6-1.05l-1.52-.36V278.4h14.51V280l-.32,0c-4.37.69-5.6,1.28-8.24,3.91l-1.7,1.7c-2.71,2.7-5.51,5.5-8.29,8.46,3.46,4.72,8.51,11.4,13.2,17,3,3.54,4,4.24,6.86,4.71l.32,0Zm-12-.75h11.25v-.25c-2.83-.51-4-1.37-7-4.92-4.79-5.69-9.95-12.53-13.42-17.27l-.19-.25.22-.22c2.86-3.06,5.74-5.93,8.52-8.71l1.7-1.7c2.69-2.68,4.06-3.37,8.34-4.07v-.25h-13v.27l.95.23c1.94.48,2.91.83,3.14,1.55s-.27,1.38-1.23,2.49a124.7,124.7,0,0,1-11.14,11.55,9.73,9.73,0,0,1-2.91,2l-.49.17V286.1c0-5.29.61-5.87,4.78-6.69v-.26h-16v.26c4.06.76,4.73,1.39,4.73,6.69v23.74c0,5.29-.67,5.92-4.73,6.69v.26h16v-.26c-4.23-.89-4.78-1.43-4.78-6.69V297.51l.49.16c.67.23,1.22,1,2.55,2.8C485.77,304.64,491.34,312.07,495,316.79Z" transform="translate(-247.16 -218.45)"/><path class="cls-1" d="M525.78,317.17v-.95c4.07-.88,4.13-1.53,3.07-4.61-.71-1.94-1.71-5-3-8.32H515.09c-1,2.71-2,5.37-2.66,7.5-1.36,3.95-.89,4.49,4.25,5.43v.95H503.87v-.95c3.89-.65,4.66-1.42,6.73-6.67l12.22-31.19,1.6-.23c3.72,10.45,7.56,20.73,11.46,31.06,2.06,5.67,2.66,6.26,6.26,7v.95Zm-5.14-29.06c-1.83,4.9-3.19,8.92-4.84,13.29h9.39Z" transform="translate(-247.16 -218.45)"/><path class="cls-1" d="M542.51,317.54H525.4v-1.62l.3-.06c2-.45,2.94-.82,3.23-1.33s.08-1.3-.43-2.79c-.27-.73-.58-1.62-.92-2.62-.57-1.64-1.21-3.49-1.94-5.46H515.35c-1,2.71-1.9,5.27-2.56,7.25-.57,1.66-.83,2.74-.47,3.36s1.83,1.1,4.43,1.58l.31.06v1.63H503.49V315.9l.31,0c3.76-.63,4.42-1.29,6.45-6.44L522.56,278l2.11-.31.1.29c3.79,10.65,7.75,21.22,11.46,31.06,2.06,5.65,2.61,6.07,6,6.79l.29.07Zm-16.36-.75h15.61v-.27c-3.52-.78-4.21-1.64-6.23-7.2-3.68-9.75-7.6-20.22-11.36-30.78l-1.08.16-12.14,31c-2.07,5.25-2.93,6.19-6.71,6.86v.25h12.07v-.26c-2.74-.51-4.07-.93-4.63-1.88s-.26-2.08.4-4c.69-2.07,1.61-4.67,2.66-7.51l.09-.25h11.33l.09.25c.77,2.07,1.44,4,2,5.71.35,1,.66,1.89.92,2.62.53,1.53.84,2.59.38,3.4s-1.56,1.21-3.43,1.63Zm-.44-15H515.25l.2-.51c.85-2.26,1.62-4.41,2.44-6.69.75-2.08,1.52-4.24,2.4-6.59l.37-1Zm-9.37-.75h8.32l-4-11.8c-.74,2-1.39,3.82-2,5.6C517.84,296.93,517.12,298.93,516.34,301Z" transform="translate(-247.16 -218.45)"/><path class="cls-1" d="M561.92,295.79c6.38,1,11.28,4.13,11.28,9.86a10,10,0,0,1-5.25,9c-3.07,1.77-7.38,2.48-11.87,2.48H541.72v-.95c4.2-.77,4.73-1.24,4.73-6.32V285.8c0-5.13-.59-5.25-4.73-6.08v-.94h16.54c4.9,0,7.44.7,9.57,2.12a7.27,7.27,0,0,1,3.25,6.26C571.08,292.54,566.12,294.9,561.92,295.79Zm-5.67-.24c5.32,0,7.27-2.24,7.27-7.15,0-6.14-3.13-8.21-6.56-8.21a4.58,4.58,0,0,0-2.6.54c-.53.41-.59,1.29-.59,2.89v11.93Zm-2.48,14.71c0,4.07,1.6,5.43,4.91,5.43,3.66,0,6.37-3.25,6.37-9.57,0-5.9-2.3-9.15-8.91-9.15h-2.37Z" transform="translate(-247.16 -218.45)"/><path class="cls-1" d="M556.08,317.54H541.35v-1.63l.31-.06c4-.73,4.42-1,4.42-6V285.8c0-4.83-.34-4.89-4.43-5.71l-.3-.06V278.4h16.91c4.67,0,7.42.61,9.78,2.19a7.64,7.64,0,0,1,3.41,6.57c0,5.21-4.33,7.54-7.8,8.57,6.34,1.44,9.93,5,9.93,9.92a10.34,10.34,0,0,1-5.44,9.36C565.27,316.67,561.1,317.54,556.08,317.54Zm-14-.75h14c4.89,0,8.93-.84,11.68-2.43a9.63,9.63,0,0,0,5.07-8.71c0-4.94-4-8.4-11-9.49l-2-.32,2-.42c3.3-.7,8.85-2.7,8.85-8.26a6.91,6.91,0,0,0-3.08-6c-2.22-1.48-4.85-2.06-9.36-2.06H542.1v.26c4,.82,4.73,1.22,4.73,6.39v24.1c0,5-.54,5.83-4.73,6.63Zm16.58-.73c-3.7,0-5.28-1.73-5.28-5.8V296.59h2.74c6.42,0,9.29,2.94,9.29,9.53C565.43,312.25,562.84,316.06,558.68,316.06Zm-4.53-18.72v12.92c0,3.68,1.23,5.05,4.53,5.05,3.7,0,6-3.52,6-9.19,0-6.15-2.56-8.78-8.54-8.78Zm2.1-1.42H553.4v-12.3c0-1.63.05-2.66.73-3.19a4.62,4.62,0,0,1,2.83-.61c2.09,0,6.93.83,6.93,8.58C563.89,293.68,561.61,295.92,556.25,295.92Zm-2.1-.75h2.1c5,0,6.89-1.89,6.89-6.77,0-6.81-3.87-7.83-6.18-7.83a4.24,4.24,0,0,0-2.35.44c-.4.31-.46,1.08-.46,2.61Z" transform="translate(-247.16 -218.45)"/><rect class="cls-1" y="53.84" width="353.67" height="1.41"/><rect class="cls-1" x="0.05" y="106.57" width="353.67" height="1.41"/><path class="cls-1" d="M354.1,342.25h-1.58v2.1h-.7v-6.23h2.28a2,2,0,0,1,1.5.5,2,2,0,0,1,.49,1.51C356.09,341.54,355.43,342.25,354.1,342.25Zm-1.58-.61h1.57c.86,0,1.29-.5,1.29-1.51a1.53,1.53,0,0,0-.31-1.06,1.28,1.28,0,0,0-1-.34h-1.57Z" transform="translate(-247.16 -218.45)"/><path class="cls-1" d="M357,344.35v-4.5h.67v.61a4.29,4.29,0,0,1,1.65-.71v.68a6.21,6.21,0,0,0-1.42.5l-.22.12v3.3Z" transform="translate(-247.16 -218.45)"/><path class="cls-1" d="M365.9,343.76h.26l0,.55a14.17,14.17,0,0,1-1.83.14,1.56,1.56,0,0,1-1.24-.49l-.29.13a4.09,4.09,0,0,1-1.73.36,1.14,1.14,0,0,1-.91-.36,1.5,1.5,0,0,1-.31-1,1.11,1.11,0,0,1,.37-1,2.58,2.58,0,0,1,1.26-.37l1.16-.1v-.37c0-.55-.26-.82-.78-.82s-.88,0-1.43.07l-.28,0,0-.61a14.54,14.54,0,0,1,1.77-.13,1.2,1.2,0,0,1,1.22.66,1.52,1.52,0,0,1,1.37-.66,1.75,1.75,0,0,1,1.39.51,2.37,2.37,0,0,1,.45,1.6l0,.52h-3a1.8,1.8,0,0,0,.27,1.09,1,1,0,0,0,.82.35C364.8,343.83,365.29,343.81,365.9,343.76Zm-4.7.09a3.91,3.91,0,0,0,.95-.13,3.14,3.14,0,0,0,.66-.2,4.26,4.26,0,0,1-.17-1.38l-1.31.11a.89.89,0,0,0-.58.23.73.73,0,0,0-.19.56C360.56,343.58,360.78,343.85,361.2,343.85Zm2.14-2h2.33a1.83,1.83,0,0,0-.27-1.14,1,1,0,0,0-.86-.34,1.13,1.13,0,0,0-.9.35A1.74,1.74,0,0,0,363.34,341.84Z" transform="translate(-247.16 -218.45)"/><path class="cls-1" d="M368.81,340.36c-.66,0-1,.23-1,.69a.45.45,0,0,0,.22.44,3.57,3.57,0,0,0,1,.27,3,3,0,0,1,1.13.39,1.15,1.15,0,0,1,.33,1,1.18,1.18,0,0,1-.44,1,2.25,2.25,0,0,1-1.3.32,7.69,7.69,0,0,1-1.32-.13l-.27,0,0-.59a10.44,10.44,0,0,0,1.55.16,1.52,1.52,0,0,0,.79-.17.59.59,0,0,0,.28-.56.57.57,0,0,0-.23-.53,3.54,3.54,0,0,0-1-.26,2.9,2.9,0,0,1-1.13-.37,1.07,1.07,0,0,1-.33-.9,1.14,1.14,0,0,1,.46-1,2,2,0,0,1,1.16-.31,8.73,8.73,0,0,1,1.38.13l.25,0,0,.58A11.17,11.17,0,0,0,368.81,340.36Z" transform="translate(-247.16 -218.45)"/><path class="cls-1" d="M374.64,343.79l.26,0,0,.54a14,14,0,0,1-1.76.14,1.59,1.59,0,0,1-1.37-.56,3,3,0,0,1-.41-1.75c0-1.58.63-2.37,1.88-2.37a1.71,1.71,0,0,1,1.36.51,2.37,2.37,0,0,1,.45,1.6l0,.51h-3a1.93,1.93,0,0,0,.27,1.11,1.13,1.13,0,0,0,.95.36C373.72,343.85,374.18,343.83,374.64,343.79Zm-.24-2a1.94,1.94,0,0,0-.27-1.17,1,1,0,0,0-.86-.34,1.1,1.1,0,0,0-.9.36,1.78,1.78,0,0,0-.31,1.15Z" transform="translate(-247.16 -218.45)"/><path class="cls-1" d="M376.8,344.35h-.68v-4.5h.67v.32a2.79,2.79,0,0,1,1.4-.41,1.32,1.32,0,0,1,1.21.49,3.49,3.49,0,0,1,.31,1.72v2.38H379V342a3.1,3.1,0,0,0-.18-1.28.83.83,0,0,0-.79-.35,2.25,2.25,0,0,0-.61.09,2.8,2.8,0,0,0-.49.16l-.17.09Z" transform="translate(-247.16 -218.45)"/><path class="cls-1" d="M383.26,340.43h-1.43v2.16a3,3,0,0,0,.11,1,.55.55,0,0,0,.54.25l.8-.06,0,.56a5.58,5.58,0,0,1-.91.1,1.22,1.22,0,0,1-1-.34,2.26,2.26,0,0,1-.27-1.31v-2.37h-.63v-.58h.63v-1.38h.67v1.38h1.43Z" transform="translate(-247.16 -218.45)"/><path class="cls-1" d="M387.15,343.79l.26,0,0,.54a14,14,0,0,1-1.76.14,1.58,1.58,0,0,1-1.37-.56,3,3,0,0,1-.41-1.75c0-1.58.63-2.37,1.88-2.37a1.71,1.71,0,0,1,1.36.51,2.37,2.37,0,0,1,.45,1.6l0,.51h-3a1.93,1.93,0,0,0,.27,1.11,1.12,1.12,0,0,0,1,.36C386.23,343.85,386.69,343.83,387.15,343.79Zm-.24-2a1.94,1.94,0,0,0-.27-1.17,1,1,0,0,0-.86-.34,1.1,1.1,0,0,0-.9.36,1.78,1.78,0,0,0-.31,1.15Z" transform="translate(-247.16 -218.45)"/><path class="cls-1" d="M388.63,344.35v-4.5h.67v.61a4.29,4.29,0,0,1,1.65-.71v.68a5,5,0,0,0-.79.23,5.34,5.34,0,0,0-.63.27l-.22.12v3.3Z" transform="translate(-247.16 -218.45)"/><path class="cls-1" d="M394.72,343.79l.26,0,0,.54a14,14,0,0,1-1.76.14,1.6,1.6,0,0,1-1.38-.56,3,3,0,0,1-.4-1.75c0-1.58.63-2.37,1.88-2.37a1.71,1.71,0,0,1,1.36.51,2.37,2.37,0,0,1,.45,1.6l0,.51h-3a1.85,1.85,0,0,0,.27,1.11,1.11,1.11,0,0,0,.94.36C393.8,343.85,394.26,343.83,394.72,343.79Zm-.25-2a1.94,1.94,0,0,0-.26-1.17,1,1,0,0,0-.86-.34,1.1,1.1,0,0,0-.9.36,1.77,1.77,0,0,0-.32,1.15Z" transform="translate(-247.16 -218.45)"/><path class="cls-1" d="M401.24,343.79l.26,0,0,.54a13.83,13.83,0,0,1-1.75.14,1.6,1.6,0,0,1-1.38-.56,3,3,0,0,1-.41-1.75q0-2.37,1.89-2.37a1.71,1.71,0,0,1,1.35.51,2.37,2.37,0,0,1,.45,1.6l0,.51h-3a1.85,1.85,0,0,0,.27,1.11,1.1,1.1,0,0,0,.94.36C400.33,343.85,400.78,343.83,401.24,343.79Zm-.24-2a1.94,1.94,0,0,0-.27-1.17,1,1,0,0,0-.86-.34,1.1,1.1,0,0,0-.9.36,1.84,1.84,0,0,0-.31,1.15Z" transform="translate(-247.16 -218.45)"/><path class="cls-1" d="M403.4,344.35h-.67v-4.5h.66v.32a2.48,2.48,0,0,1,1.32-.41,1.34,1.34,0,0,1,1.17.46,3.13,3.13,0,0,1,.77-.32,3.06,3.06,0,0,1,.83-.14,1.34,1.34,0,0,1,1.21.48A3.39,3.39,0,0,1,409,342v2.38h-.67V342a3.1,3.1,0,0,0-.18-1.28.79.79,0,0,0-.77-.35,2.2,2.2,0,0,0-.61.09,3.13,3.13,0,0,0-.49.16l-.17.09a4.32,4.32,0,0,1,.12,1.31v2.34h-.68V342a3.28,3.28,0,0,0-.17-1.32.79.79,0,0,0-.77-.35,2.06,2.06,0,0,0-.59.09,2.36,2.36,0,0,0-.46.16l-.16.09Z" transform="translate(-247.16 -218.45)"/><path class="cls-1" d="M410.93,344.35h-.68v-4.5h.67v.32a2.76,2.76,0,0,1,1.39-.41,1.31,1.31,0,0,1,1.21.49,3.38,3.38,0,0,1,.31,1.72v2.38h-.66V342a2.91,2.91,0,0,0-.19-1.28.8.8,0,0,0-.78-.35,2.2,2.2,0,0,0-.61.09,2.8,2.8,0,0,0-.49.16l-.17.09Z" transform="translate(-247.16 -218.45)"/><path class="cls-1" d="M418.14,343.79l.27,0v.54a13.83,13.83,0,0,1-1.75.14,1.6,1.6,0,0,1-1.38-.56,3,3,0,0,1-.4-1.75c0-1.58.62-2.37,1.88-2.37a1.73,1.73,0,0,1,1.36.51,2.37,2.37,0,0,1,.45,1.6l0,.51h-3a1.85,1.85,0,0,0,.27,1.11,1.1,1.1,0,0,0,.94.36C417.23,343.85,417.68,343.83,418.14,343.79Zm-.24-2a2,2,0,0,0-.26-1.17,1,1,0,0,0-.87-.34,1.1,1.1,0,0,0-.9.36,1.84,1.84,0,0,0-.31,1.15Z" transform="translate(-247.16 -218.45)"/><path class="cls-1" d="M421.93,340.43H420.5v2.16a2.7,2.7,0,0,0,.12,1c.07.16.25.25.53.25l.8-.06.05.56a5.79,5.79,0,0,1-.92.1,1.19,1.19,0,0,1-1-.34,2.26,2.26,0,0,1-.27-1.31v-2.37h-.64v-.58h.64v-1.38h.66v1.38h1.43Z" transform="translate(-247.16 -218.45)"/><path class="cls-1" d="M422.72,341.45v-1h.73v1Zm0,2.9v-1h.73v1Z" transform="translate(-247.16 -218.45)"/><path class="cls-1" d="M429,340.9v3.45h-1v-9h3.33a3,3,0,0,1,2.15.67,2.67,2.67,0,0,1,.72,2.06,2.43,2.43,0,0,1-1.65,2.62l1.73,3.65h-1.1l-1.63-3.45Zm2.34-.88a1.89,1.89,0,0,0,0-3.78H429V340Z" transform="translate(-247.16 -218.45)"/><path class="cls-1" d="M437,341.65q0,2,2.1,2a2.52,2.52,0,0,0,1.65-.47,1.84,1.84,0,0,0,.55-1.48v-6.3h1v6.27a2.7,2.7,0,0,1-.8,2.18,3.59,3.59,0,0,1-2.36.68,3.54,3.54,0,0,1-2.35-.68,2.73,2.73,0,0,1-.79-2.18v-6.27h1Z" transform="translate(-247.16 -218.45)"/><path class="cls-1" d="M444.41,344.35v-9h1.81l2.55,7.61,2.54-7.61h1.81v9h-1v-7.93h-.18l-2.61,7.6h-1.12l-2.62-7.6h-.18v7.93Z" transform="translate(-247.16 -218.45)"/><path class="cls-1" d="M454.54,344.35l2.47-9h2.18l2.47,9h-1L460,342h-3.84l-.65,2.31Zm3.22-8.14-1.36,4.93h3.4l-1.36-4.93Z" transform="translate(-247.16 -218.45)"/><path class="cls-1" d="M463.08,344.35v-9h5.38v.89h-4.38v3.51h3.71v.88h-3.71v3.72Z" transform="translate(-247.16 -218.45)"/><path class="cls-1" d="M469.92,344.35v-9h5.38v.89h-4.38v3.51h3.7v.88h-3.7v3.72Z" transform="translate(-247.16 -218.45)"/><path class="cls-1" d="M475.52,344.35l2.47-9h2.18l2.47,9h-1L481,342h-3.85l-.65,2.31Zm3.22-8.14-1.36,4.93h3.41l-1.37-4.93Z" transform="translate(-247.16 -218.45)"/><path class="cls-1" d="M489,344.35h-4.95v-9h1v8.1H489Z" transform="translate(-247.16 -218.45)"/><path class="cls-1" d="M493.5,344.35h-3.21v-9h3.21a2.83,2.83,0,0,1,2.91,1.75,6.83,6.83,0,0,1,.42,2.62c0,2.26-.57,3.69-1.69,4.28A3.58,3.58,0,0,1,493.5,344.35Zm2.3-4.63c0-1.72-.39-2.8-1.16-3.22a2.24,2.24,0,0,0-1.14-.26h-2.21v7.23h2.21Q495.79,343.47,495.8,339.72Z" transform="translate(-247.16 -218.45)"/><path class="cls-2" d="M461.93,237.93a13.07,13.07,0,0,1-2.87,2.67,14.7,14.7,0,0,1-5.52,2.27l-.37-1.75a12.67,12.67,0,0,0,4.82-2,11.18,11.18,0,0,0,4.14-5.2,11.68,11.68,0,0,0,.72-5l1.84-.12a13.33,13.33,0,0,1-.83,5.74A12.79,12.79,0,0,1,461.93,237.93Z" transform="translate(-247.16 -218.45)"/><path class="cls-2" d="M466.33,241.18a9.56,9.56,0,0,1-2.54,2.24,12.19,12.19,0,0,1-5.09,1.65l-.2-1.77a10.3,10.3,0,0,0,4.3-1.39,7.65,7.65,0,0,0,3.35-4.22,9.21,9.21,0,0,0,.26-4.37l1.83-.28a10.87,10.87,0,0,1-.33,5.17A9.1,9.1,0,0,1,466.33,241.18Z" transform="translate(-247.16 -218.45)"/><path class="cls-2" d="M469.56,243.57a8.14,8.14,0,0,1-2.16,1.89,10.25,10.25,0,0,1-4.3,1.39l-.18-1.5a8.64,8.64,0,0,0,3.65-1.17,6.45,6.45,0,0,0,2.83-3.57,7.85,7.85,0,0,0,.23-3.7l1.54-.23a9.36,9.36,0,0,1-.27,4.37A8,8,0,0,1,469.56,243.57Z" transform="translate(-247.16 -218.45)"/><line class="cls-2" x1="207" y1="13.73" x2="226.8" y2="28.36"/><polygon class="cls-2" points="227.27 27.77 226.34 28.95 206.54 14.32 207.47 13.14 227.27 27.77"/><path class="cls-2" d="M484.5,245c-2.17.27-6.22.75-7.94.86-.64,0-2,.06-3.16.07a.51.51,0,0,0-.42.21.44.44,0,0,0-.09.44c.28,1.05.62,2.35.75,3,.33,1.62.91,5.52,1.2,7.61.08.55.24.85.68.59a8.54,8.54,0,0,0,2.27-2.86c.49-.85.38-3.81.45-4.87,1-.34,4-1,4.75-1.68a8.42,8.42,0,0,0,2.27-2.87C485.41,245,485.07,244.88,484.5,245Z" transform="translate(-247.16 -218.45)"/><path class="cls-2" d="M477.09,257a4.74,4.74,0,0,1-1.25,1.17,1,1,0,0,1-1,.1,1.36,1.36,0,0,1-.64-1.12c-.3-2.14-.86-6-1.2-7.58-.1-.48-.35-1.49-.74-2.93a1,1,0,0,1,.2-1,1.08,1.08,0,0,1,.91-.44c1.53,0,2.62,0,3.12-.07,1.69-.11,5.68-.59,7.9-.86h0a1.47,1.47,0,0,1,1.28.3.9.9,0,0,1,.15.93,8.36,8.36,0,0,1-2.31,3l-.12.11a11.3,11.3,0,0,1-3.93,1.52l-.65.18c0,.2,0,.42,0,.66a10.3,10.3,0,0,1-.49,4.06l-.08.14A14.42,14.42,0,0,1,477.09,257Zm-1.64,0a9.25,9.25,0,0,0,1.72-2.33l.08-.14a12,12,0,0,0,.34-3.5c0-.45,0-.84,0-1.11l0-.4.39-.13,1.11-.32a13.59,13.59,0,0,0,3.41-1.23l.12-.11a9.22,9.22,0,0,0,1.88-2.21c-2.24.28-6.24.75-8,.86-.52,0-1.56.06-3.09.08.38,1.43.63,2.4.73,2.9C474.58,251,475.14,254.86,475.45,257Z" transform="translate(-247.16 -218.45)"/><path class="cls-3" d="M256.46,298.2a4.59,4.59,0,0,1,2.9-.35c2.84.66,3.58,4.18,3.61,4.37a6.42,6.42,0,0,1-.33,3.48,9,9,0,0,0,4.16-1.43,9.75,9.75,0,0,0,4-5.52,4.7,4.7,0,0,1-2.9.36,5.08,5.08,0,0,1-3.21-2.59,5,5,0,0,1-.81-3.57,4.41,4.41,0,0,1,.74-1.69,9.12,9.12,0,0,0-4.16,1.42A9.81,9.81,0,0,0,256.46,298.2Z" transform="translate(-247.16 -218.45)"/><path class="cls-4" d="M260.36,292.68a9.84,9.84,0,0,0-4,5.53,4.56,4.56,0,0,1,2.91-.36c2.84.66,3.57,4.18,3.61,4.37a6.52,6.52,0,0,1-.33,3.48,9.13,9.13,0,0,0,4.15-1.42" transform="translate(-247.16 -218.45)"/><path class="cls-5" d="M260.21,295a1.41,1.41,0,0,1,.11-1.16,1.09,1.09,0,0,1,.62-.53c.74-.2,1.66.71,1.66.71a6.69,6.69,0,0,1,.74-1.69,3.22,3.22,0,0,1,1.25-1.07,3.25,3.25,0,0,0-1.66-.72,4,4,0,0,0-3.64,2,3.52,3.52,0,0,0-2.39,1,4,4,0,0,0-.44,4.63,2.87,2.87,0,0,1,.62-.53,2.39,2.39,0,0,1,1.38-.44h.39a1.3,1.3,0,0,1-.41-1.79A1.45,1.45,0,0,1,260.21,295Z" transform="translate(-247.16 -218.45)"/><path class="cls-5" d="M266.29,302.36a1.21,1.21,0,0,0,1,0,1.33,1.33,0,0,0,.62-.54c.36-.64-.19-1.53-.19-1.53a7.08,7.08,0,0,0,1.66-.57,3.45,3.45,0,0,0,1.35-.94,2.23,2.23,0,0,1,.1,1.41,4.86,4.86,0,0,1-2.72,3.17,4.24,4.24,0,0,1-1.47,2.1,3.43,3.43,0,0,1-4,.27,3.85,3.85,0,0,0,.63-.54,3.56,3.56,0,0,0,.63-1.34,3.44,3.44,0,0,1,.1-.35.85.85,0,0,0,.41.5,1.19,1.19,0,0,0,1,0A1.62,1.62,0,0,0,266.29,302.36Z" transform="translate(-247.16 -218.45)"/><path class="cls-6" d="M262.51,298.55a.91.91,0,0,0,.14.51c.24.46.36.69.47.67s.15-.22.18-.33a1.15,1.15,0,0,0-.29-1c-.08-.08-.2-.21-.32-.18S262.51,298.52,262.51,298.55Z" transform="translate(-247.16 -218.45)"/><path class="cls-7" d="M263.88,297.38a.89.89,0,0,1,.46.23c.41.32.62.48.58.59s-.25.11-.35.12a1.17,1.17,0,0,1-.93-.46c-.06-.09-.17-.24-.11-.36S263.85,297.38,263.88,297.38Z" transform="translate(-247.16 -218.45)"/><path class="cls-8" d="M360,273.68c-.55-.25-2.35,2.18-4.71,2.87-1.9.55-5.43-.38-5.62.11a.73.73,0,0,0,.12.85c.93.8,3.77.85,4.65.78,3.28-.27,2,.76,3.15,0C359.63,276.89,360.48,273.93,360,273.68Z" transform="translate(-247.16 -218.45)"/><path class="cls-9" d="M365.07,269.66c-.41-.12-.76-.19-2.16.5a5.92,5.92,0,0,0-2.2,2.16c-2.39,3.26-2.81,4-4.6,5.14-1.11.69-3.5-.45-5.38-.5-.69,0-1.68.11-3.71,0-1.83-.08-2.65-.22-3.13.26s.24.86.31.88a13.39,13.39,0,0,0,4.78,1.17c1.26.14,3.24,1.48,7.2,2.77,1.56.51,3-1.68,5.38-3.92,3.8-3.58,5.78-5.49,5.43-6.95C366.73,270.14,365.35,269.74,365.07,269.66Z" transform="translate(-247.16 -218.45)"/><path class="cls-10" d="M365.65,270.65a1.45,1.45,0,0,1,.37-1.75,3.41,3.41,0,0,1,2-.61l-1-.89a3.56,3.56,0,0,0-1.65,1.24,2.35,2.35,0,0,0-.37,1.75Z" transform="translate(-247.16 -218.45)"/><path class="cls-11" d="M366.18,270.17c1.19.05,1.25,2,1.25,2.18,0,.42,0,1.15-1.58,4.48a31.23,31.23,0,0,0-1.68,3.6,7.42,7.42,0,0,0-.08,4.22c.41,1.33.69,1.21,1.88,3.27.73,1.28.65,2,.27,2.66a.84.84,0,0,1-1.22.24c-1.74-.59-4.11-3-4.63-3.68-1-1.27-2.8-2.52-2.27-5.64a17.39,17.39,0,0,1,3.36-7.2C362.24,273.28,364.63,270.09,366.18,270.17Z" transform="translate(-247.16 -218.45)"/><g class="cls-12"><path class="cls-13" d="M568.08,231.05a34.39,34.39,0,1,0,34.39,34.39A34.39,34.39,0,0,0,568.08,231.05Zm.26,53.92A19.7,19.7,0,1,1,588,265.28,19.69,19.69,0,0,1,568.34,285Z" transform="translate(-247.16 -218.45)"/></g><g class="cls-12"><circle class="cls-13" cx="320.92" cy="46.86" r="26.29"/></g><path class="cls-14" d="M588.23,265.28c0,.19,0,.39,0,.58v.06a19.29,19.29,0,0,1-1.66,7.28,19.55,19.55,0,0,1-.92,1.83,20,20,0,0,1-1.91,2.74,17.69,17.69,0,0,1-1.89,2A19.74,19.74,0,0,1,568.62,285h-.5A19.8,19.8,0,0,1,549,269.25a19.23,19.23,0,0,1-.41-4v-.1a19.79,19.79,0,0,1,.41-3.88c0-.06,0-.13,0-.19.06-.27.12-.54.19-.81,0-.06,0-.13,0-.19a19.66,19.66,0,0,1,1.32-3.48l.1-.2a19.86,19.86,0,0,1,17.73-10.85h.18a19.86,19.86,0,0,1,11.5,3.78l.26.19a19.87,19.87,0,0,1,3.83,3.78l.15.2a19.66,19.66,0,0,1,1.5,2.33,2,2,0,0,1,.11.2c.18.33.34.66.5,1a.77.77,0,0,1,.07.16A19.36,19.36,0,0,1,588.23,265.28Z" transform="translate(-247.16 -218.45)"/><path class="cls-15" d="M561.72,264.47v1.23a3.36,3.36,0,0,1-3.36,3.36H549a19.47,19.47,0,0,1,0-7.95h9.45a3.08,3.08,0,0,1,.68.08A3.35,3.35,0,0,1,561.72,264.47Z" transform="translate(-247.16 -218.45)"/><path class="cls-15" d="M586.24,257l-.08,0h0a3.34,3.34,0,0,1-1.27.25H569.48a3.37,3.37,0,0,1-3.36-3.36v-1.23a3.36,3.36,0,0,1,3.36-3.36h10.64a19.81,19.81,0,0,1,4,4,20.74,20.74,0,0,1,1.6,2.53C585.87,256.24,586.06,256.63,586.24,257Z" transform="translate(-247.16 -218.45)"/><rect class="cls-15" x="324.8" y="39.58" width="13.14" height="4.95" rx="2.48"/><path class="cls-15" d="M585.45,274.89a19.65,19.65,0,0,1-6.89,7.17H567.89a3.35,3.35,0,0,1-3.36-3.36v-1.23a3.37,3.37,0,0,1,2.42-3.23l.27-.06h0a3.49,3.49,0,0,1,.65-.06h15.4a3.39,3.39,0,0,1,2.09.72Z" transform="translate(-247.16 -218.45)"/><rect class="cls-15" x="316.89" y="50.07" width="13.14" height="4.95" rx="2.48"/><rect class="cls-15" x="306.87" y="36.71" width="9.39" height="4.3" rx="2.15"/><path class="cls-15" d="M555.56,258.93a1.41,1.41,0,0,1,.72,1.44c-.08.31-.52.93-.91.88l.26.2,0-.05,0,.34v-.05c.12-.33-.32-.7-.61-.48l0,0a.45.45,0,0,0-.2.5v.05a.46.46,0,0,0,.43.33c.88.12,1.69-.8,1.83-1.59a1.84,1.84,0,0,0-1.31-2.1.28.28,0,0,0-.21.5Z" transform="translate(-247.16 -218.45)"/><path class="cls-15" d="M559.82,258.73c-.73-.05-1.21.93-1.27,1.54a2.16,2.16,0,0,0,1,2.07c.46.28.82-.4.41-.7a1.47,1.47,0,0,1-.61-1.53c.11-.45.48-.71.63-1.12a.2.2,0,0,0-.2-.26Z" transform="translate(-247.16 -218.45)"/><path class="cls-15" d="M558.6,259.13a5.91,5.91,0,0,0-.56,2c0,.42.68.53.74.1a8.84,8.84,0,0,0,0-2.12c0-.41-.65-.56-.76-.1a10.77,10.77,0,0,0-.27,2.4.39.39,0,0,0,.77,0,13.78,13.78,0,0,0,0-2,.39.39,0,0,0-.76-.1,15.13,15.13,0,0,0-.3,1.52l.76.1a12.21,12.21,0,0,0,0-1.71c0-.4-.69-.57-.77-.1l-.32,2,.78.11-.09-1.74a.4.4,0,0,0-.79-.1l-.46,1.87.79.22a6.78,6.78,0,0,0,.16-2,.42.42,0,0,0-.81-.11c-.08.36-.15.71-.2,1.08a.41.41,0,1,0,.81.11c0-.33.11-.65.18-1l-.8-.11a5.66,5.66,0,0,1-.13,1.79c-.11.51.66.73.79.22l.44-1.88-.78-.11.09,1.74c0,.42.71.57.78.11l.32-2.06-.77-.11a14,14,0,0,1,.05,1.71c0,.43.7.54.76.1a13,13,0,0,1,.3-1.51l-.76-.11a13.78,13.78,0,0,1,0,2h.77a9.64,9.64,0,0,1,.25-2.2l-.76-.1a12.39,12.39,0,0,1,0,2h.75a5.48,5.48,0,0,1,.39-1.86c.12-.37-.44-.5-.58-.15Z" transform="translate(-247.16 -218.45)"/><path class="cls-15" d="M582.38,256.4c-1,.61-1.1,2.56.29,2.77a.44.44,0,0,0,.23-.84c-.79-.23-.37-1-.07-1.48.19-.28-.18-.61-.45-.45Z" transform="translate(-247.16 -218.45)"/><path class="cls-15" d="M578.56,256.82c-.11.29.23.59.28.88a.79.79,0,0,1-.47.84c-.54.25,0,1.15.47.8a1.61,1.61,0,0,0,.22-2.68.36.36,0,0,0-.36,0,.32.32,0,0,0-.14.16Z" transform="translate(-247.16 -218.45)"/><path class="cls-15" d="M579.85,256.71a1.67,1.67,0,0,0-.73,1.06c-.08.33.36.65.61.36s.41-.53.61-.8l-.68-.28a4.1,4.1,0,0,0-.14.92c0,.36.41.46.65.27a2.72,2.72,0,0,0,.67-.8l-.72-.19c0,.32-.18.64.22.83s.71-.28.94-.55l-.66-.38a5.11,5.11,0,0,1-.2.86.39.39,0,0,0,.66.38,9,9,0,0,0,.7-.81l-.68-.39-.22.81a.42.42,0,0,0,.61.47,1.71,1.71,0,0,0,.6-.68c.22-.47-.46-.89-.7-.42a1.1,1.1,0,0,1-.32.39l.6.46.21-.81a.41.41,0,0,0-.74-.32,8.67,8.67,0,0,1-.62.74l.66.39a4.67,4.67,0,0,0,.21-1c.05-.33-.46-.53-.67-.28a2,2,0,0,1-.38.44h.39l-.07,0,.18.23a2.45,2.45,0,0,1,0-.35.38.38,0,0,0-.71-.2,2.29,2.29,0,0,1-.55.65l.65.27a3.47,3.47,0,0,1,.1-.72.38.38,0,0,0-.69-.29l-.54.73.68.18a2,2,0,0,1,.31-.88.21.21,0,0,0-.29-.28Z" transform="translate(-247.16 -218.45)"/><path class="cls-15" d="M565.73,273c.29.32.74.64.72,1.11s-.71,1-1,1.3.22,1,.6.6,1.49-1.23,1.34-2.06c-.12-.61-.77-1.46-1.43-1.45a.29.29,0,0,0-.21.5Z" transform="translate(-247.16 -218.45)"/><path class="cls-15" d="M570.69,272.55c-.61,0-1.18.74-1.31,1.29a1.53,1.53,0,0,0,.87,1.58c.48.31.93-.46.45-.77a1.82,1.82,0,0,1-.8-.95c-.14-.7-1.35-.21-.81.47a5.3,5.3,0,0,0,1.16,1.25l.45-.77c-.35-.24-.58-.49-.37-.9s.48-.54.6-.88a.25.25,0,0,0-.24-.32Z" transform="translate(-247.16 -218.45)"/><path class="cls-15" d="M569.35,272.56a5.93,5.93,0,0,0-.54,1.53.38.38,0,0,0,.73.21,3.8,3.8,0,0,0,.14-1.16.4.4,0,0,0-.78-.11,4.57,4.57,0,0,1-.4.87l.72.3a4.2,4.2,0,0,0,.06-1.12c0-.36-.55-.58-.74-.2a6.53,6.53,0,0,1-.7,1.09l.66.39a1.78,1.78,0,0,0,0-1.07.41.41,0,0,0-.74-.09l-.38.62.74.31a1.84,1.84,0,0,0-.06-1,.41.41,0,0,0-.79,0,3.56,3.56,0,0,1-.37.82l.75.1,0-.24c0-.63-1-.48-.84.12a1.3,1.3,0,0,1,.08.34.42.42,0,0,0,.75.09,4.58,4.58,0,0,0,.45-1h-.79a.93.93,0,0,1,.07.52.41.41,0,0,0,.74.32l.38-.63-.74-.09a1,1,0,0,1,0,.63c-.09.36.41.72.67.39a6.42,6.42,0,0,0,.82-1.25l-.74-.2a3.46,3.46,0,0,1,0,.91c-.07.42.48.72.72.31a5.94,5.94,0,0,0,.48-1.06l-.77-.1a3.82,3.82,0,0,1-.08.95l.74.1a4.9,4.9,0,0,1,.36-1.4c.13-.32-.4-.54-.56-.23Z" transform="translate(-247.16 -218.45)"/><path class="cls-15" d="M585,256.63a1.64,1.64,0,0,0-1.83,1,1.7,1.7,0,0,0,.35,1.88c.38.39,1-.2.59-.59a1,1,0,0,1-.13-1.08c.24-.44.8-.43,1.13-.74a.26.26,0,0,0-.11-.43Z" transform="translate(-247.16 -218.45)"/><path class="cls-15" d="M583.37,257a2.54,2.54,0,0,0-.75,1.22c-.16.44.46.62.7.3a2.28,2.28,0,0,0,.41-1.34.4.4,0,0,0-.59-.34,2.69,2.69,0,0,0-.94,1.12.41.41,0,0,0,.1.52.39.39,0,0,0,.53,0,1.63,1.63,0,0,0,.42-1.14.42.42,0,0,0-.62-.35,1.73,1.73,0,0,0-.77.79.43.43,0,0,0,.15.57.41.41,0,0,0,.57-.15,1,1,0,0,1,.46-.5l-.61-.36a.78.78,0,0,1-.17.57l.67.39a1.91,1.91,0,0,1,.6-.75l-.59-.34a1.52,1.52,0,0,1-.28,1l.7.3a2.46,2.46,0,0,1,.16-.59c.07-.18.19-.35.24-.53s-.2-.45-.39-.31Z" transform="translate(-247.16 -218.45)"/><path class="cls-15" d="M578.52,258.37a.77.77,0,0,0-.33-.12c-.3,0-.3.39-.07.49s.79-.16,1-.39a2.74,2.74,0,0,0,.62-1.18c.16-.51-.61-.7-.78-.22a3.89,3.89,0,0,1-.37.89,1.2,1.2,0,0,1-.24.26c-.12.09-.25.12-.36.22l.39.3.1-.07a.1.1,0,0,0,0-.18Z" transform="translate(-247.16 -218.45)"/><path class="cls-15" d="M579,256.57l-.07-.09c-.2-.26-.61.13-.37.38s.48.38.7.59a1.38,1.38,0,0,1,.43.7c.12.5.82.27.75-.2a1.64,1.64,0,0,0-.59-1,2.8,2.8,0,0,0-1-.56l.16.4,0-.07a.16.16,0,0,0,0-.17Z" transform="translate(-247.16 -218.45)"/><path class="cls-16" d="M558.14,258.27a1.86,1.86,0,0,1-.35,1.08l0,.06a.1.1,0,0,0,0,0l-.11.12a1.92,1.92,0,0,1-.22.18l-.08.06a1.55,1.55,0,0,1-.22.12L557,260l-.25.07a1.75,1.75,0,0,1-.4.05h-7.1a19.54,19.54,0,0,1,1.36-3.68h5.74A1.85,1.85,0,0,1,558.14,258.27Z" transform="translate(-247.16 -218.45)"/><path class="cls-16" d="M586.35,273.05a19.27,19.27,0,0,1-2.71,4.53h-13a2.55,2.55,0,0,1-2.55-2.55,2.39,2.39,0,0,1,.18-.92h0a2.45,2.45,0,0,1,.36-.63,2.09,2.09,0,0,1,.2-.22h0l.08-.07a2.52,2.52,0,0,1,1.72-.67h14.14a2.54,2.54,0,0,1,1.55.52Z" transform="translate(-247.16 -218.45)"/><rect class="cls-16" x="322.64" y="48.68" width="12.34" height="3.94" rx="1.5"/><rect class="cls-16" x="320.91" y="45.76" width="7.16" height="2.53" rx="0.96"/><path class="cls-16" d="M585.67,255.86h-4.29a1.27,1.27,0,0,1-.9-2.16,1.29,1.29,0,0,1,.9-.37h2.69A20.74,20.74,0,0,1,585.67,255.86Z" transform="translate(-247.16 -218.45)"/><path class="cls-16" d="M571.07,266.64a.49.49,0,0,1,.64.28.7.7,0,0,1-.32.79c-.5.36,0,1.21.5.84a1.65,1.65,0,0,0,.62-2,1.36,1.36,0,0,0-1.74-.61c-.42.18-.12.89.3.73Z" transform="translate(-247.16 -218.45)"/><path class="cls-16" d="M573.79,265.66a1.47,1.47,0,0,0-1.06,1.53,1.35,1.35,0,0,0,1.41,1.23c.48-.06.68-.78.12-.91a.7.7,0,0,1-.57-.41.53.53,0,0,1,.33-.59c.52-.2.32-1-.23-.85Z" transform="translate(-247.16 -218.45)"/><path class="cls-16" d="M572.37,266.48a2,2,0,0,0,.52,1.18.4.4,0,0,0,.73-.31,2.89,2.89,0,0,0-.48-1,.45.45,0,0,0-.42-.21.44.44,0,0,0-.36.31,1.56,1.56,0,0,0,.24,1.24.46.46,0,0,0,.66.13.46.46,0,0,0,0-.67.68.68,0,0,1-.12-.48l-.71.19a2.23,2.23,0,0,1,.38.67l.67-.39a3.28,3.28,0,0,1-.33-.43,2.22,2.22,0,0,0-.3-.49.31.31,0,0,0-.52.22Z" transform="translate(-247.16 -218.45)"/><path class="cls-16" d="M580.37,269.78c-2.17.41-2,3.74.16,4.05.67.09,1-.93.28-1a1.05,1.05,0,0,1-.95-.94c-.05-.59.41-1,.84-1.3a.43.43,0,0,0-.33-.78Z" transform="translate(-247.16 -218.45)"/><path class="cls-16" d="M575,270.7c.29.29.73.45.91.86a.75.75,0,0,1,0,.53c0,.11-.2.49-.37.45-.66-.14-.94.87-.28,1a1.56,1.56,0,0,0,1.7-1.72c0-.88-.91-1.89-1.86-1.69a.34.34,0,0,0-.14.56Z" transform="translate(-247.16 -218.45)"/><path class="cls-16" d="M576.94,270.16a3.33,3.33,0,0,0-.23,2c.06.45.75.4.85,0s.17-.72.25-1.08l-.91-.12a6.68,6.68,0,0,0,.18,1.54.46.46,0,0,0,.68.28c.51-.38.48-1.1.58-1.68l-.92-.13,0,1.46a.47.47,0,0,0,.7.41c.57-.34.51-1.28.6-1.85h-.92c.21.57-.05,1.2.11,1.79a.49.49,0,0,0,.81.21,3.54,3.54,0,0,0,.43-1.77l-1-.13a10.24,10.24,0,0,0,.3,1.84c.15.61,1.09.35.94-.26a8.42,8.42,0,0,1-.27-1.58c0-.5-.87-.7-1-.13l-.11.8a2.38,2.38,0,0,1-.07.56l.8.21c-.17-.59.1-1.2-.12-1.8-.14-.38-.84-.51-.92,0l-.12.81c0,.11,0,.24-.05.35s-.09.2,0,.13l.71.41,0-1.46c0-.5-.83-.66-.92-.12l-.11.63c0,.06-.05.51,0,.5l.68.27a5.61,5.61,0,0,1-.15-1.29.46.46,0,0,0-.9-.12q-.12.54-.21,1.08h.85a3.59,3.59,0,0,1,0-1.46c.07-.36-.46-.65-.63-.27Z" transform="translate(-247.16 -218.45)"/><path class="cls-15" d="M577.86,257.21a1.69,1.69,0,0,1,.38.61c0,.24-.07.3-.25.42a.51.51,0,0,0,.39.92,1.19,1.19,0,0,0,.83-1.35,1.59,1.59,0,0,0-1-1.21.37.37,0,0,0-.35.61Z" transform="translate(-247.16 -218.45)"/><path class="cls-15" d="M578.14,257c-.26.38-.08,1.08-.67,1.2s-.45,1.09.14,1a1.29,1.29,0,0,0,1.1-.77,1.7,1.7,0,0,0,.07-1.46.38.38,0,0,0-.64,0Z" transform="translate(-247.16 -218.45)"/><g class="cls-17"><path class="cls-13" d="M588,265.28c0,.19,0,.39,0,.58a.13.13,0,0,1,0,.06,19.66,19.66,0,0,1-1.64,7.28c-.28.63-.59,1.24-.92,1.83a20,20,0,0,1-1.9,2.74,17.52,17.52,0,0,1-1.87,2,20.21,20.21,0,0,1-3.37,2.51,19.6,19.6,0,0,1-9.76,2.71c-.49,0-1,0-1.47-.05.44,0,.87-.08,1.3-.15h0a18.26,18.26,0,0,0,7.22-2.71,19.49,19.49,0,0,0,7-7.95c.26-.53.5-1.07.71-1.62a20.5,20.5,0,0,0,1.31-7.21,21.7,21.7,0,0,0-.13-2.3c0-.24-.06-.48-.1-.72a20.45,20.45,0,0,0-1.06-4.14.36.36,0,0,0,0-.09h0a.61.61,0,0,0,0-.12s0,0,0,0l0-.07-.07-.19-.08-.18,0-.12c-.21-.49-.44-1-.69-1.45a20.15,20.15,0,0,0-1.47-2.39,19.35,19.35,0,0,0-4-4.11,18.37,18.37,0,0,0-9.77-3.73c.47,0,1,0,1.43,0a19.63,19.63,0,0,1,11.42,3.78h.26a19.81,19.81,0,0,1,4,4,20.74,20.74,0,0,1,1.6,2.53c.2.38.39.77.57,1.16l-.08,0c0,.05.05.1.08.16A19.67,19.67,0,0,1,588,265.28Z" transform="translate(-247.16 -218.45)"/></g><path class="cls-4" d="M560.22,260" transform="translate(-247.16 -218.45)"/><path class="cls-4" d="M522.86,311.56a5.27,5.27,0,0,1-1.22,1.79,1.92,1.92,0,0,1-.22.18l-.25.19a4.75,4.75,0,0,0-1.6-1.86,3.41,3.41,0,0,0-2.06-.48,4.05,4.05,0,0,0-1.28.3,3.81,3.81,0,0,0-2,2.41,3.39,3.39,0,0,0-4.07,4.45,4.22,4.22,0,0,0,2.35,2.61c0,.08-2,1.11-2.35,2a3.2,3.2,0,0,0,.37,2.78c.2.33.26.21.49.41l-.88.51h0l-.71.32a13.45,13.45,0,0,1-7.08,1h0a5.47,5.47,0,0,1-1.66-.78,4.33,4.33,0,0,1-.93-.89,4.82,4.82,0,0,1-.93-2.22,5.1,5.1,0,0,1-1.76.07c0-.16-.07-.31-.09-.44a5.65,5.65,0,0,1-1.06.12l-.24-.12a5,5,0,0,1-1.85-1.85,10,10,0,0,1-1-2.09,16.47,16.47,0,0,0,5-1.57c.44-.23,8.75-4.62,7.3-12.07a13.25,13.25,0,0,0-4.17-6.89,32.32,32.32,0,0,1,18.76,5.71,29,29,0,0,1,2.86,2.31,9.89,9.89,0,0,1,.42,2A5.59,5.59,0,0,1,522.86,311.56Z" transform="translate(-247.16 -218.45)"/><path class="cls-18" d="M522.86,311.56a5.27,5.27,0,0,1-1.22,1.79,1.92,1.92,0,0,1-.22.18l-.25.19a3.36,3.36,0,0,1-1.42.74,3.69,3.69,0,0,0-.3-.83,4.93,4.93,0,0,0-1.74-2.14l-.2-.11a3.76,3.76,0,0,0-3.13-.07,3.81,3.81,0,0,0-2,2.41,3.4,3.4,0,0,0-4.08,4.45,4.23,4.23,0,0,0,2.36,2.61h0a3,3,0,0,0,.42.16,5.17,5.17,0,0,0-.55.07,3,3,0,0,0-2.23,1.79,3.2,3.2,0,0,0,.37,2.78,3.56,3.56,0,0,0,.68.78,4,4,0,0,0,.79.51h0l-.71.32a13.45,13.45,0,0,1-7.08,1h0a12.08,12.08,0,0,1-1.66-.32,4.94,4.94,0,0,1-2.78-1.72,4.52,4.52,0,0,1-.84-1.78c0-.16-.07-.31-.09-.44a5.65,5.65,0,0,1-1.06.12,4.46,4.46,0,0,1-2.09-.49,4.89,4.89,0,0,1-1.85-1.85,10.09,10.09,0,0,1-1-2.09,13.83,13.83,0,0,1-.64-2.92c-.42-3.53-.86-7.27.93-11.67a18.94,18.94,0,0,1,2.73-4.67c3.1-4.25,8.27-6.14,12.55-4.84a10.23,10.23,0,0,1,5.7,4.72c4.75.3,8.72,2.79,10.12,6.47.1.26.19.52.26.77a9.89,9.89,0,0,1,.42,2A5.59,5.59,0,0,1,522.86,311.56Z" transform="translate(-247.16 -218.45)"/><path class="cls-18" d="M510.12,326.87l-.71.32a13.45,13.45,0,0,1-7.08,1h0a12.08,12.08,0,0,1-1.66-.32v-2.27l7.78,1.48,1.65-.19Z" transform="translate(-247.16 -218.45)"/><path class="cls-19" d="M512.09,302.11a4.39,4.39,0,0,1,1.11-5.26c2.1-1.77,5.39-1.82,6.1-1.82l-3.08-2.67a10.79,10.79,0,0,0-4.94,3.71,7.09,7.09,0,0,0-1.11,5.27Z" transform="translate(-247.16 -218.45)"/><g class="cls-20"><ellipse class="cls-1" cx="501.57" cy="298.77" rx="3.59" ry="1.68" transform="matrix(0.96, -0.28, 0.28, 0.96, -310.03, -68.8)"/></g><g class="cls-20"><ellipse class="cls-1" cx="496.04" cy="302.52" rx="1.61" ry="1.1" transform="translate(-294.41 290.03) rotate(-52.14)"/></g><rect class="cls-1" y="17.98" width="353.67" height="1.41"/><g class="cls-21"><path class="cls-22" d="M292.61,245.75c-.26.12-.32.53-.42,1.24a2.24,2.24,0,0,0,0,1.2,1.92,1.92,0,0,0,.77.82c.41.28,1.09.76,1.53.51s.37-1.24.26-1.69a2.78,2.78,0,0,0-.91-1.39C293.54,246.11,293,245.59,292.61,245.75Z" transform="translate(-247.16 -218.45)"/><path class="cls-22" d="M302.4,251.8a5.47,5.47,0,0,0,.87-.81l19-9.77a13.88,13.88,0,0,0,2.77-1.38,11.36,11.36,0,0,0,3.64-3.48c.39-.65.51-1,1.17-2,.52-.78,1.28-1.79,1.28-1.79a22.78,22.78,0,0,0,3.08-1.54c.78-.61.62-.77,2-2,.57-.51,1-.81,1.18-1,.73-.55.79-.5,1.44-1a17.53,17.53,0,0,1,1.74-1.38,8.78,8.78,0,0,1,1-.51c1.21-.53,1.55-.46,1.79-.77s.33-.9-.35-2.25l-.07,0c-.65-1.19-1.16-1.44-1.52-1.43s-.53.34-1.67,1a7.37,7.37,0,0,1-1,.53,19,19,0,0,1-2.14.61c-.76.24-.75.32-1.62.59-.26.08-.74.22-1.48.39-1.87.41-1.9.18-2.86.46a22.48,22.48,0,0,0-3,1.59s-1.27,0-2.2,0c-1.2,0-1.56-.16-2.31-.21a11.27,11.27,0,0,0-4.95.91,13.78,13.78,0,0,0-2.74,1.43l-19.07,9.72a5.52,5.52,0,0,0-1.17.23A6.29,6.29,0,0,0,292,240.6c-.46.66-2.23,3.22-1.25,4.79.43.68,1.29.87,1.92,1.19.93.47.8.48,1.39.79-.08.57,0,.5-.13,1.51a4.44,4.44,0,0,0-.15,2.26c.69,1.71,3.8,1.77,4.6,1.79A6.41,6.41,0,0,0,302.4,251.8Z" transform="translate(-247.16 -218.45)"/></g><g class="cls-23"><path class="cls-24" d="M327.86,231.6l1.71,1.43a11.2,11.2,0,0,1-2,3.46,12.38,12.38,0,0,1-4.89,3.43c-3.56,1.49-10.69,5.23-20.54,10.55a8.41,8.41,0,0,1-5.23,1.48l-.28-2.56a8.32,8.32,0,0,0,3.49-.38,8.06,8.06,0,0,0,1.71-.8l19.93-10.43a9.14,9.14,0,0,0,2.13-1.11A10.12,10.12,0,0,0,326,234.6,13.66,13.66,0,0,0,327.86,231.6Z" transform="translate(-247.16 -218.45)"/></g><g class="cls-23"><path class="cls-24" d="M339,224.07a5.26,5.26,0,0,1-1.24,1.33,10.38,10.38,0,0,1-1.18.72,14.05,14.05,0,0,0-1.29.67,9.77,9.77,0,0,0-1.09,1.06,7.37,7.37,0,0,1-1.6,1,13.83,13.83,0,0,1-2.13.92l.26,1.61a5,5,0,0,0,2.63-.9,13.79,13.79,0,0,0,2-2,6,6,0,0,1,.94-1,8.22,8.22,0,0,1,1.86-.88,5.11,5.11,0,0,0,1.66-.88S340.06,225.07,339,224.07Z" transform="translate(-247.16 -218.45)"/></g><path class="cls-25" d="M338.93,222c-.06.62.69.9.89,1.23a6.05,6.05,0,0,1,.74,1.6c.19.69.15,1.13.39,1.2s.2-.05.6-.32c0,0,.5-.32,1.2-.67s.68-.27.84-.44a1.55,1.55,0,0,0,.26-1.16,3.79,3.79,0,0,0-1.35-2.68,1.18,1.18,0,0,0-.78-.37c-.27,0-.36.16-1,.5s-.51.24-.95.5C339.56,221.57,339,221.61,338.93,222Z" transform="translate(-247.16 -218.45)"/><path class="cls-2" d="M457.53,234.68a16,16,0,0,1-3.14,3,16.89,16.89,0,0,1-5.89,2.77l-.47-1.72a15,15,0,0,0,5.24-2.47,14.38,14.38,0,0,0,4.76-6,13.76,13.76,0,0,0,1.1-5.53H461a15.63,15.63,0,0,1-1.24,6.22A16,16,0,0,1,457.53,234.68Z" transform="translate(-247.16 -218.45)"/><path class="cls-26" d="M458.08,223.07c-.23-1.69-2.18-2.25-4.4-3.26-1.07-.48-8.32-2.73-13.86-.13a3.18,3.18,0,0,0-1.68,2.12c-1.17,5.88,2.67,11.58,3.74,12.88,1.48,1.78,2.62,3,4.4,3.25,2.78.31,5.05-2.25,7.26-4.75S458.59,226.82,458.08,223.07Z" transform="translate(-247.16 -218.45)"/><path class="cls-27" d="M458,223.29c-.23-1.68-2.17-2.24-4.4-3.25-1.06-.48-8.32-2.74-13.85-.14a3.19,3.19,0,0,0-1.69,2.13c-1.17,5.87,13.19,13.87,15.4,11.38S458.52,227,458,223.29Z" transform="translate(-247.16 -218.45)"/><line class="cls-28" x1="201.17" y1="5.04" x2="201.81" y2="12.25"/><polygon class="cls-28" points="202.26 12.07 201.36 12.43 200.72 5.22 201.62 4.86 202.26 12.07"/><line class="cls-28" x1="197.8" y1="9.29" x2="205.18" y2="8"/><polygon class="cls-28" points="205.12 8.47 197.74 9.75 197.86 8.82 205.24 7.54 205.12 8.47"/></svg>