<svg id="earth" xmlns="http://www.w3.org/2000/svg" viewBox="0 0 454.09 365.28"><defs><style>.cls-1,.cls-6{fill:#0071a0;}.cls-1{opacity:0.42;}.cls-2{fill:#51a1d9;}.cls-3{fill:#99c440;}.cls-4{fill:#f2ebeb;}.cls-5{opacity:0.35;}.cls-7{fill:#696969;}.cls-8{fill:#565757;}.cls-9{fill:#c3c3c3;}.cls-10{fill:#1d1d1b;}.cls-11{fill:#fdf1b4;}.cls-12{fill:#fddf7a;}.cls-13{fill:#d01317;}.cls-14{fill:#352614;}.cls-15{fill:#393417;}.cls-16{fill:#d59506;}.cls-17{fill:#f5a906;}.cls-18{fill:#77320f;}.cls-19{fill:#ffe401;}</style></defs><title>logo rumaffald</title><path class="cls-1" d="M421.52,123.8A176.79,176.79,0,1,0,598.31,300.59,176.79,176.79,0,0,0,421.52,123.8ZM422.88,401A101.25,101.25,0,1,1,524.13,299.75,101.25,101.25,0,0,1,422.88,401Z" transform="translate(-199.24 -123.8)"/><circle class="cls-1" cx="222.28" cy="176.12" r="135.13"/><path class="cls-2" d="M525.13,299.75c0,1,0,2,0,3a2.53,2.53,0,0,1,0,.28,99.84,99.84,0,0,1-8.53,37.44,103.29,103.29,0,0,1-4.76,9.39A102.09,102.09,0,0,1,424.31,401h-1.14c-.47,0-.93,0-1.39,0h0c-48.64-.65-89.05-35.12-98.47-80.79a100.51,100.51,0,0,1-2.08-20.44c0-.17,0-.33,0-.5a99.87,99.87,0,0,1,2.07-19.93c.08-.34.15-.67.23-1,.29-1.39.62-2.77,1-4.14.09-.33.17-.66.27-1a99.52,99.52,0,0,1,6.79-17.92c.16-.33.34-.67.51-1a102,102,0,0,1,91.12-55.78h.92a102,102,0,0,1,59.12,19.4c.45.33.91.66,1.35,1a101.52,101.52,0,0,1,19.68,19.44c.26.33.51.66.76,1a100.1,100.1,0,0,1,7.75,12l.54,1c.91,1.68,1.76,3.38,2.56,5.12.14.28.26.56.39.84A100.35,100.35,0,0,1,525.13,299.75Z" transform="translate(-199.24 -123.8)"/><path class="cls-3" d="M388.84,295.59v6.33a17.27,17.27,0,0,1-17.27,17.27h-48.3a101.9,101.9,0,0,1,0-40.87h48.6a16,16,0,0,1,3.49.41A17.26,17.26,0,0,1,388.84,295.59Z" transform="translate(-199.24 -123.8)"/><path class="cls-3" d="M514.87,257.33a1.88,1.88,0,0,1-.39.16h0a17,17,0,0,1-6.51,1.28h-79.2a17.27,17.27,0,0,1-17.27-17.27v-6.33a17.27,17.27,0,0,1,17.27-17.27h54.66a101.34,101.34,0,0,1,20.3,20.44,99.21,99.21,0,0,1,8.23,13C513,253.32,514,255.3,514.87,257.33Z" transform="translate(-199.24 -123.8)"/><rect class="cls-3" x="242.21" y="138.69" width="67.53" height="25.45" rx="12.73"/><path class="cls-3" d="M510.8,349.17A99.61,99.61,0,0,1,501.5,363,101.47,101.47,0,0,1,475.4,386H420.54a17.26,17.26,0,0,1-17.26-17.26v-6.34a17.27,17.27,0,0,1,12.46-16.59c.45-.13.91-.25,1.37-.34l.1,0a17.41,17.41,0,0,1,3.33-.32h79.2a17.22,17.22,0,0,1,10.7,3.71Z" transform="translate(-199.24 -123.8)"/><rect class="cls-3" x="201.58" y="192.62" width="67.53" height="25.45" rx="12.73"/><rect class="cls-3" x="150.04" y="123.94" width="48.27" height="22.09" rx="11.04"/><path class="cls-3" d="M357.16,267.13c2.36,1.73,4.48,4.22,3.7,7.39-.39,1.6-2.65,4.81-4.68,4.51l1.37,1.06-.16-.27.23,1.73.08-.24c.6-1.69-1.67-3.57-3.17-2.44l-.21.15a2.36,2.36,0,0,0-1,2.53l.07.3a2.37,2.37,0,0,0,2.21,1.68c4.51.61,8.67-4.12,9.39-8.17.81-4.56-2-9.84-6.71-10.8a1.41,1.41,0,0,0-1.09,2.57Z" transform="translate(-199.24 -123.8)"/><path class="cls-3" d="M379.08,266.08c-3.76-.26-6.21,4.78-6.55,7.94a11.06,11.06,0,0,0,5.37,10.63c2.34,1.44,4.18-2,2.1-3.59a7.63,7.63,0,0,1-3.14-7.88c.57-2.32,2.49-3.62,3.24-5.76a1.07,1.07,0,0,0-1-1.34Z" transform="translate(-199.24 -123.8)"/><path class="cls-3" d="M372.79,268.13a32.26,32.26,0,0,0-2.88,10.38c-.14,2.15,3.51,2.69,3.82.51a44.91,44.91,0,0,0,.1-10.93c-.22-2.07-3.37-2.88-3.91-.52A55.37,55.37,0,0,0,368.51,280c0,2.58,3.82,2.54,4,0a68.65,68.65,0,0,0-.14-10.44c-.18-2.13-3.31-2.84-3.91-.53a73.5,73.5,0,0,0-1.55,7.79l3.91.53a64.19,64.19,0,0,0-.21-8.77c-.19-2.07-3.57-3-3.95-.54L365,278.56l4,.54-.45-8.93c-.12-2.24-3.48-2.9-4-.55l-2.34,9.66,4,1.1a34.1,34.1,0,0,0,.83-10.32c-.16-2.26-3.54-3-4.13-.56A52.12,52.12,0,0,0,361.8,275a2.11,2.11,0,1,0,4.16.57,48.94,48.94,0,0,1,1-5l-4.14-.56a30.73,30.73,0,0,1-.64,9.22c-.59,2.6,3.39,3.72,4,1.1l2.29-9.66-4-.55.49,8.93c.12,2.15,3.64,2.94,4,.55l1.62-10.59-3.95-.53a64.2,64.2,0,0,1,.25,8.77c-.09,2.2,3.6,2.78,3.91.53a71.07,71.07,0,0,1,1.55-7.79l-3.91-.53a68.65,68.65,0,0,1,.14,10.44h4a50.21,50.21,0,0,1,1.27-11.33l-3.91-.53a62.51,62.51,0,0,1,.06,10.42h3.89a29,29,0,0,1,1.95-9.56c.64-1.93-2.22-2.58-3-.82Z" transform="translate(-199.24 -123.8)"/><path class="cls-3" d="M495.05,254.13c-5.35,3.1-5.67,13.14,1.48,14.23,2.76.42,4-3.46,1.18-4.3-4-1.2-1.92-5.28-.35-7.62,1-1.44-.91-3.12-2.31-2.31Z" transform="translate(-199.24 -123.8)"/><path class="cls-3" d="M475.42,256.27c-.6,1.53,1.17,3,1.42,4.56a4,4,0,0,1-2.42,4.28c-2.8,1.29-.16,5.92,2.42,4.15,4.83-3.31,6.18-10,1.12-13.82a1.77,1.77,0,0,0-1.82,0,1.58,1.58,0,0,0-.72.83Z" transform="translate(-199.24 -123.8)"/><path class="cls-3" d="M482.05,255.69a8.64,8.64,0,0,0-3.78,5.5c-.42,1.69,1.87,3.32,3.13,1.82,1.1-1.32,2.12-2.72,3.16-4.08L481,257.44a24.68,24.68,0,0,0-.72,4.75c-.1,1.87,2.13,2.35,3.34,1.38a14,14,0,0,0,3.47-4.1l-3.69-1c0,1.68-.95,3.31,1.12,4.27s3.66-1.41,4.82-2.81L486,258a24.14,24.14,0,0,1-1.07,4.42c-.67,1.94,2.06,3.43,3.42,2s2.45-2.73,3.58-4.17l-3.47-2-1.12,4.18c-.45,1.67,1.52,3.43,3.09,2.37a8.35,8.35,0,0,0,3.12-3.49c1.1-2.41-2.35-4.55-3.63-2.12a4.93,4.93,0,0,1-1.61,2l3.08,2.37,1.08-4.19c.62-2.43-2.43-3.38-3.8-1.6-1,1.32-2.09,2.57-3.21,3.79l3.41,2a25.65,25.65,0,0,0,1.09-5c.22-1.69-2.39-2.73-3.44-1.42a10.68,10.68,0,0,1-2,2.21h2l-.38-.17.91,1.2a17.94,17.94,0,0,1,.29-1.85,2,2,0,0,0-3.69-1,11.3,11.3,0,0,1-2.81,3.34l3.33,1.38a18.63,18.63,0,0,1,.52-3.72,1.94,1.94,0,0,0-3.52-1.49c-.93,1.25-1.89,2.48-2.77,3.76l3.48.95a10.35,10.35,0,0,1,1.59-4.52c.55-.9-.57-2.09-1.48-1.48Z" transform="translate(-199.24 -123.8)"/><path class="cls-3" d="M409.44,339.61c1.48,1.63,3.82,3.31,3.71,5.72s-3.66,5-5.26,6.68c-1.91,2.05,1.16,5.14,3.09,3.09,2.49-2.65,7.69-6.35,6.89-10.59-.6-3.17-4-7.52-7.36-7.49a1.54,1.54,0,0,0-1.07,2.59Z" transform="translate(-199.24 -123.8)"/><path class="cls-3" d="M435,337.15c-3.11,0-6.09,3.81-6.75,6.64-.84,3.6,1.69,6.26,4.48,8.09,2.48,1.62,4.77-2.35,2.32-4-1.67-1.1-3.68-2.81-4.1-4.85-.74-3.61-7-1.09-4.15,2.42,1.94,2.41,3.27,4.62,5.93,6.4l2.32-4c-1.79-1.19-3-2.48-1.89-4.62.86-1.66,2.47-2.74,3.1-4.49a1.32,1.32,0,0,0-1.26-1.65Z" transform="translate(-199.24 -123.8)"/><path class="cls-3" d="M428.08,337.17a28.54,28.54,0,0,0-2.78,7.91c-.46,2.42,3,3.45,3.73,1a18.12,18.12,0,0,0,.7-5.95,2,2,0,0,0-4-.54,26.16,26.16,0,0,1-2.07,4.46l3.71,1.56a22.31,22.31,0,0,0,.29-5.77c-.16-1.85-2.82-3-3.81-1a29.09,29.09,0,0,1-3.61,5.58l3.44,2a9,9,0,0,0-.18-5.45,2.1,2.1,0,0,0-3.78-.5l-2,3.19,3.8,1.6a9.29,9.29,0,0,0-.34-4.93,2.1,2.1,0,0,0-4,0,19.39,19.39,0,0,1-1.91,4.23l3.84.5-.13-1.21c-.21-3.25-5.21-2.47-4.33.59a9.27,9.27,0,0,1,.41,1.73c.35,1.83,3,2,3.83.5a23.72,23.72,0,0,0,2.31-5.23h-4a5.15,5.15,0,0,1,.36,2.72c-.36,2.22,2.49,3.74,3.79,1.6l1.94-3.2-3.78-.49a5,5,0,0,1,.2,3.26c-.48,1.85,2.07,3.67,3.44,2a33.85,33.85,0,0,0,4.23-6.43l-3.81-1a18.4,18.4,0,0,1-.12,4.69c-.35,2.15,2.49,3.7,3.72,1.57a32,32,0,0,0,2.46-5.43l-4-.54a20.83,20.83,0,0,1-.39,4.92l3.8.52a25.45,25.45,0,0,1,1.83-7.23c.66-1.64-2-2.75-2.85-1.2Z" transform="translate(-199.24 -123.8)"/><path class="cls-3" d="M508.67,255.29c-3.66-1.18-8,1.61-9.39,4.94A8.76,8.76,0,0,0,501,269.9c2,2,4.93-1,3.06-3a4.9,4.9,0,0,1-.68-5.55c1.24-2.22,4.11-2.21,5.84-3.8a1.34,1.34,0,0,0-.58-2.21Z" transform="translate(-199.24 -123.8)"/><path class="cls-3" d="M500.11,257.06c-1.94,1.43-3.05,4.07-3.85,6.28s2.38,3.19,3.6,1.52A11.44,11.44,0,0,0,502,258c0-1.42-1.74-2.67-3-1.74A14,14,0,0,0,494.1,262a2.11,2.11,0,0,0,.54,2.67,2,2,0,0,0,2.71-.16,8.25,8.25,0,0,0,2.15-5.85,2.14,2.14,0,0,0-3.17-1.82,8.84,8.84,0,0,0-4,4.08,2.21,2.21,0,0,0,.77,2.93,2.16,2.16,0,0,0,2.93-.77,5.12,5.12,0,0,1,2.38-2.6l-3.16-1.82a4,4,0,0,1-.86,2.92l3.45,2a9.49,9.49,0,0,1,3.09-3.89l-3-1.74a7.86,7.86,0,0,1-1.47,4.89l3.59,1.52a17,17,0,0,1,.84-3c.37-.95,1-1.8,1.26-2.78s-1-2.3-2-1.56Z" transform="translate(-199.24 -123.8)"/><path class="cls-3" d="M475.2,264.22a3.7,3.7,0,0,0-1.71-.57c-1.55-.19-1.52,2-.34,2.48,1.7.71,4.06-.79,5.22-2a14.94,14.94,0,0,0,3.23-6.07c.8-2.61-3.15-3.63-4.05-1.12a18.63,18.63,0,0,1-1.9,4.56,6.31,6.31,0,0,1-1.24,1.34,21.44,21.44,0,0,0-1.82,1.15l2,1.53.5-.38a.52.52,0,0,0,.12-.95Z" transform="translate(-199.24 -123.8)"/><path class="cls-3" d="M477.53,255l-.36-.45c-1.07-1.36-3.18.63-1.94,1.94,1.06,1.12,2.48,1.93,3.6,3a7.37,7.37,0,0,1,2.22,3.61c.64,2.55,4.21,1.41,3.84-1.06a8.34,8.34,0,0,0-3-5,13.56,13.56,0,0,0-5.29-2.85l.82,2,.25-.35a.73.73,0,0,0-.11-.86Z" transform="translate(-199.24 -123.8)"/><path class="cls-4" d="M370.42,263.75a9.48,9.48,0,0,1-1.77,5.52l-.23.31-.2.25c-.18.21-.37.42-.57.62a9.3,9.3,0,0,1-1.12,1l-.44.29a8.42,8.42,0,0,1-1.1.62c-.22.1-.44.2-.68.29A10.38,10.38,0,0,1,363,273a9.56,9.56,0,0,1-2.09.23H325.34a8.51,8.51,0,0,1-.88,0,99.71,99.71,0,0,1,7-18.9H361A9.47,9.47,0,0,1,370.42,263.75Z" transform="translate(-199.24 -123.8)"/><path class="cls-4" d="M515.47,339.73a97.36,97.36,0,0,1-4.67,9.44A99.61,99.61,0,0,1,501.5,363h-67a13.09,13.09,0,0,1-13.08-13.09,12.82,12.82,0,0,1,.89-4.72.19.19,0,0,1,0-.07,13.05,13.05,0,0,1,1.84-3.23,12.22,12.22,0,0,1,1-1.15l0,0,0-.06.39-.37a13.1,13.1,0,0,1,8.86-3.46h72.71a13,13,0,0,1,7.93,2.68C515.27,339.57,515.37,339.64,515.47,339.73Z" transform="translate(-199.24 -123.8)"/><rect class="cls-4" x="231.11" y="185.46" width="63.41" height="20.24" rx="10.12"/><rect class="cls-4" x="222.21" y="170.45" width="36.82" height="13.02" rx="6.51"/><path class="cls-4" d="M511.94,251.37H489.89a6.5,6.5,0,0,1-3-12.29,6.42,6.42,0,0,1,3-.73h13.82A99.21,99.21,0,0,1,511.94,251.37Z" transform="translate(-199.24 -123.8)"/><path class="cls-4" d="M436.92,306.78a2.54,2.54,0,0,1,3.29,1.41c.6,1.54-.44,3.19-1.65,4.06-2.59,1.87-.09,6.23,2.53,4.33,3.21-2.31,5.12-6.65,3.19-10.42a6.91,6.91,0,0,0-8.95-3.13c-2.12.91-.6,4.54,1.59,3.75Z" transform="translate(-199.24 -123.8)"/><path class="cls-4" d="M450.86,301.72a7.57,7.57,0,0,0-5.44,7.89c.38,3.47,3.62,6.77,7.27,6.32,2.46-.31,3.51-4.05.63-4.72-1.2-.28-2.56-.74-2.94-2.07a2.68,2.68,0,0,1,1.69-3c2.67-1,1.63-5.27-1.21-4.38Z" transform="translate(-199.24 -123.8)"/><path class="cls-4" d="M443.56,305.93c-.14,2.09,1.48,4.48,2.7,6.09a2.07,2.07,0,0,0,2.56.83,2,2,0,0,0,1.18-2.41,14.83,14.83,0,0,0-2.46-5,2.24,2.24,0,0,0-2.18-1,2.18,2.18,0,0,0-1.82,1.57,7.92,7.92,0,0,0,1.24,6.39,2.29,2.29,0,1,0,3.6-2.78,3.26,3.26,0,0,1-.62-2.45l-3.65,1a11.87,11.87,0,0,1,1.94,3.43l3.43-2a13.46,13.46,0,0,1-1.66-2.23,13.35,13.35,0,0,0-1.56-2.49,1.6,1.6,0,0,0-2.7,1.12Z" transform="translate(-199.24 -123.8)"/><path class="cls-4" d="M484.68,322.89c-11.12,2.13-10.08,19.23.85,20.81,3.45.5,5-4.77,1.46-5.29a5.42,5.42,0,0,1-4.91-4.82c-.25-3,2.09-5.06,4.3-6.67a2.22,2.22,0,0,0-1.7-4Z" transform="translate(-199.24 -123.8)"/><path class="cls-4" d="M457.25,327.62c1.52,1.52,3.78,2.33,4.7,4.43a4.2,4.2,0,0,1,.2,2.73c-.16.58-1,2.5-1.93,2.31-3.37-.71-4.81,4.48-1.42,5.17,5.09,1.05,9-4.05,8.76-8.8-.22-4.55-4.68-9.75-9.56-8.69a1.71,1.71,0,0,0-.75,2.85Z" transform="translate(-199.24 -123.8)"/><path class="cls-4" d="M467.07,324.86A17.16,17.16,0,0,0,465.88,335c.35,2.28,3.88,2.05,4.4,0,.46-1.84.86-3.69,1.25-5.55l-4.65-.62a32.89,32.89,0,0,0,.91,7.91,2.4,2.4,0,0,0,3.5,1.43c2.63-2,2.47-5.64,3-8.63l-4.73-.64.19,7.48a2.44,2.44,0,0,0,3.64,2.09c2.89-1.74,2.61-6.58,3.05-9.5h-4.71c1.05,2.94-.28,6.17.58,9.22.46,1.64,2.92,2.6,4.12,1.09,1.95-2.44,1.82-6.12,2.25-9.11l-4.88-.67a54.94,54.94,0,0,0,1.5,9.47c.79,3.13,5.65,1.8,4.84-1.33a47.56,47.56,0,0,1-1.37-8.14c-.2-2.57-4.47-3.62-4.88-.66l-.57,4.08c-.09.63-.08,2.5-.38,2.87l4.13,1.09c-.87-3,.49-6.15-.63-9.21-.72-2-4.32-2.63-4.71,0l-.61,4.12c-.09.6-.24,1.23-.27,1.84s-.47,1,.1.66l3.64,2.09-.22-7.48c-.07-2.58-4.27-3.43-4.72-.64l-.53,3.26a23.45,23.45,0,0,0-.21,2.53l3.5,1.43a26.63,26.63,0,0,1-.77-6.65c0-2.61-4.1-3.3-4.65-.63-.39,1.86-.77,3.71-1.09,5.58h4.4a17.91,17.91,0,0,1,0-7.54c.35-1.84-2.35-3.32-3.25-1.37Z" transform="translate(-199.24 -123.8)"/><path class="cls-3" d="M471.8,258.29a8.58,8.58,0,0,1,1.93,3.15c.31,1.21-.34,1.54-1.27,2.14a2.61,2.61,0,0,0,2,4.74c3-.62,4.75-4.06,4.26-6.94-.41-2.41-2.56-5.64-5.09-6.22a1.89,1.89,0,0,0-1.83,3.13Z" transform="translate(-199.24 -123.8)"/><path class="cls-3" d="M473.26,257.13c-1.37,1.95-.45,5.53-3.45,6.14s-2.34,5.61.72,5.31a6.76,6.76,0,0,0,5.67-3.95c1-2.07,1.55-5.45.31-7.5a1.91,1.91,0,0,0-3.25,0Z" transform="translate(-199.24 -123.8)"/><g class="cls-5"><path class="cls-6" d="M523.7,299.75c0,1,0,2-.05,3a2.53,2.53,0,0,1,0,.28,100.57,100.57,0,0,1-8.47,37.44,103,103,0,0,1-4.73,9.39,101.17,101.17,0,0,1-19.36,24.29A100.89,100.89,0,0,1,423.59,401c-2.54,0-5.06-.09-7.57-.26,2.26-.17,4.49-.42,6.71-.75h0A94.55,94.55,0,0,0,459.9,386,99.18,99.18,0,0,0,485,363a100.6,100.6,0,0,0,11-17.81c1.33-2.72,2.52-5.51,3.6-8.36a104.19,104.19,0,0,0,6.74-37.06,106.87,106.87,0,0,0-.65-11.8c-.14-1.23-.3-2.46-.49-3.68A102.39,102.39,0,0,0,499.7,263c-.05-.16-.11-.31-.17-.47h0c-.08-.22-.17-.43-.25-.64l-.07-.16-.15-.38q-.18-.49-.39-1c-.13-.31-.25-.62-.39-.93s-.17-.41-.27-.62c-1.07-2.52-2.25-5-3.51-7.41a101.49,101.49,0,0,0-7.6-12.29,99.6,99.6,0,0,0-20.63-21.17A94.62,94.62,0,0,0,416,198.77c2.44-.15,4.88-.25,7.35-.26a100.79,100.79,0,0,1,58.7,19.4h1.34a101.34,101.34,0,0,1,20.3,20.44,99.21,99.21,0,0,1,8.23,13c1,1.95,2,3.93,2.93,6a1.88,1.88,0,0,1-.39.16c.14.28.26.56.39.84A101,101,0,0,1,523.7,299.75Z" transform="translate(-199.24 -123.8)"/></g><path class="cls-7" d="M577.88,160.68c-.62-4.68-5.83-6.24-11.8-9-2.86-1.34-22.32-7.61-37.16-.37a8.77,8.77,0,0,0-4.52,5.9c-3.14,16.32,7.16,32.17,10,35.78,4,5,7,8.47,11.8,9,7.45.87,13.54-6.26,19.46-13.18C571.84,181.62,579.26,171.1,577.88,160.68Z" transform="translate(-199.24 -123.8)"/><path class="cls-8" d="M577.88,160.68c-.62-4.68-5.83-6.24-11.8-9-2.86-1.34-22.32-7.61-37.16-.37a8.77,8.77,0,0,0-4.52,5.9c-3.14,16.32,35.38,38.55,41.3,31.63C571.84,181.62,579.26,171.1,577.88,160.68Z" transform="translate(-199.24 -123.8)"/><line class="cls-9" x1="349.82" y1="39.14" x2="351.54" y2="59.18"/><polygon class="cls-10" points="352.75 58.69 350.33 59.68 348.61 39.64 351.03 38.65 352.75 58.69"/><line class="cls-9" x1="340.78" y1="50.95" x2="360.58" y2="47.38"/><polygon class="cls-10" points="360.41 48.68 340.62 52.24 340.94 49.65 360.74 46.09 360.41 48.68"/><path class="cls-7" d="M577.21,192.76A44.74,44.74,0,0,1,553,208.85l-1.26-4.79a39.87,39.87,0,0,0,29.78-38.9l5,0a44.81,44.81,0,0,1-9.26,27.62Z" transform="translate(-199.24 -123.8)"/><path class="cls-7" d="M589,201.8a35.59,35.59,0,0,1-7.68,7.4,38.44,38.44,0,0,1-14.83,6.31l-1-4.86a33.53,33.53,0,0,0,12.94-5.49,30.86,30.86,0,0,0,11.08-14.47,33.35,33.35,0,0,0,1.93-13.92l4.95-.33a38.38,38.38,0,0,1-2.23,16A36.39,36.39,0,0,1,589,201.8Z" transform="translate(-199.24 -123.8)"/><path class="cls-7" d="M600.82,210.83A26.27,26.27,0,0,1,594,217a31.69,31.69,0,0,1-13.65,4.59l-.54-4.93a26.89,26.89,0,0,0,11.54-3.84,21.15,21.15,0,0,0,9-11.75A26.89,26.89,0,0,0,601,189l4.89-.76a31.69,31.69,0,0,1-.87,14.37A26.46,26.46,0,0,1,600.82,210.83Z" transform="translate(-199.24 -123.8)"/><path class="cls-7" d="M609.47,217.45a22.37,22.37,0,0,1-5.78,5.26,26.88,26.88,0,0,1-11.55,3.88l-.46-4.17a22.76,22.76,0,0,0,9.76-3.25,17.93,17.93,0,0,0,7.62-9.94,22.65,22.65,0,0,0,.59-10.28l4.15-.64a26.91,26.91,0,0,1-.74,12.16A22.44,22.44,0,0,1,609.47,217.45Z" transform="translate(-199.24 -123.8)"/><line class="cls-7" x1="368.93" y1="62" x2="422.04" y2="102.67"/><rect class="cls-7" x="592.66" y="172.69" width="4.13" height="66.89" transform="translate(-129.77 429.18) rotate(-52.55)"/><path class="cls-7" d="M649.54,221.29c-5.81.75-16.69,2.09-21.28,2.4-1.74.11-5.47.17-8.47.2a1.45,1.45,0,0,0-1.39,1.81c.75,2.91,1.67,6.53,2,8.24.9,4.51,2.44,15.36,3.24,21.16.21,1.53.63,2.36,1.8,1.64,2.75-1.69,5.13-6.22,6.1-8,1.32-2.36,1-10.57,1.2-13.52,2.8-.95,10.81-2.8,12.75-4.69,1.42-1.39,5.17-4.86,6.09-8C652,221.29,651.07,221.1,649.54,221.29Z" transform="translate(-199.24 -123.8)"/><path class="cls-7" d="M629.67,254.91a13.31,13.31,0,0,1-3.35,3.24,2.62,2.62,0,0,1-2.6.29c-1.37-.65-1.61-2.38-1.71-3.11-.82-6-2.33-16.61-3.22-21.07-.27-1.34-1-4.15-2-8.14a3.1,3.1,0,0,1,3-3.88c4.12,0,7-.11,8.38-.2,4.53-.3,15.21-1.62,21.18-2.38h0c.74-.1,2.47-.32,3.44.83a2.63,2.63,0,0,1,.41,2.59c-1,3.3-4.51,6.72-6.21,8.36l-.32.31c-1.62,1.59-5.56,2.8-10.55,4.23-.64.18-1.23.35-1.74.51,0,.53,0,1.15,0,1.82-.08,5.18-.22,9.3-1.33,11.28l-.22.39A39.39,39.39,0,0,1,629.67,254.91Zm-4.39-.08c1.94-1.64,3.77-5,4.6-6.45l.23-.4c.78-1.41.87-6.82.91-9.73,0-1.24,0-2.32.08-3.1l.07-1.1,1.05-.36c.74-.24,1.77-.54,3-.89,2.8-.79,8-2.28,9.15-3.41l.33-.32c1.24-1.2,4-3.82,5-6.13-6,.77-16.72,2.09-21.33,2.39-1.41.1-4.21.17-8.3.21,1,4,1.68,6.69,2,8.07C622.94,238.14,624.45,248.83,625.28,254.83Z" transform="translate(-199.24 -123.8)"/><path class="cls-11" d="M227,209.88c3.41,2.62,9.54,8.17,11.78,16.8,5.07,19.57-15,35.23-16.07,36.05a47.17,47.17,0,0,1-23.25,8.95,64.25,64.25,0,0,0,22.69,21.13c21.11,11.71,42.49,8.17,48.24,7-2.79-2.13-9.23-7.66-11.78-16.8-3.62-13,3.27-23.66,6-27.92,2.54-3.94,8.4-13,20.09-16.26a32.77,32.77,0,0,1,13.21-.82,64.16,64.16,0,0,0-22.69-21.13C254.13,205.2,232.76,208.74,227,209.88Z" transform="translate(-199.24 -123.8)"/><path class="cls-12" d="M275,216.51c-21.11-11.71-42.49-8.17-48.24-7,3.42,2.62,9.54,8.17,11.78,16.8,5.08,19.57-15,35.23-16.06,36a47.23,47.23,0,0,1-23.26,8.95,64.34,64.34,0,0,0,22.69,21.13" transform="translate(-199.24 -123.8)"/><path class="cls-13" d="M259.74,222.88a10.37,10.37,0,0,1,7.76-3,8,8,0,0,1,5.45,2.17c3.63,3.9.87,12.46.87,12.46s7.38-1.52,13.2-.81A24,24,0,0,1,297.94,238a21.52,21.52,0,0,0-.87-12.47c-3.5-8.83-13.26-14.94-25-16-1.24-2.18-5.54-9.05-14.07-11.65-10.57-3.22-23.34,1.45-31,11.94a21.28,21.28,0,0,1,5.45,2.16c1.78,1,5.53,3.16,7.33,7.1a23.54,23.54,0,0,0,1.29,2.39,8.79,8.79,0,0,1,2.3-5.15,9.6,9.6,0,0,1,7.75-3C255.49,213.81,259.33,217.72,259.74,222.88Z" transform="translate(-199.24 -123.8)"/><path class="cls-13" d="M232.67,283.64a8.35,8.35,0,0,0,3.62,6.27,10,10,0,0,0,5.46,2.17c5.3.14,9.12-6.05,9.12-6.05a50.24,50.24,0,0,0,9.08,8.44c2.27,1.52,5.27,4.32,10.45,5.37-1.51,1.9-3.86,3.59-8.66,5-8.56,2.54-19.84-.16-29.11-6.72a31.39,31.39,0,0,1-18.2-2.39c-9.91-4.71-16.51-13.88-15-24.06a27.36,27.36,0,0,0,5.45,2.17,25.75,25.75,0,0,0,10.65-.34,25.72,25.72,0,0,1,2.56-.48,5.75,5.75,0,0,0-1.83,4.11,8,8,0,0,0,3.63,6.27A12,12,0,0,0,232.67,283.64Z" transform="translate(-199.24 -123.8)"/><path class="cls-14" d="M244.6,248.28c-1,.37-1.63,1-2.74,2.49-2.2,2.91-3.3,4.37-2.79,5s2,.23,2.69.05a8.28,8.28,0,0,0,5.48-5c.25-.73.67-1.92,0-2.54S244.8,248.21,244.6,248.28Z" transform="translate(-199.24 -123.8)"/><path class="cls-15" d="M256.55,253c.42.94.37,1.82,0,3.59-.67,3.52-1,5.28-1.85,5.4s-1.54-1.16-1.92-1.78c-2.07-3.38-.17-7-.07-7.17.37-.68,1-1.8,1.88-1.81C255.72,251.23,256.47,252.84,256.55,253Z" transform="translate(-199.24 -123.8)"/><path class="cls-12" d="M381.14,272.73" transform="translate(-199.24 -123.8)"/><path class="cls-16" d="M568.4,410.09c2.86.89-2.16,16.15,2.27,26.72,3.58,8.53,18.92,17,17.35,19.48-.91,1.46-2.25,2.79-4.13,2.75-6.5-.13-15.75-9.55-18.23-12.82-9.23-12.13-9.65-3.86-9.93-10.74C555.24,423.2,565.63,409.21,568.4,410.09Z" transform="translate(-199.24 -123.8)"/><path class="cls-17" d="M569.93,377.62a16.63,16.63,0,0,1,8.79,11.58c.84,4.36-.15,8.32-2.57,15.55-6.83,20.37-10,21.87-12.28,32.54-1.33,6.11-3.63,16.71.46,24.95,1.44,2.9,4.85,6.16,11.68,12.67,6.19,5.91,9.4,8.18,8.79,11.58-.65,3.67-4.55,2.41-4.89,2.28-7.89-3-10.85-4.09-20.33-11.8-4.62-3.76-11-8.29-16.24-22.65-2.62-7.23-2.15-16.57.2-33,3.78-26.32,5.92-40.21,13.5-44.48C562.51,373.8,568.65,377,569.93,377.62Z" transform="translate(-199.24 -123.8)"/><path class="cls-18" d="M563.67,379.39c.75-.29,6.13-2.42,6.58-7.85.39-4.58-3-8.37-3.79-9.17l7.21.14a16.27,16.27,0,0,1-.24,10.23,15.94,15.94,0,0,1-6.59,7.84Z" transform="translate(-199.24 -123.8)"/><path class="cls-19" d="M564.13,375.76c-4-3.79-12.76,3.24-13.61,3.94-1.9,1.56-5,4.51-14.78,22.22-7.83,14.13-7.18,14.6-10.58,19.21a53.41,53.41,0,0,1-18.39,16.09c-7.17,3.6-7.52,2.18-20.42,5.91-8,2.3-11,5.38-12.6,9-1.77,4.11,2.11,4.73,2.83,5,8.1,3.7,26.37,2.6,31,1.9,8.78-1.36,20,0,32.08-13.48,13.35-14.92,19.09-32,21.16-38.41S569.39,380.72,564.13,375.76Z" transform="translate(-199.24 -123.8)"/></svg>