<?xml version="1.0" encoding="utf-8"?>
<!-- Generator: Adobe Illustrator 24.0.1, SVG Export Plug-In . SVG Version: 6.00 Build 0)  -->
<svg version="1.1" id="earth" xmlns="http://www.w3.org/2000/svg" xmlns:xlink="http://www.w3.org/1999/xlink" x="0px" y="0px"
	 viewBox="0 0 1920 1080" style="enable-background:new 0 0 1920 1080;" xml:space="preserve">
<style type="text/css">
	.st0{fill:none;stroke:#FFFFFF;stroke-width:5;stroke-miterlimit:10;}
	.st1{opacity:0.42;fill:#0071A0;enable-background:new    ;}
	.st2{fill:#51A1D9;}
	.st3{fill:#99C440;}
	.st4{fill:#F2EBEB;}
	.st5{opacity:0.35;}
	.st6{fill:#0071A0;}
	.st7{fill:#696969;}
	.st8{fill:#565757;}
	.st9{fill:none;}
	.st10{fill:#1D1D1B;}
	.st11{fill:#FDF1B4;}
	.st12{fill:#FDDF7A;}
	.st13{fill:#D01317;}
	.st14{fill:#352614;}
	.st15{fill:#393417;}
	.st16{fill:#D59506;}
	.st17{fill:#F5A906;}
	.st18{fill:#77320F;}
	.st19{fill:#FFE401;}
</style>
<circle class="st0" cx="931.4" cy="465.7" r="396.5"/>
<title>logo rumaffald</title>
<path class="st1" d="M924.5,208.5c-148.9,0-269.7,120.7-269.7,269.7s120.7,269.7,269.7,269.7s269.7-120.7,269.7-269.7
	S1073.4,208.5,924.5,208.5C924.5,208.5,924.5,208.5,924.5,208.5z M926.6,631.3c-85.3,0-154.4-69.1-154.4-154.4
	s69.1-154.4,154.4-154.4S1081,391.6,1081,476.9l0,0C1081,562.2,1011.9,631.3,926.6,631.3z"/>
<circle class="st1" cx="924.5" cy="477.1" r="206.1"/>
<path class="st2" d="M1082.5,476.9c0,1.5,0,3.1,0,4.6c0,0.1,0,0.3,0,0.4c-0.6,19.7-5,39.1-13,57.1c-2.2,4.9-4.6,9.7-7.3,14.3
	c-27.5,47.8-78.3,77.5-133.5,78H927c-0.7,0-1.4,0-2.1,0l0,0c-74.2-1-135.8-53.6-150.2-123.2c-2.1-10.3-3.2-20.7-3.2-31.2
	c0-0.3,0-0.5,0-0.8c0-10.2,1.1-20.4,3.2-30.4c0.1-0.5,0.2-1,0.4-1.5c0.4-2.1,0.9-4.2,1.5-6.3c0.1-0.5,0.3-1,0.4-1.5
	c2.6-9.4,6-18.6,10.4-27.3c0.2-0.5,0.5-1,0.8-1.5c26.6-52.3,80.3-85.2,139-85.1h1.4c32.4,0.2,63.9,10.6,90.2,29.6
	c0.7,0.5,1.4,1,2.1,1.5c11.3,8.5,21.4,18.4,30,29.7c0.4,0.5,0.8,1,1.2,1.5c4.4,5.8,8.3,11.9,11.8,18.3l0.8,1.5
	c1.4,2.6,2.7,5.2,3.9,7.8c0.2,0.4,0.4,0.9,0.6,1.3C1078,433.5,1082.6,455.1,1082.5,476.9z"/>
<path class="st3" d="M874.6,470.5v9.7c0,14.5-11.8,26.3-26.3,26.3h-73.7c-4.2-20.6-4.2-41.8,0-62.3h74.1c1.8,0,3.6,0.2,5.3,0.6
	C866.1,447.5,874.6,458.2,874.6,470.5z"/>
<path class="st3" d="M1066.9,412.2c-0.2,0.1-0.4,0.2-0.6,0.2l0,0c-3.1,1.3-6.5,2-9.9,2H935.5c-14.5,0-26.3-11.8-26.3-26.3v-9.7
	c0-14.5,11.8-26.3,26.3-26.3h83.4c11.8,8.9,22.2,19.4,31,31.2c4.7,6.3,8.9,12.9,12.6,19.8C1064,406.1,1065.5,409.1,1066.9,412.2z"/>
<path class="st3" d="M974.3,420.1h64.2c10.7,0,19.4,8.7,19.4,19.4v0c0,10.7-8.7,19.4-19.4,19.4h-64.2c-10.7,0-19.4-8.7-19.4-19.4v0
	C954.9,428.7,963.6,420.1,974.3,420.1z"/>
<path class="st3" d="M1060.7,552.3c-4.1,7.4-8.9,14.5-14.2,21.1c-11.2,13.9-24.6,25.8-39.8,35.1H923c-14.5,0-26.3-11.8-26.3-26.3
	c0,0,0,0,0,0v-9.7c0-11.7,7.7-22,19-25.3c0.7-0.2,1.4-0.4,2.1-0.5h0.2c1.7-0.3,3.4-0.5,5.1-0.5h120.8c5.9,0,11.7,2,16.3,5.7
	L1060.7,552.3z"/>
<path class="st3" d="M912.3,502.3h64.2c10.7,0,19.4,8.7,19.4,19.4v0c0,10.7-8.7,19.4-19.4,19.4h-64.2c-10.7,0-19.4-8.7-19.4-19.4v0
	C892.9,511,901.6,502.3,912.3,502.3z"/>
<path class="st3" d="M831.1,397.6h40c9.3,0,16.8,7.5,16.8,16.8v0c0,9.3-7.5,16.8-16.8,16.8h-40c-9.3,0-16.8-7.5-16.8-16.8v0
	C814.3,405.1,821.8,397.6,831.1,397.6z"/>
<path class="st3" d="M826.3,427.1c3.6,2.6,6.8,6.4,5.6,11.3c-0.6,2.4-4,7.3-7.1,6.9l2.1,1.6l-0.2-0.4l0.4,2.6l0.1-0.4
	c0.9-2.6-2.5-5.4-4.8-3.7l-0.3,0.2c-1.3,0.8-1.9,2.4-1.5,3.9l0.1,0.5c0.5,1.5,1.8,2.5,3.4,2.6c6.9,0.9,13.2-6.3,14.3-12.5
	c1.2-7-3.1-15-10.2-16.5c-1.1-0.3-2.3,0.4-2.6,1.5C825.1,425.7,825.5,426.6,826.3,427.1L826.3,427.1z"/>
<path class="st3" d="M859.7,425.5c-5.7-0.4-9.5,7.3-10,12.1c-0.7,6.5,2.5,12.9,8.2,16.2c3.6,2.2,6.4-3.1,3.2-5.5
	c-3.9-2.7-5.8-7.4-4.8-12c0.9-3.5,3.8-5.5,4.9-8.8c0.2-0.9-0.3-1.8-1.2-2C860,425.5,859.9,425.5,859.7,425.5L859.7,425.5z"/>
<path class="st3" d="M850.1,428.7c-2.3,5-3.8,10.3-4.4,15.8c-0.2,3.3,5.4,4.1,5.8,0.8c0.7-5.5,0.8-11.1,0.2-16.7
	c-0.3-3.2-5.1-4.4-6-0.8c-1.4,6.2-2.2,12.6-2.2,19c0,3.9,5.8,3.9,6.1,0c0.3-5.3,0.3-10.6-0.2-15.9c-0.3-3.2-5-4.3-6-0.8
	c-1,3.9-1.8,7.9-2.4,11.9l6,0.8c0.2-4.5,0.1-8.9-0.3-13.4c-0.3-3.2-5.4-4.6-6-0.8l-2.5,16l6.1,0.8l-0.7-13.6
	c-0.2-3.4-5.3-4.4-6.1-0.8l-3.6,14.7l6.1,1.7c1.2-5.2,1.6-10.5,1.3-15.7c-0.2-3.4-5.4-4.6-6.3-0.9c-0.7,2.8-1.3,5.6-1.7,8.4
	c-0.4,1.7,0.6,3.5,2.4,3.9c1.7,0.4,3.5-0.6,3.9-2.4c0.1-0.2,0.1-0.4,0.1-0.6c0.4-2.6,0.9-5.1,1.5-7.6l-6.3-0.9
	c0.4,4.7,0.1,9.5-1,14.1c-0.9,4,5.2,5.7,6.1,1.7l3.5-14.7l-6.1-0.8l0.7,13.6c0.2,3.3,5.6,4.5,6.1,0.8l2.5-16.2l-6-0.8
	c0.4,4.4,0.6,8.9,0.4,13.4c-0.1,3.4,5.5,4.2,6,0.8c0.6-4,1.4-8,2.4-11.9l-6-0.8c0.5,5.3,0.5,10.6,0.2,15.9h6.1
	c0-5.8,0.6-11.6,1.9-17.3l-6-0.8c0.5,5.3,0.5,10.6,0.1,15.9h5.9c0.2-5,1.2-9.9,3-14.6C855.8,426.9,851.4,425.9,850.1,428.7
	L850.1,428.7z"/>
<path class="st3" d="M1036.6,407.3c-8.2,4.7-8.6,20,2.3,21.7c4.2,0.6,6.1-5.3,1.8-6.6c-6.1-1.8-2.9-8.1-0.5-11.6
	C1041.7,408.6,1038.8,406.1,1036.6,407.3L1036.6,407.3z"/>
<path class="st3" d="M1006.7,410.6c-0.9,2.3,1.8,4.6,2.2,7c0.4,2.8-1.1,5.5-3.7,6.5c-4.3,2-0.2,9,3.7,6.3c7.4-5,9.4-15.3,1.7-21.1
	c-0.9-0.5-1.9-0.5-2.8,0C1007.3,409.6,1006.9,410,1006.7,410.6L1006.7,410.6z"/>
<path class="st3" d="M1016.8,409.7c-3,1.9-5,4.9-5.8,8.4c-0.6,2.6,2.9,5.1,4.8,2.8c1.7-2,3.2-4.1,4.8-6.2l-5.4-2.3
	c-0.6,2.4-1,4.8-1.1,7.2c-0.2,2.9,3.2,3.6,5.1,2.1c2.2-1.7,3.9-3.8,5.3-6.3l-5.6-1.5c0,2.6-1.4,5,1.7,6.5c3.2,1.5,5.6-2.2,7.4-4.3
	l-5.1-2.9c-0.3,2.3-0.9,4.6-1.6,6.7c-1,3,3.1,5.2,5.2,3.1c2.1-2.2,3.7-4.2,5.5-6.4l-5.3-3.1l-1.7,6.4c-0.7,2.5,2.3,5.2,4.7,3.6
	c2.1-1.3,3.7-3.1,4.8-5.3c1.7-3.7-3.6-6.9-5.5-3.2c-0.5,1.2-1.4,2.3-2.5,3.1l4.7,3.6l1.6-6.4c0.9-3.7-3.7-5.2-5.8-2.4
	c-1.5,2-3.2,3.9-4.9,5.8l5.2,3.1c0.8-2.5,1.4-5,1.7-7.6c0.3-2.6-3.6-4.2-5.2-2.2c-0.9,1.3-1.9,2.4-3.1,3.4h3.1l-0.6-0.3l1.4,1.8
	c0.1-0.9,0.2-1.9,0.4-2.8c-0.1-1.7-1.5-3-3.2-2.9c-1,0-1.9,0.6-2.5,1.4c-1.1,2-2.5,3.7-4.3,5.1l5.1,2.1c0.1-1.9,0.3-3.8,0.8-5.7
	c0.4-1.6-0.6-3.2-2.2-3.6c-1.2-0.3-2.5,0.2-3.2,1.3c-1.4,1.9-2.9,3.8-4.2,5.7l5.3,1.4c0.3-2.5,1.1-4.8,2.4-6.9
	C1019.8,410.7,1018.1,408.8,1016.8,409.7L1016.8,409.7z"/>
<path class="st3" d="M906.1,537.7c2.3,2.5,5.8,5,5.7,8.7c-0.2,3.7-5.6,7.6-8,10.2c-2.9,3.1,1.8,7.8,4.7,4.7
	c3.8-4,11.7-9.7,10.5-16.2c-0.9-4.8-6.1-11.5-11.2-11.4c-1.3,0-2.3,1.1-2.3,2.4C905.4,536.7,905.7,537.3,906.1,537.7z"/>
<path class="st3" d="M945,533.9c-4.7,0-9.3,5.8-10.3,10.1c-1.3,5.5,2.6,9.5,6.8,12.3c3.8,2.5,7.3-3.6,3.5-6.1
	c-2.5-1.7-5.6-4.3-6.3-7.4c-1.1-5.5-10.7-1.7-6.3,3.7c3,3.7,5,7,9,9.8l3.5-6.1c-2.7-1.8-4.6-3.8-2.9-7c1.3-2.5,3.8-4.2,4.7-6.8
	c0.3-1.1-0.4-2.2-1.4-2.5C945.4,533.9,945.2,533.9,945,533.9L945,533.9z"/>
<path class="st3" d="M934.5,534c-2,3.8-3.4,7.9-4.2,12.1c-0.7,3.7,4.6,5.3,5.7,1.5c0.9-2.9,1.2-6,1.1-9.1c0.2-1.7-1-3.2-2.6-3.5
	c-1.7-0.2-3.2,1-3.5,2.6c-0.8,2.4-1.9,4.6-3.2,6.8l5.7,2.4c0.5-2.9,0.7-5.9,0.4-8.8c-0.2-2.8-4.3-4.6-5.8-1.5
	c-1.5,3-3.4,5.9-5.5,8.5l5.2,3.1c0.8-2.7,0.7-5.6-0.3-8.3c-0.5-1.7-2.3-2.6-4-2.1c-0.7,0.2-1.3,0.7-1.8,1.3l-3.1,4.9l5.8,2.4
	c0.5-2.5,0.3-5.1-0.5-7.5c-0.5-1.7-2.3-2.6-4-2.1c-1,0.3-1.8,1.1-2.1,2.1c-0.7,2.3-1.7,4.4-2.9,6.5l5.9,0.8l-0.2-1.8
	c-0.3-5-7.9-3.8-6.6,0.9c0.3,0.9,0.5,1.7,0.6,2.6c0.5,2.8,4.6,3.1,5.8,0.8c1.5-2.5,2.7-5.2,3.5-8h-6.1c0.6,1.3,0.7,2.7,0.5,4.1
	c-0.5,3.4,3.8,5.7,5.8,2.4l3-4.9l-5.8-0.7c0.7,1.6,0.8,3.3,0.3,5c-0.7,2.8,3.2,5.6,5.2,3.1c2.5-3,4.7-6.3,6.5-9.8l-5.8-1.5
	c0.2,2.4,0.2,4.8-0.2,7.2c-0.5,3.3,3.8,5.6,5.7,2.4c1.5-2.6,2.8-5.4,3.8-8.3l-6.1-0.8c0.1,2.5-0.1,5-0.6,7.5l5.8,0.8
	c0.4-3.8,1.3-7.5,2.8-11C939.7,533.3,935.7,531.7,934.5,534L934.5,534z"/>
<path class="st3" d="M1057.4,409.1c-5.6-1.8-12.2,2.5-14.3,7.5c-2.2,5-1.2,10.8,2.6,14.8c3.1,3.1,7.5-1.5,4.7-4.6
	c-2.1-2.3-2.5-5.7-1-8.5c1.9-3.4,6.3-3.4,8.9-5.8c0.8-0.8,0.8-2.1-0.1-2.9C1058,409.4,1057.7,409.2,1057.4,409.1L1057.4,409.1z"/>
<path class="st3" d="M1044.4,411.8c-3,2.2-4.7,6.2-5.9,9.6s3.6,4.9,5.5,2.3c2.2-3,3.3-6.7,3.3-10.5c0-2.2-2.7-4.1-4.6-2.7
	c-3.2,2.2-5.8,5.2-7.5,8.8c-0.8,1.4-0.4,3.1,0.8,4.1c1.2,1,3,0.9,4.1-0.2c2.2-2.4,3.4-5.6,3.3-8.9c0-1.8-1.5-3.2-3.3-3.2
	c-0.5,0-1,0.2-1.5,0.4c-2.7,1.3-4.8,3.5-6.1,6.2c-0.9,1.6-0.3,3.5,1.2,4.5c1.6,0.9,3.5,0.4,4.5-1.2c0.7-1.7,2-3.1,3.6-4l-4.8-2.8
	c0.2,1.6-0.3,3.2-1.3,4.5l5.3,3.1c1-2.4,2.6-4.4,4.7-5.9l-4.6-2.7c0.1,2.7-0.7,5.3-2.2,7.5l5.5,2.3c0.3-1.6,0.7-3.1,1.3-4.6
	c0.6-1.4,1.5-2.7,1.9-4.2C1047.9,412.6,1045.9,410.6,1044.4,411.8L1044.4,411.8z"/>
<path class="st3" d="M1006.4,422.7c-0.8-0.5-1.7-0.8-2.6-0.9c-2.4-0.3-2.3,3.1-0.5,3.8c2.6,1.1,6.2-1.2,8-3.1c2.3-2.7,4-5.8,4.9-9.3
	c1.2-4-4.8-5.5-6.2-1.7c-0.7,2.4-1.6,4.8-2.9,7c-0.5,0.8-1.2,1.5-1.9,2c-1,0.5-1.9,1.1-2.8,1.8l3.1,2.3l0.8-0.6
	c0.4-0.1,0.7-0.6,0.5-1C1006.7,422.9,1006.6,422.7,1006.4,422.7L1006.4,422.7z"/>
<path class="st3" d="M1009.9,408.6l-0.5-0.7c-1.6-2.1-4.9,1-3,3c1.6,1.7,3.8,2.9,5.5,4.6c1.6,1.5,2.8,3.4,3.4,5.5
	c1,3.9,6.4,2.2,5.9-1.6c-0.6-3-2.2-5.7-4.6-7.6c-2.3-2-5.1-3.5-8.1-4.3l1.3,3.1l0.4-0.5C1010.4,409.5,1010.3,408.9,1009.9,408.6
	L1009.9,408.6z"/>
<path class="st4" d="M846.5,422c0,3-0.9,6-2.7,8.4l-0.4,0.5l-0.3,0.4c-0.3,0.3-0.6,0.6-0.9,0.9c-0.5,0.6-1.1,1.1-1.7,1.5l-0.7,0.4
	c-0.5,0.4-1.1,0.7-1.7,0.9c-0.3,0.2-0.7,0.3-1,0.4c-0.7,0.2-1.3,0.4-2,0.5c-1,0.2-2.1,0.4-3.2,0.4h-54.3c-0.4,0-0.9,0-1.3,0
	c2.6-9.9,6.2-19.6,10.7-28.8h45.1C840.1,407.6,846.5,414.1,846.5,422z"/>
<path class="st4" d="M1067.8,537.9c-2.1,4.9-4.5,9.7-7.1,14.4c-4.1,7.4-8.9,14.5-14.2,21.1H944.3c-11,0-20-8.9-20-20
	c0-2.5,0.5-4.9,1.4-7.2c0,0,0-0.1,0-0.1c0.7-1.8,1.6-3.4,2.8-4.9c0.5-0.6,1-1.2,1.5-1.8l0,0v-0.1l0.6-0.6c3.7-3.4,8.5-5.3,13.5-5.3
	H1055c4.4,0,8.6,1.4,12.1,4.1C1067.5,537.6,1067.6,537.7,1067.8,537.9z"/>
<path class="st4" d="M953.4,491.4h65.9c8.5,0,15.4,6.9,15.4,15.4v0c0,8.5-6.9,15.4-15.4,15.4h-65.9c-8.5,0-15.4-6.9-15.4-15.4v0
	C937.9,498.3,944.9,491.4,953.4,491.4z"/>
<path class="st4" d="M934.3,468.5h36.3c5.5,0,9.9,4.4,9.9,9.9l0,0c0,5.5-4.4,9.9-9.9,9.9h-36.3c-5.5,0-9.9-4.4-9.9-9.9l0,0
	C924.4,472.9,928.8,468.5,934.3,468.5z"/>
<path class="st4" d="M1062.4,403.1h-33.6c-5.5,0-9.9-4.4-10-9.8c0-3.8,2.1-7.2,5.4-8.9c1.4-0.7,3-1.1,4.6-1.1h21.1
	C1054.5,389.5,1058.7,396.2,1062.4,403.1z"/>
<path class="st4" d="M948,487.6c2-0.8,4.2,0.2,5,2.2c0.9,2.3-0.7,4.9-2.5,6.2c-4,2.9-0.1,9.5,3.9,6.6c4.9-3.5,7.8-10.1,4.9-15.9
	c-2.6-5-8.6-7-13.7-4.8C942.3,483.3,944.6,488.8,948,487.6L948,487.6z"/>
<path class="st4" d="M969.2,479.9c-5.3,1.5-8.7,6.6-8.3,12c0.6,5.3,5.5,10.3,11.1,9.6c3.8-0.5,5.4-6.2,1-7.2
	c-1.8-0.4-3.9-1.1-4.5-3.2c-0.4-1.9,0.7-3.9,2.6-4.6C975.2,485.1,973.6,478.6,969.2,479.9L969.2,479.9z"/>
<path class="st4" d="M958.1,486.3c-0.2,3.2,2.3,6.8,4.1,9.3c0.8,1.3,2.5,1.9,3.9,1.3c1.5-0.6,2.2-2.2,1.8-3.7
	c-0.8-2.8-2-5.3-3.8-7.6c-0.7-1.1-2-1.7-3.3-1.5c-1.3,0.2-2.4,1.1-2.8,2.4c-0.8,3.4-0.1,6.9,1.9,9.7c1,1.7,3.1,2.2,4.8,1.2
	c1.7-1,2.2-3.1,1.2-4.8c-0.1-0.2-0.3-0.5-0.5-0.6c-0.8-1.1-1.1-2.4-0.9-3.7l-5.6,1.5c1.3,1.6,2.3,3.3,3,5.2l5.2-3.1
	c-1-1-1.8-2.2-2.5-3.4c-0.7-1.3-1.4-2.6-2.4-3.8c-1-0.9-2.5-0.9-3.5,0.1c-0.4,0.4-0.7,1-0.7,1.6V486.3z"/>
<path class="st4" d="M1020.8,512.2c-17,3.2-15.4,29.3,1.3,31.7c5.3,0.8,7.6-7.3,2.2-8.1c-3.9-0.3-7.1-3.4-7.5-7.4
	c-0.4-4.6,3.2-7.7,6.6-10.2c1.5-1.1,1.9-3.2,0.8-4.7C1023.5,512.5,1022.1,512,1020.8,512.2L1020.8,512.2z"/>
<path class="st4" d="M979,519.4c2.3,2.3,5.8,3.6,7.2,6.8c0.6,1.3,0.7,2.8,0.3,4.2c-0.2,0.9-1.5,3.8-2.9,3.5
	c-5.1-1.1-7.3,6.8-2.2,7.9c7.8,1.6,13.7-6.2,13.4-13.4c-0.3-6.9-7.1-14.9-14.6-13.3c-1.4,0.4-2.2,1.8-1.8,3.2
	C978.4,518.7,978.7,519.1,979,519.4L979,519.4z"/>
<path class="st4" d="M994,515.2c-2.2,4.9-2.8,10.2-1.8,15.5c0.5,3.5,5.9,3.1,6.7,0c0.7-2.8,1.3-5.6,1.9-8.5l-7.1-0.9
	c0,4.1,0.4,8.1,1.4,12.1c0.6,1.9,2.6,3.1,4.5,2.5c0.3-0.1,0.6-0.2,0.8-0.3c4-3.1,3.8-8.6,4.6-13.2l-7.2-1l0.3,11.4
	c0,2.1,1.7,3.7,3.8,3.7c0.6,0,1.2-0.2,1.8-0.5c4.4-2.7,4-10,4.7-14.5h-7.2c1.6,4.5-0.4,9.4,0.9,14.1c0.7,2.5,4.5,4,6.3,1.7
	c3-3.7,2.8-9.3,3.4-13.9l-7.4-1c0.3,4.9,1.1,9.7,2.3,14.4c1.2,4.8,8.6,2.7,7.4-2c-1.1-4.1-1.8-8.2-2.1-12.4c-0.3-3.9-6.8-5.5-7.4-1
	l-0.9,6.2c-0.1,1-0.1,3.8-0.6,4.4l6.3,1.7c-1.3-4.6,0.7-9.4-1-14c-1.1-3.1-6.6-4-7.2,0l-0.9,6.3c-0.1,0.9-0.4,1.9-0.4,2.8
	c0,0.9-0.7,1.5,0.2,1l5.6,3.2l-0.3-11.4c-0.1-3.9-6.5-5.2-7.2-1l-0.8,5c-0.2,1.3-0.3,2.6-0.3,3.9l5.3,2.2c-0.8-3.3-1.2-6.7-1.2-10.1
	c0-4-6.3-5-7.1-1c-0.6,2.8-1.2,5.7-1.7,8.5h6.7c-0.8-3.8-0.8-7.7,0-11.5C999.4,514.5,995.3,512.2,994,515.2L994,515.2z"/>
<path class="st3" d="M1001.2,413.6c1.3,1.4,2.3,3,2.9,4.8c0.5,1.8-0.5,2.3-1.9,3.3c-1.9,1.2-2.4,3.6-1.2,5.5
	c0.9,1.4,2.6,2.1,4.3,1.7c4.6-0.9,7.2-6.2,6.5-10.6c-0.6-3.7-3.9-8.6-7.8-9.5c-1.5-0.4-3.1,0.6-3.5,2.1
	C1000.2,411.9,1000.5,412.9,1001.2,413.6L1001.2,413.6z"/>
<path class="st3" d="M1003.4,411.9c-2.1,3-0.7,8.4-5.3,9.4c-4.6,0.9-3.6,8.6,1.1,8.1c3.8-0.3,7.1-2.6,8.6-6
	c1.5-3.2,2.4-8.3,0.5-11.4c-0.8-1.4-2.6-1.8-4-0.9C1004,411.2,1003.6,411.5,1003.4,411.9z"/>
<g class="st5">
	<path class="st6" d="M1080.3,476.9c0,1.5,0,3.1-0.1,4.6c0,0.1,0,0.3,0,0.4c-0.6,19.7-5,39.1-12.9,57.1c-2.2,4.9-4.6,9.7-7.2,14.3
		c-7.9,13.8-17.8,26.3-29.5,37.1c-28,26-64.7,40.6-103,41c-3.9,0-7.7-0.1-11.5-0.4c3.4-0.3,6.8-0.6,10.2-1.1l0,0
		c20.2-3,39.5-10.3,56.7-21.3c14.7-9.4,27.6-21.3,38.3-35.1c6.5-8.4,12.1-17.6,16.8-27.2c2-4.1,3.8-8.4,5.5-12.8
		c6.8-18.1,10.3-37.2,10.3-56.5c0-6-0.3-12-1-18c-0.2-1.9-0.5-3.8-0.7-5.6c-1.6-11.1-4.4-22-8.4-32.5c-0.1-0.2-0.2-0.5-0.3-0.7l0,0
		c-0.1-0.3-0.3-0.7-0.4-1l-0.1-0.2l-0.2-0.6c-0.2-0.5-0.4-1-0.6-1.5c-0.2-0.5-0.4-0.9-0.6-1.4s-0.3-0.6-0.4-0.9
		c-1.6-3.8-3.4-7.6-5.4-11.3c-3.4-6.5-7.3-12.8-11.6-18.7c-8.8-12.3-19.4-23.2-31.5-32.3c-22.2-17-48.8-27.1-76.7-29.2
		c3.7-0.2,7.4-0.4,11.2-0.4c32.2,0.2,63.5,10.6,89.5,29.6h2c11.8,8.9,22.2,19.4,31,31.2c4.7,6.3,8.9,12.9,12.6,19.8
		c1.5,3,3.1,6,4.5,9.2c-0.2,0.1-0.4,0.2-0.6,0.2c0.2,0.4,0.4,0.9,0.6,1.3C1075.8,433.6,1080.4,455.1,1080.3,476.9z"/>
</g>
<path class="st7" d="M1163,264.7c-0.9-7.1-8.9-9.5-18-13.7c-4.4-2-34-11.6-56.7-0.6c-3.5,1.8-6,5.1-6.9,9
	c-4.8,24.9,10.9,49.1,15.3,54.6c6.1,7.6,10.7,12.9,18,13.7c11.4,1.3,20.7-9.5,29.7-20.1C1153.8,296.7,1165.1,280.6,1163,264.7z"/>
<path class="st8" d="M1163,264.7c-0.9-7.1-8.9-9.5-18-13.7c-4.4-2-34-11.6-56.7-0.6c-3.5,1.8-6,5.1-6.9,9c-4.8,24.9,54,58.8,63,48.2
	C1153.8,296.7,1165.1,280.6,1163,264.7z"/>
<line class="st9" x1="1119" y1="268.2" x2="1121.7" y2="298.8"/>
<polygon class="st10" points="1123.5,298 1119.8,299.5 1117.2,269 1120.9,267.4 "/>
<line class="st9" x1="1105.2" y1="286.2" x2="1135.4" y2="280.8"/>
<polygon class="st10" points="1135.2,282.7 1105,288.2 1105.5,284.2 1135.7,278.8 "/>
<path class="st7" d="M1162,313.7c-9.2,12.1-22.2,20.7-36.9,24.5l-1.9-7.3c26.9-7,45.7-31.5,45.4-59.3h7.6
	C1176.3,286.8,1171.3,301.6,1162,313.7L1162,313.7z"/>
<path class="st7" d="M1180,327.5c-3.3,4.3-7.3,8.1-11.7,11.3c-6.8,4.8-14.5,8.1-22.6,9.6l-1.5-7.4c7.1-1.4,13.8-4.2,19.7-8.4
	c7.7-5.5,13.6-13.2,16.9-22.1c2.5-6.8,3.5-14,2.9-21.2l7.6-0.5c0.6,8.3-0.5,16.6-3.4,24.4C1185.9,318.3,1183.3,323.1,1180,327.5z"/>
<path class="st7" d="M1198,341.2c-2.9,3.7-6.4,6.9-10.4,9.4c-6.3,3.9-13.4,6.3-20.8,7l-0.8-7.5c6.2-0.6,12.3-2.6,17.6-5.9
	c6.6-4.1,11.5-10.5,13.7-17.9c1.7-6,2.1-12.3,1-18.4l7.5-1.2c1.2,7.3,0.8,14.8-1.3,21.9C1203,333.2,1200.8,337.5,1198,341.2z"/>
<path class="st7" d="M1211.2,351.3c-2.4,3.2-5.4,5.9-8.8,8c-5.3,3.3-11.4,5.3-17.6,5.9l-0.7-6.4c5.3-0.5,10.4-2.2,14.9-5
	c5.6-3.5,9.7-8.9,11.6-15.2c1.5-5.1,1.8-10.5,0.9-15.7l6.3-1c1,6.2,0.7,12.5-1.1,18.5C1215.5,344.5,1213.6,348.1,1211.2,351.3z"/>
<line class="st9" x1="1148.2" y1="303.1" x2="1229.2" y2="365.1"/>
<rect x="1185.6" y="283.1" transform="matrix(0.6081 -0.7939 0.7939 0.6081 200.6163 1074.6796)" class="st7" width="6.3" height="102"/>
<path class="st7" d="M1272.3,357.2c-8.9,1.1-25.5,3.2-32.5,3.7c-2.7,0.2-8.3,0.3-12.9,0.3c-1.2,0-2.2,1-2.2,2.2c0,0.2,0,0.4,0.1,0.5
	c1.1,4.4,2.5,10,3.1,12.6c1.4,6.9,3.7,23.4,4.9,32.3c0.3,2.3,1,3.6,2.7,2.5c4.2-2.6,7.8-9.5,9.3-12.2c2-3.6,1.5-16.1,1.8-20.6
	c4.3-1.4,16.5-4.3,19.4-7.2c2.2-2.1,7.9-7.4,9.3-12.2C1276.1,357.2,1274.6,356.9,1272.3,357.2z"/>
<path class="st7" d="M1242,408.5c-1.4,1.9-3.1,3.6-5.1,4.9c-1.1,0.8-2.7,1-4,0.4c-2.1-1-2.5-3.6-2.6-4.7c-1.3-9.2-3.6-25.3-4.9-32.1
	c-0.4-2-1.5-6.3-3.1-12.4c-0.7-2.5,0.9-5.1,3.4-5.8c0.4-0.1,0.8-0.2,1.2-0.2c6.3,0,10.7-0.2,12.8-0.3c6.9-0.5,23.2-2.5,32.3-3.6l0,0
	c1.1-0.2,3.8-0.5,5.2,1.3c0.9,1.1,1.1,2.6,0.6,4c-1.5,5-6.9,10.3-9.5,12.8l-0.5,0.5c-2.5,2.4-8.5,4.3-16.1,6.5
	c-1,0.3-1.9,0.5-2.7,0.8c0,0.8,0,1.8,0,2.8c-0.1,7.9-0.3,14.2-2,17.2l-0.3,0.6C1245.4,403.6,1243.8,406.1,1242,408.5z M1235.3,408.4
	c3-2.5,5.8-7.6,7-9.8l0.4-0.6c1.2-2.2,1.3-10.4,1.4-14.8c0-1.9,0-3.5,0.1-4.7l0.1-1.7l1.6-0.5c1.1-0.4,2.7-0.8,4.6-1.4
	c4.3-1.2,12.2-3.5,14-5.2l0.5-0.5c1.9-1.8,6.1-5.8,7.6-9.4c-9.2,1.2-25.5,3.2-32.5,3.6c-2.2,0.2-6.4,0.3-12.7,0.3
	c1.5,6.1,2.6,10.2,3.1,12.3C1231.7,382.9,1234,399.2,1235.3,408.4L1235.3,408.4z"/>
<path class="st11" d="M627.8,339.8c5.2,4,14.6,12.5,18,25.6c7.7,29.9-22.9,53.7-24.5,55c-10.4,7.6-22.6,12.4-35.5,13.7
	c8.7,13.4,20.6,24.5,34.6,32.2c32.2,17.9,64.8,12.5,73.6,10.7c-4.3-3.2-14.1-11.7-18-25.6c-5.5-19.8,5-36.1,9.2-42.6
	c3.9-6,12.8-19.8,30.6-24.8c6.6-1.8,13.4-2.2,20.2-1.3c-8.7-13.4-20.6-24.5-34.6-32.2C669.1,332.7,636.5,338.1,627.8,339.8z"/>
<path class="st12" d="M701,349.9c-32.2-17.9-64.8-12.5-73.6-10.7c5.2,4,14.6,12.5,18,25.6c7.7,29.9-22.9,53.7-24.5,54.9
	c-10.4,7.6-22.6,12.4-35.5,13.7c8.7,13.4,20.6,24.5,34.6,32.2"/>
<path class="st13" d="M677.7,359.6c3.1-3.1,7.4-4.8,11.8-4.6c3.1,0,6.1,1.2,8.3,3.3c5.5,5.9,1.3,19,1.3,19s11.3-2.3,20.1-1.2
	c6,0.8,11.7,3,16.7,6.6c1.4-6.3,1-13-1.3-19c-5.3-13.5-20.2-22.8-38.1-24.4c-1.9-3.3-8.5-13.8-21.5-17.8
	c-16.1-4.9-35.6,2.2-47.3,18.2c2.9,0.7,5.7,1.8,8.3,3.3c2.7,1.5,8.4,4.8,11.2,10.8c0.6,1.3,1.2,2.5,2,3.6c0.3-2.9,1.5-5.7,3.5-7.9
	c3-3.2,7.4-4.9,11.8-4.6C671.2,345.8,677.1,351.8,677.7,359.6z"/>
<path class="st13" d="M636.4,452.3c0.3,3.9,2.3,7.4,5.5,9.6c2.4,1.9,5.3,3.1,8.3,3.3c8.1,0.2,13.9-9.2,13.9-9.2
	c4.1,4.8,8.7,9.2,13.9,12.9c3.5,2.3,8,6.6,15.9,8.2c-2.3,2.9-5.9,5.5-13.2,7.6c-13.1,3.9-30.3-0.2-44.4-10.3
	c-9.4,1.6-19.1,0.3-27.8-3.6c-15.1-7.2-25.2-21.2-22.9-36.7c2.6,1.4,5.4,2.5,8.3,3.3c5.4,1,10.9,0.8,16.2-0.5
	c1.3-0.3,2.6-0.6,3.9-0.7c-1.7,1.6-2.8,3.9-2.8,6.3c0.2,3.9,2.3,7.4,5.5,9.6C622.8,455.8,630.4,456,636.4,452.3z"/>
<path class="st14" d="M654.6,398.4c-1.5,0.6-2.5,1.5-4.2,3.8c-3.4,4.4-5,6.7-4.3,7.6s3.1,0.4,4.1,0.1c3.8-1.1,6.9-3.9,8.4-7.6
	c0.4-1.1,1-2.9,0-3.9C657.6,397.4,654.9,398.3,654.6,398.4z"/>
<path class="st15" d="M672.8,405.6c0.6,1.4,0.6,2.8,0,5.5c-1,5.4-1.5,8.1-2.8,8.2s-2.3-1.8-2.9-2.7c-3.2-5.2-0.3-10.7-0.1-10.9
	c0.6-1,1.5-2.7,2.9-2.8C671.6,402.9,672.7,405.3,672.8,405.6z"/>
<path class="st12" d="M862.9,435.7"/>
<path class="st16" d="M1148.5,645.2c4.4,1.4-3.3,24.6,3.5,40.8c5.5,13,28.9,25.9,26.5,29.7c-1.4,2.2-3.4,4.3-6.3,4.2
	c-9.9-0.2-24-14.6-27.8-19.6c-14.1-18.5-14.7-5.9-15.1-16.4C1128.5,665.2,1144.3,643.9,1148.5,645.2z"/>
<path class="st17" d="M1150.9,595.7c6.9,3.5,11.9,10,13.4,17.7c1.3,6.7-0.2,12.7-3.9,23.7c-10.4,31.1-15.3,33.4-18.7,49.6
	c-2,9.3-5.5,25.5,0.7,38.1c2.2,4.4,7.4,9.4,17.8,19.3c9.4,9,14.3,12.5,13.4,17.7c-1,5.6-6.9,3.7-7.5,3.5c-12-4.6-16.6-6.2-31-18
	c-7-5.7-16.8-12.6-24.8-34.6c-4-11-3.3-25.3,0.3-50.3c5.8-40.1,9-61.3,20.6-67.9C1139.5,589.8,1148.9,594.7,1150.9,595.7z"/>
<path class="st18" d="M1141.3,598.4c1.1-0.4,9.4-3.7,10-12c0.6-7-4.6-12.8-5.8-14l11,0.2c1.6,5.1,1.4,10.6-0.4,15.6
	c-1.9,5-5.5,9.2-10.1,12L1141.3,598.4z"/>
<path class="st19" d="M1142,592.8c-6.1-5.8-19.5,4.9-20.8,6c-2.9,2.4-7.6,6.9-22.5,33.9c-11.9,21.6-11,22.3-16.1,29.3
	c-7.3,10.2-16.9,18.6-28.1,24.5c-10.9,5.5-11.5,3.3-31.1,9c-12.2,3.5-16.8,8.2-19.2,13.7c-2.7,6.3,3.2,7.2,4.3,7.6
	c12.4,5.6,40.2,4,47.3,2.9c13.4-2.1,30.5,0,48.9-20.6c20.4-22.8,29.1-48.8,32.3-58.6C1140.1,630.9,1150,600.4,1142,592.8z"/>
</svg>
