<svg xmlns="http://www.w3.org/2000/svg" viewBox="0 0 295.4 322"><defs><style>.cls-1{fill:#a5a09d;}.cls-2{fill:#ccc;}.cls-3{fill:#c57737;}.cls-4{fill:#ecb78d;}.cls-5{fill:#e6e6e6;}</style></defs><title>malerspatel</title><g id="Layer_2" data-name="Layer 2"><g id="Layer_1-2" data-name="Layer 1"><path class="cls-1" d="M293.4,20a21.17,21.17,0,0,0-4-9c-2-2.45-7.78-6.65-9.2-7.48A21,21,0,0,0,270.73.81a30.34,30.34,0,0,0-12.87,1.81A33.17,33.17,0,0,0,248.51,8c-8.79,7-14.23,15.85-17.29,20.61-8.14,12.65-6.64,7.49-21.27,28.25-8.2,11.64-14.1,21-19.15,29-3.42,5.42-6.23,10-8.22,13.28-.15,1.36-.29,2.73-.44,4.1l-8.94,15.4,1.41,2.83c-24.13,13.49-44.23,25.83-59.61,35.66-20.31,13-43.06,27.61-70.8,49.36C25.59,221,10.67,234.14,0,244,13.83,258.5,74.19,310.43,90.4,322c8.23-11.94,19.15-28.54,31-49,17.66-30.51,29-55.07,39-77,7.58-16.59,17-38.22,27-64l3,1,14-11,4-1c3-2.43,7.11-5.85,12-10,7.2-6.11,15.61-13.25,26-23,18.51-17.38,13.61-15.18,25-25,4.28-3.7,12.28-10.31,18-20a33.26,33.26,0,0,0,4-10A30.49,30.49,0,0,0,293.4,20Z"/><path class="cls-2" d="M190.05,133.17l14-11,4-1c3-2.44,7.11-5.86,12-10,7.2-6.12,15.61-13.25,26-23,18.51-17.38,13.61-15.18,25-25,4.28-3.7,12.28-10.31,18-20a33.22,33.22,0,0,0,4-10,30.48,30.48,0,0,0,0-13,21.11,21.11,0,0,0-4-9c-2-2.45-7.78-6.66-9.2-7.49A21.11,21.11,0,0,0,270.38,1a30.18,30.18,0,0,0-12.87,1.81,32.71,32.71,0,0,0-9.34,5.36c-8.8,7-14.24,15.85-17.3,20.61-8.14,12.65-6.64,7.48-21.27,28.24-8.2,11.65-14.1,21-19.15,29-3.42,5.41-6.23,10-8.22,13.27-.15,1.37-.29,2.74-.44,4.1l-8.94,15.4C181.4,120,187.4,124,190.05,133.17Z"/><path class="cls-3" d="M204,122.66l4.08-1c3-2.46,7.25-5.92,12.23-10.11,7.34-6.19,15.91-13.41,26.5-23.26C265.65,70.7,260.65,72.93,272.26,63c4.37-3.74,12.52-10.43,18.35-20.22a33.27,33.27,0,0,0,4.07-10.12,30.1,30.1,0,0,0,0-13.14,21.32,21.32,0,0,0-4.07-9.11c-2-2.47-7.94-6.72-9.38-7.56A21.56,21.56,0,0,0,271.58.1a31.13,31.13,0,0,0-13.12,1.83,33.65,33.65,0,0,0-9.53,5.42c-9,7.09-14.5,16-17.63,20.85C223,41,224.53,35.76,209.62,56.76,201.26,68.54,195.25,78,190.1,86c-3.49,5.48-6.35,10.11-8.38,13.43l-.45,4.14C194.65,104.8,200.77,110.87,204,122.66Z"/><path class="cls-4" d="M200.4,107l8,10c10.48-8.36,18.54-15.75,24-21,15-14.45,17.25-19.27,32-32a146.83,146.83,0,0,0,12-11c7.53-7.86,13.16-13.88,15-23,.67-3.35,2.05-10.19-2-16a17.08,17.08,0,0,0-8-6,24.56,24.56,0,0,1,3,13c-.5,7.62-4.89,13-10,19-4.41,5.21-5.72,5.26-15,14-7.76,7.3-7.94,8.29-14,14-8.33,7.84-12.37,10.08-21,17A248.37,248.37,0,0,0,200.4,107Z"/><path class="cls-5" d="M185.4,122a18.83,18.83,0,0,1,2,2,18.26,18.26,0,0,1,3,5l12-8a20.32,20.32,0,0,0-2-5,20.07,20.07,0,0,0-3-4Z"/></g></g></svg>