<?xml version="1.0" encoding="utf-8"?>
<!-- Generator: Adobe Illustrator 23.1.0, SVG Export Plug-In . SVG Version: 6.00 Build 0)  -->
<svg version="1.1" id="Layer_1" xmlns="http://www.w3.org/2000/svg" xmlns:xlink="http://www.w3.org/1999/xlink" x="0px" y="0px"
	 viewBox="0 0 1920 1080" style="enable-background:new 0 0 1920 1080;" xml:space="preserve">
<style type="text/css">
	.st0{fill:#8A8C91;}
	.st1{fill:#E5E5E5;}
	.st2{opacity:0.29;fill:#1E1E1E;}
</style>
<path class="st0" d="M1095.37,701.69l127.87-121.74c0,0-67.72-65.8-147.3-58.17l-18.01-18.92l-31.43,29.92l17.99,18.9
	C1032.95,630.81,1095.37,701.69,1095.37,701.69z"/>
<g>
	<path class="st1" d="M833.17,434.37l135.95-129.43l142.27,149.44c3.41,3.58,3.27,9.24-0.31,12.64l-123,117.1
		c-3.58,3.41-9.24,3.27-12.64-0.31L833.17,434.37z"/>
</g>
<polygon class="st0" points="991.54,328.48 1165.94,349.62 1085.01,426.67 "/>
<polygon class="st0" points="855.58,457.91 868.14,633.14 949.06,556.1 "/>
<g>
	<path d="M904.1,396.6l33.39-32.61l4.6,4.71l-6.44,27.2c-1.49,6.3-3.12,11.67-4.99,16.6l0.15,0.04c4.07-4.75,8.04-8.82,13.24-13.9
		L958.02,385l3.97,4.06l-33.39,32.61l-4.26-4.36l6.59-27.15c1.44-5.96,3.08-11.92,5.05-17.13l-0.19-0.1
		c-3.97,4.36-7.88,8.38-13.43,13.8l-14.27,13.94L904.1,396.6z"/>
	<path d="M951.74,424.36l-13.9,6.8l-4.35-4.46l44.47-21.27l5.08,5.2l-22.26,44.01l-4.5-4.61l7.02-13.83L951.74,424.36z
		 M965.8,432.02l6.42-12.65c1.45-2.88,2.96-5.3,4.4-7.69l-0.1-0.1c-2.47,1.45-5.03,2.88-7.69,4.22l-12.85,6.16L965.8,432.02z"/>
	<path d="M970.27,453.84c0.7,3.09,2.47,6.88,5.37,9.86c4.31,4.41,9.15,4.71,12.52,1.43c3.12-3.05,3.16-6.58,0.49-12.78
		c-3.39-7.34-3.86-13.47,0.85-18.06c5.2-5.08,13.28-4.55,19.61,1.95c3.34,3.41,4.97,6.67,5.58,8.98l-4.68,2.25
		c-0.47-1.67-1.66-4.87-4.61-7.89c-4.45-4.56-8.86-3.63-11.14-1.4c-3.12,3.04-2.68,6.57,0.04,12.92c3.34,7.78,3.42,13.32-1.49,18.11
		c-5.15,5.03-13.34,5.57-21.03-2.31c-3.15-3.22-5.64-7.65-6.19-10.6L970.27,453.84z"/>
	<path d="M1005.24,479.14l-13.89,6.79l-4.35-4.46l44.48-21.27l5.08,5.21l-22.26,44.01l-4.51-4.61l7.02-13.82L1005.24,479.14z
		 M1019.31,486.8l6.42-12.66c1.45-2.87,2.95-5.3,4.39-7.68l-0.1-0.1c-2.46,1.44-5.03,2.88-7.69,4.22l-12.85,6.16L1019.31,486.8z"/>
</g>
<polygon class="st2" points="1097.29,414.98 1003.37,329.91 991.54,328.48 1085.01,426.67 "/>
<path class="st2" d="M1052.65,522.65l11.88,12.48c0,0,25.19-5.08,57.37,12.11c32.18,17.19,73.63,59.1,73.63,59.1l27.72-26.39
	c0,0-42.57-40.98-97.22-54.06c0,0-29.22-7.56-50.08-4.11l-10.64-11.18L1052.65,522.65z"/>
<path class="st2" d="M1092.64,484.57c0,0,9.04-11.77,4.67-22.67c-4.37-10.91-64.21-79.63-64.21-79.63l-63.98-77.33l134.1,140.99
	c0,0,7.49,8.74,4.27,19.91c0,0-0.61,5.14-5.71,10.01C1096.69,480.72,1092.64,484.57,1092.64,484.57z"/>
</svg>
