<svg xmlns="http://www.w3.org/2000/svg" viewBox="0 0 592 409.08"><defs><style>.cls-1{fill:#cecce4;}.cls-2{fill:#5f699e;}.cls-3{fill:#48426b;}.cls-4{fill:#999;}.cls-5{fill:#dcdcec;}.cls-6{opacity:0.53;}.cls-7{fill:#7e7f7e;}.cls-8{fill:#9694b9;}.cls-9{fill:#8c6239;}.cls-10{fill:#b3b3b3;}.cls-11{fill:#666;}.cls-12{fill:#ccc;}.cls-13{fill:#0065da;}.cls-14{fill:#fcee21;}.cls-15{fill:#f2f2f2;}</style></defs><title>net normal</title><g id="Layer_2" data-name="Layer 2"><g id="Layer_1-2" data-name="Layer 1"><polyline class="cls-1" points="590.85 150.9 532.42 115.8 453.23 137.19 498.11 187.35 592 152.13"/><polygon class="cls-2" points="520.54 141.64 505.81 146.36 483.32 131.35 498.1 127.37 520.54 141.64"/><polygon class="cls-2" points="502.81 147.33 482.77 153.76 460.83 137.4 480.69 132.06 502.81 147.33"/><polygon class="cls-2" points="472.14 160.36 482.85 156.94 511.93 179.33 490.97 187.13 472.14 160.36"/><polygon class="cls-2" points="536.13 170.32 515.31 178.06 485.76 156 506.01 149.52 536.13 170.32"/><polygon class="cls-2" points="538.38 135.91 523.65 140.63 523.63 140.63 500.87 126.63 516.97 122.32 538.38 135.91"/><polygon class="cls-2" points="523.91 143.78 554.74 163.39 539.67 169 509.06 148.54 523.91 143.78"/><polygon class="cls-2" points="571.67 157.08 558.41 162.02 527.11 142.76 541.77 138.06 571.67 157.08"/><polygon class="cls-2" points="554.14 130.86 541.49 134.91 519.76 121.57 532.34 118.18 554.14 130.86"/><polygon class="cls-2" points="586.09 150.76 575.31 155.72 544.95 137.06 557.74 132.95 586.09 150.76"/><polygon class="cls-3" points="263.86 181.4 258.96 186.01 312.7 257.86 320.56 256.4 263.86 181.4"/><path class="cls-3" d="M278,186.59l30.84,3.32,7.06,2.59,22.91,29.26-.37,11.89s4.76.14,6-1-6.49-21.62-7.64-22.84S310.19,184,310.19,184l-28.46-3.25Z"/><path class="cls-3" d="M234.45,222.15l-6.34-.19-22.84-31.64,2.45-2.3s9.44,2.66,8.22,3.82S234.45,222.15,234.45,222.15Z"/><polyline class="cls-3" points="243.09 237.88 240.65 240.19 260.02 268.15 266.08 264.76 254.84 243 243.09 237.88"/><path class="cls-2" d="M311,178.15l-43.47-.21-4.9,4.61,56.05,74.3,13.18-3.17,20.83-19.6.31-10-36.93-43.4C314.35,179.8,312.61,178.92,311,178.15Zm29,42.46-1.51,10.66L326.25,242.8l-4.76-.15-42.36-54.84,4.9-4.61,24.86,4.33,8.21,3.82Z"/><polygon class="cls-3" points="199 200.84 185.89 201.63 179.76 207.4 177.24 212.08 178.61 206.17 183.58 199.18 194.39 195.94 199 200.84"/><polygon class="cls-3" points="190.79 197.02 191.72 205.38 186.75 212.37 190.21 216.04 193.89 212.59 198.28 224.62 175.44 232.25 178.68 243.06 181.06 243.13 186.03 236.15 204.26 223.61 198.06 231.75 206.49 228.44 211.25 228.58 213.41 235.79 217.3 225.2 205.92 208.19 190.79 197.02"/><path class="cls-3" d="M206.73,272.1l-5.29,5,4.61,4.9-4.9,4.61,4.61,4.9-6,3.38,3.69,3.92s-5.13,4.37-6.36,5.52,4.63,6,4.63,6l-5,5.85-5.91-1.37,1.08,3.6,4.66.47,16.1-17.68,4.32-24.86Z"/><polygon class="cls-3" points="229.41 218.43 232.87 222.1 240 222.32 239.85 227.08 246.77 234.43 243.09 237.88 248 246.12 259.88 233.64 250.88 216.7 233.3 207.84 229.41 218.43"/><path class="cls-1" d="M257.92,182.45l58.31,76.7L263.69,269.6l-.14-.2v.05l-3.74,5.83-29.12,18.16-34.08,25.14,3-5.06h0l3.24-5.45-3.46-3.68,2-2.81,3-4.17-3.46-3.68,4.9-4.61-1.08-3.6,4.9-4.61-5.76-6.13,29.4-27.66,21.24,22.56,6-4.79L246.7,244.17l1.92-4.34,1.77-4-4.84-10.06.82-2.39.42-1.2-5-2.42L238.25,218l-4.62.39-3.92.35L209,190.47l-1.12.75,19.78,45-14.27-.44-.4-2.39-.61-3.59,1.3-3.53-7.13-.22-2,1.11-4.07,2.28,3.53,1.29,3.61-1.08-1.1,2.38L205,235.37l-1.17,2.51-14.42,4.32-.07,2.38-2.45,2.3-3.38-6-2.46,2.3-4.39-12a15.39,15.39,0,0,1,2.64-3.5,3.49,3.49,0,0,1,2.26-1.11c2.38.07,12-4.39,12-4.39l6-1-2.16-7.21-6.06,3.39-3.45-3.68,5-9.36-1-6-8.36.93-5,7-1.37,5.91-1-6,3.75-5.84,22.1-12.77,3.34-1.92,3.19-.19Z"/><polygon class="cls-1" points="333.68 194.24 324.16 193.94 327.62 197.62 332.38 197.76 333.68 194.24"/><polyline class="cls-1" points="335.62 208.57 344.05 205.26 345.13 208.86 339.08 212.25 336.1 209.08"/><polygon class="cls-3" points="338.64 193.74 328.92 194.09 345.06 211.24 348.66 210.16 338.64 193.74"/><path class="cls-1" d="M500.59,159a15.25,15.25,0,0,1,1.94,8.94,10.16,10.16,0,0,1-.32,1.57v.13l-.13.19a2.74,2.74,0,0,1-.21.63,10.27,10.27,0,0,1-2.51,3.62l0,0-.7,1.1-.17.28.29.18.33.2L510.14,183,505,194.7,495.58,192l-1.22,1.15,4.75.15,3.39,6-18.16,10.16-4.83,2.23-.22,7.13c-.07,2.38-2.59,7.06-2.59,7.06l-5,7-8.22-3.82-7.35,6.92,5.69,8.5-8.57,8.07,1.15,1.23-4.83,2.23-3.53-1.3-6,1-4.76-.15-9.8,9.22-4.75-.14-1.08-3.6-2.31-2.45-4.9,4.61,2.31,2.45,1.08,3.6,3.46,3.68-11,10.37-5.7-6.3-18-19.9-1.87-2.06L351.9,221l17.19-70.1.48-2L343,123.12l2.45-2.31,15,15.93,3.67-3.46,5.77,6.13,3.6-1.08,6.92,7.35,1.22-1.15.07-2.38L382.9,141l2.38.08,1.22-1.16.12-.63,1.32-7.65,2.6-7.06,1.55-1.47a10.78,10.78,0,0,1,1.39-1.64,11.73,11.73,0,0,1,2.39-1.91l.79-.75,1.2-.34.23-.08a26.41,26.41,0,0,1,6-1.81c5.46-1,12.94-1.25,21.33-.46,1.34.13,2.74.29,4.14.47a120.34,120.34,0,0,1,12.08,2.17h0c1.56.36,3.15.76,4.7,1.19a108.42,108.42,0,0,1,12.91,4.39q2.28.94,4.41,2c1.32.6,2.6,1.22,3.83,1.89,2.72,1.39,5.27,2.87,7.66,4.41,1,.65,2,1.31,3,2C489.41,142.43,496.76,151.4,500.59,159Z"/><polyline class="cls-2" points="356.73 218.74 369.41 232.21 376.19 205.05 369.27 197.7 372.95 194.24 366.1 184.51 356.73 218.74"/><path class="cls-2" d="M366.17,182.14l1.45-8.29S400,205.78,401.12,207s-3.9,10.59-3.9,10.59Z"/><polyline class="cls-2" points="402.49 201.09 411.71 210.89 414.38 201.45 405.15 191.65 402.49 201.09"/><polygon class="cls-2" points="373.81 165.71 378.43 170.61 379.87 162.32 375.26 157.42 373.81 165.71"/><polygon class="cls-2" points="387.42 226.81 382.81 221.91 385.41 214.85 390.02 219.75 387.42 226.81"/><path class="cls-4" d="M495.58,192l-1.22,1.15,4.75.15,3.39,6-18.16,10.16-4.83,2.23-.22,7.13c-.07,2.38-2.59,7.06-2.59,7.06l-5,7-8.22-3.82-7.35,6.92,5.69,8.5-8.57,8.07,1.15,1.23-4.83,2.23-3.53-1.3-6,1-4.76-.15-9.8,9.22-4.75-.14-1.08-3.6-2.31-2.45-4.9,4.61,2.31,2.45,1.08,3.6,3.46,3.68-11,10.37-5.7-6.3,24.81-74-9.37-5-10.37-11-7.28,4.54-9.58,2.09-8.15-6.2L379.36,179l7.42-9.3-17.69-18.8.48-2,18.51,17.22,17.36,16,8.15,6.2,11.74,5.12,13,1.59,14.34-2,14.48-6.7,13.19-3.16,8.36-.94,7.28-4.54,3.07-1.92L510.14,183,505,194.7Z"/><polygon class="cls-3" points="358.53 193.07 352.77 192.44 359.14 200.3 362.14 197.48 358.53 193.07"/><polygon class="cls-2" points="333.39 193.93 352.77 192.44 359.69 199.79 348.66 210.16 346.97 210.67 331.09 194.01 333.39 193.93"/><polygon class="cls-2" points="379.22 183.72 384.12 179.11 388.87 179.26 393.48 184.16 393.34 188.91 380.15 192.08 374.17 193.09 360.91 198.63 355.15 192.51 362.35 190.35 369.56 188.19 374.39 185.96 379.22 183.72"/><path class="cls-4" d="M497.84,172.26c.11.29.22.65.34,1.07.15.58.3,1.21.46,1.85l-.17.28.29.18c0,.14.06.24.08.36.4,1.62.71,3.06.71,3.06s-10.95,8-13.33,7.92c-1.33,0-6,.93-9.91,1.8l-.74.16s0,0,0,0c-2.73.61-4.88,1.13-4.88,1.13l-6.35-2.34-4.24-1.55-3.53-1.3L447,184.6l-8.5,5.69-11.82-2.74L412.65,180l-11.6-9.87-6.91-7.35.14-4.76,1.3-3.53s-6.77-12.11-7.93-13.33l-1-1.86,1.32-7.65,2.6-7.06,1.55-1.47a10.78,10.78,0,0,1,1.39-1.64,11.73,11.73,0,0,1,2.39-1.91l.79-.75,1.2-.34-.05,1.9-.12,3.9,0,.52L391.4,135.3l3.31,8.43,10.38,11,12.75,11.1,15.2,8.79,16.65.51,20.46,5.9,4.38,1.26s22.79-8.09,22.86-10.47C497.41,171.16,497.59,171.48,497.84,172.26Z"/><polygon class="cls-4" points="397.87 235.46 402.55 237.98 406.3 232.15 408.9 225.09 406.59 222.64 405.51 219.03 404.36 217.81 409.33 210.82 404.65 208.3 399.67 215.29 401.91 220.11 399.46 222.42 401.76 224.87 397.87 235.46"/><polygon class="cls-4" points="394.48 229.41 396.37 231.42 384.63 257.18 382.76 255.12 394.48 229.41"/><path class="cls-4" d="M500.59,159a15.25,15.25,0,0,1,1.94,8.94c-.31,1.7-2.29,6-4.06,7.54-7.55,6.73-18.74,12-22.16,13.32a1.83,1.83,0,0,1-.74.16s0,0,0,0c-3.47-.2-9.42-6.15-9.42-6.15l4-1.74,14.05-6,7.64-16.43-12.68-13.47-16.28-12.4-17.58-8.86-28.46-3.25-19.15,3.65-2.4.45-1.81-3.25a11.73,11.73,0,0,1,2.39-1.91l.79-.75,1.2-.34.23-.08a26.41,26.41,0,0,1,6-1.81c5.46-1,12.94-1.25,21.33-.46,1.34.13,2.74.29,4.14.47a120.34,120.34,0,0,1,12.08,2.17h0c1.56.36,3.15.76,4.7,1.19a108.42,108.42,0,0,1,12.91,4.39q2.28.94,4.41,2c1.32.6,2.6,1.22,3.83,1.89,2.72,1.39,5.27,2.87,7.66,4.41,1,.65,2,1.31,3,2C489.41,142.43,496.76,151.4,500.59,159Z"/><path class="cls-5" d="M390.39,129.32c-.77,2.49-1.41,7.07,3.1,15.57,3.93,7.4,10.24,14.91,20.75,22.05,5.58,3.8,21.74,14.48,44.74,15.64,6.45.33,9,1.16,23.85-1.65,3.5-.66,11.61-4,14.49-6.7,6.12-5.76,2.65-13.93,1.66-15.42a76.09,76.09,0,0,0-25.44-24.57,122,122,0,0,0-31.7-14.06,114,114,0,0,0-28.46-3.25c-6.81.07-12.1.74-16.79,4.25A16.67,16.67,0,0,0,390.39,129.32Z"/><g class="cls-6"><polygon class="cls-7" points="440.11 137.98 443.71 136.9 449.62 138.27 453.08 141.94 449.4 145.4 443.5 144.03 440.11 137.98"/></g><g class="cls-6"><polygon class="cls-4" points="426.2 164.92 434.77 156.86 437.3 152.17 440.11 137.98 443.57 141.65 447.1 142.95 453.08 141.94 444.36 154.77 442.99 160.68 441.62 166.58 434.27 173.5 428.43 169.75 426.2 164.92"/></g><polygon class="cls-7" points="393.71 137.75 447.18 101.3 449.48 103.75 394.86 138.98 393.71 137.75"/><polygon class="cls-7" points="486.58 175.09 474.12 115.22 471.67 117.52 485.35 176.25 486.58 175.09"/><polygon class="cls-7" points="449.12 115.64 451.43 118.09 394.86 138.98 396.08 137.83 449.12 115.64"/><polygon class="cls-7" points="465.27 122.57 462.04 122.66 486.07 175.71 486.03 174.08 465.27 122.57"/><polygon class="cls-2" points="464.69 124.1 448.91 117.3 445.26 100.8 451.81 99.83 470.09 106.02 476.57 112.91 464.69 124.1 464.69 124.1"/><path class="cls-8" d="M449.48,103.75s3.24,10.81,4.4,12,16.79-4.25,16.79-4.25L457.62,110l-1.08-3.6,7.14.22-13-4Z"/><polygon class="cls-2" points="261.28 222.58 287.62 260.66 266.08 264.76 248.62 239.83 250.39 235.82 245.55 225.76 246.37 223.37 261.28 222.58"/><polygon class="cls-2" points="236.33 186.51 258.7 218.86 241.83 219.75 238.25 218.01 233.63 218.4 212.48 188.16 236.33 186.51"/><polygon class="cls-2" points="264.44 222.42 284.08 221.38 310.81 257.13 290.5 260.08 264.44 222.42"/><polygon class="cls-2" points="257.07 185.28 281.3 217.66 261.88 218.69 239.2 185.93 257.07 185.28"/><polygon class="cls-2" points="233.15 251.86 213.55 270.31 228.39 290.99 253.9 273.91 233.15 251.86"/><polygon class="cls-2" points="212.32 271.46 225.94 293.29 199.64 313.51 202.88 308.06 200.78 305.83 201.43 301.57 204.39 297.4 202.37 295.25 202.88 291.89 205.83 289.11 204.75 285.51 209.65 280.9 205.24 276.2 212.32 271.46"/><polygon class="cls-2" points="205.35 187.94 225.37 233.78 213.01 233.4 212.4 229.81 213.7 226.28 208.09 226.11 194.47 193.56 205.35 187.94"/><path class="cls-2" d="M204.58,227.17l-4.07,2.28,3.53,1.29,1.77-.52.74,1.82L205,235.37l-18,6.76L179.3,227.6a3.49,3.49,0,0,1,2.26-1.11c2.38.07,12-4.39,12-4.39l6-1-2.16-7.21-6.06,3.39-3.45-3.68,5-9.36-1-6-4.18.46.65-1.76,3.61-1.08Z"/><polygon class="cls-2" points="104.25 225.32 110.37 219.56 119.88 219.85 120.89 225.83 114.77 231.59 104.25 225.32"/><polygon class="cls-2" points="106.47 269.42 110.79 283.83 122.61 286.57 127.51 281.96 124.27 271.15 119.52 271.01 118.58 262.65 116.35 257.82 106.47 269.42"/><polygon class="cls-2" points="152.37 286.29 153.59 285.14 158.13 292.42 153.23 297.03 152.37 286.29"/><path class="cls-2" d="M140.63,241.9c2.31,2.45,8.43-3.31,8.43-3.31l-.21,7.13-5.91-1.37Z"/><polygon class="cls-2" points="205.83 328.38 205.97 323.62 211.95 322.62 211.81 327.37 205.83 328.38"/><polygon class="cls-2" points="189.77 269.58 191.07 266.05 192.22 267.27 190.99 268.43 189.77 269.58"/><polyline class="cls-2" points="181.7 261 182.93 259.85 184.15 258.7 180.62 257.4"/><path class="cls-9" d="M251.23,409.08c-13.42,0-23.22-1.38-35.64-3.14-11.68-1.65-26.22-3.7-48.63-5.29a752.27,752.27,0,0,0-89.94-1l0-1a752.23,752.23,0,0,1,90.06,1c22.44,1.6,37,3.65,48.69,5.3,16.23,2.3,28,3.95,49.24,2.7,17.88-1,42.29-5.71,90.93-15,24.7-4.71,38.63-7.41,51-10l.2,1c-12.38,2.59-26.31,5.29-51,10-48.68,9.29-73.12,13.95-91.06,15C260,409,255.42,409.08,251.23,409.08Z"/><path class="cls-9" d="M241.08,396.46c-10.72,0-21.19-.6-33.6-1.31-22.9-1.31-41.86-3.71-52-5-8.17-1-14.55-2-19.68-2.72-12.57-1.82-18.88-2.74-30.24-2.28-11.83.48-28.22,2.41-33,3-7,.86-14.06,1.86-21,3l-.16-1c6.93-1.13,14-2.15,21-3,4.75-.58,21.17-2.52,33-3,11.45-.46,17.79.46,30.42,2.3,5.13.74,11.5,1.67,19.66,2.7,10.17,1.29,29.11,3.69,52,5,22,1.26,37.89,2.17,59.92,0a262.09,262.09,0,0,0,44.92-8c7.92-2.16,12.37-3.8,16.3-5.24a108.83,108.83,0,0,1,11.71-3.77c16.69-4.31,34.93-5,54.2-2l-.16,1c-19.13-3-37.23-2.29-53.79,2A109.38,109.38,0,0,0,329,381.87c-3.94,1.45-8.41,3.09-16.38,5.26a262.32,262.32,0,0,1-45.08,8A264.88,264.88,0,0,1,241.08,396.46Z"/><path class="cls-9" d="M192.3,381.43c-9.53,0-17.63-.73-23.84-1.28a210,210,0,0,1-22.88-3.29c-7.43-1.42-12.79-2.45-23-1.71A96.55,96.55,0,0,0,111,376.67a177.28,177.28,0,0,1-19.49,2.48c-9.24.73-18.68,1.07-28,1-7.66-.06-15.41-.4-23-1l.08-1c7.61.6,15.33.94,23,1,9.34.07,18.75-.26,28-1a177.23,177.23,0,0,0,19.4-2.46,97,97,0,0,1,11.6-1.54c10.39-.74,15.8.29,23.3,1.72a206.89,206.89,0,0,0,22.78,3.28c10.39.93,26.08,2.34,44.9,0,5.23-.65,7-1.11,20.43-4.71,6.28-1.68,14.87-4,27.5-7.27,32.46-8.49,36.27-9.15,43.14-9a107.78,107.78,0,0,1,13.79,1.25,162.37,162.37,0,0,0,20.21,1.75,200.16,200.16,0,0,0,25.94-1l.1,1a203.83,203.83,0,0,1-26.06,1,163.8,163.8,0,0,1-20.33-1.76,106,106,0,0,0-13.67-1.24c-6.74-.13-10.53.53-42.86,9-12.63,3.3-21.23,5.6-27.5,7.28-13.53,3.61-15.27,4.08-20.57,4.74A172.18,172.18,0,0,1,192.3,381.43Z"/><path class="cls-9" d="M52.89,291.24q-2.1,0-4.41-.09a118.2,118.2,0,0,1-29.13-5l.3-1a116.58,116.58,0,0,0,28.87,5c10.9.46,18-.84,25.55-2.22a136.11,136.11,0,0,1,28.43-2.78,84.82,84.82,0,0,1,13.19.94,99.62,99.62,0,0,0,15.81,1.06c10.25.05,24.29.12,40.88-4a91.71,91.71,0,0,0,14-4.63c3.66-1.47,7.8-3.12,14.93-5.36a240.57,240.57,0,0,1,34.07-8l.16,1a240,240,0,0,0-33.93,8c-7.1,2.22-11.22,3.87-14.86,5.32a91.51,91.51,0,0,1-14.17,4.68c-16.71,4.14-30.82,4.07-41.12,4a99.8,99.8,0,0,1-16-1.07,84.68,84.68,0,0,0-13-.93,134.69,134.69,0,0,0-28.25,2.76A108.09,108.09,0,0,1,52.89,291.24Z"/><path class="cls-9" d="M96.69,251.47a30.11,30.11,0,0,1-4.26-.33,26.81,26.81,0,0,1-8.07-2.33,87,87,0,0,0-14-4.68,112.89,112.89,0,0,0-23.89-4,85.48,85.48,0,0,0-15.9,1l-.16-1a85.92,85.92,0,0,1,16.1-1,113.29,113.29,0,0,1,24.11,4,88,88,0,0,1,14.13,4.72,25.45,25.45,0,0,0,7.81,2.26c5.1.71,7.57.17,13-1,3.52-.77,8.33-1.83,15.87-3,10.48-1.59,20.37-3.07,33.08-3,3.51,0,6.23.16,8.63.27a68.82,68.82,0,0,0,13.31-.27,82.41,82.41,0,0,0,19.88-5l.36.94a83.93,83.93,0,0,1-20.12,5,69.8,69.8,0,0,1-13.48.27c-2.39-.11-5.09-.25-8.58-.27-12.65-.07-22.49,1.41-32.91,3-7.53,1.14-12.32,2.2-15.82,3A40.71,40.71,0,0,1,96.69,251.47Z"/><path class="cls-9" d="M86.63,206.33q-3,0-6.16-.18a113.26,113.26,0,0,1-27.12-5l.3-1a112.35,112.35,0,0,0,26.88,5c13.45.8,24-1.11,39.88-4,9-1.64,18.1-3.66,27-6l.26,1c-8.89,2.35-18,4.37-27,6C107.09,204.59,97.47,206.33,86.63,206.33Z"/><path class="cls-9" d="M36.1,324.85a33.41,33.41,0,0,1-10.76-1.73,33,33,0,0,1-8.12-4.06l.56-.82a32.47,32.47,0,0,0,7.88,3.94,35.4,35.4,0,0,0,17.6,1l.16,0a172.14,172.14,0,0,1,19.64-1.75c5.39-.27,11-.55,16.38-1.26a117.15,117.15,0,0,1,24.52-.94,226.34,226.34,0,0,0,25.51-.06c15.19-.8,21.85-2.19,28.28-3.54a156.28,156.28,0,0,1,26.72-3.46c11.15-.65,19.19-.52,26.29-.4,10.8.17,19.33.31,32.63-2.59a147.91,147.91,0,0,0,29.9-10l.42.91a149.27,149.27,0,0,1-30.1,10c-13.42,2.92-22,2.78-32.87,2.61-7.08-.12-15.11-.25-26.21.4A154.92,154.92,0,0,0,158,316.59c-6.48,1.35-13.17,2.75-28.43,3.56a228.27,228.27,0,0,1-25.62.06,115.54,115.54,0,0,0-24.35.94c-5.45.71-11,1-16.45,1.26a174.18,174.18,0,0,0-19.53,1.73l-.16,0A43,43,0,0,1,36.1,324.85Z"/><path class="cls-9" d="M35.05,347.15c-6.46,0-13.12-2-19.81-6.07l.52-.86c6.69,4,13.33,6,19.73,5.93a36.76,36.76,0,0,0,6.22-.72c2.07-.36,4.65-.81,8.73-1.28,6.31-.71,11-.87,13.81-1l1.23,0c9.4-.36,16.89-2.35,24.82-4.45a168.86,168.86,0,0,1,28.15-5.55,92.35,92.35,0,0,1,16.4-.38,122,122,0,0,0,21.6-.62c4.06-.4,7.26-.82,10.36-1.22,4.53-.6,9.21-1.21,16.65-1.78,10.66-.82,18.61-.91,27-1s14.93,0,21.15.1c8.46.13,16.46.25,28.85-.1,7.75-.22,14.36-.58,22.87-3a79.82,79.82,0,0,0,16.9-7l.48.88a81.18,81.18,0,0,1-17.1,7c-8.62,2.43-15.57,2.8-23.13,3-12.4.35-20.41.23-28.88.1-6.22-.1-12.65-.2-21.12-.1s-16.35.18-27,1c-7.41.57-12.08,1.18-16.6,1.77-3.1.4-6.31.82-10.39,1.23a123.63,123.63,0,0,1-21.75.62,90.67,90.67,0,0,0-16.25.38,168.89,168.89,0,0,0-28,5.51c-8,2.12-15.53,4.12-25,4.49l-1.24,0c-2.79.09-7.46.24-13.72,1-4.05.46-6.62.9-8.68,1.26a37.13,37.13,0,0,1-6.37.74Z"/><path class="cls-9" d="M35.49,362.34c-2.34,0-4.69-.07-7-.19l.06-1a129.64,129.64,0,0,0,13.94,0c13.06-.7,21.58-3.17,29.82-5.56,4.1-1.19,8.34-2.42,13.11-3.43a44.92,44.92,0,0,1,16.37-1c5.47.48,13,1.13,30.7,0,6-.39,9.29-.74,14.27-1.27,5.52-.59,13.08-1.39,28.72-2.73,13.46-1.15,20.22-1.73,26-2,10.53-.49,16.93-.39,22.08-.3a104.8,104.8,0,0,0,16.88-.7,81.76,81.76,0,0,0,18-4.23c3.44-1.14,7.33-2.43,13-3.76a153.46,153.46,0,0,1,50.16-3l-.1,1a152.35,152.35,0,0,0-49.84,3c-5.58,1.31-9.46,2.6-12.87,3.73a82.86,82.86,0,0,1-18.18,4.28,105.43,105.43,0,0,1-17,.7c-5.13-.09-11.51-.19-22,.3-5.77.27-12.53.85-26,2-15.62,1.33-23.18,2.14-28.7,2.72-5,.53-8.28.88-14.31,1.28-17.8,1.16-25.34.51-30.85,0a43.94,43.94,0,0,0-16.08,1c-4.72,1-8.94,2.22-13,3.41-8.29,2.41-16.87,4.9-30,5.6C40.19,362.27,37.84,362.34,35.49,362.34Z"/><path class="cls-9" d="M34.55,371.15l-.1-1c7.26-.78,14.67-1.45,22-2,11.14-.83,17-1,22.1-1.14,4.73-.13,8.82-.24,15.9-.86,9.92-.87,15.52-1.84,20.46-2.7a139.7,139.7,0,0,1,20.56-2.3,113.06,113.06,0,0,1,11.4,0c3.09.13,6.6.27,14.61,0,15.47-.45,25.7-.74,38.93-3,3.56-.61,6.48-1.21,9.06-1.74a84.73,84.73,0,0,1,18-2.27,50.81,50.81,0,0,1,8.5.45,62.65,62.65,0,0,0,8.51.55c4.22,0,10.68-.25,33.92-4,9.38-1.52,13.05-2.23,14.82-2.58a17.86,17.86,0,0,1,3.23-.43,80.68,80.68,0,0,1,18.15,1.23c4.32.65,9.22,1.38,15.91,1.77a153.39,153.39,0,0,0,17.94,0l.06,1a155.45,155.45,0,0,1-18.06,0c-6.74-.4-11.66-1.13-16-1.78a80.19,80.19,0,0,0-17.94-1.22,16.86,16.86,0,0,0-3.1.41c-1.77.35-5.45,1.07-14.85,2.58-23.32,3.76-29.82,4-34.08,4a62.39,62.39,0,0,1-8.64-.56,50.42,50.42,0,0,0-8.35-.44,84,84,0,0,0-17.83,2.25c-2.58.53-5.52,1.13-9.1,1.74-13.29,2.27-23.54,2.56-39.07,3-8,.23-11.56.09-14.67,0a111.48,111.48,0,0,0-11.32,0,137.1,137.1,0,0,0-20.43,2.29c-5,.86-10.58,1.84-20.55,2.71-7.1.62-11.21.73-16,.86-5.13.15-10.93.31-22.05,1.14C49.2,369.7,41.81,370.37,34.55,371.15Z"/><path class="cls-9" d="M409,383.66c-.28-13.88-.28-28,0-42l.08-3.9c.23-12.29.5-26.23,1.92-41.14,1.38-14.44,2.89-22.68,4.49-31.4,1.13-6.18,2.3-12.57,3.51-21.62a451.19,451.19,0,0,0,3-80.9c-1.09-20.54-3.44-36.22-7-60-1.37-9.08-4.34-27.78-9-51-1.87-9.33-3.89-18.74-6-28l1-.22c2.11,9.25,4.13,18.68,6,28,4.66,23.21,7.64,41.93,9,51,3.56,23.77,5.91,39.47,7,60.05a454.49,454.49,0,0,1-3,81.1c-1.22,9.06-2.4,15.47-3.53,21.66-1.59,8.7-3.09,16.92-4.47,31.32-1.42,14.87-1.68,28.18-1.92,41.06l-.08,3.9c-.28,14-.28,28.11,0,42Z"/><path class="cls-9" d="M150,192.67l-1,0c.13-4,.47-8,1-12a91.12,91.12,0,0,1,3-14.21,54.7,54.7,0,0,0,2-8.79c.41-3.09-.8-11.53-3-26.86-.43-3-.8-5.55-1.12-7.74-1.27-8.62-1.74-11.85-1.88-17.32a113.68,113.68,0,0,1,1-18.08l1,.14a111.62,111.62,0,0,0-1,17.92c.13,5.41.61,8.62,1.87,17.19l1.13,7.75c2.37,16.57,3.4,24,3,27.13a58,58,0,0,1-2,8.93,88,88,0,0,0-3,14.08A117.16,117.16,0,0,0,150,192.67Z"/><path class="cls-9" d="M191,228.76a82.94,82.94,0,0,1-2-17.1c0-2.46-.13-9.93,4-28.12,1.75-7.68,2.88-11.26,3.78-14.14a58.94,58.94,0,0,0,2.22-8.84c.86-4.82,1.17-8.65,1-29.91-.11-13.24-.31-21.09-.44-26.28-.19-8-.23-9.38.45-13.8.47-3.1,1-5.74,1.52-8.3A112.88,112.88,0,0,0,204,64.62a136.78,136.78,0,0,0,0-16.94l1-.06a138.72,138.72,0,0,1,0,17.06,114.15,114.15,0,0,1-2.49,17.79c-.51,2.54-1,5.18-1.52,8.25-.66,4.33-.62,5.75-.43,13.63.13,5.19.33,13.05.44,26.29.18,21.35-.13,25.21-1,30.1a61.53,61.53,0,0,1-2.24,9c-.9,2.86-2,6.42-3.76,14.06-4.12,18.08-4,25.46-4,27.88a81.61,81.61,0,0,0,2,16.9Z"/><path class="cls-9" d="M329,334.72l-1-.15c1.29-8.55,2.3-17.28,3-26,1.47-18.49,1.47-36.66,0-58.93-1.25-18.94-2.71-27.35-4-34.78a192.77,192.77,0,0,1-3-26.22,188.88,188.88,0,0,1,.52-31.06,413.52,413.52,0,0,0,1.48-43c-.18-23.22-.32-40-2-59l-.07-.82c-.5-5.58-1.67-18.64-1.93-36.21-.07-4.7-.07-9.41,0-14l1,0c-.07,4.59-.07,9.3,0,14,.26,17.54,1.43,30.58,1.92,36.14l.08.83c1.68,19,1.82,35.78,2,59a411.47,411.47,0,0,1-1.49,43.07,188.59,188.59,0,0,0-.51,30.92,188.12,188.12,0,0,0,3,26.11,285,285,0,0,1,4,34.89c1.47,22.31,1.47,40.53,0,59.07C331.31,317.39,330.3,326.15,329,334.72Z"/><path class="cls-9" d="M240,268.84l-.92-.38a155.24,155.24,0,0,0,9-30.9,160.15,160.15,0,0,0,2-40.87,128.73,128.73,0,0,0-1.87-13.82,122.19,122.19,0,0,1-2.13-18.2c-.29-5.84-.2-9.12-.1-12.92.09-2.88.18-6.15.1-11.09-.16-10.29-1-18.46-3-36-1.24-11.08-2.24-18.38-3.12-24.82-1.17-8.51-2.09-15.23-2.88-26.2-.52-7.34-.86-14.75-1-22l1,0c.14,7.26.47,14.65,1,22,.78,10.94,1.66,17.31,2.87,26.13.88,6.45,1.88,13.76,3.13,24.85,1.83,16.3,2.83,25.28,3,36,.08,5,0,8.24-.1,11.14-.1,3.78-.19,7,.1,12.84a121.23,121.23,0,0,0,2.11,18.08A129,129,0,0,1,251,196.61a161.27,161.27,0,0,1-2,41.13A155.92,155.92,0,0,1,240,268.84Z"/><path class="cls-9" d="M278,297.83l-.94-.36a137,137,0,0,0,7-24.91c2.71-15.06,2.13-26.2,1.16-44.65l-.17-3.24c-1.28-24.7-1.92-37.06-2-46-.17-18.7,1.33-27.65,2.91-37.13A192.57,192.57,0,0,0,289,105.65c.12-24.73-2.49-45-8-61.85a163.6,163.6,0,0,0-11-25.92l.88-.46a164.78,164.78,0,0,1,11,26.07c5.51,17,8.14,37.32,8,62.16a194.1,194.1,0,0,1-3.1,36c-1.58,9.43-3.07,18.33-2.9,36.95.08,8.94.72,21.29,2,45.88l.18,3.34c1,18.52,1.55,29.7-1.18,44.88A138.13,138.13,0,0,1,278,297.83Z"/><path class="cls-9" d="M351,349.8l-1-.3a134.79,134.79,0,0,0,6-32.88c.8-14.7-1.15-24.42-3.42-35.66A241.93,241.93,0,0,1,348,250.69a84,84,0,0,1-.09-14c.27-5.7.73-15.25,1.09-35,.65-35.32,1-53,0-64.95a212.78,212.78,0,0,0-6.76-39.91c-2.68-10.47-4.62-18-3.24-33.18.13-1.36.29-3,.49-4.84.84-8,2.1-20.11,2.51-37.12.17-7,.17-14,0-21l1,0c.17,6.94.17,14,0,21-.41,17.05-1.68,29.18-2.52,37.21-.19,1.85-.36,3.46-.48,4.82-1.37,15,.55,22.47,3.21,32.85A214.55,214.55,0,0,1,350,136.61c1,11.95.65,29.69,0,65-.37,19.78-.82,29.34-1.09,35.05a81.26,81.26,0,0,0,.09,13.9,240.93,240.93,0,0,0,4.56,30.15c2.28,11.31,4.25,21.08,3.44,35.92A136.27,136.27,0,0,1,351,349.8Z"/><path class="cls-9" d="M304,316.87l-.9-.44a90.38,90.38,0,0,0,6-15.91c5.2-19.28,2.55-35.32,1.13-43.94l-.14-.85c-2.44-14.86-3.3-33.64-5-71.06-.92-20.15-.61-38.47,0-75,.11-6.29.22-11.56.32-16.15.33-15.44.5-23.19-.32-35.85a355.69,355.69,0,0,0-7-50.93l1-.2a358.88,358.88,0,0,1,7,51.07c.82,12.69.65,20.46.32,35.93-.1,4.59-.22,9.85-.32,16.11-.61,36.53-.92,54.85,0,75,1.71,37.37,2.57,56.13,5,70.94l.14.85c1.44,8.69,4.11,24.87-1.15,44.36A90.52,90.52,0,0,1,304,316.87Z"/><path class="cls-9" d="M369,360.68l-1-.06c.86-13.49,1.2-27.27,1-41-.18-12.26-.73-20.55-1.26-28.56-.26-3.94-.53-8-.74-12.43-.6-12.55-.29-18.35.39-31.05.42-8,1-18.88,1.61-36,1.43-40.54,2.21-62.88-1-78.88a114.36,114.36,0,0,0-6.89-23.17c-2.41-6-4.32-10.78-5.12-21.9-.26-3.65-.81-11.26,4-61.08.65-6.68,1.32-13.41,2-20l1,.1c-.68,6.59-1.36,13.32-2,20-4.81,49.73-4.26,57.28-4,60.91.79,11,2.67,15.65,5.05,21.59A116.29,116.29,0,0,1,369,132.55c3.22,16.12,2.44,38.5,1,79.12-.6,17.11-1.19,28-1.61,36-.68,12.67-1,18.45-.39,31,.21,4.41.47,8.29.74,12.41.53,8,1.08,16.33,1.26,28.61C370.2,333.36,369.86,347.17,369,360.68Z"/><path class="cls-9" d="M400,376.75l-1-.2c1.21-5.92,2.21-12,3-18l0-.14a246.93,246.93,0,0,0,2-24.8c.35-13.76-.61-23.32-1.73-34.38-.43-4.27-.88-8.67-1.27-13.57-.93-11.71-1-23.17-1-46,0-23.78.67-37.09,1.3-48.82.67-12.52,1.25-23.33.7-43.21-.63-22.87-.95-34.35-4-50.92-1.16-6.33-2.34-11.34-3.48-16.19A204.23,204.23,0,0,1,390,56.71a202.82,202.82,0,0,1-1-40.1l1,.08a201.58,201.58,0,0,0,1,39.9,201.65,201.65,0,0,0,4.5,23.73c1.14,4.86,2.33,9.89,3.49,16.24,3.06,16.65,3.37,28.15,4,51.08.55,19.92,0,30.74-.7,43.28-.63,11.73-1.34,25-1.3,48.73,0,22.84.07,34.29,1,46,.39,4.89.83,9.29,1.26,13.55,1.13,11.1,2.09,20.68,1.74,34.5a249.13,249.13,0,0,1-2,24.91v.14C402.21,364.74,401.2,370.81,400,376.75Z"/><path class="cls-9" d="M383,368.74a164.13,164.13,0,0,1-3-29.08,216,216,0,0,1,2-28.07,277.41,277.41,0,0,1,4.87-27.87c1.68-7.62,2.89-13.13,3.13-23.08.07-2.79-.62-11.19-2-27.95-1.23-15-2-23.26-2.61-29.28s-1-10.11-1.39-16.73a237.39,237.39,0,0,1-.51-26,169.05,169.05,0,0,0-.49-21,172.61,172.61,0,0,0-3.41-24.86A185.92,185.92,0,0,1,376,88.69c-1.5-19.36-1.22-36.37-1-50,.15-9.36.49-18.79,1-28l1,.06c-.51,9.23-.85,18.64-1,28-.22,13.65-.5,30.64,1,50a185,185,0,0,0,3.57,26,175,175,0,0,1,3.43,25,170.83,170.83,0,0,1,.49,21.08,235.77,235.77,0,0,0,.51,25.93c.42,6.6.8,10.61,1.39,16.69s1.38,14.29,2.61,29.3c1.38,16.79,2.07,25.22,2,28.05-.24,10-1.46,15.6-3.15,23.28A270.86,270.86,0,0,0,383,311.71a212.48,212.48,0,0,0-2,27.93,163.14,163.14,0,0,0,3,28.91Z"/><path class="cls-9" d="M361.2,392.05c-10.82-7.93-21.92-15.66-33-23-13.57-9-21-13.94-32-20-7.87-4.36-12.38-6.43-16-8.09a97.88,97.88,0,0,1-13-6.93c-12.84-8-21.47-16-29.08-23.05a210.06,210.06,0,0,1-16.79-17.45c-3.85-4.37-8.22-9.33-15.23-16.57-7.41-7.67-11.35-11.24-15.15-14.69-3.14-2.84-6.1-5.53-10.84-10.31-13.63-13.74-20.48-23.17-29.14-35.1-5.92-8.15-12.62-17.39-22.9-29.93s-21.38-25-33-37l.72-.7c11.61,12,22.72,24.46,33,37s17,21.82,22.93,30c8.64,11.9,15.46,21.3,29,35,4.73,4.76,7.68,7.44,10.81,10.27,3.82,3.46,7.76,7,15.2,14.73,7,7.26,11.4,12.23,15.26,16.61a208.49,208.49,0,0,0,16.72,17.37c7.58,7,16.17,15,28.92,22.94a96.14,96.14,0,0,0,12.91,6.87c3.64,1.67,8.17,3.75,16.07,8.12,11,6.06,18.44,11,32,20,11.07,7.33,22.18,15.08,33,23Z"/><path class="cls-9" d="M300.31,404.11C290,400,281.54,394.24,275.13,387a47.46,47.46,0,0,1-5.59-7.74,36,36,0,0,0-6.39-8.23c-3.41-3.34-5.61-4.53-17.82-11.1l-7.07-3.82c-17.53-9.49-19.36-10.77-22.08-13.06A56.52,56.52,0,0,1,207,333.2c-1.57-2-3.36-4.29-5.9-7.22a92.54,92.54,0,0,0-12.86-12.59,101.19,101.19,0,0,1-10.12-9.4c-7.3-7.72-13.57-17.87-26.06-38.08-5.77-9.32-10.31-16.66-16-27-6.81-12.36-10.65-20.62-15.09-30.18-2.7-5.81-5.76-12.41-9.92-20.84-6.21-12.61-12.94-25.39-20-38l.88-.48c7,12.6,13.79,25.39,20,38,4.16,8.44,7.23,15,9.93,20.86,4.43,9.54,8.26,17.79,15.06,30.12,5.7,10.34,10.23,17.67,16,27,12.48,20.18,18.73,30.3,26,37.95a101.59,101.59,0,0,0,10,9.31,94.07,94.07,0,0,1,13,12.7c2.55,3,4.35,5.24,5.93,7.26a55.62,55.62,0,0,0,9,9.69c2.67,2.24,4.48,3.49,21.92,12.94L245.8,359c12.32,6.64,14.53,7.84,18.05,11.27a37.15,37.15,0,0,1,6.55,8.43,45.71,45.71,0,0,0,5.48,7.6c6.3,7.14,14.65,12.82,24.81,16.86Z"/><path class="cls-9" d="M166.21,400.06a46.77,46.77,0,0,1-14.15-15.17,53.49,53.49,0,0,1-3-6.47,23.84,23.84,0,0,0-4.93-8.43,18.39,18.39,0,0,0-6.84-4.68,49.43,49.43,0,0,1-6.06-3.24c-3.86-2.44-5.31-4.15-9.62-9.21-2.16-2.54-5.11-6-9.48-10.88-4.9-5.45-7.87-8.54-9.84-10.59-2.82-2.92-3.67-3.81-5.22-6.49-4.24-7.32-5.36-13.62-7.06-23.16a97.28,97.28,0,0,1-1.71-18.07A99,99,0,0,0,87,267.73a100.87,100.87,0,0,0-3.27-14.43A60.68,60.68,0,0,1,81,238.69c-.27-3.65-.17-5.16.24-11.53.19-2.92.44-6.88.76-12.54.56-10,.79-15.8,1-20.88.23-5.84.4-10.45,1-19.13.55-7.69,1.22-15.44,2-23l1,.1c-.78,7.57-1.45,15.3-2,23-.62,8.67-.8,13.27-1,19.09-.19,5.09-.42,10.85-1,20.91-.32,5.66-.57,9.62-.76,12.54-.42,6.47-.51,7.82-.24,11.39A60,60,0,0,0,84.7,253,101.81,101.81,0,0,1,88,267.57a99.07,99.07,0,0,1,1.31,16.08A96.26,96.26,0,0,0,91,301.56c1.68,9.44,2.79,15.67,6.94,22.84,1.5,2.58,2.26,3.37,5.08,6.3,2,2.05,4.95,5.15,9.86,10.62,4.38,4.87,7.34,8.35,9.5,10.89,4.35,5.11,5.66,6.65,9.4,9a47.19,47.19,0,0,0,5.95,3.17,19.51,19.51,0,0,1,7.15,4.91,24.75,24.75,0,0,1,5.12,8.74,49.51,49.51,0,0,0,2.95,6.35,45.51,45.51,0,0,0,13.85,14.84Z"/><path class="cls-9" d="M239.16,409c-6.16-5.82-12.55-11.54-19-17-3.81-3.22-6.76-5.61-9.37-7.72A113.9,113.9,0,0,1,198.14,373a62.48,62.48,0,0,1-9.09-11.81,53.29,53.29,0,0,0-5.93-8.2c-8-9.08-15.15-11.91-22.1-14.65-6-2.38-12.26-4.84-18.87-11.32s-10.5-17.46-18.12-39.2a212.31,212.31,0,0,1-7.68-27.08c-1.77-7.92-3-13.64-8.29-23.85-1.7-3.29-3.24-5.95-4.6-8.29-3-5.22-5.42-9.33-7.44-16.81C94.18,205,94,200.16,93.59,192.85c-.14-2.89-.31-6.18-.59-10.17-.77-10.81-2.11-21.89-4-33l1-.16c1.89,11.08,3.24,22.2,4,33,.28,4,.44,7.29.59,10.19.36,7.51.59,12,2.39,18.72,2,7.35,4.35,11.42,7.34,16.57,1.37,2.35,2.92,5,4.62,8.33,5.31,10.32,6.6,16.1,8.39,24.09a212.14,212.14,0,0,0,7.64,27c7.57,21.59,11.37,32.43,17.88,38.81s12.33,8.66,18.54,11.11c7.06,2.78,14.36,5.66,22.49,14.92a53.85,53.85,0,0,1,6,8.33,62.15,62.15,0,0,0,9,11.66,115.37,115.37,0,0,0,12.58,11.23c2.61,2.11,5.56,4.5,9.38,7.73,6.45,5.45,12.85,11.18,19,17Z"/><path class="cls-9" d="M111.13,399c-6.28-6.85-13-13.57-20-20-4.23-3.89-7.32-6.53-10.9-9.58S73,363.2,67.17,358c-12.87-11.51-18.66-16.79-21.11-21.13-5.14-9.13-5-24.23-4.06-35.29a102.08,102.08,0,0,1,7.62-31.74A101.48,101.48,0,0,0,57,240.6a136,136,0,0,0,.72-17.93c-.09-7-.16-12.09,3.32-20.22a73.92,73.92,0,0,1,6.46-11.61A107.05,107.05,0,0,0,76,175.44a116.93,116.93,0,0,0,8-24.89l1,.2a117.74,117.74,0,0,1-8,25.1,109.3,109.3,0,0,1-8.62,15.54A72.92,72.92,0,0,0,62,202.85c-3.39,7.93-3.33,12.66-3.24,19.81a137.73,137.73,0,0,1-.72,18,102.33,102.33,0,0,1-7.45,29.52A101.16,101.16,0,0,0,43,301.69c-1,10.92-1.08,25.8,3.94,34.71,2.46,4.38,9,10.24,20.89,20.88,5.78,5.16,9.66,8.47,13.08,11.4,3.59,3.06,6.69,5.7,10.93,9.6,7,6.42,13.73,13.16,20,20Z"/><path class="cls-9" d="M409.25,331.08c-14-8.25-28.43-16.32-43-24-17.8-9.38-28.47-14.31-37.89-18.66-8.66-4-16.84-7.79-29.12-14.34-10.51-5.61-30.74-18.45-71-44-33-21-51.26-32.53-58-38-2.73-2.21-5.43-4.47-8-6.66-9.86-8.26-20.06-16.8-35.91-26.3a246.38,246.38,0,0,0-26.94-14l.4-.92a249.48,249.48,0,0,1,27.06,14c15.92,9.54,26.14,18.11,36,26.4,2.6,2.18,5.3,4.44,8,6.64,6.75,5.47,24.94,17,58,38,40.27,25.55,60.48,38.38,71,44,12.24,6.53,20.41,10.31,29.06,14.31,9.43,4.36,20.11,9.3,37.93,18.69,14.57,7.67,29,15.75,43,24Z"/><path class="cls-9" d="M421.52,208.15a85.1,85.1,0,0,1-26.17-4c-9.38-3-15.31-6.75-23.51-11.93-2-1.28-4.21-2.65-6.6-4.11a403.14,403.14,0,0,0-37.95-20c-8.67-4-22.86-9.23-55.87-15-20-3.46-47.46-7.07-112.94-10-19.56-.88-39.41-1.55-59-2l0-1c19.59.45,39.45,1.13,59,2,65.54,2.93,93.07,6.54,113.06,10,33.13,5.74,47.4,11.05,56.13,15a406.65,406.65,0,0,1,38.05,20c2.39,1.47,4.57,2.84,6.61,4.13,8.14,5.13,14,8.84,23.28,11.82a84.39,84.39,0,0,0,26.84,4l0,1Z"/><path class="cls-9" d="M100.91,137.32a.92.92,0,0,1-.83-.39c-.41-.64-1.29-2,14.32-14.43,8.3-6.64,19.44-15,29.81-22.26,14.09-9.91,22.59-15.9,36.06-23a262.07,262.07,0,0,1,46.08-19c10.61-3.24,23.82-7.27,41.1-9a183.2,183.2,0,0,1,67.19,6c7.36,2.11,13.42,4.37,19.29,6.57,12,4.48,22.35,8.35,39.6,9.41a136.78,136.78,0,0,0,16.94,0l.06,1a138.72,138.72,0,0,1-17.06,0c-17.4-1.07-27.83-5-39.89-9.48-5.85-2.18-11.89-4.44-19.22-6.54a182,182,0,0,0-66.81-6c-17.19,1.73-30.34,5.75-40.9,9a261.73,261.73,0,0,0-45.92,19c-13.41,7.11-21.89,13.08-35.94,23-22.84,16.07-43.5,32.7-43.85,35.27.74,0,3.87-1.57,7.13-3.26a198.62,198.62,0,0,1,29.27-12.89c13.16-4.46,20.54-5.12,30.77-6,6.46-.58,13.78-1.23,24.31-3,15.93-2.68,37.31-8.8,79.91-21l1.57-.45c19.36-5.55,33.35-9.55,46.83-2.52a25.81,25.81,0,0,1,8.43,6.9,35,35,0,0,0,9.6,8.11c8.8,5.24,15.87,5.91,27.58,7,4.89.46,10.43,1,17.23,1.93a280.7,280.7,0,0,1,34.06,7l-.26,1a278.7,278.7,0,0,0-33.94-7c-6.77-1-12.3-1.47-17.18-1.92-11.85-1.11-19-1.78-28-7.14a36.55,36.55,0,0,1-9.83-8.31,24.72,24.72,0,0,0-8.14-6.68c-13.12-6.84-26.95-2.88-46.09,2.6l-1.54.44c-42.67,12.21-64.07,18.33-80.06,21-10.56,1.78-17.9,2.43-24.38,3-10.16.9-17.5,1.55-30.54,6A200.2,200.2,0,0,0,108.53,134C104.31,136.15,102.06,137.32,100.91,137.32Z"/><path class="cls-9" d="M414.33,275.12c-6.28-2.22-12.67-4.58-19-7-10-3.85-18.33-7.26-32-13L363,255c-19.62-8.24-29.47-12.38-32.73-13.89a255.84,255.84,0,0,1-28.6-15.5c-4.31-2.61-8.77-5.31-14.44-8.52-11.14-6.3-16-8.35-26.65-12.84-8.83-3.73-20.92-8.83-43.31-19.14-16.77-7.72-26-12.25-32.83-15.57a220.1,220.1,0,0,0-21.14-9.41,338,338,0,0,0-65.9-18l.16-1a339.12,339.12,0,0,1,66.1,18,223.18,223.18,0,0,1,21.22,9.45c6.77,3.32,16,7.85,32.81,15.57,22.37,10.3,34.46,15.4,43.28,19.12,10.69,4.51,15.56,6.56,26.76,12.89,5.68,3.22,10.14,5.92,14.45,8.54a258.62,258.62,0,0,0,28.51,15.45c3.25,1.5,13.09,5.63,32.7,13.87l.28.12c13.68,5.74,22,9.15,32,13,6.33,2.42,12.71,4.78,19,7Z"/><path class="cls-9" d="M70.41,168.14c-12.51-2.25-23.34-6.65-32.2-13.09-2.54-1.84-5-3.88-7.53-6a146.12,146.12,0,0,0-20.44-14.94c-2.93-1.77-5.95-3.44-9-5l.46-.89c3,1.56,6.08,3.25,9,5a147.23,147.23,0,0,1,20.57,15c2.55,2.15,5,4.17,7.46,6,8.74,6.35,19.44,10.7,31.8,12.92Z"/><path class="cls-9" d="M43.19,214c-4.45-3.58-8.83-7.29-13-11-9.11-8.09-12.4-11.87-14.59-14.37a24.2,24.2,0,0,0-6.35-5.58l-.92-.59c-2.58-1.64-4.8-3.06-5.3-5.74-.61-3.26,1.67-6.91,7.17-11.48,10.35-8.58,22.76-12.64,38.21-16.1,9.5-2.12,19.27-3.81,29.05-5l.12,1c-9.75,1.19-19.49,2.87-28.95,5C33.3,153.56,21,157.58,10.82,166c-5.2,4.31-7.37,7.66-6.83,10.53.42,2.25,2.48,3.56,4.86,5.07l.92.6A25.51,25.51,0,0,1,16.34,188c2.16,2.48,5.43,6.23,14.49,14.29,4.19,3.72,8.55,7.41,13,11Z"/><path class="cls-9" d="M87.2,134.05c-24.6-18.86-42.74-31.29-53.93-37L33,97A88.49,88.49,0,0,1,16.18,86,88.75,88.75,0,0,1,4.11,74L3,72.62l1.65.56c9.83,3.28,19.6,7,29,11,10.22,4.36,22.95,9.79,38.06,19a238.09,238.09,0,0,1,23,16l-.62.78a237.69,237.69,0,0,0-23-16c-15-9.21-27.74-14.62-37.94-19-8.87-3.79-18-7.29-27.27-10.42A86.87,86.87,0,0,0,16.82,85.26,87.68,87.68,0,0,0,33.47,96.07l.26.13C45,101.89,63.16,114.36,87.8,133.25Z"/><path class="cls-9" d="M94.92,133.91l-.84-.53a254.9,254.9,0,0,1,17-24c7.54-9.44,15-17.46,39.05-40.06,19.12-17.93,28.72-26.94,35-32,17.46-14.07,31.25-25.18,52.15-32.09,8.41-2.77,21.17-5.9,34.19-5a81.46,81.46,0,0,1,23.15,5l-.36.94a80.05,80.05,0,0,0-22.85-5c-12.88-.87-25.49,2.23-33.81,5C216.92,13,203.19,24,185.81,38c-6.28,5.06-15.86,14.05-35,32-24,22.55-31.44,30.55-38.95,39.95A256.71,256.71,0,0,0,94.92,133.91Z"/><path class="cls-9" d="M84,128.84c-1.8-4.34-3.82-8.71-6-13a186.41,186.41,0,0,0-9.67-16.67c-2.88-4.54-6.13-9.7-10.32-17.32C51.28,69.54,50.4,65.9,50,62.71a30.15,30.15,0,0,1,.09-8.14A28.13,28.13,0,0,0,50,45.73a40.07,40.07,0,0,0-3.82-11.48c-1.36-2.88-2.34-5-1.11-6.87C47.42,23.74,55,25,61.58,26.16c10.34,1.76,17.53,4.93,26.65,9l2.47,1.08c7.79,3.41,15.86,6.78,24,10l-.36.93c-8.14-3.22-16.22-6.59-24-10L87.83,36c-9.06-4-16.2-7.13-26.41-8.88-6-1-13.51-2.31-15.5.78-.93,1.44-.13,3.12,1.18,5.9A41.17,41.17,0,0,1,51,45.57a28.94,28.94,0,0,1,.09,9.11A29.37,29.37,0,0,0,51,62.59c.38,3.08,1.25,6.62,7.94,18.82,4.17,7.6,7.41,12.74,10.28,17.27A187.36,187.36,0,0,1,79,115.42c2.18,4.28,4.2,8.67,6,13Z"/><path class="cls-9" d="M91,128.65H90a240.71,240.71,0,0,1,3-37.08c2.7-17,4.06-25.54,9.06-34.17,2.38-4.12,3.87-5.59,7.48-9.16s8.75-8.64,18.57-19.92c1.13-1.29,2.11-2.43,3-3.43,4.57-5.3,5.95-6.9,9.17-8.68,6.06-3.36,13.59-4.7,32.34-1.05a208.4,208.4,0,0,1,42.1,13l-.4.92a207.06,207.06,0,0,0-41.9-13c-18.45-3.6-25.79-2.3-31.66.95-3.06,1.69-4.41,3.26-8.89,8.46l-3,3.43C119,40.28,113.75,45.5,110.25,49s-5,4.95-7.32,8.95C98,66.37,96.68,74.85,94,91.73A241,241,0,0,0,91,128.65Z"/><path class="cls-9" d="M93.89,131l-.78-.62A121.85,121.85,0,0,0,113,94.49c1.46-4.28,2.46-8.07,3.35-11.41,2.06-7.82,3.7-14,9.75-20.76a34.23,34.23,0,0,1,7.08-6,77.35,77.35,0,0,0,10.94-9c1.62-1.56,2.8-2.79,16-18l.47-.53c11.06-12.75,14.79-17,21.8-18.63,3-.67,5.76-.68,10.18,0,12.36,1.87,25.21,6.94,38.2,15.07l-.54.84c-12.87-8-25.59-13.08-37.8-14.93-4.3-.65-7-.65-9.82,0-6.69,1.51-10.36,5.74-21.27,18.3l-.46.54c-13.2,15.21-14.4,16.45-16,18a79.5,79.5,0,0,1-11.07,9.09A33.73,33.73,0,0,0,126.87,63c-5.89,6.58-7.41,12.36-9.53,20.36-.88,3.35-1.89,7.16-3.37,11.47A122.47,122.47,0,0,1,93.89,131Z"/><path class="cls-9" d="M87,128.69c-1.39-16.4-2.73-31.88-4-46l0-.44C81.83,69.63,81.15,62,83,51.56S87.13,28.4,97.24,22.22c8.16-5,17.69-3.36,25.34-2.06a53.56,53.56,0,0,1,13.8,4.38,61.89,61.89,0,0,0,14.21,4.62,69.53,69.53,0,0,0,18.87,1l.08,1a70.62,70.62,0,0,1-19.13-1A62.19,62.19,0,0,1,136,25.45a53.36,53.36,0,0,0-13.56-4.31c-7.5-1.27-16.82-2.85-24.66,1.94C88,29,85.79,41.61,84,51.74c-1.83,10.32-1.16,17.89,0,30.43l0,.43c1.26,14.13,2.61,29.6,4,46Z"/><path class="cls-9" d="M74,119.76l-1-.22A96.2,96.2,0,0,0,75,89.7c-.76-7.77-.5-13.88,0-26.07.13-3.17.25-5.91,2.11-8.29,2.19-2.8,5.42-3.62,20.34-5.19l4.91-.5c5.14-.51,6.53-.65,9-1.47a35.32,35.32,0,0,0,11.51-6.64l.33-.28c8.47-7,23.06-9,55.26-13.11,30.56-3.85,45.87-5.78,51-6,19.06-.82,35.32.11,51,1,6.6.37,10.18.67,13.63,1,3.92.32,7.62.63,15.37,1,14.31.76,27.83,1.48,44,1a366.76,366.76,0,0,0,43.93-4l.16,1a367.06,367.06,0,0,1-44.07,4c-16.17.48-29.7-.24-44-1-7.78-.41-11.48-.72-15.41-1-3.45-.28-7-.58-13.61-1-15.7-.89-31.93-1.81-51-1-5.13.22-20.43,2.15-50.9,6-32.05,4-46.55,6.11-54.8,12.9l-.33.27a36,36,0,0,1-11.83,6.81c-2.56.87-4,1-9.2,1.53-1.35.13-3,.29-4.91.5-14.4,1.51-17.7,2.32-19.66,4.81-1.58,2-1.75,4.24-1.89,7.71-.5,12.14-.75,18.23,0,25.93A97.66,97.66,0,0,1,74,119.76Z"/><path class="cls-9" d="M15.09,312.93A71.83,71.83,0,0,1,6,294.81c-2.22-6.66-3.89-15.25-2-53.19.21-4.25.4-7.49.55-10.19.37-6.41.55-9.63.45-15.77s-.41-9.26-.86-13.81c-.31-3.12-.7-7-1.14-13.17a419.66,419.66,0,0,1-1-50.05c.21-4.55.4-6.81.56-8.79.19-2.24.34-4,.44-8.2.14-6.17,0-10.51-.12-14.71-.17-5.32-.32-10.33.12-18.31A92,92,0,0,1,5,72.54a91.42,91.42,0,0,1,3-10l1-3.09c2.05-6.16,4.07-12.55,6-19l1,.28c-1.92,6.45-3.94,12.84-6,19l-1,3.09A89.35,89.35,0,0,0,6,72.76,88.3,88.3,0,0,0,4,88.68c-.44,7.93-.29,12.93-.12,18.21.13,4.22.26,8.58.12,14.77-.1,4.23-.25,6-.44,8.26-.17,2-.36,4.22-.56,8.75a415.76,415.76,0,0,0,1,49.94c.44,6.15.82,10,1.14,13.14.45,4.57.75,7.6.86,13.89s-.08,9.41-.45,15.85c-.16,2.69-.34,5.94-.55,10.18-1.86,37.76-.2,46.26,2,52.82a71.44,71.44,0,0,0,8.94,17.88Z"/><path class="cls-9" d="M46,384.69c-1.17-14.05-2.18-28.18-3-42-1.29-21.74-1.7-35.33-2-46.26-.46-15-.73-24.08-3-40.7-.48-3.6-.93-6.66-1.37-9.61A220.75,220.75,0,0,1,34,221.67c-.69-13.81-.06-24.06,1-41,.88-14.19,1.71-21.65,2.37-27.65.72-6.53,1.3-11.68,1.63-22.34.25-8.08.14-11.88,0-16.28-.14-4.81-.3-10.26,0-22.71,0-1.85.09-3.62.14-5.35.23-8.7.44-16.21-.14-26.61-.39-7-1.06-14.07-2-21l1-.14c.94,6.92,1.61,14,2,21,.58,10.45.37,18,.14,26.7,0,1.72-.1,3.49-.14,5.34-.29,12.42-.13,17.86,0,22.66.13,4.41.24,8.23,0,16.34-.34,10.7-.91,15.87-1.63,22.42-.67,6-1.49,13.44-2.37,27.6-1.06,16.95-1.69,27.19-1,40.94A219.66,219.66,0,0,0,37.61,246c.45,3,.9,6,1.39,9.62,2.24,16.67,2.51,25.76,3,40.81.33,10.92.74,24.51,2,46.23.82,13.82,1.83,27.95,3,42Z"/><path class="cls-9" d="M66,398.66c0-1.67,0-3.36,0-5,.11-8.22.73-14.36,1-16.68l0-.36c.53-5.32.46-9,.3-17.73-.1-5.3-.24-12.56-.3-23.22,0-9.65,0-13.36,0-15.57,0-1.91,0-2.78,0-5.42A212.8,212.8,0,0,0,64,285c-.59-3.86-1.27-8.23-2-13.31-1.75-13.17-4.41-33.07-4-58.08.07-4,.2-7.39.35-11.27.24-6,.51-12.77.65-24.73.1-8.35.18-14.95,0-24-.18-8.8-.44-22.1-2-39-.36-3.91-.69-7-1-9.67a119.28,119.28,0,0,1-1-17.39,109.6,109.6,0,0,1,2-20.09,97,97,0,0,1,6-19.1l.92.4a96.53,96.53,0,0,0-6,18.9,108.52,108.52,0,0,0-2,19.91,117.73,117.73,0,0,0,1,17.26c.29,2.71.63,5.77,1,9.68,1.56,16.9,1.82,30.22,2,39,.18,9.05.1,15.65,0,24-.14,12-.41,18.76-.65,24.75-.15,3.88-.28,7.22-.35,11.25-.4,24.93,2.24,44.79,4,57.92.67,5.08,1.35,9.45,1.94,13.3A214.07,214.07,0,0,1,68,314.63c.08,2.66.07,3.54,0,5.47,0,2.2-.09,5.9,0,15.55.06,10.65.2,17.91.3,23.21.16,8.81.23,12.46-.3,17.84l0,.36c-.23,2.3-.85,8.42-1,16.6,0,1.65,0,3.32,0,5Z"/><path class="cls-9" d="M39,380.7c-1.32-13.22-2.67-26-4-38l-.11-1c-.83-7.53-1.56-14-1.89-23-.21-5.56-.15-9-.08-13.33,0-1.94.06-4.08.08-6.69.06-9-.16-13.49-.42-18.71-.21-4.26-.44-9.09-.58-17.28-.22-13,.07-18.8.27-23.05A71.51,71.51,0,0,0,32,226.7c-.54-5.75-1.21-9.7-1.85-13.51A142.76,142.76,0,0,1,28,194.68c-.37-6.78-.26-11.26,0-21.09l0-1c.41-17,.83-36.32,1-46,.51-29.26.77-43.93,0-48.92l-.14-.89A91.08,91.08,0,0,1,28,51.59a88.33,88.33,0,0,1,3-15.08l1,.28A86.53,86.53,0,0,0,29,51.7a90.17,90.17,0,0,0,.86,25l.13.89c.78,5.07.52,19.77,0,49.06-.17,9.71-.59,29.06-1,46l0,1c-.24,9.8-.35,14.27,0,21A145.33,145.33,0,0,0,31.13,213c.65,3.83,1.32,7.8,1.87,13.58a73.31,73.31,0,0,1,.27,13.06c-.21,4.24-.49,10-.27,23,.14,8.18.37,13,.58,17.25.26,5.23.48,9.75.42,18.76,0,2.62,0,4.77-.08,6.71-.07,4.33-.13,7.74.08,13.27.33,9,1,15.45,1.89,23l.11,1c1.33,12,2.67,24.79,4,38Z"/><path class="cls-9" d="M33.71,70.1l-.42-.9a80,80,0,0,1,23.14-7.05c2-.28,3.24-.37,4.55-.46s2.86-.21,5.46-.54a117.28,117.28,0,0,0,17-3.49c1.89-.5,3.83-1,5.9-1.5a116.49,116.49,0,0,1,28.12-3,73,73,0,0,1,13,1.51c3.7.68,8.31,1.51,16,2.49,6.67.86,13.39,1.53,20,2l-.08,1c-6.6-.48-13.34-1.15-20-2-7.72-1-12.35-1.83-16.06-2.5a71.5,71.5,0,0,0-12.89-1.5,115.37,115.37,0,0,0-27.88,3c-2,.47-4,1-5.86,1.49a119.41,119.41,0,0,1-17.19,3.52c-2.62.33-4.15.44-5.5.54s-2.52.18-4.49.45A78.89,78.89,0,0,0,33.71,70.1Z"/><path class="cls-9" d="M53,195.74a288.17,288.17,0,0,1-4-29.05c-.54-6.28-1.15-15.6-1-32.05.16-17.95,1.17-36.47,3-55l1,.1c-1.83,18.54-2.84,37-3,55-.15,16.4.46,25.69,1,32a289.45,289.45,0,0,0,4,28.95Z"/><path class="cls-9" d="M24,357.71c-1.07-8.87-1.75-18-2-27-.2-7.19-.06-11.54.07-15.37.15-4.29.27-8-.07-14.62-.46-8.95-1.64-17-4-32.95-1.19-8.07-1.87-12-2.47-15.48-.5-2.87-.93-5.35-1.53-9.52a399.32,399.32,0,0,1-4-47.06c-.42-17.63.47-33.53,1-43,.21-3.66.41-6.73.59-9.46A153.77,153.77,0,0,0,12,121.68c-.31-5.51-.76-8.85-1.16-11.79A74,74,0,0,1,10,97.64c.06-6.76.16-17,4-29.14.75-2.36,1.55-4.52,2.4-6.8A107.72,107.72,0,0,0,22,42.55c.38-2,.72-4,1-6l1,.14c-.29,2-.62,4-1,6a108.58,108.58,0,0,1-5.63,19.31c-.84,2.27-1.64,4.41-2.38,6.75-3.82,12-3.92,22.15-4,28.85a72.56,72.56,0,0,0,.83,12.1c.41,3,.86,6.33,1.17,11.87a152.52,152.52,0,0,1-.41,21.61c-.18,2.72-.39,5.79-.59,9.45-.53,9.49-1.42,25.37-1,43a401.91,401.91,0,0,0,4,46.94c.61,4.16,1,6.63,1.53,9.49.6,3.48,1.28,7.42,2.47,15.51,2.36,16,3.55,24,4,33,.34,6.66.22,10.39.07,14.71-.13,3.81-.27,8.14-.07,15.31.25,9,.92,18.11,2,26.95Z"/><path class="cls-9" d="M47,389.72l-1-.14c1.81-12.54,3.16-25.31,4-38,.46-7,1.42-21.58,1-40a237.62,237.62,0,0,0-1.79-25.37c-.77-6.63-1.63-14.14-2.21-28.62-.3-7.57-.33-12.25-.36-16.77,0-5.79-.08-11.25-.64-22.23-.4-7.83-.75-12.19-1.06-16-.33-4-.63-7.88-.94-15-.46-10.78-.31-21.22,0-42,.33-22.09.84-34,8.11-43.3a26.29,26.29,0,0,1,8.15-7.13c4.4-2.41,7.93-2.55,13.78-2.79,1.6-.07,3.39-.14,5.43-.27,3-.19,9.7-1.13,23-3,6.31-.88,12.7-1.89,19-3l.18,1c-6.3,1.1-12.7,2.11-19,3-13.29,1.87-20,2.81-23,3-2,.13-3.84.2-5.45.27-5.9.24-9.15.37-13.34,2.67A25.37,25.37,0,0,0,52.89,103c-7.07,9-7.57,20.83-7.89,42.7-.31,20.78-.46,31.22,0,42,.3,7.06.61,10.88.94,14.92.31,3.85.66,8.22,1.06,16.07.56,11,.6,16.48.64,22.27,0,4.52.06,9.18.36,16.74.57,14.44,1.44,21.94,2.2,28.55A238.51,238.51,0,0,1,52,311.64c.42,18.42-.54,33-1,40C50.16,364.36,48.82,377.16,47,389.72Z"/><path class="cls-9" d="M200.82,45l-.64-.76A205.12,205.12,0,0,1,261.33,8.18c25.42-9.42,38.1-8.16,46.3-6a60.55,60.55,0,0,1,22.18,11.09l-.62.78A59.62,59.62,0,0,0,307.37,3.13c-7.42-1.94-20.25-3.44-45.7,6A204.12,204.12,0,0,0,200.82,45Z"/><path class="cls-9" d="M36.52,35.15l0-1c9.24-.3,18.66-.64,28-1,23.63-.91,35.49-1.37,42-2,8.53-.83,21-2.89,45.94-7,11-1.82,15.78-2.67,18.33-3.12s3.17-.57,5.72-.89c10.42-1.31,17.06-1.59,39.05-2.5l12-.5c13.29-.56,18.24-.8,20.43-.91,1.64-.08,1.73-.08,2.59-.09A241.47,241.47,0,0,1,278,17.38a160.77,160.77,0,0,0,25.44.77,210.08,210.08,0,0,0,28.93-3c3.94-.7,6.92-1.35,9.54-1.93,3.69-.8,6.88-1.5,11.49-2.08a109.87,109.87,0,0,1,27.12,0l-.12,1a107.94,107.94,0,0,0-26.88,0,115.27,115.27,0,0,0-11.39,2.06c-2.64.58-5.63,1.23-9.58,1.93a209.77,209.77,0,0,1-29.07,3A160.93,160.93,0,0,1,278,18.37a240.53,240.53,0,0,0-27.45-1.22c-.84,0-.92,0-2.54.09-2.19.1-7.15.35-20.44.91l-12,.5c-22,.91-28.58,1.19-39,2.5-2.52.31-3.12.42-5.66.87s-7.3,1.31-18.32,3.12c-25,4.11-37.47,6.18-46,7-6.52.63-18.39,1.09-42,2C55.18,34.51,45.76,34.85,36.52,35.15Z"/><path class="cls-9" d="M30.67,33.12l-.34-.94a132,132,0,0,1,13.05-4c8.37-2.11,14-2.49,21.75-3,3.49-.24,7.45-.52,12.32-1,12-1.16,21.42-2.73,29-4,8.2-1.37,12.11-2.24,15.26-2.94a107.85,107.85,0,0,1,11.77-2.07c5.19-.66,8.52-.91,12.05-1.18,4.3-.32,8.75-.66,16.94-1.82,1.73-.24,3.15-.45,4.58-.67,2.52-.38,5.13-.77,9.43-1.33,7.19-.93,11.94-1.54,18-2,4.8-.36,7.54-.41,10.71-.46s6.8-.12,13.3-.54c5.42-.35,8.12-.52,12-1A135.23,135.23,0,0,0,250,2.28l.42-.11c10.51-2.84,30.76-2.84,60.18,0l-.1,1C281.16.34,261,.33,250.63,3.13l-.41.11a138,138,0,0,1-19.66,3.91c-3.88.48-6.59.65-12,1-6.55.41-10.17.48-13.37.54s-5.89.1-10.65.46c-6.06.45-10.8,1.07-18,2-4.28.55-6.88.94-9.4,1.32-1.43.21-2.86.43-4.59.67-8.22,1.17-12.69,1.5-17,1.83-3.51.26-6.83.51-12,1.18a107.47,107.47,0,0,0-11.67,2c-3.16.71-7.09,1.58-15.31,2.95-7.56,1.27-17,2.84-29,4-4.88.47-8.85.74-12.35,1-7.72.53-13.29.92-21.58,3A130.78,130.78,0,0,0,30.67,33.12Z"/><path class="cls-10" d="M82,152.15c-4.11,5.39-9.31,12.47-15,21a402.76,402.76,0,0,0-23,39,344.24,344.24,0,0,0-19,43c-6.19,17.2-8.36,27.74-9,31a134.34,134.34,0,0,0-3,27,128.05,128.05,0,0,0,2,23c1.66,9.34,3.12,17.53,8,27,6.43,12.46,15,19.81,20,24a83.25,83.25,0,0,0,26,15c2.85,1,5.28,1.6,7,2,.33-1.67.67-3.33,1-5a74.39,74.39,0,0,1-34.5-18.5c-11.51-11-16.13-23.19-19-31-5.92-16.13-6-29.62-6-39,0-18.94,4.13-33.24,7-43,2.69-9.16,5.8-16.44,12-31,5.76-13.53,9.18-21.55,15-32,4-7.13,9.37-15.19,20-31,6.16-9.16,11.35-16.72,15-22Z"/><path class="cls-10" d="M88,132.15c-.67,1.33-1.33,2.67-2,4-12.59-13.41-22.76-24.77-30-33-16.39-18.64-5-6.69-23-28C21,61,11.4,50.32,14,39.15a7.86,7.86,0,0,1,1-3C16.37,34,18.89,33,21.23,32.54A24.74,24.74,0,0,1,26,32.15c3.75,0,6.44.89,12,3,7.32,2.77,9.14,3.69,15,6,9.31,3.67,12.68,4.49,19,8,2.16,1.2,3.88,2.28,5,3v4a104.76,104.76,0,0,0-13-7c-15-6-14-5-26-10-4.89-2-8-3-13-3a9.28,9.28,0,0,0-3.09.5A4.93,4.93,0,0,0,19,39.15c-1.86,3.91,1.29,9.81,3,13h0a138.31,138.31,0,0,0,12,18c5,6.3,9.94,12.71,15,19,13.83,17.2,13.67,16.14,17,20C71.05,115,79,123.15,88,132.15Z"/><path class="cls-10" d="M100,137.15c8.87-9.76,16.75-17.82,23-24,7.55-7.48,17.1-16.89,30.77-28.34C160,79.56,165,75.7,167,74.15a337.67,337.67,0,0,1,38-26c8.77-5.09,16.51-8.72,32-16,16.71-7.85,25.07-11.78,37-16,9.76-3.46,21.22-7.45,37-10,8.43-1.36,18.6-2.94,32-2a140.33,140.33,0,0,1,24,4c6.77,1.61,10.89,2.62,16,5a59.24,59.24,0,0,1,17,12c.33-1.33.67-2.67,1-4a74.17,74.17,0,0,0-18-12c-9.08-4.28-16.7-5.58-25-7a142,142,0,0,0-25-2,156.3,156.3,0,0,0-33,4,221.35,221.35,0,0,0-36,11c-12.28,4.71-21.23,9.16-35,16-7,3.47-13.06,6.5-21,11-3.66,2.07-14.19,8.13-27,17-25.17,17.42-43.17,34.61-55,46-7.22,6.95-17,16.71-28,29Z"/><circle class="cls-11" cx="88" cy="141.15" r="15"/><polygon class="cls-4" points="73 125.15 81 132.15 89 134.15 91 136.15 91 143.15 88 146.15 82 145.15 79 139.15 70 135.15 73 125.15"/><polygon class="cls-10" points="59 117.15 72 117.15 79 128.15 74 140.15 60 141.15 52 129.15 59 117.15"/><polygon class="cls-12" points="63 122.15 65 122.15 68 124.15 67 130.15 65 131.15 60 131.15 59 129.15 59 126.15 63 122.15"/><polygon class="cls-11" points="63 124.15 65 124.15 66 125.15 65 128.15 62 129.15 61.42 127.07 63 124.15"/><path class="cls-13" d="M63.91,126.92c-1.16,1.63-4.11,1.3-4.89,1.21-3.08-.34-4.75-.82-8.57-3.63s-4.64-4.16-7.35-6.06c-2.53-1.78-10.18-7.73-17.5-13.8h0L23,99.15l2-2.07c9.08,5.79,19.36,12.84,21.74,14.08,2.91,1.52,5.63,3.4,8.57,4.85,3.66,1.81,5.72,2.5,7.35,4.85C62.86,121.11,65.4,124.84,63.91,126.92Z"/><path class="cls-14" d="M62.28,126c-.79,1.11-2.8.88-3.33.82-2.1-.23-3.23-.56-5.83-2.47s-3.16-2.83-5-4.13c-2.35-1.65-11.24-8.61-17.12-13.85l-.08-.07c-1.68-1.5-3.11-2.85-4.06-3.89L30,104.15l-4.12-3a1.53,1.53,0,0,1-.28-.6l5.4,3.6-4.21-3.68a38.4,38.4,0,0,1,5.29,2.84l.35.21c6.73,4.1,16.26,10.7,18.19,11.7s3.83,2.31,5.83,3.3c2.49,1.23,3.89,1.7,5,3.3C61.57,122,63.29,124.53,62.28,126Z"/><path class="cls-15" d="M60.56,124.59c.63-.88-.44-2.44-.51-2.55-.69-1-1.55-1.28-3.08-2-1.24-.61-2.38-1.4-3.6-2-1.84-1-14.9-10.17-15.42-9.16S49.56,119.43,51.83,121c1.14.8,1.5,1.39,3.08,2.55a6.16,6.16,0,0,0,3.6,1.52C58.84,125.13,60.08,125.27,60.56,124.59Z"/><path class="cls-10" d="M96,146.15c6.1,6.64,16,16.06,27,27,7.54,7.47,19.79,19.31,54,49,27.87,24.19,41.81,35.29,58,48,12.76,10,25.5,19.34,51,38,21.08,15.43,31.63,23.14,43,31,32.77,22.64,52.76,34.19,75,44,2.93,1.29,5.37,2.32,7,3v-4c-9.8-4.43-23.14-10.86-38.5-19.5-20.82-11.71-36-22.25-50-32-7.55-5.26-17.7-12.84-38-28-23.91-17.85-36.15-27-50-38-12.67-10.06-21.93-17.78-33-27-13-10.84-25.13-20.94-41-35-9.59-8.5-22.1-19.61-38-35-9.41-9.11-17.21-17-23-23C98.67,144.82,96.83,146,96,146.15Z"/><path class="cls-4" d="M77,52.15v4a104.76,104.76,0,0,0-13-7c-15-6-14-5-26-10-4.89-2-8-3-13-3-.36,0-4,1-5,2,0,0,2-2,2-3l-.77-2.61A26.24,26.24,0,0,1,26,32.15c3.75,0,6.44.89,12,3,7.32,2.77,9.14,3.69,15,6,9.31,3.67,12.68,4.49,19,8C74.16,50.35,75.88,51.43,77,52.15Z"/><polygon class="cls-13" points="23 99.15 25.03 97.08 24.99 97.05 9 85.15 13.5 90.4 0 82.15 10.62 90.78 16 95.15 13.73 94.18 2 89.15 25.6 104.64 25.6 104.63 23 99.15"/><polygon class="cls-14" points="33 105.15 31 106.32 30.92 106.25 23 100.15 26.85 102.35 26.86 102.36 30 104.15 25.88 101.15 19 96.15 25.6 100.55 31 104.15 26.79 100.47 23 97.15 33 104.15 33 105.15"/></g></g></svg>