<?xml version="1.0" encoding="utf-8"?>
<!-- Generator: Adobe Illustrator 24.0.0, SVG Export Plug-In . SVG Version: 6.00 Build 0)  -->
<svg version="1.1" xmlns="http://www.w3.org/2000/svg" xmlns:xlink="http://www.w3.org/1999/xlink" x="0px" y="0px"
	 viewBox="0 0 1920 1080" style="enable-background:new 0 0 1920 1080;" xml:space="preserve">
<style type="text/css">
	.st0{fill:#8E8A8B;}
	.st1{fill:#F2F2F2;}
	.st2{fill:#CECECE;}
	.st3{fill:#2B3672;}
	.st4{fill:#D00000;}
	.st5{fill:#FFE400;}
	.st6{fill:#00102B;}
	.st7{fill:none;}
	.st8{fill:#6682AA;}
	.st9{fill:#939393;}
	.st10{opacity:0.35;fill:#0E0023;}
	.st11{opacity:0.45;fill:#454349;}
	.st12{opacity:0.35;fill:#454349;}
	.st13{fill:#FFFFFF;}
	.st14{opacity:0.35;fill:#111111;}
	.st15{opacity:0.25;fill:#FFFFFF;}
	.st16{opacity:0.15;fill:#FFFFFF;}
</style>
<g id="Background">
</g>
<g id="Satelite">
	<g>
		<path class="st0" d="M801.09,382.89l-11.03,7.22c-0.34,0.23-0.44,0.69-0.22,1.03l48.4,73.99c0.23,0.34,0.69,0.44,1.03,0.22
			l11.03-7.22c0.34-0.23,0.44-0.69,0.22-1.03l-48.4-73.99C801.9,382.76,801.44,382.66,801.09,382.89z"/>
		<path class="st0" d="M858.85,405.57l-22.59,14.78c-0.71,0.46-0.9,1.41-0.44,2.11l19.84,30.34c0.46,0.71,1.41,0.9,2.11,0.44
			l22.59-14.78c0.71-0.46,0.9-1.41,0.44-2.11l-19.84-30.34C860.5,405.31,859.55,405.11,858.85,405.57z"/>
		<path class="st1" d="M1052.92,404.52l7.03,10.75l-49.13,32.14l18.58,28.41c12.34,18.87,15.88,40.96,11.6,61.41
			c-4.28,20.45-16.36,39.27-35.23,51.61c-37.74,24.69-88.33,14.11-113.02-23.63l-18.58-28.41l-47.6,31.14l-7.03-10.75l47.6-31.14
			l-43.19-66.02l136.66-89.39l43.19,66.02L1052.92,404.52z"/>
		
			<ellipse transform="matrix(0.6313 -0.7755 0.7755 0.6313 62.0622 852.9361)" class="st2" cx="928.11" cy="361.19" rx="60.55" ry="75.23"/>
		
			<rect x="594.39" y="566.18" transform="matrix(0.8369 -0.5474 0.5474 0.8369 -219.699 503.3994)" class="st3" width="280.72" height="108.25"/>
		
			<rect x="1010.5" y="294" transform="matrix(0.8369 -0.5474 0.5474 0.8369 -2.8254 686.7778)" class="st3" width="280.72" height="108.25"/>
		<path class="st4" d="M863.36,478.09l-11.03,7.22c-0.34,0.23-0.44,0.69-0.22,1.03l16.26,24.85c0.23,0.34,0.69,0.44,1.03,0.22
			l11.03-7.22c0.34-0.23,0.44-0.69,0.22-1.03L864.4,478.3C864.17,477.96,863.71,477.86,863.36,478.09z"/>
		<circle class="st5" cx="890.45" cy="477.91" r="12.84"/>
		<circle class="st6" cx="918.09" cy="459.83" r="12.84"/>
		<g>
			
				<rect x="669.82" y="623.72" transform="matrix(0.8369 -0.5474 0.5474 0.8369 -236.293 478.3887)" class="st7" width="29.36" height="23.85"/>
			
				<rect x="642.33" y="642.3" transform="matrix(0.8369 -0.5474 0.5474 0.8369 -251.0981 465.8702)" class="st7" width="27.52" height="23.85"/>
			
				<rect x="698.69" y="603.63" transform="matrix(0.8369 -0.5474 0.5474 0.8369 -220.2876 491.9221)" class="st7" width="33.03" height="23.85"/>
			
				<rect x="765.8" y="557.94" transform="matrix(0.8369 -0.5474 0.5474 0.8369 -183.8753 522.7108)" class="st7" width="38.53" height="23.85"/>
			
				<rect x="658.4" y="666.87" transform="matrix(0.8369 -0.5474 0.5474 0.8369 -261.9248 478.6746)" class="st7" width="27.52" height="23.85"/>
			
				<rect x="730.64" y="581.54" transform="matrix(0.8369 -0.5474 0.5474 0.8369 -202.6816 506.809)" class="st7" width="36.7" height="23.85"/>
			
				<rect x="685.89" y="648.29" transform="matrix(0.8369 -0.5474 0.5474 0.8369 -247.1198 491.193)" class="st7" width="29.36" height="23.85"/>
			
				<rect x="781.87" y="582.5" transform="matrix(0.8369 -0.5474 0.5474 0.8369 -194.702 535.5151)" class="st7" width="38.53" height="23.85"/>
			
				<rect x="746.71" y="606.11" transform="matrix(0.8369 -0.5474 0.5474 0.8369 -213.5084 519.6133)" class="st7" width="36.7" height="23.85"/>
			
				<rect x="714.76" y="628.2" transform="matrix(0.8369 -0.5474 0.5474 0.8369 -231.1144 504.7265)" class="st7" width="33.03" height="23.85"/>
			<path class="st8" d="M820.71,567.37c1.27-0.83,1.63-2.54,0.8-3.81c-0.83-1.27-2.54-1.63-3.81-0.8l-5.37,3.52l-13.06-19.96
				l5.37-3.52c1.27-0.83,1.63-2.54,0.8-3.81c-0.83-1.27-2.54-1.63-3.81-0.8l-5.37,3.52l-7.53-11.52c-0.83-1.27-2.54-1.63-3.81-0.8
				l0,0c-1.27,0.83-1.63,2.54-0.8,3.81l7.53,11.52l-32.24,21.09l-7.53-11.52c-0.83-1.27-2.54-1.63-3.81-0.8l0,0
				c-1.27,0.83-1.63,2.54-0.8,3.81l7.53,11.52l-30.71,20.09l-7.53-11.52c-0.83-1.27-2.54-1.63-3.81-0.8l0,0
				c-1.27,0.83-1.63,2.54-0.8,3.81l7.53,11.52l-27.64,18.08l-7.53-11.52c-0.83-1.27-2.54-1.63-3.81-0.8l0,0
				c-1.27,0.83-1.63,2.54-0.8,3.81l7.53,11.52l-24.57,16.07l-7.53-11.52c-0.83-1.27-2.54-1.63-3.81-0.8l0,0
				c-1.27,0.83-1.63,2.54-0.8,3.81l7.53,11.52l-23.03,15.07l-7.53-11.52c-0.83-1.27-2.54-1.63-3.81-0.8l0,0
				c-1.27,0.83-1.63,2.54-0.8,3.81l7.53,11.52l-5.37,3.52c-1.27,0.83-1.63,2.54-0.8,3.81c0.83,1.27,2.54,1.63,3.81,0.8l5.37-3.52
				l13.06,19.96l-5.37,3.52c-1.27,0.83-1.63,2.54-0.8,3.81c0.83,1.27,2.54,1.63,3.81,0.8l5.37-3.52l13.06,19.96l-5.37,3.52
				c-1.27,0.83-1.63,2.54-0.8,3.81s2.54,1.63,3.81,0.8l5.37-3.52l6.53,9.98c0.83,1.27,2.54,1.63,3.81,0.8l0,0
				c1.27-0.83,1.63-2.54,0.8-3.81l-6.53-9.98l23.03-15.07l6.53,9.98c0.83,1.27,2.54,1.63,3.81,0.8l0,0c1.27-0.83,1.63-2.54,0.8-3.81
				l-6.53-9.98l24.57-16.07l6.53,9.98c0.83,1.27,2.54,1.63,3.81,0.8l0,0c1.27-0.83,1.63-2.54,0.8-3.81l-6.53-9.98l27.64-18.08
				l6.53,9.98c0.83,1.27,2.54,1.63,3.81,0.8l0,0c1.27-0.83,1.63-2.54,0.8-3.81l-6.53-9.98l30.71-20.09l6.53,9.98
				c0.83,1.27,2.54,1.63,3.81,0.8l0,0c1.27-0.83,1.63-2.54,0.8-3.81l-6.53-9.98l32.24-21.09l6.53,9.98c0.83,1.27,2.54,1.63,3.81,0.8
				l0,0c1.27-0.83,1.63-2.54,0.8-3.81l-6.53-9.98l5.37-3.52c1.27-0.83,1.63-2.54,0.8-3.81s-2.54-1.63-3.81-0.8l-5.37,3.52
				l-13.06-19.96L820.71,567.37z M794.66,549.34l13.06,19.96l-32.24,21.09l-13.06-19.96L794.66,549.34z M757.81,573.44l13.06,19.96
				l-30.71,20.09l-13.06-19.96L757.81,573.44z M722.49,596.54l13.06,19.96l-27.64,18.08l-13.06-19.96L722.49,596.54z M690.25,617.63
				l13.06,19.96l-24.57,16.07l-13.06-19.96L690.25,617.63z M638.04,651.78l23.03-15.07l13.06,19.96l-23.03,15.07L638.04,651.78z
				 M667.17,696.31l-13.06-19.96l23.03-15.07l13.06,19.96L667.17,696.31z M694.81,678.23l-13.06-19.96l24.57-16.07l13.06,19.96
				L694.81,678.23z M723.98,659.15l-13.06-19.96l27.64-18.08l13.06,19.96L723.98,659.15z M756.23,638.06l-13.06-19.96l30.71-20.09
				l13.06,19.96L756.23,638.06z M823.79,593.86l-32.24,21.09l-13.06-19.96l32.24-21.09L823.79,593.86z"/>
		</g>
		<g>
			
				<rect x="1091.54" y="350.06" transform="matrix(0.8369 -0.5474 0.5474 0.8369 -17.6954 664.5975)" class="st7" width="29.36" height="23.85"/>
			
				<rect x="1064.05" y="368.64" transform="matrix(0.8369 -0.5474 0.5474 0.8369 -32.5004 652.079)" class="st7" width="27.52" height="23.85"/>
			
				<rect x="1120.41" y="329.97" transform="matrix(0.8369 -0.5474 0.5474 0.8369 -1.6899 678.1309)" class="st7" width="33.03" height="23.85"/>
			
				<rect x="1187.52" y="284.28" transform="matrix(0.8369 -0.5474 0.5474 0.8369 34.7224 708.9196)" class="st7" width="38.53" height="23.85"/>
			
				<rect x="1080.12" y="393.21" transform="matrix(0.8369 -0.5474 0.5474 0.8369 -43.3272 664.8834)" class="st7" width="27.52" height="23.85"/>
			
				<rect x="1152.36" y="307.88" transform="matrix(0.8369 -0.5474 0.5474 0.8369 15.916 693.0178)" class="st7" width="36.7" height="23.85"/>
			
				<rect x="1107.61" y="374.63" transform="matrix(0.8369 -0.5474 0.5474 0.8369 -28.5221 677.4018)" class="st7" width="29.36" height="23.85"/>
			
				<rect x="1203.59" y="308.84" transform="matrix(0.8369 -0.5474 0.5474 0.8369 23.8956 721.7239)" class="st7" width="38.53" height="23.85"/>
			
				<rect x="1168.43" y="332.45" transform="matrix(0.8369 -0.5474 0.5474 0.8369 5.0893 705.8221)" class="st7" width="36.7" height="23.85"/>
			
				<rect x="1136.48" y="354.54" transform="matrix(0.8369 -0.5474 0.5474 0.8369 -12.5167 690.9352)" class="st7" width="33.03" height="23.85"/>
			<path class="st8" d="M1242.43,293.72c1.27-0.83,1.63-2.54,0.8-3.81c-0.83-1.27-2.54-1.63-3.81-0.8l-5.37,3.52l-13.06-19.96
				l5.37-3.52c1.27-0.83,1.63-2.54,0.8-3.81c-0.83-1.27-2.54-1.63-3.81-0.8l-5.37,3.52l-7.53-11.52c-0.83-1.27-2.54-1.63-3.81-0.8
				l0,0c-1.27,0.83-1.63,2.54-0.8,3.81l7.53,11.52l-32.24,21.09l-7.53-11.52c-0.83-1.27-2.54-1.63-3.81-0.8l0,0
				c-1.27,0.83-1.63,2.54-0.8,3.81l7.53,11.52l-30.71,20.09l-7.53-11.52c-0.83-1.27-2.54-1.63-3.81-0.8l0,0
				c-1.27,0.83-1.63,2.54-0.8,3.81l7.53,11.52l-27.64,18.08l-7.53-11.52c-0.83-1.27-2.54-1.63-3.81-0.8l0,0
				c-1.27,0.83-1.63,2.54-0.8,3.81l7.53,11.52l-24.57,16.07l-7.53-11.52c-0.83-1.27-2.54-1.63-3.81-0.8l0,0
				c-1.27,0.83-1.63,2.54-0.8,3.81l7.53,11.52l-23.03,15.07l-7.53-11.52c-0.83-1.27-2.54-1.63-3.81-0.8l0,0
				c-1.27,0.83-1.63,2.54-0.8,3.81l7.53,11.52l-5.37,3.52c-1.27,0.83-1.63,2.54-0.8,3.81c0.83,1.27,2.54,1.63,3.81,0.8l5.37-3.52
				l13.06,19.96l-5.37,3.52c-1.27,0.83-1.63,2.54-0.8,3.81c0.83,1.27,2.54,1.63,3.81,0.8l5.37-3.52l13.06,19.96l-5.37,3.52
				c-1.27,0.83-1.63,2.54-0.8,3.81c0.83,1.27,2.54,1.63,3.81,0.8l5.37-3.52l6.53,9.98c0.83,1.27,2.54,1.63,3.81,0.8l0,0
				c1.27-0.83,1.63-2.54,0.8-3.81l-6.53-9.98l23.03-15.07l6.53,9.98c0.83,1.27,2.54,1.63,3.81,0.8l0,0c1.27-0.83,1.63-2.54,0.8-3.81
				l-6.53-9.98l24.57-16.07l6.53,9.98c0.83,1.27,2.54,1.63,3.81,0.8l0,0c1.27-0.83,1.63-2.54,0.8-3.81l-6.53-9.98l27.64-18.08
				l6.53,9.98c0.83,1.27,2.54,1.63,3.81,0.8l0,0c1.27-0.83,1.63-2.54,0.8-3.81l-6.53-9.98l30.71-20.09l6.53,9.98
				c0.83,1.27,2.54,1.63,3.81,0.8l0,0c1.27-0.83,1.63-2.54,0.8-3.81l-6.53-9.98l32.24-21.09l6.53,9.98c0.83,1.27,2.54,1.63,3.81,0.8
				l0,0c1.27-0.83,1.63-2.54,0.8-3.81l-6.53-9.98l5.37-3.52c1.27-0.83,1.63-2.54,0.8-3.81c-0.83-1.27-2.54-1.63-3.81-0.8l-5.37,3.52
				l-13.06-19.96L1242.43,293.72z M1216.38,275.68l13.06,19.96l-32.24,21.09l-13.06-19.96L1216.38,275.68z M1179.53,299.78
				l13.06,19.96l-30.71,20.09l-13.06-19.96L1179.53,299.78z M1144.21,322.88l13.06,19.96l-27.64,18.08l-13.06-19.96L1144.21,322.88z
				 M1111.97,343.97l13.06,19.96L1100.46,380l-13.06-19.96L1111.97,343.97z M1059.76,378.12l23.03-15.07l13.06,19.96l-23.03,15.07
				L1059.76,378.12z M1088.89,422.65l-13.06-19.96l23.03-15.07l13.06,19.96L1088.89,422.65z M1116.53,404.57l-13.06-19.96
				l24.57-16.07l13.06,19.96L1116.53,404.57z M1145.7,385.49l-13.06-19.96l27.64-18.08l13.06,19.96L1145.7,385.49z M1177.95,364.4
				l-13.06-19.96l30.71-20.09l13.06,19.96L1177.95,364.4z M1245.51,320.2l-32.24,21.09l-13.06-19.96l32.24-21.09L1245.51,320.2z"/>
		</g>
		<path class="st9" d="M999.28,269.1c-2.27,3.41-6.44,4.81-10.2,3.72l-56.23,84.28l-4.59-3.05l56.25-84.29
			c-2.43-3.04-2.75-7.42-0.48-10.84c2.81-4.22,8.5-5.36,12.72-2.55C1000.97,259.19,1002.09,264.9,999.28,269.1z"/>
	</g>
</g>
<g id="Highlights_x26_Shadows">
	<path class="st10" d="M933,357c0,0,20,28,11,71c0,0,37.78,0.67,50.69-33.96c0,0,8.58-23.41-2.22-45.11
		c-1.3-2.6-2.29-5.15-3.51-7.47c-2.11-4.01-4.44-7.51-6.75-10.66c-7.38-10.05-15.03-15.9-19.1-19.08L933,357z"/>
	<path class="st10" d="M930.15,351.2c0,0-15.84-33.6-50.49-46.72c0,0,13.01-10.79,37.12-10c24.11,0.79,44.75,15.93,41.82,14.09
		L930.15,351.2z"/>
	<polygon class="st10" points="933,357 928.25,354.05 984.5,269.76 989.08,272.82 	"/>
	<path class="st10" d="M988,255.6c-2.74,1.2-5.05,3.81-5.45,7.36c-0.46,4.14,1.95,6.8,1.95,6.8l4.57,3.06c0,0,3.25,1.08,6.12-0.35
		c0,0-6.23-1.6-6.89-7.08C987.64,259.92,988,255.6,988,255.6z"/>
	
		<rect x="1004.75" y="427.08" transform="matrix(0.8369 -0.5474 0.5474 0.8369 -70.8485 629.2606)" class="st11" width="31.19" height="12.84"/>
	<polygon class="st12" points="868.63,540.42 855.73,548.85 848.7,538.1 860.92,530.11 	"/>
	<path class="st11" d="M983.66,411.82c0.67,2.02,44.57,72.19,45.19,74.58c5.63,21.9,8.11,56.99-21.03,101.04
		c0,0,10.37-6.98,17.74-16.82c7.37-9.84,7-10.63,7-10.63c6.67-12.64,8.12-21.3,9.29-27.54c2.12-11.3,1.45-25.25-4.73-41.7
		c-4.56-12.13-16.11-27.76-16.11-27.76s-14.9-23.59-28.78-44c-2.19-3.23-0.96-1.49-6.32-9.66"/>
	
		<ellipse transform="matrix(0.2268 -0.974 0.974 0.2268 231.4719 1231.994)" class="st13" cx="891.63" cy="470.22" rx="3.28" ry="5"/>
	
		<ellipse transform="matrix(0.2268 -0.974 0.974 0.2268 270.7628 1245.0441)" class="st13" cx="919.49" cy="452" rx="3.28" ry="4.49"/>
	<path class="st13" d="M862.49,482.55l-0.62,0.4c-0.62,0.4-0.79,1.23-0.39,1.85l4.44,6.79c0.4,0.62,1.23,0.79,1.85,0.39l0.62-0.4
		c0.62-0.4,0.79-1.23,0.39-1.85l-4.44-6.79C863.94,482.32,863.11,482.14,862.49,482.55z"/>
	<path class="st14" d="M858.9,405.54l-2.95,1.93l14.45,22.09l4.22-2.76l-13.61-20.81C860.55,405.28,859.6,405.08,858.9,405.54z"/>
	<path class="st14" d="M801.09,382.89l-2.34,1.53l42.19,64.49l2.96-1.94l-41.78-63.87C801.9,382.76,801.44,382.66,801.09,382.89z"/>
	<polygon class="st15" points="619.86,701.07 633.21,622.05 679.29,591.91 660.18,733.77 646.92,742.44 	"/>
	<polygon class="st15" points="697.11,709.61 713,569.86 747.31,547.42 733.14,686.04 	"/>
	<polygon class="st15" points="791.54,647.84 802.67,511.21 822.59,498.18 838.38,522.33 829.58,622.96 	"/>
	<polygon class="st16" points="1051.99,453.39 1066.21,338.83 1099.99,316.73 1099.99,446.08 1063.03,470.26 	"/>
	<polygon class="st16" points="1144.25,417.13 1148.82,284.79 1179.99,264.4 1179.99,391.67 	"/>
	<polygon class="st16" points="1218.54,368.54 1222.86,236.36 1238.7,226 1257.56,254.83 1257.56,343.02 	"/>
</g>
</svg>
