<?xml version="1.0" encoding="utf-8"?>
<!-- Generator: Adobe Illustrator 24.0.0, SVG Export Plug-In . SVG Version: 6.00 Build 0)  -->
<svg version="1.1" id="Layer_1" xmlns="http://www.w3.org/2000/svg" xmlns:xlink="http://www.w3.org/1999/xlink" x="0px" y="0px"
	 viewBox="0 0 1366 768" style="enable-background:new 0 0 1366 768;" xml:space="preserve">
<style type="text/css">
	.st0{fill:#5F699E;}
	.st1{fill:#CECCE4;}
	.st2{fill:#999999;}
	.st3{fill:#666666;}
	.st4{fill:#48426B;}
	.st5{clip-path:url(#SVGID_2_);fill:#999999;}
	.st6{clip-path:url(#SVGID_2_);fill:#9A9A9A;}
	.st7{clip-path:url(#SVGID_2_);fill:#9B9B9B;}
	.st8{clip-path:url(#SVGID_2_);fill:#9B9B9C;}
	.st9{clip-path:url(#SVGID_2_);fill:#9C9C9D;}
	.st10{clip-path:url(#SVGID_2_);fill:#9D9D9F;}
	.st11{clip-path:url(#SVGID_2_);fill:#9E9EA0;}
	.st12{clip-path:url(#SVGID_2_);fill:#9E9EA1;}
	.st13{clip-path:url(#SVGID_2_);fill:#9F9FA2;}
	.st14{clip-path:url(#SVGID_2_);fill:#A0A0A3;}
	.st15{clip-path:url(#SVGID_2_);fill:#A1A1A4;}
	.st16{clip-path:url(#SVGID_2_);fill:#A2A1A5;}
	.st17{clip-path:url(#SVGID_2_);fill:#A2A2A6;}
	.st18{clip-path:url(#SVGID_2_);fill:#A3A3A7;}
	.st19{clip-path:url(#SVGID_2_);fill:#A4A3A8;}
	.st20{clip-path:url(#SVGID_2_);fill:#A5A4AA;}
	.st21{clip-path:url(#SVGID_2_);fill:#A5A5AB;}
	.st22{clip-path:url(#SVGID_2_);fill:#A6A6AC;}
	.st23{clip-path:url(#SVGID_2_);fill:#A7A6AD;}
	.st24{clip-path:url(#SVGID_2_);fill:#A8A7AE;}
	.st25{clip-path:url(#SVGID_2_);fill:#A8A8AF;}
	.st26{clip-path:url(#SVGID_2_);fill:#A9A9B0;}
	.st27{clip-path:url(#SVGID_2_);fill:#AAA9B1;}
	.st28{clip-path:url(#SVGID_2_);fill:#ABAAB2;}
	.st29{clip-path:url(#SVGID_2_);fill:#ACABB3;}
	.st30{clip-path:url(#SVGID_2_);fill:#ACACB4;}
	.st31{clip-path:url(#SVGID_2_);fill:#ADACB5;}
	.st32{clip-path:url(#SVGID_2_);fill:#AEADB6;}
	.st33{clip-path:url(#SVGID_2_);fill:#AFAEB7;}
	.st34{clip-path:url(#SVGID_2_);fill:#AFAEB9;}
	.st35{clip-path:url(#SVGID_2_);fill:#B0AFBA;}
	.st36{clip-path:url(#SVGID_2_);fill:#B1B0BB;}
	.st37{clip-path:url(#SVGID_2_);fill:#B2B1BC;}
	.st38{clip-path:url(#SVGID_2_);fill:#B2B1BD;}
	.st39{clip-path:url(#SVGID_2_);fill:#B3B2BE;}
	.st40{clip-path:url(#SVGID_2_);fill:#B4B3BF;}
	.st41{clip-path:url(#SVGID_2_);fill:#B5B3C0;}
	.st42{clip-path:url(#SVGID_2_);fill:#B5B4C1;}
	.st43{clip-path:url(#SVGID_2_);fill:#B6B5C2;}
	.st44{clip-path:url(#SVGID_2_);fill:#B7B6C3;}
	.st45{clip-path:url(#SVGID_2_);fill:#B7B6C4;}
	.st46{clip-path:url(#SVGID_2_);fill:#B8B7C5;}
	.st47{clip-path:url(#SVGID_2_);fill:#B9B8C6;}
	.st48{clip-path:url(#SVGID_2_);fill:#BAB8C7;}
	.st49{clip-path:url(#SVGID_2_);fill:#BAB9C8;}
	.st50{clip-path:url(#SVGID_2_);fill:#BBBAC9;}
	.st51{clip-path:url(#SVGID_2_);fill:#BCBACA;}
	.st52{clip-path:url(#SVGID_2_);fill:#BCBBCB;}
	.st53{clip-path:url(#SVGID_2_);fill:#BDBCCC;}
	.st54{clip-path:url(#SVGID_2_);fill:#BEBDCD;}
	.st55{clip-path:url(#SVGID_2_);fill:#BFBDCE;}
	.st56{clip-path:url(#SVGID_2_);fill:#BFBECF;}
	.st57{clip-path:url(#SVGID_2_);fill:#C0BFD0;}
	.st58{clip-path:url(#SVGID_2_);fill:#C1BFD1;}
	.st59{clip-path:url(#SVGID_2_);fill:#C1C0D2;}
	.st60{clip-path:url(#SVGID_2_);fill:#C2C1D3;}
	.st61{clip-path:url(#SVGID_2_);fill:#C3C1D4;}
	.st62{clip-path:url(#SVGID_2_);fill:#C3C2D5;}
	.st63{clip-path:url(#SVGID_2_);fill:#C4C3D6;}
	.st64{clip-path:url(#SVGID_2_);fill:#C5C3D7;}
	.st65{clip-path:url(#SVGID_2_);fill:#C5C4D8;}
	.st66{clip-path:url(#SVGID_2_);fill:#C6C4D9;}
	.st67{clip-path:url(#SVGID_2_);fill:#C7C5DA;}
	.st68{clip-path:url(#SVGID_2_);fill:#C7C6DB;}
	.st69{clip-path:url(#SVGID_2_);fill:#C8C6DC;}
	.st70{clip-path:url(#SVGID_2_);fill:#C9C7DD;}
	.st71{clip-path:url(#SVGID_2_);fill:#C9C8DD;}
	.st72{clip-path:url(#SVGID_2_);fill:#CAC8DE;}
	.st73{clip-path:url(#SVGID_2_);fill:#CBC9DF;}
	.st74{clip-path:url(#SVGID_2_);fill:#CBC9E0;}
	.st75{clip-path:url(#SVGID_2_);fill:#CCCAE1;}
	.st76{clip-path:url(#SVGID_2_);fill:#CCCAE2;}
	.st77{clip-path:url(#SVGID_2_);fill:#CDCBE3;}
	.st78{clip-path:url(#SVGID_2_);fill:#CECCE3;}
	.st79{clip-path:url(#SVGID_2_);fill:#CECCE4;}
</style>
<g>
	<g>
		<polygon class="st0" points="584.1,515.82 574.1,521.82 583.1,528.82 592.1,522.82 		"/>
	</g>
	<g>
		<polygon class="st0" points="544.1,361.82 538.1,371.82 532.1,370.82 		"/>
	</g>
	<g>
		<polygon class="st0" points="508.1,485.82 513.1,487.82 513.1,490.82 508.1,490.82 508.1,494.82 502.1,494.82 		"/>
	</g>
	<g>
		<polygon class="st0" points="494.1,445.82 499.1,449.82 494.1,451.82 		"/>
	</g>
	<g>
		<polygon class="st0" points="479.1,399.82 488.1,401.82 483.1,406.82 		"/>
	</g>
	<g>
		<polygon class="st0" points="466.1,418.82 470.1,417.82 476.1,419.82 473.1,424.82 466.1,423.82 		"/>
	</g>
	<g>
		<g>
			<g>
				<polygon class="st1" points="590.1,439.82 587.1,441.82 587.69,442.82 591.1,440.82 				"/>
			</g>
			<g>
				<polygon class="st1" points="593.1,454.82 597.1,452.82 596.1,451.82 592.1,453.82 				"/>
			</g>
			<g>
				<polyline class="st1" points="572.1,398.82 572.03,398.85 568.1,400.82 568.69,402.38 572.1,400.82 				"/>
			</g>
			<g>
				<polygon class="st1" points="566.58,388.53 562.59,390 563.33,391.64 567.1,389.82 				"/>
			</g>
			<g>
				<g>
					<polygon class="st0" points="569.19,403.48 562.59,389 539.07,398.98 539.03,399 534.83,400.78 533.69,401.27 564.68,467.62 
						578.32,462.07 579.59,461.55 593.17,456.03 576.97,420.54 575.91,418.22 574.85,415.88 573.79,413.56 572.73,411.24 
						571.67,408.91 570.61,406.59 569.55,404.27 569.2,403.51 					"/>
				</g>
				<g>
					<polygon class="st2" points="562.74,424.34 562.65,424.11 576.23,418.82 576.32,419.06 					"/>
				</g>
				<g>
					<polygon class="st2" points="558.33,414.84 558.24,414.61 571.73,409.37 571.82,409.6 					"/>
				</g>
				<g>
					<polygon class="st2" points="559.43,417.21 559.34,416.98 572.85,411.72 572.94,411.96 					"/>
				</g>
				<g>
					<polygon class="st2" points="555.02,407.71 554.93,407.47 568.35,402.26 568.44,402.5 					"/>
				</g>
				<g>
					<polygon class="st2" points="556.13,410.08 556.03,409.85 569.49,404.63 569.58,404.87 					"/>
				</g>
				<g>
					
						<rect x="552.36" y="400.3" transform="matrix(0.9423 -0.3349 0.3349 0.9423 -101.7829 210.4853)" class="st2" width="14.38" height="0.25"/>
				</g>
				<g>
					<polygon class="st2" points="553.92,405.34 553.83,405.1 567.23,399.9 567.32,400.14 					"/>
				</g>
				<g>
					
						<rect x="551.24" y="397.84" transform="matrix(0.9274 -0.3741 0.3741 0.9274 -108.3309 237.774)" class="st2" width="14.3" height="0.25"/>
				</g>
				<g>
					<polygon class="st2" points="550.61,398.19 550.52,397.96 563.82,392.73 563.92,392.96 					"/>
				</g>
				<g>
					<polygon class="st2" points="557.23,412.46 557.14,412.23 570.61,407 570.7,407.24 					"/>
				</g>
				<g>
					<polygon class="st2" points="561.63,421.96 561.54,421.73 575.11,416.47 575.2,416.7 					"/>
				</g>
				<g>
					<polygon class="st2" points="558.94,420.2 558.93,420.2 558.96,419.95 					"/>
				</g>
				<g>
					<polygon class="st2" points="560.53,419.59 560.44,419.36 573.98,414.09 574.07,414.33 					"/>
				</g>
				<g>
					<polygon class="st2" points="559.41,421.31 559.4,421.3 559.58,421.13 					"/>
				</g>
				<g>
					<polygon class="st2" points="547.65,430.77 547.56,430.53 562.23,424.95 562.32,425.19 					"/>
				</g>
				<g>
					
						<rect x="542.32" y="417.69" transform="matrix(0.935 -0.3545 0.3545 0.935 -112.3977 222.1758)" class="st2" width="15.59" height="0.25"/>
				</g>
				<g>
					
						<rect x="543.51" y="420.2" transform="matrix(0.935 -0.3545 0.3545 0.935 -113.2077 222.7655)" class="st2" width="15.61" height="0.25"/>
				</g>
				<g>
					
						<rect x="538.75" y="410.15" transform="matrix(0.935 -0.3545 0.3545 0.935 -109.9584 220.4036)" class="st2" width="15.5" height="0.25"/>
				</g>
				<g>
					
						<rect x="539.94" y="412.67" transform="matrix(0.935 -0.3545 0.3545 0.935 -110.7721 220.9957)" class="st2" width="15.53" height="0.25"/>
				</g>
				<g>
					
						<rect x="536.44" y="405.32" transform="matrix(0.9447 -0.3279 0.3279 0.9447 -102.8635 200.8627)" class="st2" width="15.49" height="0.25"/>
				</g>
				<g>
					
						<rect x="537.55" y="407.64" transform="matrix(0.935 -0.3545 0.3545 0.935 -109.1485 219.8139)" class="st2" width="15.47" height="0.25"/>
				</g>
				<g>
					
						<rect x="535.23" y="402.72" transform="matrix(0.9301 -0.3673 0.3673 0.9301 -110.024 227.6049)" class="st2" width="15.4" height="0.25"/>
				</g>
				<g>
					<polygon class="st2" points="534.52,403.06 534.43,402.83 548.79,397.31 548.88,397.54 					"/>
				</g>
				<g>
					
						<rect x="541.13" y="415.18" transform="matrix(0.935 -0.3545 0.3545 0.935 -111.5859 221.5859)" class="st2" width="15.56" height="0.25"/>
				</g>
				<g>
					
						<rect x="545.9" y="425.22" transform="matrix(0.935 -0.3545 0.3545 0.935 -114.833 223.9475)" class="st2" width="15.67" height="0.25"/>
				</g>
				<g>
					<polygon class="st2" points="543.51,425.56 543.5,425.56 543.5,425.31 					"/>
				</g>
				<g>
					
						<rect x="544.7" y="422.71" transform="matrix(0.935 -0.3545 0.3545 0.935 -114.0214 223.3556)" class="st2" width="15.64" height="0.25"/>
				</g>
				<g>
					
						<rect x="562.34" y="460.64" transform="matrix(0.9301 -0.3673 0.3673 0.9301 -129.4203 241.5269)" class="st2" width="14.93" height="0.25"/>
				</g>
				<g>
					
						<rect x="557.83" y="450.83" transform="matrix(0.9301 -0.3673 0.3673 0.9301 -126.1367 239.1698)" class="st2" width="14.83" height="0.25"/>
				</g>
				<g>
					
						<rect x="558.96" y="453.28" transform="matrix(0.9301 -0.3673 0.3673 0.9301 -126.9558 239.7578)" class="st2" width="14.86" height="0.25"/>
				</g>
				<g>
					<polygon class="st2" points="555.02,446.41 554.93,446.18 568.65,440.78 568.75,441.01 					"/>
				</g>
				<g>
					<polygon class="st2" points="556.15,448.87 556.06,448.64 569.81,443.23 569.9,443.46 					"/>
				</g>
				<g>
					<polygon class="st2" points="552.77,441.5 552.69,441.26 566.54,436.26 566.62,436.5 					"/>
				</g>
				<g>
					<polygon class="st2" points="553.9,443.96 553.81,443.73 567.51,438.34 567.6,438.57 					"/>
				</g>
				<g>
					<polygon class="st2" points="551.74,439.23 551.64,439 565.2,433.44 565.3,433.67 					"/>
				</g>
				<g>
					
						<rect x="549.95" y="433.61" transform="matrix(0.9287 -0.3707 0.3707 0.9287 -121.0866 237.4979)" class="st2" width="14.64" height="0.25"/>
				</g>
				<g>
					<polygon class="st2" points="557.27,451.33 557.18,451.1 570.96,445.68 571.05,445.91 					"/>
				</g>
				<g>
					<polygon class="st2" points="561.77,461.15 561.68,460.92 575.55,455.47 575.64,455.7 					"/>
				</g>
				<g>
					<polygon class="st2" points="559.21,459.19 559.2,459.19 559.23,458.95 					"/>
				</g>
				<g>
					
						<rect x="560.08" y="455.73" transform="matrix(0.9301 -0.3673 0.3673 0.9301 -127.7787 240.3464)" class="st2" width="14.88" height="0.25"/>
				</g>
				<g>
					<polygon class="st2" points="577.37,456.89 577.28,456.66 590.97,451.22 591.06,451.46 					"/>
				</g>
				<g>
					<polygon class="st2" points="572.94,447.15 572.84,446.92 586.45,441.53 586.54,441.76 					"/>
				</g>
				<g>
					<polygon class="st2" points="574.04,449.58 573.95,449.35 587.57,443.94 587.67,444.18 					"/>
				</g>
				<g>
					<polygon class="st2" points="569.62,439.83 569.52,439.6 583.05,434.24 583.14,434.48 					"/>
				</g>
				<g>
					
						<rect x="570.17" y="439.35" transform="matrix(0.9301 -0.3673 0.3673 0.9301 -121.0657 242.8509)" class="st2" width="14.58" height="0.25"/>
				</g>
				<g>
					
						<rect x="566.92" y="432.24" transform="matrix(0.9401 -0.3408 0.3408 0.9401 -112.9784 221.564)" class="st2" width="14.52" height="0.25"/>
				</g>
				<g>
					
						<rect x="567.95" y="434.49" transform="matrix(0.9301 -0.3673 0.3673 0.9301 -119.4376 241.6882)" class="st2" width="14.52" height="0.25"/>
				</g>
				<g>
					<polygon class="st2" points="566.38,432.72 566.29,432.49 579.65,426.98 579.75,427.21 					"/>
				</g>
				<g>
					<polygon class="st2" points="565.18,430.08 565.09,429.85 578.5,424.47 578.59,424.7 					"/>
				</g>
				<g>
					
						<rect x="571.27" y="441.78" transform="matrix(0.9301 -0.3673 0.3673 0.9301 -121.8819 243.4317)" class="st2" width="14.6" height="0.25"/>
				</g>
				<g>
					
						<rect x="575.7" y="451.5" transform="matrix(0.9301 -0.3673 0.3673 0.9301 -125.1383 245.7553)" class="st2" width="14.71" height="0.25"/>
				</g>
				<g>
					<polygon class="st2" points="573.47,452.74 573.46,452.74 573.49,452.49 					"/>
				</g>
				<g>
					<polygon class="st2" points="575.15,452.02 575.06,451.79 588.7,446.37 588.79,446.61 					"/>
				</g>
				<g>
					<path class="st1" d="M593.94,452.92l-1.01-0.08l-0.27,0.68l0,0.01l-14.65-31.57l-0.58-1.23l-13.66-29.46l0,0l0.91-0.79
						l-1.95-1.98l-13.67,5.56l-1.56,0.63l0,0l-14.66,5.96l-0.11,2.85l1.01,0.07l0.22-0.55l28.86,62.21l-0.83,0.71l1.94,1.98
						l14.39-5.85l1.27-0.52l14.23-5.78L593.94,452.92z M562.82,391.1l13.87,29.95l-12.81,5.72l-14.44-31.97l11.2-4.51L562.82,391.1z
						 M534.88,400.67l12.97-5.23l0,0l14.62,31.96l-13.5,6.04l-14.59-31.52L534.88,400.67z M566.01,466.12l-2.32-0.86l0,0l-14-30.23
						l13.43-6.19l14.85,32.46L566.01,466.12z M591.77,455.73l-12.53,5.05l-14.73-32.59l12.76-5.88l14.95,32.3L591.77,455.73z"/>
				</g>
			</g>
			<g>
				<polygon class="st1" points="616.1,412.82 612.1,414.82 610.1,412.82 617.1,409.82 				"/>
			</g>
			<g>
				<polygon class="st1" points="608.1,397.82 604.1,399.82 605.1,402.82 611.1,399.82 				"/>
			</g>
			<g>
				<path class="st0" d="M599.1,383.82l-28,1l-5,3l30,66l6-3l19-22L599.1,383.82z M601.1,442.82l-4-1l-23-48l4-3l12,1l7,3l14,31v5
					L601.1,442.82z"/>
			</g>
			<g>
				<polygon class="st0" points="608.1,397.82 616.1,412.82 633.1,399.82 630.1,392.82 				"/>
			</g>
		</g>
		<g>
			<g>
				<polyline class="st1" points="706.1,357.82 701.1,360.82 702.1,361.82 707.1,359.82 706.1,357.82 				"/>
			</g>
			<g>
				<polygon class="st1" points="709.1,363.82 704.1,365.82 704.1,364.82 709.1,361.82 				"/>
			</g>
			<g>
				<polygon class="st1" points="743.1,315.82 746.26,313.46 746.96,314.76 744.1,316.82 				"/>
			</g>
			<g>
				<polygon class="st1" points="741.57,303.58 738.1,306.82 739.1,307.82 741.86,305.21 				"/>
			</g>
			<g>
				<polygon class="st1" points="772.78,362.59 768.1,363.82 768.1,362.82 772.1,361.82 				"/>
			</g>
			<g>
				<polygon class="st1" points="768.1,353.82 763.1,354.82 764.1,355.82 768.57,355.02 				"/>
			</g>
			<g>
				<g>
					<polygon class="st0" points="872.38,253.79 864.98,239.71 842.06,250.99 842.02,251.01 837.93,253.02 836.82,253.57 
						871.47,318.09 884.78,311.78 886.02,311.19 899.27,304.92 881.11,270.39 879.92,268.13 878.73,265.86 877.54,263.6 
						876.35,261.34 875.17,259.08 873.98,256.82 872.79,254.56 872.4,253.82 					"/>
				</g>
				<g>
					
						<rect x="866.41" y="271.72" transform="matrix(0.9102 -0.4141 0.4141 0.9102 -34.1419 386.196)" class="st2" width="14.57" height="0.25"/>
				</g>
				<g>
					
						<rect x="861.47" y="262.51" transform="matrix(0.9102 -0.4141 0.4141 0.9102 -30.7734 383.3062)" class="st2" width="14.48" height="0.25"/>
				</g>
				<g>
					
						<rect x="862.7" y="264.81" transform="matrix(0.9102 -0.4141 0.4141 0.9102 -31.6137 384.0271)" class="st2" width="14.5" height="0.25"/>
				</g>
				<g>
					
						<rect x="857.78" y="255.59" transform="matrix(0.9102 -0.4141 0.4141 0.9102 -28.2428 381.1387)" class="st2" width="14.39" height="0.25"/>
				</g>
				<g>
					
						<rect x="859.01" y="257.9" transform="matrix(0.9102 -0.4141 0.4141 0.9102 -29.0867 381.8628)" class="st2" width="14.43" height="0.25"/>
				</g>
				<g>
					<polygon class="st2" points="856.01,254.19 855.91,253.95 869.16,248.38 869.26,248.61 					"/>
				</g>
				<g>
					
						<rect x="856.55" y="253.29" transform="matrix(0.9102 -0.4141 0.4141 0.9102 -27.4025 380.4179)" class="st2" width="14.37" height="0.25"/>
				</g>
				<g>
					<polygon class="st2" points="854.87,252.05 854.77,251.83 867.71,245.73 867.81,245.96 					"/>
				</g>
				<g>
					
						<rect x="852.83" y="246.33" transform="matrix(0.9088 -0.4173 0.4173 0.9088 -24.3833 381.3788)" class="st2" width="14.29" height="0.25"/>
				</g>
				<g>
					
						<rect x="860.24" y="260.2" transform="matrix(0.9102 -0.4141 0.4141 0.9102 -29.9312 382.5847)" class="st2" width="14.45" height="0.25"/>
				</g>
				<g>
					
						<rect x="865.17" y="269.42" transform="matrix(0.9102 -0.4141 0.4141 0.9102 -33.3 385.4725)" class="st2" width="14.55" height="0.25"/>
				</g>
				<g>
					<polygon class="st2" points="863.09,271.05 863.08,271.05 863.08,270.8 					"/>
				</g>
				<g>
					
						<rect x="863.93" y="267.11" transform="matrix(0.9102 -0.4141 0.4141 0.9102 -32.4583 384.749)" class="st2" width="14.53" height="0.25"/>
				</g>
				<g>
					<polygon class="st2" points="863.61,272.14 863.6,272.13 863.77,271.95 					"/>
				</g>
				<g>
					<polygon class="st2" points="852.41,282.24 852.3,282.01 866.63,275.62 866.73,275.85 					"/>
				</g>
				<g>
					<polygon class="st2" points="847.07,272.46 846.97,272.23 861.21,265.89 861.31,266.11 					"/>
				</g>
				<g>
					<polygon class="st2" points="848.4,274.9 848.3,274.67 862.56,268.31 862.66,268.54 					"/>
				</g>
				<g>
					
						<rect x="842.35" y="261.72" transform="matrix(0.9138 -0.4061 0.4061 0.9138 -33.0761 367.8278)" class="st2" width="15.5" height="0.25"/>
				</g>
				<g>
					
						<rect x="843.68" y="264.16" transform="matrix(0.9138 -0.4061 0.4061 0.9138 -33.9527 368.5861)" class="st2" width="15.53" height="0.25"/>
				</g>
				<g>
					
						<rect x="839.78" y="257.03" transform="matrix(0.9241 -0.3821 0.3821 0.9241 -33.948 343.3712)" class="st2" width="15.49" height="0.25"/>
				</g>
				<g>
					
						<rect x="841.02" y="259.29" transform="matrix(0.9138 -0.4061 0.4061 0.9138 -32.2033 367.0728)" class="st2" width="15.47" height="0.25"/>
				</g>
				<g>
					
						<rect x="838.42" y="254.5" transform="matrix(0.9081 -0.4188 0.4188 0.9081 -28.8586 377.7705)" class="st2" width="15.4" height="0.25"/>
				</g>
				<g>
					
						<rect x="837.01" y="251.91" transform="matrix(0.9117 -0.4109 0.4109 0.9117 -28.9651 369.304)" class="st2" width="15.39" height="0.25"/>
				</g>
				<g>
					
						<rect x="845.01" y="266.61" transform="matrix(0.9138 -0.4061 0.4061 0.9138 -34.8299 369.342)" class="st2" width="15.56" height="0.25"/>
				</g>
				<g>
					
						<rect x="850.34" y="276.37" transform="matrix(0.9138 -0.4061 0.4061 0.9138 -38.3289 372.3663)" class="st2" width="15.67" height="0.25"/>
				</g>
				<g>
					<polygon class="st2" points="847.97,277.28 847.96,277.28 847.96,277.03 					"/>
				</g>
				<g>
					<polygon class="st2" points="849.73,277.35 849.63,277.12 863.91,270.75 864.01,270.98 					"/>
				</g>
				<g>
					
						<rect x="868.73" y="310.82" transform="matrix(0.9081 -0.4188 0.4188 0.9081 -49.6814 395.5445)" class="st2" width="14.93" height="0.25"/>
				</g>
				<g>
					
						<rect x="863.69" y="301.29" transform="matrix(0.9081 -0.4188 0.4188 0.9081 -46.1565 392.5352)" class="st2" width="14.83" height="0.25"/>
				</g>
				<g>
					
						<rect x="864.95" y="303.66" transform="matrix(0.9081 -0.4188 0.4188 0.9081 -47.0359 393.286)" class="st2" width="14.86" height="0.25"/>
				</g>
				<g>
					<polygon class="st2" points="860.64,297.44 860.54,297.22 873.94,291.06 874.04,291.28 					"/>
				</g>
				<g>
					<polygon class="st2" points="861.9,299.84 861.8,299.61 875.23,293.44 875.33,293.67 					"/>
				</g>
				<g>
					<polygon class="st2" points="858.12,292.67 858.02,292.44 871.57,286.67 871.67,286.9 					"/>
				</g>
				<g>
					<polygon class="st2" points="859.38,295.06 859.28,294.83 872.65,288.68 872.76,288.91 					"/>
				</g>
				<g>
					<polygon class="st2" points="856.96,290.46 856.85,290.23 870.08,283.93 870.19,284.15 					"/>
				</g>
				<g>
					
						<rect x="854.86" y="284.54" transform="matrix(0.9066 -0.422 0.422 0.9066 -39.5951 390.4587)" class="st2" width="14.64" height="0.25"/>
				</g>
				<g>
					<polygon class="st2" points="863.16,302.23 863.06,302 876.51,295.82 876.61,296.05 					"/>
				</g>
				<g>
					<polygon class="st2" points="868.2,311.79 868.1,311.56 881.64,305.34 881.75,305.56 					"/>
				</g>
				<g>
					<polygon class="st2" points="865.55,309.97 865.54,309.97 865.54,309.72 					"/>
				</g>
				<g>
					
						<rect x="866.21" y="306.05" transform="matrix(0.9081 -0.4188 0.4188 0.9081 -47.9197 394.0376)" class="st2" width="14.88" height="0.25"/>
				</g>
				<g>
					<polygon class="st2" points="883.54,306.65 883.44,306.43 896.8,300.24 896.91,300.46 					"/>
				</g>
				<g>
					<polygon class="st2" points="878.57,297.18 878.46,296.95 891.74,290.81 891.85,291.03 					"/>
				</g>
				<g>
					<polygon class="st2" points="879.81,299.54 879.7,299.32 893,293.16 893.11,293.39 					"/>
				</g>
				<g>
					
						<rect x="874.12" y="286.77" transform="matrix(0.9081 -0.4188 0.4188 0.9081 -39.132 395.5092)" class="st2" width="14.55" height="0.25"/>
				</g>
				<g>
					
						<rect x="875.36" y="289.14" transform="matrix(0.9081 -0.4188 0.4188 0.9081 -40.0081 396.2534)" class="st2" width="14.58" height="0.25"/>
				</g>
				<g>
					
						<rect x="871.72" y="282.23" transform="matrix(0.9193 -0.3934 0.3934 0.9193 -40.1985 368.6079)" class="st2" width="14.52" height="0.25"/>
				</g>
				<g>
					
						<rect x="872.88" y="284.41" transform="matrix(0.9081 -0.4188 0.4188 0.9081 -38.2596 394.7681)" class="st2" width="14.52" height="0.25"/>
				</g>
				<g>
					
						<rect x="870.45" y="279.78" transform="matrix(0.9006 -0.4346 0.4346 0.9006 -34.4192 409.2949)" class="st2" width="14.46" height="0.25"/>
				</g>
				<g>
					<polygon class="st2" points="869.87,280.57 869.76,280.34 882.85,274.23 882.96,274.45 					"/>
				</g>
				<g>
					
						<rect x="876.6" y="291.51" transform="matrix(0.9081 -0.4188 0.4188 0.9081 -40.8848 396.9954)" class="st2" width="14.6" height="0.25"/>
				</g>
				<g>
					
						<rect x="881.56" y="300.96" transform="matrix(0.9081 -0.4188 0.4188 0.9081 -44.382 399.9638)" class="st2" width="14.71" height="0.25"/>
				</g>
				<g>
					<polygon class="st2" points="879.42,302.73 879.41,302.73 879.41,302.48 					"/>
				</g>
				<g>
					<polygon class="st2" points="881.05,301.92 880.95,301.69 894.26,295.52 894.37,295.75 					"/>
				</g>
				<g>
					<path class="st1" d="M899.86,301.77l-1.01-0.02l-0.23,0.69v0.01l-16.39-30.7l-0.65-1.2l-15.29-28.65l0,0l0.86-0.84l-2.06-1.87
						l-13.34,6.32l-1.52,0.72l0,0l-14.3,6.77l0.05,2.86l1.01,0.01l0.19-0.56l32.3,60.5l-0.79,0.76l2.05,1.87l14.04-6.65l1.24-0.59
						l13.88-6.57L899.86,301.77z M865.33,241.79l15.53,29.13l-12.47,6.43l-16.21-31.11l10.93-5.13L865.33,241.79z M837.97,252.91
						l12.66-5.94l0,0l16.39,31.09l-13.14,6.79l-16.33-30.65L837.97,252.91z M872.72,316.51l-2.36-0.73l0,0l-15.67-29.4l13.06-6.93
						l16.64,31.58L872.72,316.51z M897.86,304.7l-12.23,5.74l-16.53-31.71l12.41-6.59l16.74,31.41L897.86,304.7z"/>
				</g>
			</g>
			<g>
				<g>
					<polygon class="st0" points="840.12,269.52 832.72,255.44 809.8,266.72 809.76,266.74 805.67,268.75 804.56,269.3 
						839.21,333.82 852.52,327.51 853.76,326.92 867.01,320.65 848.85,286.12 847.66,283.86 846.47,281.59 845.28,279.33 
						844.09,277.07 842.91,274.81 841.72,272.55 840.53,270.29 840.14,269.55 					"/>
				</g>
				<g>
					<polygon class="st2" points="834.86,290.71 834.75,290.48 848.02,284.45 848.12,284.67 					"/>
				</g>
				<g>
					
						<rect x="829.22" y="278.24" transform="matrix(0.9109 -0.4126 0.4126 0.9109 -40.3318 369.949)" class="st2" width="14.48" height="0.25"/>
				</g>
				<g>
					
						<rect x="830.45" y="280.54" transform="matrix(0.9109 -0.4126 0.4126 0.9109 -41.1695 370.6667)" class="st2" width="14.5" height="0.25"/>
				</g>
				<g>
					
						<rect x="825.53" y="271.32" transform="matrix(0.9102 -0.4141 0.4141 0.9102 -37.6522 369.195)" class="st2" width="14.39" height="0.25"/>
				</g>
				<g>
					
						<rect x="826.76" y="273.63" transform="matrix(0.9102 -0.4141 0.4141 0.9102 -38.4962 369.919)" class="st2" width="14.43" height="0.25"/>
				</g>
				<g>
					<polygon class="st2" points="823.75,269.92 823.66,269.69 836.91,264.11 837.01,264.34 					"/>
				</g>
				<g>
					
						<rect x="824.29" y="269.02" transform="matrix(0.9102 -0.4141 0.4141 0.9102 -36.8119 368.474)" class="st2" width="14.37" height="0.25"/>
				</g>
				<g>
					<polygon class="st2" points="822.62,267.78 822.51,267.56 835.45,261.46 835.56,261.69 					"/>
				</g>
				<g>
					
						<rect x="820.58" y="262.06" transform="matrix(0.9088 -0.4173 0.4173 0.9088 -33.8911 369.3539)" class="st2" width="14.29" height="0.25"/>
				</g>
				<g>
					
						<rect x="827.99" y="275.93" transform="matrix(0.9102 -0.4141 0.4141 0.9102 -39.3406 370.6408)" class="st2" width="14.45" height="0.25"/>
				</g>
				<g>
					
						<rect x="832.91" y="285.15" transform="matrix(0.9109 -0.4126 0.4126 0.9109 -42.8507 372.1053)" class="st2" width="14.55" height="0.25"/>
				</g>
				<g>
					<polygon class="st2" points="830.84,286.78 830.83,286.78 830.83,286.53 					"/>
				</g>
				<g>
					
						<rect x="831.68" y="282.85" transform="matrix(0.9109 -0.4126 0.4126 0.9109 -42.0113 371.3852)" class="st2" width="14.52" height="0.25"/>
				</g>
				<g>
					<polygon class="st2" points="831.36,287.87 831.35,287.86 831.52,287.68 					"/>
				</g>
				<g>
					<polygon class="st2" points="820.15,297.97 820.05,297.74 834.38,291.35 834.48,291.58 					"/>
				</g>
				<g>
					<polygon class="st2" points="814.82,288.19 814.71,287.96 828.95,281.62 829.05,281.85 					"/>
				</g>
				<g>
					<polygon class="st2" points="816.15,290.63 816.05,290.4 830.31,284.04 830.41,284.27 					"/>
				</g>
				<g>
					
						<rect x="810.1" y="277.45" transform="matrix(0.9138 -0.4061 0.4061 0.9138 -42.2449 356.0844)" class="st2" width="15.5" height="0.25"/>
				</g>
				<g>
					
						<rect x="811.43" y="279.9" transform="matrix(0.9138 -0.4061 0.4061 0.9138 -43.1216 356.8427)" class="st2" width="15.53" height="0.25"/>
				</g>
				<g>
					
						<rect x="807.52" y="272.76" transform="matrix(0.9241 -0.3821 0.3821 0.9241 -42.4068 332.2404)" class="st2" width="15.49" height="0.25"/>
				</g>
				<g>
					
						<rect x="808.77" y="275.02" transform="matrix(0.9138 -0.4061 0.4061 0.9138 -41.3722 355.3293)" class="st2" width="15.47" height="0.25"/>
				</g>
				<g>
					
						<rect x="806.17" y="270.23" transform="matrix(0.9081 -0.4188 0.4188 0.9081 -38.4118 365.7087)" class="st2" width="15.4" height="0.25"/>
				</g>
				<g>
					
						<rect x="804.76" y="267.65" transform="matrix(0.9117 -0.4109 0.4109 0.9117 -38.2762 357.4416)" class="st2" width="15.39" height="0.25"/>
				</g>
				<g>
					
						<rect x="812.76" y="282.34" transform="matrix(0.9138 -0.4061 0.4061 0.9138 -43.9986 357.5985)" class="st2" width="15.56" height="0.25"/>
				</g>
				<g>
					
						<rect x="818.08" y="292.1" transform="matrix(0.9138 -0.4061 0.4061 0.9138 -47.4978 360.623)" class="st2" width="15.67" height="0.25"/>
				</g>
				<g>
					<polygon class="st2" points="815.72,293.01 815.71,293.01 815.71,292.76 					"/>
				</g>
				<g>
					<polygon class="st2" points="817.48,293.08 817.38,292.85 831.66,286.48 831.76,286.71 					"/>
				</g>
				<g>
					
						<rect x="836.48" y="326.55" transform="matrix(0.9081 -0.4188 0.4188 0.9081 -59.2346 383.4825)" class="st2" width="14.93" height="0.25"/>
				</g>
				<g>
					
						<rect x="831.44" y="317.02" transform="matrix(0.9081 -0.4188 0.4188 0.9081 -55.7098 380.4733)" class="st2" width="14.83" height="0.25"/>
				</g>
				<g>
					
						<rect x="832.69" y="319.4" transform="matrix(0.9081 -0.4188 0.4188 0.9081 -56.5891 381.224)" class="st2" width="14.86" height="0.25"/>
				</g>
				<g>
					<polygon class="st2" points="828.39,313.17 828.28,312.95 841.68,306.79 841.79,307.01 					"/>
				</g>
				<g>
					<polygon class="st2" points="829.65,315.57 829.54,315.34 842.97,309.17 843.08,309.4 					"/>
				</g>
				<g>
					<polygon class="st2" points="825.87,308.4 825.77,308.17 839.32,302.4 839.41,302.63 					"/>
				</g>
				<g>
					<polygon class="st2" points="827.13,310.79 827.02,310.56 840.4,304.41 840.51,304.64 					"/>
				</g>
				<g>
					<polygon class="st2" points="824.71,306.19 824.6,305.97 837.83,299.66 837.93,299.88 					"/>
				</g>
				<g>
					
						<rect x="822.6" y="300.27" transform="matrix(0.9066 -0.422 0.422 0.9066 -49.2473 378.3165)" class="st2" width="14.64" height="0.25"/>
				</g>
				<g>
					<polygon class="st2" points="830.91,317.96 830.8,317.74 844.26,311.56 844.36,311.78 					"/>
				</g>
				<g>
					<polygon class="st2" points="835.95,327.52 835.84,327.29 849.39,321.07 849.5,321.29 					"/>
				</g>
				<g>
					<polygon class="st2" points="833.29,325.7 833.28,325.7 833.28,325.45 					"/>
				</g>
				<g>
					
						<rect x="833.95" y="321.78" transform="matrix(0.9081 -0.4188 0.4188 0.9081 -57.4727 381.9757)" class="st2" width="14.88" height="0.25"/>
				</g>
				<g>
					<polygon class="st2" points="851.29,322.38 851.19,322.16 864.55,315.97 864.65,316.2 					"/>
				</g>
				<g>
					<polygon class="st2" points="846.31,312.91 846.21,312.69 859.49,306.54 859.59,306.77 					"/>
				</g>
				<g>
					<polygon class="st2" points="847.56,315.28 847.45,315.05 860.75,308.89 860.85,309.12 					"/>
				</g>
				<g>
					
						<rect x="841.87" y="302.5" transform="matrix(0.9081 -0.4188 0.4188 0.9081 -48.685 383.4473)" class="st2" width="14.55" height="0.25"/>
				</g>
				<g>
					
						<rect x="843.11" y="304.87" transform="matrix(0.9081 -0.4188 0.4188 0.9081 -49.5615 384.1915)" class="st2" width="14.58" height="0.25"/>
				</g>
				<g>
					
						<rect x="839.47" y="297.96" transform="matrix(0.9193 -0.3934 0.3934 0.9193 -48.9893 357.1868)" class="st2" width="14.52" height="0.25"/>
				</g>
				<g>
					
						<rect x="840.63" y="300.15" transform="matrix(0.9081 -0.4188 0.4188 0.9081 -47.813 382.7062)" class="st2" width="14.52" height="0.25"/>
				</g>
				<g>
					<polygon class="st2" points="838.96,298.87 838.85,298.65 851.89,292.39 852,292.62 					"/>
				</g>
				<g>
					<polygon class="st2" points="837.61,296.3 837.51,296.07 850.6,289.96 850.7,290.18 					"/>
				</g>
				<g>
					
						<rect x="844.35" y="307.24" transform="matrix(0.9081 -0.4188 0.4188 0.9081 -50.438 384.9336)" class="st2" width="14.6" height="0.25"/>
				</g>
				<g>
					
						<rect x="849.31" y="316.69" transform="matrix(0.9081 -0.4188 0.4188 0.9081 -53.9354 387.902)" class="st2" width="14.71" height="0.25"/>
				</g>
				<g>
					<polygon class="st2" points="847.17,318.46 847.16,318.46 847.16,318.21 					"/>
				</g>
				<g>
					<polygon class="st2" points="848.8,317.65 848.69,317.42 862.01,311.25 862.12,311.48 					"/>
				</g>
				<g>
					<path class="st1" d="M867.6,317.5l-1.01-0.02l-0.23,0.69v0.01l-16.39-30.7l-0.65-1.2l-15.29-28.65l0,0l0.86-0.84l-2.06-1.87
						l-13.34,6.32l-1.52,0.72l0,0l-14.3,6.77l0.05,2.86l1.01,0.01l0.19-0.56l32.3,60.5l-0.79,0.76l2.05,1.87l14.04-6.65l1.24-0.59
						l13.88-6.57L867.6,317.5z M833.08,257.52l15.53,29.13l-12.47,6.43l-16.21-31.11l10.93-5.13L833.08,257.52z M805.72,268.64
						l12.66-5.94l0,0l16.39,31.09l-13.14,6.79l-16.33-30.65L805.72,268.64z M840.46,332.24l-2.36-0.73l0,0l-15.67-29.4l13.06-6.93
						l16.64,31.58L840.46,332.24z M865.6,320.43l-12.23,5.74l-16.53-31.71l12.41-6.59l16.74,31.41L865.6,320.43z"/>
				</g>
			</g>
			<g>
				<g>
					<polygon class="st0" points="807.87,285.25 800.47,271.17 777.55,282.45 777.51,282.47 773.42,284.48 772.31,285.03 
						806.96,349.55 820.27,343.24 821.51,342.65 834.76,336.38 816.6,301.85 815.41,299.59 814.22,297.32 813.03,295.06 
						811.84,292.8 810.66,290.54 809.47,288.28 808.28,286.02 807.89,285.28 					"/>
				</g>
				<g>
					<polygon class="st2" points="802.6,306.44 802.5,306.21 815.76,300.18 815.87,300.41 					"/>
				</g>
				<g>
					<polygon class="st2" points="797.66,297.2 797.56,296.98 810.74,290.98 810.84,291.21 					"/>
				</g>
				<g>
					<polygon class="st2" points="798.9,299.51 798.79,299.28 811.99,293.28 812.1,293.5 					"/>
				</g>
				<g>
					
						<rect x="793.27" y="287.05" transform="matrix(0.9109 -0.4126 0.4126 0.9109 -47.1734 355.8848)" class="st2" width="14.39" height="0.25"/>
				</g>
				<g>
					
						<rect x="794.5" y="289.36" transform="matrix(0.9109 -0.4126 0.4126 0.9109 -48.015 356.6055)" class="st2" width="14.43" height="0.25"/>
				</g>
				<g>
					<polygon class="st2" points="791.5,285.65 791.4,285.42 804.66,279.84 804.75,280.07 					"/>
				</g>
				<g>
					
						<rect x="792.04" y="284.75" transform="matrix(0.9109 -0.4126 0.4126 0.9109 -46.336 355.1673)" class="st2" width="14.37" height="0.25"/>
				</g>
				<g>
					<polygon class="st2" points="790.37,283.52 790.26,283.29 803.2,277.19 803.31,277.42 					"/>
				</g>
				<g>
					
						<rect x="788.33" y="277.79" transform="matrix(0.9084 -0.4181 0.4181 0.9084 -43.3339 358.0129)" class="st2" width="14.29" height="0.25"/>
				</g>
				<g>
					
						<rect x="795.74" y="291.67" transform="matrix(0.9109 -0.4126 0.4126 0.9109 -48.8569 357.3241)" class="st2" width="14.45" height="0.25"/>
				</g>
				<g>
					
						<rect x="800.66" y="300.88" transform="matrix(0.9109 -0.4126 0.4126 0.9109 -52.2154 360.1983)" class="st2" width="14.55" height="0.25"/>
				</g>
				<g>
					<polygon class="st2" points="798.58,302.52 798.57,302.52 798.57,302.27 					"/>
				</g>
				<g>
					<polygon class="st2" points="800.13,301.82 800.03,301.59 813.25,295.58 813.35,295.81 					"/>
				</g>
				<g>
					<polygon class="st2" points="799.1,303.6 799.09,303.59 799.27,303.42 					"/>
				</g>
				<g>
					<polygon class="st2" points="787.9,313.7 787.8,313.47 802.13,307.08 802.23,307.31 					"/>
				</g>
				<g>
					<polygon class="st2" points="782.56,303.92 782.46,303.69 796.7,297.35 796.8,297.58 					"/>
				</g>
				<g>
					<polygon class="st2" points="783.89,306.36 783.79,306.13 798.05,299.78 798.15,300 					"/>
				</g>
				<g>
					
						<rect x="777.85" y="293.18" transform="matrix(0.9138 -0.4061 0.4061 0.9138 -51.4136 344.3409)" class="st2" width="15.5" height="0.25"/>
				</g>
				<g>
					
						<rect x="779.18" y="295.63" transform="matrix(0.9138 -0.4061 0.4061 0.9138 -52.2904 345.0991)" class="st2" width="15.53" height="0.25"/>
				</g>
				<g>
					<polygon class="st2" points="775.9,291.68 775.81,291.45 790.12,285.55 790.22,285.78 					"/>
				</g>
				<g>
					
						<rect x="776.52" y="290.75" transform="matrix(0.9138 -0.4061 0.4061 0.9138 -50.5412 343.5858)" class="st2" width="15.47" height="0.25"/>
				</g>
				<g>
					
						<rect x="773.92" y="285.96" transform="matrix(0.9081 -0.4188 0.4188 0.9081 -47.965 353.6467)" class="st2" width="15.4" height="0.25"/>
				</g>
				<g>
					
						<rect x="772.5" y="283.38" transform="matrix(0.9124 -0.4094 0.4094 0.9124 -47.6854 344.2533)" class="st2" width="15.39" height="0.25"/>
				</g>
				<g>
					
						<rect x="780.51" y="298.07" transform="matrix(0.9138 -0.4061 0.4061 0.9138 -53.1676 345.8552)" class="st2" width="15.56" height="0.25"/>
				</g>
				<g>
					
						<rect x="785.83" y="307.83" transform="matrix(0.9138 -0.4061 0.4061 0.9138 -56.6666 348.8794)" class="st2" width="15.67" height="0.25"/>
				</g>
				<g>
					<polygon class="st2" points="783.47,308.74 783.46,308.74 783.46,308.49 					"/>
				</g>
				<g>
					<polygon class="st2" points="785.23,308.81 785.12,308.58 799.41,302.22 799.51,302.44 					"/>
				</g>
				<g>
					
						<rect x="804.23" y="342.28" transform="matrix(0.9081 -0.4188 0.4188 0.9081 -68.7878 371.4207)" class="st2" width="14.93" height="0.25"/>
				</g>
				<g>
					
						<rect x="799.18" y="332.75" transform="matrix(0.9081 -0.4188 0.4188 0.9081 -65.2629 368.4115)" class="st2" width="14.83" height="0.25"/>
				</g>
				<g>
					
						<rect x="800.44" y="335.13" transform="matrix(0.9081 -0.4188 0.4188 0.9081 -66.1423 369.1622)" class="st2" width="14.86" height="0.25"/>
				</g>
				<g>
					<polygon class="st2" points="796.14,328.91 796.03,328.68 809.43,322.52 809.53,322.75 					"/>
				</g>
				<g>
					<polygon class="st2" points="797.4,331.3 797.29,331.07 810.72,324.9 810.83,325.13 					"/>
				</g>
				<g>
					<polygon class="st2" points="793.61,324.13 793.52,323.9 807.06,318.13 807.16,318.36 					"/>
				</g>
				<g>
					<polygon class="st2" points="794.88,326.52 794.77,326.29 808.15,320.15 808.25,320.37 					"/>
				</g>
				<g>
					<polygon class="st2" points="792.45,321.92 792.35,321.7 805.57,315.39 805.68,315.62 					"/>
				</g>
				<g>
					
						<rect x="790.35" y="316" transform="matrix(0.9066 -0.422 0.422 0.9066 -58.899 366.1742)" class="st2" width="14.64" height="0.25"/>
				</g>
				<g>
					<polygon class="st2" points="798.66,333.69 798.55,333.47 812,327.29 812.11,327.51 					"/>
				</g>
				<g>
					<polygon class="st2" points="803.69,343.25 803.59,343.02 817.14,336.8 817.24,337.03 					"/>
				</g>
				<g>
					<polygon class="st2" points="801.04,341.44 801.03,341.44 801.03,341.19 					"/>
				</g>
				<g>
					
						<rect x="801.7" y="337.52" transform="matrix(0.9081 -0.4188 0.4188 0.9081 -67.0261 369.9139)" class="st2" width="14.88" height="0.25"/>
				</g>
				<g>
					<polygon class="st2" points="819.04,338.12 818.93,337.89 832.29,331.7 832.4,331.93 					"/>
				</g>
				<g>
					<polygon class="st2" points="814.06,328.64 813.96,328.42 827.23,322.27 827.34,322.5 					"/>
				</g>
				<g>
					<polygon class="st2" points="815.3,331.01 815.2,330.78 828.5,324.62 828.6,324.85 					"/>
				</g>
				<g>
					
						<rect x="809.61" y="318.23" transform="matrix(0.9081 -0.4188 0.4188 0.9081 -58.2384 371.3854)" class="st2" width="14.55" height="0.25"/>
				</g>
				<g>
					
						<rect x="810.85" y="320.6" transform="matrix(0.9081 -0.4188 0.4188 0.9081 -59.1145 372.1296)" class="st2" width="14.58" height="0.25"/>
				</g>
				<g>
					
						<rect x="807.21" y="313.69" transform="matrix(0.9193 -0.3934 0.3934 0.9193 -57.7798 345.7655)" class="st2" width="14.52" height="0.25"/>
				</g>
				<g>
					
						<rect x="808.37" y="315.88" transform="matrix(0.9081 -0.4188 0.4188 0.9081 -57.366 370.6443)" class="st2" width="14.52" height="0.25"/>
				</g>
				<g>
					<polygon class="st2" points="806.71,314.6 806.6,314.38 819.64,308.13 819.74,308.35 					"/>
				</g>
				<g>
					<polygon class="st2" points="805.36,312.03 805.25,311.8 818.34,305.69 818.45,305.91 					"/>
				</g>
				<g>
					
						<rect x="812.09" y="322.97" transform="matrix(0.9081 -0.4188 0.4188 0.9081 -59.9912 372.8716)" class="st2" width="14.6" height="0.25"/>
				</g>
				<g>
					
						<rect x="817.05" y="332.42" transform="matrix(0.9081 -0.4188 0.4188 0.9081 -63.4886 375.84)" class="st2" width="14.71" height="0.25"/>
				</g>
				<g>
					<polygon class="st2" points="814.92,334.19 814.91,334.19 814.91,333.94 					"/>
				</g>
				<g>
					<polygon class="st2" points="816.54,333.38 816.44,333.15 829.76,326.99 829.86,327.21 					"/>
				</g>
				<g>
					<path class="st1" d="M835.35,333.23l-1.01-0.02l-0.23,0.69v0.01l-16.39-30.7l-0.65-1.2l-15.29-28.65l0,0l0.86-0.84l-2.06-1.87
						l-13.34,6.32l-1.52,0.72l0,0l-14.3,6.77l0.05,2.86l1.01,0.01l0.19-0.56l32.3,60.5l-0.79,0.76l2.05,1.87l14.04-6.65l1.24-0.59
						l13.88-6.57L835.35,333.23z M800.82,273.25l15.53,29.13l-12.47,6.43l-16.21-31.11l10.93-5.13L800.82,273.25z M773.46,284.37
						l12.66-5.94l0,0l16.39,31.09l-13.14,6.79l-16.33-30.65L773.46,284.37z M808.21,347.97l-2.36-0.73l0,0l-15.67-29.4l13.06-6.93
						l16.64,31.58L808.21,347.97z M833.35,336.16l-12.23,5.74l-16.53-31.71L817,303.6l16.74,31.41L833.35,336.16z"/>
				</g>
			</g>
			<g>
				<g>
					<polygon class="st0" points="775.62,300.98 768.22,286.9 745.3,298.18 745.26,298.2 741.17,300.21 740.06,300.76 
						774.71,365.28 788.02,358.97 789.26,358.38 802.51,352.11 784.35,317.58 783.16,315.32 781.97,313.05 780.78,310.79 
						779.59,308.53 778.41,306.27 777.22,304.01 776.03,301.75 775.64,301.01 					"/>
				</g>
				<g>
					<polygon class="st2" points="770.35,322.17 770.25,321.94 783.51,315.91 783.61,316.14 					"/>
				</g>
				<g>
					<polygon class="st2" points="765.41,312.94 765.31,312.71 778.49,306.71 778.59,306.94 					"/>
				</g>
				<g>
					<polygon class="st2" points="766.64,315.24 766.54,315.01 779.74,309.01 779.84,309.24 					"/>
				</g>
				<g>
					<polygon class="st2" points="761.71,305.99 761.61,305.77 774.72,299.81 774.82,300.04 					"/>
				</g>
				<g>
					
						<rect x="762.25" y="305.09" transform="matrix(0.9109 -0.4126 0.4126 0.9109 -57.3797 344.6984)" class="st2" width="14.43" height="0.25"/>
				</g>
				<g>
					<polygon class="st2" points="759.25,301.38 759.15,301.15 772.4,295.57 772.5,295.8 					"/>
				</g>
				<g>
					
						<rect x="759.79" y="300.48" transform="matrix(0.9109 -0.4126 0.4126 0.9109 -55.7006 343.2602)" class="st2" width="14.37" height="0.25"/>
				</g>
				<g>
					
						<rect x="757.38" y="295.96" transform="matrix(0.9051 -0.4252 0.4252 0.9051 -53.339 353.2068)" class="st2" width="14.3" height="0.25"/>
				</g>
				<g>
					<polygon class="st2" points="756.78,296.74 756.67,296.51 769.66,290.55 769.77,290.78 					"/>
				</g>
				<g>
					
						<rect x="763.48" y="307.4" transform="matrix(0.9109 -0.4126 0.4126 0.9109 -58.2215 345.417)" class="st2" width="14.45" height="0.25"/>
				</g>
				<g>
					
						<rect x="768.41" y="316.61" transform="matrix(0.9109 -0.4126 0.4126 0.9109 -61.5804 348.2914)" class="st2" width="14.55" height="0.25"/>
				</g>
				<g>
					<polygon class="st2" points="766.33,318.25 766.32,318.25 766.32,318 					"/>
				</g>
				<g>
					<polygon class="st2" points="767.88,317.55 767.77,317.32 780.99,311.31 781.1,311.54 					"/>
				</g>
				<g>
					<polygon class="st2" points="766.85,319.33 766.84,319.32 767.01,319.14 					"/>
				</g>
				<g>
					<polygon class="st2" points="755.65,329.43 755.54,329.2 769.87,322.81 769.97,323.04 					"/>
				</g>
				<g>
					<polygon class="st2" points="750.31,319.65 750.21,319.42 764.45,313.08 764.55,313.31 					"/>
				</g>
				<g>
					<polygon class="st2" points="751.64,322.09 751.54,321.86 765.8,315.51 765.9,315.74 					"/>
				</g>
				<g>
					
						<rect x="745.59" y="308.91" transform="matrix(0.9138 -0.4061 0.4061 0.9138 -60.5826 332.5974)" class="st2" width="15.5" height="0.25"/>
				</g>
				<g>
					
						<rect x="746.93" y="311.36" transform="matrix(0.9138 -0.4061 0.4061 0.9138 -61.4592 333.3557)" class="st2" width="15.53" height="0.25"/>
				</g>
				<g>
					<polygon class="st2" points="743.65,307.42 743.55,307.19 757.87,301.28 757.97,301.51 					"/>
				</g>
				<g>
					
						<rect x="744.26" y="306.48" transform="matrix(0.9138 -0.4061 0.4061 0.9138 -59.7097 331.8424)" class="st2" width="15.47" height="0.25"/>
				</g>
				<g>
					
						<rect x="741.66" y="301.69" transform="matrix(0.9081 -0.4188 0.4188 0.9081 -57.5184 341.5849)" class="st2" width="15.4" height="0.25"/>
				</g>
				<g>
					
						<rect x="740.25" y="299.11" transform="matrix(0.9124 -0.4094 0.4094 0.9124 -56.9525 332.4278)" class="st2" width="15.39" height="0.25"/>
				</g>
				<g>
					
						<rect x="748.26" y="313.8" transform="matrix(0.9138 -0.4061 0.4061 0.9138 -62.3362 334.1116)" class="st2" width="15.56" height="0.25"/>
				</g>
				<g>
					
						<rect x="753.58" y="323.56" transform="matrix(0.9138 -0.4061 0.4061 0.9138 -65.8355 337.1359)" class="st2" width="15.67" height="0.25"/>
				</g>
				<g>
					<polygon class="st2" points="751.21,324.47 751.2,324.47 751.2,324.22 					"/>
				</g>
				<g>
					<polygon class="st2" points="752.97,324.54 752.87,324.31 767.15,317.95 767.25,318.17 					"/>
				</g>
				<g>
					
						<rect x="771.97" y="358.01" transform="matrix(0.9081 -0.4188 0.4188 0.9081 -78.341 359.3588)" class="st2" width="14.93" height="0.25"/>
				</g>
				<g>
					
						<rect x="766.93" y="348.48" transform="matrix(0.9081 -0.4188 0.4188 0.9081 -74.8161 356.3495)" class="st2" width="14.83" height="0.25"/>
				</g>
				<g>
					
						<rect x="768.19" y="350.86" transform="matrix(0.9081 -0.4188 0.4188 0.9081 -75.6954 357.1003)" class="st2" width="14.86" height="0.25"/>
				</g>
				<g>
					<polygon class="st2" points="763.88,344.64 763.78,344.41 777.18,338.25 777.28,338.48 					"/>
				</g>
				<g>
					<polygon class="st2" points="765.14,347.03 765.04,346.8 778.47,340.63 778.57,340.86 					"/>
				</g>
				<g>
					<polygon class="st2" points="761.36,339.86 761.26,339.63 774.81,333.86 774.91,334.09 					"/>
				</g>
				<g>
					<polygon class="st2" points="762.62,342.25 762.52,342.03 775.89,335.88 776,336.1 					"/>
				</g>
				<g>
					<polygon class="st2" points="760.2,337.65 760.09,337.43 773.32,331.12 773.43,331.35 					"/>
				</g>
				<g>
					
						<rect x="758.1" y="331.74" transform="matrix(0.9066 -0.422 0.422 0.9066 -68.5512 354.0319)" class="st2" width="14.64" height="0.25"/>
				</g>
				<g>
					<polygon class="st2" points="766.4,349.42 766.3,349.2 779.75,343.02 779.85,343.24 					"/>
				</g>
				<g>
					<polygon class="st2" points="771.44,358.98 771.34,358.75 784.88,352.53 784.99,352.76 					"/>
				</g>
				<g>
					<polygon class="st2" points="768.79,357.17 768.78,357.17 768.78,356.92 					"/>
				</g>
				<g>
					
						<rect x="769.45" y="353.25" transform="matrix(0.9081 -0.4188 0.4188 0.9081 -76.5791 357.8519)" class="st2" width="14.88" height="0.25"/>
				</g>
				<g>
					<polygon class="st2" points="786.78,353.85 786.68,353.62 800.04,347.43 800.15,347.66 					"/>
				</g>
				<g>
					<polygon class="st2" points="781.81,344.37 781.7,344.15 794.98,338 795.09,338.23 					"/>
				</g>
				<g>
					<polygon class="st2" points="783.05,346.74 782.94,346.51 796.24,340.35 796.35,340.58 					"/>
				</g>
				<g>
					
						<rect x="777.36" y="333.96" transform="matrix(0.9081 -0.4188 0.4188 0.9081 -67.7914 359.3235)" class="st2" width="14.55" height="0.25"/>
				</g>
				<g>
					
						<rect x="778.6" y="336.33" transform="matrix(0.9081 -0.4188 0.4188 0.9081 -68.6679 360.0678)" class="st2" width="14.58" height="0.25"/>
				</g>
				<g>
					
						<rect x="774.96" y="329.42" transform="matrix(0.9193 -0.3934 0.3934 0.9193 -66.5707 334.3442)" class="st2" width="14.52" height="0.25"/>
				</g>
				<g>
					
						<rect x="776.12" y="331.61" transform="matrix(0.9081 -0.4188 0.4188 0.9081 -66.9194 358.5825)" class="st2" width="14.52" height="0.25"/>
				</g>
				<g>
					<polygon class="st2" points="774.46,330.33 774.35,330.11 787.38,323.86 787.49,324.08 					"/>
				</g>
				<g>
					<polygon class="st2" points="773.11,327.76 773,327.54 786.09,321.42 786.2,321.65 					"/>
				</g>
				<g>
					
						<rect x="779.84" y="338.7" transform="matrix(0.9081 -0.4188 0.4188 0.9081 -69.5444 360.8097)" class="st2" width="14.6" height="0.25"/>
				</g>
				<g>
					
						<rect x="784.8" y="348.15" transform="matrix(0.9081 -0.4188 0.4188 0.9081 -73.0418 363.7782)" class="st2" width="14.71" height="0.25"/>
				</g>
				<g>
					<polygon class="st2" points="782.66,349.92 782.65,349.92 782.65,349.67 					"/>
				</g>
				<g>
					<polygon class="st2" points="784.29,349.11 784.19,348.88 797.5,342.72 797.61,342.94 					"/>
				</g>
				<g>
					<path class="st1" d="M803.1,348.96l-1.01-0.02l-0.23,0.69v0.01l-16.39-30.7l-0.65-1.2l-15.29-28.65l0,0l0.86-0.84l-2.06-1.87
						l-13.34,6.32l-1.52,0.72l0,0l-14.3,6.77l0.05,2.86l1.01,0.01l0.19-0.56l32.3,60.5l-0.79,0.76l2.05,1.87l14.04-6.65l1.24-0.59
						l13.88-6.57L803.1,348.96z M768.57,288.98l15.53,29.13l-12.47,6.43l-16.21-31.11l10.93-5.13L768.57,288.98z M741.21,300.1
						l12.66-5.94l0,0l16.39,31.09l-13.14,6.79l-16.33-30.65L741.21,300.1z M775.96,363.7l-2.36-0.73l0,0l-15.67-29.4l13.06-6.93
						l16.64,31.58L775.96,363.7z M801.1,351.89l-12.23,5.74l-16.53-31.71l12.41-6.59l16.74,31.41L801.1,351.89z"/>
				</g>
			</g>
			<g>
				<polygon class="st1" points="778.79,297.09 774.35,299.57 774.95,300.94 779.38,298.2 				"/>
			</g>
			<g>
				<polygon class="st1" points="799.86,337.54 796.45,339.51 796.96,340.47 800.47,338.82 				"/>
			</g>
			<g>
				<polygon class="st1" points="789.31,316.67 784.63,318.43 785.6,319.54 790.1,317.82 				"/>
			</g>
			<g>
				<polygon class="st1" points="810.09,279.28 805.64,281.76 806.24,283.13 810.68,280.38 				"/>
			</g>
			<g>
				<polygon class="st1" points="821.3,300.63 816.63,302.38 817.59,303.49 822.1,301.77 				"/>
			</g>
			<g>
				<polygon class="st1" points="799.86,337.54 796.45,339.51 796.96,340.47 800.47,338.82 				"/>
			</g>
			<g>
				<polygon class="st1" points="832.39,321.6 828.36,323.57 828.96,324.52 833.1,322.88 				"/>
			</g>
			<g>
				<polygon class="st1" points="864.02,305.6 859.99,307.57 860.59,308.52 864.74,306.88 				"/>
			</g>
			<g>
				<polygon class="st1" points="853.23,284.46 848.56,286.21 849.52,287.32 854.03,285.6 				"/>
			</g>
			<g>
				<polygon class="st1" points="841.63,262.85 837.77,265.35 838.26,266.78 842.12,264 				"/>
			</g>
			<g>
				<polygon class="st1" points="720.86,343.65 724.51,341.46 726.53,343.27 720.11,346.63 				"/>
			</g>
			<g>
				<polygon class="st1" points="729.39,357.7 733.04,355.5 731.9,352.66 726.43,355.95 				"/>
			</g>
			<g>
				<path class="st0" d="M738.79,370.71l26.37-2.74l4.52-3.23l-32.6-62.12l-5.47,3.29l-16.51,22.54L738.79,370.71z M733.07,313.6
					l3.84,0.72l24.83,45.11l-3.58,3.16l-11.39-0.21l-6.8-2.47l-15.23-29.18l-0.32-4.85L733.07,313.6z"/>
			</g>
			<g>
				<polygon class="st0" points="729.39,357.7 720.86,343.65 705.66,357.34 708.95,363.94 				"/>
			</g>
		</g>
		<g>
			<polygon class="st3" points="623.1,335.82 624.1,334.82 622.1,332.82 621.1,332.82 620.1,333.82 621.1,336.82 622.1,336.82 
				639.1,371.82 640.1,370.82 			"/>
		</g>
		<g>
			<polygon class="st3" points="637.1,377.82 632.1,367.82 630.1,367.82 627.1,361.82 626.1,362.82 629.1,368.82 628.1,370.82 
				632.1,378.82 631.1,379.82 630.1,377.82 629.1,378.82 635.1,390.82 			"/>
		</g>
		<g>
			<path class="st3" d="M649.1,359.82c-0.53-0.31-1.46-1.05-2-3c-0.16-0.53-0.45-1.71,0-3c0.59-1.69,2.04-2.48,3-3
				c1.55-0.84,3.05-1,4-1c2.33,1.33,4.67,2.67,7,4C656.82,359.22,651.76,361.36,649.1,359.82z"/>
		</g>
		<g>
			<path class="st3" d="M725.1,411.82v-2l3-1l-3-5l-2,1l-8-14l5-4l-5-10l-5.31,3.03l-1.69,0.97v11l-3,9l-9,12l-13,5c0,0-14,3-15,3
				s-23-9-23-9v5l4,5l-3,2l3,4l-5,3l3,4l-2,1v1l2,2l-0.67,1.33l-0.33,0.67h4v1l5-2c0,0,0-2,0-3s1-1,1-1l3.08,4.31l6.92,9.69l6-4
				l-1.34-2.23l-1.66-2.77l7-3l-1,1l2,1l5-1l7-2l4-2l-1,2v1h3l5-3l2-2l-2-1l3-2l7-4l3-4l-1-3l5-1l4,4l6-4l-0.53-1.6L725.1,411.82z
				 M663.1,433.82l-4,2l-2-2l5-3L663.1,433.82z M663.27,444.68l4.83-3.86l1,3l-3.94,2.96L663.27,444.68z M688.1,432.82v1l-2-3l2-2
				l2,2L688.1,432.82z M699.1,426.82l-6,3l-1-2v-1l5-2l4,2H699.1z M715.1,404.82l4-2l2,3l-4,2L715.1,404.82z M721.1,419.82l-2-3l4-3
				l2.86,2.86l-1.53,1.14L721.1,419.82z"/>
		</g>
		<g>
			<path class="st2" d="M661.1,427.82l-6,4l5,7l6-4L661.1,427.82z M659.1,435.82l-2-2l5-3l1,3L659.1,435.82z"/>
		</g>
		<g>
			<polygon class="st0" points="665.16,446.78 665.1,446.82 663.1,444.82 663.27,444.68 			"/>
		</g>
		<g>
			<polygon class="st0" points="726.1,416.82 724.43,417.82 725.96,416.68 			"/>
		</g>
		<g>
			<polygon class="st2" points="651.1,428.82 650.1,429.82 653.1,435.82 652.1,436.82 649.1,431.82 648.1,431.82 651.1,436.82 
				646.43,440.15 647.1,438.82 645.1,436.82 645.1,435.82 647.1,434.82 644.1,430.82 649.1,427.82 646.1,423.82 649.1,421.82 
				645.1,416.82 645.1,413.82 656.1,430.82 653.1,431.82 			"/>
		</g>
		<g>
			<polygon class="st2" points="711.1,390.82 719.1,399.82 710.1,406.82 708.1,400.82 			"/>
		</g>
		<g>
			<polygon class="st2" points="719.52,385.66 715.1,388.82 714.1,386.82 717.1,384.82 716.1,381.82 714.1,382.82 713.1,381.82 
				715.1,379.82 714.1,378.82 711.1,381.82 709.79,379.85 715.1,376.82 			"/>
		</g>
		<g>
			<polygon class="st2" points="687.1,426.82 688.1,427.82 689.1,426.82 690.1,426.82 689.1,427.82 692.1,433.82 694.1,433.82 
				691.1,427.82 691.1,426.82 696.1,423.82 694.1,422.82 691.1,425.82 690.1,425.82 693.1,422.82 692.1,422.82 			"/>
		</g>
		<g>
			<polygon class="st2" points="683.1,430.82 678.1,435.82 675.1,430.82 678.1,427.82 680.1,428.82 678.1,430.82 678.1,431.82 
				681.1,429.82 			"/>
		</g>
		<g>
			<path class="st2" d="M672.1,445.82l-6,4l-6.92-9.69l4.09,4.55l1.89,2.1l0.94,1.04c0,0,2.83-2.83,4.66-4.23L672.1,445.82z"/>
		</g>
		<g>
			<polygon class="st2" points="727.1,417.82 721.1,421.82 720.24,420.96 724.43,417.82 725.96,416.68 726.57,416.22 			"/>
		</g>
		<g>
			<g>
				<polyline class="st4" points="548.05,453.82 547.1,453.82 548.1,455.82 545.1,455.82 545.1,456.82 546.1,458.82 545.1,458.82 
					544.1,459.82 544.1,460.82 548.1,457.82 549.1,455.82 549.1,453.82 548.1,453.82 				"/>
			</g>
			<g>
				<path class="st4" d="M537.52,470.82h-1.42v4l1,1l2,1l-3,3v1l1,1l1,1c0,0,2,1,2,0s1-5,1-5v-4L537.52,470.82z"/>
			</g>
			<g>
				<polygon class="st4" points="537.92,465.18 537.1,466.82 538.1,467.82 539.1,468.82 538.1,470.82 539.1,471.82 541.1,469.82 
					540.95,467.44 				"/>
			</g>
			<g>
				<polygon class="st4" points="521.1,427.82 521.1,427.82 521.1,428.82 519.1,428.82 519.1,428.37 				"/>
			</g>
			<g>
				<polyline class="st4" points="522.29,436.02 521.1,436.82 518.1,432.82 519.1,431.82 520.1,431.82 522.1,431.82 521.1,429.82 
					521.1,428.82 522.1,428.82 523.1,430.82 522.1,435.82 				"/>
			</g>
			<g>
				<polygon class="st4" points="537.31,429.61 536.1,430.82 539.1,431.82 542.1,430.82 541.1,428.82 				"/>
			</g>
			<g>
				<polygon class="st4" points="543.51,430.41 542.1,431.82 541.1,429.82 542.1,429.82 				"/>
			</g>
			<g>
				<path class="st4" d="M531.1,425.82c0-1,5,2,5,2h1l1.24,1.02l1.76-1.02l-1-3l-4-1h-4V425.82z"/>
			</g>
			<g>
				<polygon class="st4" points="520.1,426.82 523.1,425.82 523.1,428.37 526.1,427.82 525.72,424.22 522.1,423.82 520.1,425.82 
									"/>
			</g>
			<g>
				<polygon class="st4" points="517.33,410.28 522.1,408.82 525.1,412.82 525.1,415.31 527.1,413.82 527.1,409.82 525.1,407.82 
					523.1,406.82 516.1,409.82 				"/>
			</g>
			<g>
				<polygon class="st1" points="549.1,434.82 547.1,436.82 546.1,435.82 546.1,434.82 545.1,434.82 545.1,436.82 546.1,437.82 
					546.1,438.82 544.1,439.82 545.1,440.82 547.1,439.82 547.1,438.82 550.1,436.82 				"/>
			</g>
			<g>
				<polygon class="st1" points="543.51,428.68 544.1,429.82 543.1,430.82 542.1,429.82 540.1,430.82 537.1,429.82 539.1,427.82 
					537.1,426.82 536.1,426.82 532.1,424.82 531.1,426.82 533.1,428.82 534.43,428.15 535.1,427.82 536.1,428.82 534.1,429.82 
					534.1,431.82 528.1,434.82 528.1,436.82 527.1,438.82 525.1,438.82 524.1,435.82 522.1,436.82 521.81,436.34 519.1,431.82 
					522.1,430.82 521.1,428.82 522.44,428.37 523.28,428.09 524.1,427.82 524.1,424.82 521.1,425.82 521.1,427.82 519.1,428.49 
					518.1,428.82 519.1,424.82 520.1,423.82 520.1,420.82 521.1,420.82 521.1,423.82 527.1,421.82 526.1,417.82 524.1,417.82 
					523.1,416.82 525.1,414.82 526.1,412.82 522.1,407.82 521.81,407.94 517.1,409.82 518.1,411.82 516.1,411.82 515.1,409.82 
					517.1,408.82 521.43,406.82 529.29,403.2 530.1,402.82 530.36,403.33 533.1,401.82 534.1,402.82 531.13,404.8 536.65,415.45 
					539.1,413.82 540.1,414.82 537.29,416.69 542.92,427.55 545.1,426.82 546.1,427.82 				"/>
			</g>
			<g>
				<polygon class="st1" points="564.1,467.82 561.49,469.32 540.1,486.82 538.1,487.82 534.1,487.82 534.1,486.82 537.1,486.82 
					539.1,485.82 536.1,482.82 536.53,482.61 538.1,481.82 539.1,480.82 536.1,479.82 537.1,477.82 539.1,475.82 537.1,474.82 
					537.1,470.82 539.1,470.82 540.1,468.82 538.1,465.82 537.1,464.82 537.1,462.82 538.1,460.82 540.1,461.82 540.1,459.82 
					543.1,459.82 544.1,460.82 545.1,459.82 545.1,458.82 546.1,457.82 545.1,455.82 549.1,454.82 547.77,453.82 545.1,451.82 
					542.1,451.82 542.1,449.82 546.1,450.82 550.1,452.82 561.67,468.25 563.1,466.82 				"/>
			</g>
			<g>
				<polygon class="st0" points="560.1,468.82 549.1,477.82 538.1,463.82 542.1,460.82 542.6,459.82 543.1,459.82 544.1,460.82 
					545.1,459.82 545.1,458.82 546.1,457.82 545.1,455.82 549.1,454.82 547.77,453.82 550.1,453.82 				"/>
			</g>
			<g>
				<polygon class="st0" points="548.1,478.82 539.1,485.82 536.53,482.61 538.1,481.82 539.1,480.82 536.1,479.82 537.1,477.82 
					539.1,475.82 537.1,474.82 537.1,470.82 539.1,470.82 540.1,468.82 538.1,465.82 537.77,465.49 538.1,464.82 				"/>
			</g>
			<g>
				<polygon class="st0" points="527.1,435.82 527.1,436.82 526.1,437.82 524.1,434.82 521.81,436.34 519.1,431.82 522.1,430.82 
					521.1,428.82 522.44,428.37 				"/>
			</g>
			<g>
				<polygon class="st0" points="543.74,430.18 543.1,430.82 542.1,429.82 540.1,430.82 537.1,429.82 539.1,427.82 537.1,426.82 
					536.1,426.82 532.1,424.82 531.1,426.82 533.1,428.82 534.43,428.15 535.1,428.82 533.1,429.82 533.1,430.82 527.1,433.82 
					523.28,428.09 524.1,427.82 524.1,424.82 521.1,425.82 521.1,427.82 519.1,428.49 519.1,426.82 520.1,424.82 521.1,423.82 
					528.1,423.82 530.1,422.82 530.1,421.82 528.1,421.82 527.1,417.82 525.1,416.82 524.1,416.82 526.1,412.82 522.1,407.82 
					521.81,407.94 521.43,406.82 529.29,403.2 536.1,416.82 				"/>
			</g>
			<g>
				
					<rect x="521.94" y="406.13" transform="matrix(0.8848 -0.4659 0.4659 0.8848 -128.6863 291.9177)" class="st2" width="8.39" height="0.25"/>
			</g>
			<g>
				<polygon class="st2" points="524.33,410.62 524.2,410.41 530.87,406.37 531,406.59 				"/>
			</g>
			<g>
				
					<rect x="525.69" y="411.02" transform="matrix(0.8848 -0.4659 0.4659 0.8848 -130.6034 293.9415)" class="st2" width="7.16" height="0.25"/>
			</g>
			<g>
				<polygon class="st2" points="524.16,416.93 524.05,416.71 533.56,411.73 533.67,411.95 				"/>
			</g>
			<g>
				
					<rect x="526.62" y="415.72" transform="matrix(0.8848 -0.4659 0.4659 0.8848 -132.6054 295.2252)" class="st2" width="8.5" height="0.25"/>
			</g>
			<g>
				
					<rect x="527.33" y="418.77" transform="matrix(0.8663 -0.4995 0.4995 0.8663 -138.1227 321.7175)" class="st2" width="9.27" height="0.25"/>
			</g>
			<g>
				<polygon class="st2" points="530.16,422.68 530.05,422.46 537.24,418.79 537.35,419.01 				"/>
			</g>
			<g>
				<polygon class="st2" points="524.19,425.91 524.02,425.73 526.05,423.73 526.22,423.91 				"/>
			</g>
			<g>
				<polygon class="st2" points="522.14,425.51 521,423.89 521.21,423.75 522.34,425.37 				"/>
			</g>
			<g>
				
					<rect x="520.06" y="425.83" transform="matrix(0.3017 -0.9534 0.9534 0.3017 -43.6563 793.9988)" class="st2" width="0.25" height="1.94"/>
			</g>
			<g>
				<polygon class="st2" points="521.02,425.91 520.02,424.91 520.19,424.73 521.19,425.73 				"/>
			</g>
			<g>
				<polygon class="st2" points="535.27,426.46 535.12,426.26 539.62,423 539.77,423.2 				"/>
			</g>
			<g>
				<polygon class="st2" points="525.17,430.76 525.07,430.53 531.92,427.57 532.02,427.8 				"/>
			</g>
			<g>
				<polygon class="st2" points="520.15,433.56 520.02,433.34 524.04,430.91 524.17,431.13 				"/>
			</g>
			<g>
				<polygon class="st2" points="521.76,429.94 521.59,429.76 522.65,428.75 522.82,428.93 				"/>
			</g>
			<g>
				<polygon class="st2" points="538.93,427.76 538.74,427.61 540.72,425 540.92,425.15 				"/>
			</g>
			<g>
				<polygon class="st2" points="526.35,432.72 526.24,432.49 534.6,428.26 534.71,428.48 				"/>
			</g>
			<g>
				<polygon class="st2" points="521.43,435.69 521.29,435.48 525.33,432.99 525.46,433.2 				"/>
			</g>
			<g>
				<rect x="524.99" y="436.02" class="st2" width="2.11" height="0.25"/>
			</g>
			<g>
				<polygon class="st2" points="542.23,429.83 541.98,429.8 542.27,427.8 542.52,427.83 				"/>
			</g>
			<g>
				<polygon class="st2" points="539.35,430.56 539.15,430.42 541.7,426.71 541.9,426.85 				"/>
			</g>
			<g>
				<polygon class="st2" points="547.74,476.08 547.58,475.89 558.56,466.53 558.72,466.72 				"/>
			</g>
			<g>
				<polygon class="st2" points="545.73,473.51 545.56,473.33 556.47,463.41 556.64,463.59 				"/>
			</g>
			<g>
				<polygon class="st2" points="543.46,470.62 543.29,470.44 554.42,460.33 554.59,460.51 				"/>
			</g>
			<g>
				
					<rect x="539.28" y="462.57" transform="matrix(0.7631 -0.6463 0.6463 0.7631 -169.4646 463.0807)" class="st2" width="15.26" height="0.25"/>
			</g>
			<g>
				<polygon class="st2" points="539.25,465.28 539.1,465.08 545.01,460.73 548.03,456.72 550.69,454.72 550.85,454.92 
					548.19,456.91 545.18,460.92 				"/>
			</g>
			<g>
				<polygon class="st2" points="537.81,484.21 537.66,484.01 546.58,476.69 546.73,476.89 				"/>
			</g>
			<g>
				<polygon class="st2" points="537.03,480.21 536.9,480 539.04,478.71 544.26,473.47 544.44,473.65 539.19,478.91 				"/>
			</g>
			<g>
				<polygon class="st2" points="537.22,474.87 536.99,474.76 538.03,472.69 539.07,472.69 542.31,470.69 542.44,470.9 
					539.14,472.94 538.18,472.94 				"/>
			</g>
			<g>
				
					<rect x="539.5" y="467.75" transform="matrix(0.9844 -0.1758 0.1758 0.9844 -73.8412 102.1786)" class="st2" width="0.61" height="0.25"/>
			</g>
			<g>
				<polygon class="st2" points="523.84,428.95 523.73,428.72 530.01,425.72 531.03,423.69 533.07,423.69 538.28,420.63 
					538.41,420.84 533.14,423.94 531.18,423.94 530.2,425.91 530.16,425.93 				"/>
			</g>
		</g>
		<g>
			<g>
				<g>
					<g>
						<defs>
							<circle id="SVGID_1_" cx="673.1" cy="387.82" r="39"/>
						</defs>
						<clipPath id="SVGID_2_">
							<use xlink:href="#SVGID_1_"  style="overflow:visible;"/>
						</clipPath>
						<rect x="634.1" y="348.82" class="st5" width="78" height="78"/>
						<circle class="st5" cx="680.24" cy="392.17" r="24.71"/>
						<circle class="st6" cx="680.43" cy="392.27" r="24.4"/>
						<circle class="st7" cx="680.61" cy="392.37" r="24.09"/>
						<circle class="st8" cx="680.8" cy="392.46" r="23.77"/>
						<circle class="st9" cx="680.98" cy="392.56" r="23.46"/>
						<circle class="st10" cx="681.17" cy="392.66" r="23.15"/>
						<circle class="st11" cx="681.36" cy="392.76" r="22.84"/>
						<circle class="st12" cx="681.54" cy="392.85" r="22.53"/>
						<circle class="st13" cx="681.73" cy="392.95" r="22.22"/>
						<circle class="st14" cx="681.91" cy="393.05" r="21.9"/>
						<circle class="st15" cx="682.1" cy="393.15" r="21.59"/>
						<circle class="st16" cx="682.28" cy="393.25" r="21.28"/>
						<circle class="st17" cx="682.47" cy="393.34" r="20.97"/>
						<circle class="st18" cx="682.65" cy="393.44" r="20.66"/>
						<circle class="st19" cx="682.84" cy="393.54" r="20.35"/>
						<circle class="st20" cx="683.03" cy="393.64" r="20.03"/>
						<circle class="st21" cx="683.21" cy="393.74" r="19.72"/>
						<circle class="st22" cx="683.4" cy="393.83" r="19.41"/>
						<circle class="st23" cx="683.58" cy="393.93" r="19.1"/>
						<circle class="st24" cx="683.77" cy="394.03" r="18.79"/>
						<circle class="st25" cx="683.95" cy="394.13" r="18.48"/>
						<circle class="st26" cx="684.14" cy="394.23" r="18.16"/>
						<circle class="st27" cx="684.32" cy="394.32" r="17.85"/>
						<circle class="st28" cx="684.51" cy="394.42" r="17.54"/>
						<circle class="st29" cx="684.7" cy="394.52" r="17.23"/>
						<circle class="st30" cx="684.88" cy="394.62" r="16.92"/>
						<circle class="st31" cx="685.07" cy="394.71" r="16.61"/>
						<circle class="st32" cx="685.25" cy="394.81" r="16.29"/>
						<circle class="st33" cx="685.44" cy="394.91" r="15.98"/>
						<circle class="st34" cx="685.62" cy="395.01" r="15.67"/>
						<circle class="st35" cx="685.81" cy="395.11" r="15.36"/>
						<circle class="st36" cx="685.99" cy="395.2" r="15.05"/>
						<circle class="st37" cx="686.18" cy="395.3" r="14.74"/>
						<circle class="st38" cx="686.37" cy="395.4" r="14.42"/>
						<circle class="st39" cx="686.55" cy="395.5" r="14.11"/>
						<circle class="st40" cx="686.74" cy="395.6" r="13.8"/>
						<circle class="st41" cx="686.92" cy="395.69" r="13.49"/>
						<circle class="st42" cx="687.11" cy="395.79" r="13.18"/>
						<circle class="st43" cx="687.29" cy="395.89" r="12.87"/>
						<circle class="st44" cx="687.48" cy="395.99" r="12.55"/>
						<circle class="st45" cx="687.66" cy="396.09" r="12.24"/>
						<circle class="st46" cx="687.85" cy="396.18" r="11.93"/>
						<circle class="st47" cx="688.04" cy="396.28" r="11.62"/>
						<circle class="st48" cx="688.22" cy="396.38" r="11.31"/>
						<circle class="st49" cx="688.41" cy="396.48" r="11"/>
						<circle class="st50" cx="688.59" cy="396.58" r="10.68"/>
						<circle class="st51" cx="688.78" cy="396.67" r="10.37"/>
						<circle class="st52" cx="688.96" cy="396.77" r="10.06"/>
						<circle class="st53" cx="689.15" cy="396.87" r="9.75"/>
						<circle class="st54" cx="689.33" cy="396.97" r="9.44"/>
						<circle class="st55" cx="689.52" cy="397.06" r="9.13"/>
						<circle class="st56" cx="689.71" cy="397.16" r="8.81"/>
						<circle class="st57" cx="689.89" cy="397.26" r="8.5"/>
						<circle class="st58" cx="690.08" cy="397.36" r="8.19"/>
						<circle class="st59" cx="690.26" cy="397.46" r="7.88"/>
						<circle class="st60" cx="690.45" cy="397.55" r="7.57"/>
						<circle class="st61" cx="690.63" cy="397.65" r="7.26"/>
						<circle class="st62" cx="690.82" cy="397.75" r="6.94"/>
						<circle class="st63" cx="691.01" cy="397.85" r="6.63"/>
						<circle class="st64" cx="691.19" cy="397.95" r="6.32"/>
						<circle class="st65" cx="691.38" cy="398.04" r="6.01"/>
						<circle class="st66" cx="691.56" cy="398.14" r="5.7"/>
						<circle class="st67" cx="691.75" cy="398.24" r="5.39"/>
						<circle class="st68" cx="691.93" cy="398.34" r="5.07"/>
						<circle class="st69" cx="692.12" cy="398.44" r="4.76"/>
						<circle class="st70" cx="692.3" cy="398.53" r="4.45"/>
						<circle class="st71" cx="692.49" cy="398.63" r="4.14"/>
						<circle class="st72" cx="692.68" cy="398.73" r="3.83"/>
						<circle class="st73" cx="692.86" cy="398.83" r="3.52"/>
						<circle class="st74" cx="693.05" cy="398.92" r="3.2"/>
						<circle class="st75" cx="693.23" cy="399.02" r="2.89"/>
						<circle class="st76" cx="693.42" cy="399.12" r="2.58"/>
						<circle class="st77" cx="693.6" cy="399.22" r="2.27"/>
						<circle class="st78" cx="693.79" cy="399.32" r="1.96"/>
						<circle class="st79" cx="693.97" cy="399.41" r="1.65"/>
					</g>
				</g>
				<g>
					<g>
						<path class="st3" d="M690.16,419.91l-22.83-28.13l-33.48-5.85l34.03-9.57l26.7-20.29l-13.94,26.81L690.16,419.91z
							 M638.36,385.7l29.52,5.15l0.12,0.14l20.06,24.72l-8.48-32.97l0.09-0.17l11.97-23.02l-23.3,17.71l-0.09,0.03L638.36,385.7z"/>
					</g>
					<g>
						<path class="st3" d="M689.8,419.89l1.4-1.87c0.49-0.66,2-3.69,2.94-5.9c2.87-6.76,3.95-14.79,3.96-14.87
							c0.35-2.61,1.04-9.66,0-18.88c-0.8-7.07-2.47-14.1-4.97-20.88l0.91-0.42c2.34,4.21,4.37,8.6,6.03,13.07
							c1.71,4.58,2.88,9.72,5.02,19.06c2.35,10.27,1.64,12.34,1.13,13.85c-0.05,0.14-0.09,0.27-0.13,0.41
							c-1.78,5.87-6.08,9.8-9.17,12.25c-1.76,1.4-2.86,1.94-3.92,2.46c-0.37,0.18-0.75,0.37-1.14,0.59L689.8,419.89z M696.08,363.25
							c1.44,4.93,2.45,9.96,3.02,15.01c1.05,9.33,0.35,16.48,0,19.12c-0.01,0.08-1.12,8.24-4.04,15.13
							c-0.59,1.39-1.47,3.25-2.17,4.59c0.92-0.46,1.91-0.99,3.4-2.18c2.98-2.36,7.13-6.15,8.83-11.75c0.04-0.15,0.09-0.29,0.15-0.44
							c0.48-1.39,1.13-3.3-1.15-13.3c-2.29-10-3.37-14.6-4.98-18.94C698.23,368.05,697.21,365.63,696.08,363.25z"/>
					</g>
					<g>
						<path class="st3" d="M692.85,412.76l-0.34-0.08c-2.35-0.57-4.71-1.25-7.03-2.01c-9.62-3.15-16.4-7.12-21.34-10.02
							c-0.6-0.35-1.17-0.69-1.73-1.01c-1.52-0.88-3.2-1.96-5.14-3.21c-5.24-3.38-11.76-7.59-19.81-10.76l0.24-0.71
							c1.48,0.42,3.95,1.12,7,2c8.35,2.42,12.77,4.32,17.04,6.15c2.13,0.91,4.33,1.86,6.99,2.86c4.88,1.83,7.92,2.26,11.14,2.72
							c0.59,0.08,1.18,0.17,1.78,0.26c4.93,0.76,9.96,1.09,14.94,1l0.53-0.01L692.85,412.76z M642.87,387.21
							c5.81,2.78,10.71,5.94,14.82,8.59c1.93,1.25,3.6,2.32,5.11,3.2c0.56,0.32,1.13,0.66,1.73,1.01c5.19,3.04,11.65,6.83,21.2,9.96
							c2.19,0.72,4.42,1.36,6.64,1.91l3.72-11.17c-4.85,0.06-9.74-0.28-14.53-1.01c-0.6-0.09-1.19-0.18-1.77-0.26
							c-3.26-0.46-6.34-0.9-11.3-2.76c-2.67-1-4.88-1.95-7.02-2.87c-4.25-1.83-8.65-3.72-16.95-6.12
							C643.93,387.51,643.39,387.36,642.87,387.21z"/>
					</g>
				</g>
			</g>
			<g>
				<path class="st3" d="M679.1,388.82c0.44,0.25,1.12,0.62,2,1c2.41,1.05,3.37,0.94,5,2c0.94,0.61,1.67,1.08,2,2
					c0.56,1.55-0.46,3.16-1,4c-0.25,0.39-2.13,3.34-4,3c-0.66-0.12-0.7-0.54-3-3c-0.93-1-1.41-1.5-2-2c-0.93-0.77-1.48-1.04-3-2
					c-0.71-0.45-1.75-1.12-3-2C674.44,390.82,676.77,389.82,679.1,388.82z"/>
			</g>
			<g>
				<ellipse class="st2" cx="671.6" cy="383.82" rx="9.5" ry="9"/>
			</g>
			<g>
				<path class="st1" d="M665.23,392.02l0.83-18.46l15.57,9.95L665.23,392.02z M666.98,375.34l-0.67,15l13.32-6.91L666.98,375.34z"
					/>
			</g>
			<g>
				<circle class="st1" cx="671.1" cy="382.82" r="3"/>
			</g>
			<g>
				
					<rect x="671.49" y="380.06" transform="matrix(0.6209 -0.7839 0.7839 0.6209 -43.1318 671.9277)" class="st1" width="3.22" height="1"/>
			</g>
			<g>
				
					<rect x="666.17" y="381.85" transform="matrix(0.9999 -0.0137 0.0137 0.9999 -5.1645 9.1729)" class="st1" width="4.44" height="1"/>
			</g>
			<g>
				
					<rect x="672.1" y="384.01" transform="matrix(0.8321 -0.5547 0.5547 0.8321 -101.0493 437.8912)" class="st1" width="1" height="3.61"/>
			</g>
			<g>
				
					<ellipse transform="matrix(0.5863 -0.8101 0.8101 0.5863 -40.1702 734.0542)" class="st3" cx="698.64" cy="406.36" rx="9.9" ry="6.31"/>
			</g>
		</g>
	</g>
</g>
</svg>
