<?xml version="1.0" encoding="utf-8"?>
<!-- Generator: Adobe Illustrator 23.1.0, SVG Export Plug-In . SVG Version: 6.00 Build 0)  -->
<svg version="1.1" id="Layer_1" xmlns="http://www.w3.org/2000/svg" xmlns:xlink="http://www.w3.org/1999/xlink" x="0px" y="0px"
	 viewBox="0 0 1920 1080" style="enable-background:new 0 0 1920 1080;" xml:space="preserve">
<style type="text/css">
	.st0{fill:#55575E;}
	.st1{fill:#2B3672;}
	.st2{opacity:0.62;fill:#E5E5E5;}
	.st3{fill:#323233;}
	.st4{fill:#A40009;}
	.st5{fill:#B5C600;}
	.st6{fill:#0235FF;}
	.st7{opacity:0.3;fill:#D1D1D1;}
	.st8{opacity:0.04;fill:#D1D1D1;}
	.st9{opacity:0.65;fill:#1E1E1E;}
</style>
<rect x="1112.31" y="265.08" transform="matrix(0.9471 0.321 -0.321 0.9471 154.9734 -344.9428)" class="st0" width="22.45" height="64.82"/>
<rect x="1037.54" y="483.46" transform="matrix(0.8699 0.4933 -0.4933 0.8699 390.9709 -450.2239)" class="st0" width="22.45" height="64.82"/>
<rect x="936.67" y="662.27" transform="matrix(0.619 0.7854 -0.7854 0.619 906.6778 -479.7895)" class="st0" width="22.45" height="64.82"/>
<g>
	<path class="st1" d="M1164.31,407.13c-0.01-0.01-0.02-0.03-0.04-0.04c-0.27,0.07-0.54,0.13-0.82,0.16
		c-1.2,0.37-2.43,0.43-3.69,0.17c-0.15-0.02-0.29-0.02-0.44-0.04c-0.9,2.28-2.71,4.2-4.91,5.37c-0.6,0.52-1.23,1-1.92,1.39
		c-3.92,3.39-10.25,4.11-14.11-1.34c-1.57-2.22-2.05-4.49-1.75-6.58c-0.23-0.26-0.46-0.51-0.68-0.81
		c-4.72-6.66,0.44-13.71,6.58-14.91c3.13-2.86,7.94-3.95,11.76-1.39c0.76-0.4,1.56-0.67,2.42-0.78c1.2-0.37,2.43-0.43,3.69-0.17
		c0.87,0.14,1.76,0.11,2.63,0.24c1.67,0.29,3.17,0.97,4.49,2.04c0.38,0.41,0.77,0.83,1.15,1.24c0.26-0.06,0.56-0.13,0.96-0.22
		l13.61-40.15l-83.83-28.42c0.93,5.2-3.21,9.89-8.04,10.98c-0.75,2.29-2.42,4.25-4.51,5.53c1.48,2.69,1.43,5.38,0.45,7.69
		c0.87,3.76-0.95,7.28-3.82,9.45c-1.09,7.2-11.35,12.11-17.04,5.07c-3.92,2.54-9.4,2.62-12.87-2.28c-3.71-5.24-1.3-10.73,2.88-13.44
		c0.35-0.92,0.83-1.79,1.44-2.57c-0.95-2.06-1.03-4.11-0.51-5.97c-0.12-0.39-0.22-0.79-0.28-1.2c-0.37-1.2-0.43-2.43-0.17-3.69
		c0.42-2.44,1.92-4.82,3.94-6.25l2.33-1.65c0.71-0.5,1.48-0.85,2.26-1.13c1.7-1.42,3.82-2.36,6-2.52c0.1-0.04,0.2-0.06,0.29-0.1
		c0.01-2.42,1.06-4.65,2.7-6.36l-29.9-10.14l-16.54,48.8c0.19,0.96,0.21,1.91,0.08,2.82c0.05,0.07,0.11,0.13,0.17,0.2
		c2.86,4.04,2.08,8.22-0.34,11.17c-0.07,2.08-0.96,3.98-2.29,5.54c0.02,0.03,0.04,0.05,0.06,0.08c1.23,1.73,1.76,3.49,1.8,5.17
		c0.03,0.14,0.06,0.27,0.08,0.41c0.27,0.88,0.32,1.77,0.25,2.68c0,0,0,0.01,0,0.01c1.15,3.64-0.28,7.14-2.83,9.48
		c-0.17,0.35-0.36,0.7-0.58,1.03c-0.35,1.35-0.99,2.61-1.88,3.69c-0.07,0.21-0.15,0.41-0.23,0.61c-0.22,1.85-1.04,3.56-2.24,4.97
		c-0.31,1.57-0.97,2.99-1.98,4.25c-0.07,0.06-0.14,0.13-0.21,0.19c0.08,2.67-1.13,5.13-3.02,6.94c-0.35,0.59-0.74,1.22-1.1,1.75
		c-0.11,0.16-0.23,0.29-0.36,0.43c-0.68,0.71-1.4,1.42-2.19,2.01c-0.16,0.27-0.33,0.53-0.49,0.76c-0.27,2.18-1.38,4.16-2.96,5.69
		c-0.6,1.13-1.42,2.15-2.4,3c-0.01,0.01-0.01,0.02-0.02,0.03c-0.71,1.79-1.99,3.36-3.58,4.51l-20.74,61.19l138.67,47.01
		L1164.31,407.13z M1035.58,479.54c-1.43,1-3,1.58-4.74,1.74c-0.82-0.03-1.64-0.07-2.47-0.1c-0.04-0.01-0.09-0.02-0.13-0.03
		c-3.91,2.45-9.31,2.48-12.74-2.37c-0.81-1.15-1.32-2.31-1.59-3.45c-1.02-0.58-1.88-1.37-2.54-2.38l-0.66-0.93
		c-1-1.43-1.58-3-1.74-4.74c0.03-0.82,0.07-1.64,0.1-2.47c0.29-1.67,0.97-3.17,2.04-4.49c0.23-0.22,0.46-0.43,0.69-0.65
		c0.59-1.12,1.42-2.03,2.5-2.74c1.06-0.81,2.23-1.3,3.52-1.47c1.2-0.37,2.43-0.43,3.69-0.17c0.14,0.03,0.3,0.08,0.45,0.12
		c0.12,0,0.23,0.01,0.35,0.01c1.35,0.24,2.58,0.74,3.69,1.48c3.82-1.97,8.73-1.69,11.93,2.83c1.06,1.5,1.58,3.02,1.74,4.5
		c0.39,0.67,0.74,1.45,0.94,1.87c0.64,1.32,0.7,3.59,0.46,4.99c-0.23,1.35-0.99,3.33-1.97,4.41c-0.16,0.3-0.29,0.61-0.5,0.88
		c-0.59,1.16-1.44,2.1-2.55,2.83L1035.58,479.54z"/>
	<path class="st2" d="M1164.31,407.13c-0.01-0.01-0.02-0.03-0.04-0.04c-0.27,0.07-0.54,0.13-0.82,0.16
		c-1.18,0.37-2.39,0.42-3.63,0.17l-5.29,15.6l-16.31-5.53l1.18-3.48c-0.35-0.37-0.7-0.77-1.02-1.22c-0.75-1.06-1.24-2.13-1.53-3.19
		l-2.26,6.66l-17.68-5.99l11.48-33.87l17.68,5.99l-2.44,7.2c1.39-0.98,3.01-1.63,4.67-1.85l1.39-4.12l16.31,5.53l-0.09,0.26
		c0.55,0.29,1.08,0.62,1.58,1.03c0.38,0.41,0.77,0.83,1.15,1.24c0.26-0.06,0.56-0.13,0.96-0.22l0.33-0.97l1.23-3.62l12.05-35.55
		l-20.24-6.86l-3.62-1.23l-17.68-5.99l-3.62-1.23l-38.66-13.11c0.36,2.01-0.04,3.93-0.94,5.61l12.91,4.38l-10.25,30.23l-17.74-6.01
		c-0.28,1.27-0.83,2.45-1.6,3.5l18.12,6.14l-11.48,33.87l-20.54-6.96l10.1-29.8c-1.38,0.72-2.9,1.15-4.44,1.18l-9.28,27.39
		l-20.92-7.09l9.34-27.55c-2.3-4.74,0.01-9.44,3.78-11.88c0.22-0.58,0.49-1.15,0.82-1.68l0.44-1.31c-0.78-1.92-0.82-3.82-0.33-5.55
		c-0.12-0.39-0.22-0.79-0.28-1.2c-0.27-0.86-0.31-1.75-0.25-2.64l-4.44,13.09l-15.96-5.41l10.25-30.23l15.96,5.41l-4.2,12.38
		c0.66-0.99,1.47-1.87,2.41-2.54l2.33-1.65c0.28-0.2,0.59-0.34,0.89-0.5l2.19-6.46l5.58,1.89c0.31-1.91,1.26-3.65,2.6-5.05
		l-29.9-10.14l-16.54,48.8c0.19,0.96,0.21,1.91,0.08,2.82c0.05,0.07,0.11,0.13,0.17,0.2c0.97,1.37,1.51,2.76,1.72,4.11l5.23-15.43
		l15.96,5.41l-11.48,33.87l-11.86-4.02c0.02,0.37,0.03,0.74,0,1.11c0,0,0,0.01,0,0.01c0.33,1.04,0.44,2.06,0.39,3.05l10.24,3.47
		l-11.65,34.38l-15.73-5.33c-0.12,0.2-0.24,0.39-0.36,0.55c-0.13,1.07-0.47,2.09-0.97,3.04l15.83,5.37l-10.38,30.63
		c0.82-0.46,1.69-0.76,2.63-0.89c0.6-0.19,1.21-0.29,1.82-0.32l9.56-28.19l20.92,7.09l-10.32,30.44c0.33,0.61,0.63,1.26,0.8,1.62
		c0.64,1.32,0.7,3.59,0.46,4.99c-0.23,1.35-0.99,3.33-1.97,4.41c-0.16,0.3-0.29,0.61-0.5,0.88c-0.59,1.16-1.44,2.1-2.55,2.83
		l-0.47,0.33c-0.36,0.25-0.73,0.48-1.11,0.68l-7.21,21.26l-20.92-7.09l6.66-19.66c-0.63-0.49-1.18-1.08-1.64-1.78l-0.66-0.93
		c-0.2-0.28-0.36-0.57-0.53-0.86l-7.46,22.01l-15.96-5.41l10.82-31.91l13.48,4.57c0.02-0.03,0.04-0.06,0.06-0.08
		c0.24-0.22,0.47-0.44,0.71-0.66c0.49-0.93,1.16-1.72,2-2.36l-15.01-5.09l10.59-31.24c-0.46,0.73-1.01,1.41-1.64,2.02
		c-0.6,1.13-1.42,2.15-2.4,3c-0.01,0.01-0.01,0.02-0.02,0.03c-0.71,1.79-1.99,3.36-3.58,4.51l-20.74,61.19l114.8,38.91l0.56,0.19
		l23.31,7.9L1164.31,407.13z M1129.61,496.54l-16.31-5.53l10.81-31.9l16.31,5.53L1129.61,496.54z M1102.81,451.9l17.68,5.99
		l-10.81,31.9l-17.68-5.99L1102.81,451.9z M1088.37,482.57l-21.26-7.21l10.81-31.9l21.26,7.21L1088.37,482.57z M1153.3,426.65
		l-11.65,34.38l-16.31-5.53l11.65-34.38L1153.3,426.65z M1133.37,419.89l-11.65,34.38l-17.68-5.99l11.65-34.38L1133.37,419.89z
		 M1100.41,447.04l-21.27-7.21l11.65-34.38l21.26,7.21L1100.41,447.04z M1177.49,355.29l-10.25,30.23l-16.31-5.53l10.25-30.23
		L1177.49,355.29z M1157.56,348.54l-10.25,30.23l-17.68-5.99l10.25-30.23L1157.56,348.54z M1114.99,334.11l21.26,7.21L1126,371.55
		l-21.26-7.21L1114.99,334.11z M1103.51,367.96l21.26,7.21l-11.48,33.87l-21.26-7.21L1103.51,367.96z M1030.44,423.32l11.65-34.38
		l20.92,7.09l-11.65,34.38L1030.44,423.32z M1066.63,397.27l20.54,6.96l-11.65,34.38l-20.54-6.96L1066.63,397.27z M1042.94,467.17
		l10.81-31.9l20.54,6.96l-10.81,31.9L1042.94,467.17z M1030.89,502.7l10.82-31.91l20.54,6.96l-10.82,31.91L1030.89,502.7z
		 M1055.06,510.89l10.82-31.91l21.27,7.21l-10.82,31.91L1055.06,510.89z M1079.95,519.33l10.82-31.91l17.68,5.99l-10.82,31.91
		L1079.95,519.33z M1101.25,526.55l10.82-31.91l16.31,5.53l-10.82,31.91L1101.25,526.55z"/>
</g>
<g>
	<path class="st1" d="M879.9,841.49c0.3-2.66,0.7-5.18,1.6-7.71c-1.09-2.69-1.11-5.95,0.39-8.41c-3.45-1.24-6.41-4.41-7.18-8.29
		c-2.22-11.14,7.49-16.54,16.84-15.88c5.64-2.58,13.35-0.41,13.39,7.46c0.01,1.58-0.12,2.98-0.41,4.37
		c1.73,1.93,2.67,4.16,3.14,6.56l27.73-21.85c0.09-4.53,0.59-8.71,1.4-13.35c0.88-5.06,5.12-7.89,9.69-7.86
		c0.18-0.37,0.39-0.79,0.62-1.24c-1.52-1.72-2.57-3.8-3.01-6.1c-0.33-1.71-0.48-2.74-0.4-2.98c-0.17-0.34-0.33-0.68-0.44-1.04
		c-0.92-3.02-0.49-5.81,0.97-8.56c0.72-1.36,1.82-2.58,3.1-3.56c-0.23-1.02-0.48-2.1-0.65-3.11c-0.83-4.86-0.03-9.6,4.06-12.86
		c0.54-0.43,1.09-0.78,1.64-1.09l-67.12-85.15l-115.85,91.31c0.25,2.23-0.43,4.33-1.65,6.09c-0.74,2.06-2.24,3.84-4.09,5.07
		c-0.27,0.52-0.57,1.02-0.93,1.49c1.21-0.22,2.53-0.4,4.06-0.5c1.32-0.08,3.19,0.22,5.05,0.49c1.06-2,2.82-3.64,4.88-4.63
		c1.43-2.13,3.68-3.75,6.16-4.43c3.48-1.84,7.88-1.77,11.08,1.66c0.99,0.64,1.92,1.5,2.74,2.65c1.37,1.93,1.9,3.9,1.82,5.75
		c1.05,2.51,0.85,4.99-0.16,7.1c-0.51,3.81-2.78,7.45-6.03,9.46c-2.91,1.8-6.08,1.74-8.85,1.33c-2.23,0.68-4.45,0.76-6.89,0.6
		c-2.74-0.18-5.37-0.9-8.14-0.75c-4.22,0.22-2.51,0.61-6.76,2.17c-5.02,1.84-9.43-0.38-13.44,2.82c-2.67,2.12-4.97,6.75-5.72,10.96
		l25.89,32.84c0.44,0.37,0.86,0.77,1.32,1.11c1.45,1.08,2.4,2.64,2.97,4.33l6.74,8.55c3.46-1.03,7.38-0.23,10.08,3.59
		c0.31,0.44,0.56,0.88,0.79,1.32c1.25,0.67,2.5,1.39,3.65,2.2c1.18,0.83,2.18,1.95,3.05,3.09c1.52,1.99,1.92,4.55,1.66,6.97
		c2.03,0.62,3.94,1.92,5.15,3.63l2.31,3.27c1.51,2.13,1.96,4.66,1.64,7.2c-0.15,1.15-0.59,2.2-1.17,3.17l13.85,17.58L879.9,841.49z
		 M857.07,777.22c-5.04,1.23-10.48-0.43-12.36-5.79c-0.86-2.46-0.58-5.51,0.67-8c-0.01-0.03-0.02-0.05-0.02-0.08
		c-0.74-2.31-0.77-4.7-0.36-7.07c0.35-2.02,1.1-3.92,1.86-5.81c0.25-0.56,0.48-1.12,0.72-1.69c-0.12-0.14-0.24-0.29-0.35-0.44
		c-3.01,0.67-5.87,0.34-8.8-0.85c-5.07-2.05-6.61-8.07-4.81-12.78c0.25-0.64,0.49-1.28,0.74-1.93c1.93-5.02,7.58-6.31,12.18-4.99
		c1.17-0.44,2.39-0.75,3.64-0.89c1.21-1.86,3.19-3.28,5.1-4.17c0.61-0.36,1.26-0.59,1.96-0.69c4.5-1.11,8.09-0.07,11.16,3.5
		c4.71,5.47,8.53,12.25,5.25,19.49c-1.53,3.37-4.01,5.78-6.98,7.33c-0.06,0.22-0.11,0.43-0.17,0.65c-0.45,1.51-0.86,3.42-1.76,4.73
		c-0.12,0.27-0.23,0.54-0.35,0.81C868.14,765.51,865.05,775.27,857.07,777.22z"/>
	<path class="st2" d="M879.9,841.49c0.26-2.24,0.59-4.38,1.22-6.5l-10.54-13.37l4.42-3.48c-0.11-0.35-0.22-0.69-0.29-1.05
		c-0.24-1.19-0.31-2.3-0.29-3.36l-6.21,4.89l-11.56-14.66l28.51-22.47l11.56,14.66l-6.37,5.02c0.4,0.01,0.81,0.01,1.21,0.04
		c1.93-0.88,4.09-1.19,6.11-0.93l1.43-1.12l1.62,2.06c1.85,0.96,3.31,2.6,3.92,4.97l5.12,6.5l-3.54,2.79
		c0.7,1.3,1.19,2.68,1.47,4.13l27.73-21.85c0.04-1.88,0.14-3.72,0.31-5.54l-22.97,18.1l-10.66-13.53l28.09-22.14l6.9,8.75
		c0.4-1.44,1.06-2.69,1.96-3.69l-5.85-7.42l9.93-7.83c-0.39-1.69-0.37-3.31,0.02-4.89l-12.32,9.71l-11.56-14.66l25.07-19.76
		l3.91,4.96c0.64-0.99,1.46-1.91,2.49-2.73c0.54-0.43,1.09-0.78,1.64-1.09l-3.64-4.61l-2.37-3.01l-61.11-77.53l-115.85,91.31
		c0.25,2.23-0.42,4.34-1.66,6.1c-0.09,0.25-0.2,0.5-0.31,0.74l25.29-19.94l10.43,13.24l-7.83,6.17c0.48,0.46,0.94,0.98,1.37,1.58
		c0.36,0.5,0.64,1.01,0.89,1.51l7.94-6.26l13.68,17.35l-26.45,20.85l-7.58-9.62c-0.57-0.04-1.14-0.1-1.68-0.18
		c-0.96,0.29-1.92,0.46-2.9,0.55l9.16,11.62l-26.46,20.86l-13.68-17.35l20.07-15.82c-0.4-0.01-0.8-0.04-1.21-0.02
		c-4.22,0.22-2.51,0.61-6.76,2.17c-0.5,0.18-0.98,0.3-1.47,0.41l-13,10.25l-2.52-3.2c-1.02,1.96-1.79,4.19-2.17,6.31l25.89,32.84
		c0.44,0.37,0.86,0.77,1.32,1.11c1.45,1.08,2.4,2.64,2.97,4.33l6.74,8.55c2.94-0.88,6.21-0.42,8.79,2.08l-6.8-8.63l26.46-20.86
		l13.9,17.63l-25,19.7c0.07,0.09,0.15,0.18,0.22,0.27c0.75,0.98,1.22,2.1,1.48,3.26l25.67-20.23l11.56,14.66l-26.46,20.86
		l-2.06-2.61c0.61,1.62,0.79,3.37,0.57,5.13c-0.15,1.15-0.59,2.2-1.17,3.17l13.85,17.58L879.9,841.49z M927.82,771.63l-28.09,22.14
		l-11.56-14.66l28.09-22.14L927.82,771.63z M885.8,776.1l-13.9-17.63l28.09-22.14l13.9,17.63L885.8,776.1z M941.97,731.83
		l-25.07,19.76L903,733.96l25.07-19.76L941.97,731.83z M925.7,711.19l-25.07,19.76l-13.43-17.03l25.07-19.76L925.7,711.19z
		 M909.9,691.15l-25.07,19.76l-13.68-17.35l25.07-19.76L909.9,691.15z M883.43,657.56l10.43,13.24l-25.07,19.76l-10.43-13.24
		L883.43,657.56z M855.35,679.69l10.43,13.24l-28.09,22.14l-10.43-13.24L855.35,679.69z M795.75,726.67l28.51-22.47l10.43,13.24
		l-28.51,22.47L795.75,726.67z M824.6,763.27l18.58-14.64c-1.59-0.12-3.16-0.48-4.76-1.12l-16.19,12.76l-13.68-17.35l28.51-22.47
		l5.44,6.9c1.36-0.07,2.73,0.09,4.03,0.46c0.32-0.12,0.65-0.2,0.97-0.3l-7.43-9.43l28.09-22.14l13.68,17.35l-14.36,11.32
		c0.31,0.3,0.62,0.61,0.92,0.96c0.54,0.63,1.07,1.28,1.58,1.94l14.22-11.21l13.43,17.03l-28.09,22.14l-2.57-3.26
		c-0.1,0.06-0.2,0.12-0.3,0.17c-0.06,0.22-0.11,0.43-0.17,0.65c-0.31,1.05-0.62,2.29-1.07,3.4l1.11,1.41l-1.81,1.43
		c0.59,1.27,0.97,2.61,1.14,3.98l3.05-2.4l13.9,17.63l-28.51,22.47l-13.9-17.63l8.66-6.82c-1.15-0.59-2.18-1.42-3-2.51l-8.03,6.33
		L824.6,763.27z M821.59,765.64l13.43,17.03l-26.45,20.85l-13.43-17.03L821.59,765.64z M765.67,809.71l26.46-20.86l13.43,17.03
		l-26.46,20.86L765.67,809.71z M810.94,806.53l26.45-20.85l13.9,17.63l-26.45,20.85L810.94,806.53z M827.2,827.17l26.45-20.85
		l11.56,14.66l-26.45,20.85L827.2,827.17z M867.58,823.98l10.66,13.53l-26.45,20.85l-10.66-13.53L867.58,823.98z M811.66,868.06
		l26.46-20.86l10.66,13.53l-26.46,20.86L811.66,868.06z"/>
</g>
<g>
	<path class="st1" d="M1034.77,688.94c-0.95-0.63-1.85-1.47-2.64-2.59c-0.65-0.92-1.07-1.84-1.37-2.76
		c-0.96-1.62-1.35-3.25-1.32-4.8c-3.54-5.41-0.68-11.03,3.81-13.49c1.37-1.23,3.05-2.11,4.83-2.51c0.22-0.57,0.51-1.11,0.83-1.63
		c0.24-0.79,0.57-1.54,1.06-2.2c0.59-1.16,1.44-2.1,2.55-2.83c1.06-0.81,2.23-1.3,3.52-1.47c0.5-0.15,1-0.22,1.51-0.27
		c1.03-2.53,3.18-4.6,5.72-5.68c0.08-0.12,0.12-0.25,0.21-0.37c0.59-1.16,1.44-2.1,2.55-2.83c0.82-0.63,1.71-1.06,2.67-1.3
		c0.12-0.07,0.24-0.12,0.36-0.19c0.01-0.02,0.02-0.04,0.04-0.05c0.6-0.87,1.43-1.58,2.27-2.22c-0.03-0.63,0.01-1.27,0.15-1.91
		c0.17-1.27,0.63-2.41,1.38-3.42c0.59-1.16,1.44-2.1,2.55-2.83l1.05-0.74c0.04-0.03,0.08-0.04,0.12-0.07l38.39-67.7l-78.45-44.49
		c-0.65,4.92-4.58,9.48-10.9,8.48c-0.06-0.01-0.11-0.01-0.17-0.02c-0.89,2.02-2.31,3.76-4.18,5.2c-0.33,0.25-0.99,0.7-1.8,1.2
		c-0.06,2.55-0.36,4.95-0.83,7.29c0.46,1.59,0.65,3.27,0.49,4.98c-0.31,3.2-1.88,5.69-3.93,7.97c-0.67,2.53-1.25,4.68-1.96,6.58
		c0.35,1.95-0.01,3.83-0.86,5.48c-0.34,5.36-5.84,10.4-11.71,9.36c-3.35,0.84-7.05-0.04-9.65-3.7c-0.51-0.72-0.89-1.45-1.19-2.17
		c-0.83-1.18-1.34-2.37-1.6-3.53c-0.04-0.11-0.09-0.22-0.13-0.33c-2.48-4.72-0.33-9.45,3.34-11.99c0.42-1.05,0.91-2.11,1.47-3.16
		c0.91-1.7,2.14-4,3.67-5.8c-0.09-0.14-0.19-0.28-0.27-0.41c-3.75-6.14-2.03-17.1,2.99-22.14c0.26-0.26,0.58-0.54,0.94-0.84
		c-0.5-1.45-0.64-2.99-0.26-4.45c-0.01,0.05-0.34-0.05-0.87-0.26c-0.7,0.21-1.45,0.35-2.26,0.38c-1.87-0.05-3.72,0.13-5.54,0.56
		c-5.45,2-12.89-1.92-12.9-8.24c0-0.2-0.43-0.19-1.08-0.07l-87.35,154.03l82.71,46.9c3.35-0.32,6.52,0.08,9.82,1.29
		c0.08,0.03,0.19,0.06,0.3,0.1c0.37-0.05,0.74-0.1,1.1-0.13c2.01-0.21,3.94-0.41,5.85-0.4c1.67-0.65,3.43-0.82,5.21-0.43
		c4.33-0.59,9.04,1.69,10.59,6.2c1.01,2.95,0.99,5.42,0.33,7.72c0.6,0.97,1,1.94,1.23,2.9c0.54,0.96,0.88,1.92,1.05,2.87l9.18,5.2
		L1034.77,688.94z"/>
	<path class="st2" d="M1011.33,534.25c-0.33,0.25-0.99,0.7-1.8,1.2c-0.04,1.64-0.17,3.23-0.4,4.77l5-8.81
		C1013.36,532.46,1012.42,533.4,1011.33,534.25z"/>
	<path class="st2" d="M1034.77,688.94c-0.95-0.63-1.85-1.47-2.64-2.59c-0.13-0.18-0.24-0.37-0.35-0.56l-6.71,11.84l-14.98-8.5
		l16.61-29.3l7.85,4.45c1.08-0.72,2.29-1.24,3.54-1.53c0.09-0.24,0.19-0.47,0.3-0.69l-9.8-5.56l17.91-31.57l14.98,8.5l-8.82,15.56
		c0.2-0.1,0.41-0.17,0.61-0.26c0.08-0.13,0.13-0.27,0.22-0.4c0.59-1.16,1.44-2.1,2.55-2.83c0.82-0.63,1.71-1.06,2.67-1.3
		c0.12-0.07,0.24-0.12,0.36-0.19c0.01-0.02,0.02-0.04,0.04-0.05c0.6-0.87,1.43-1.58,2.27-2.22c-0.03-0.63,0.01-1.27,0.15-1.91
		c0.17-1.27,0.63-2.41,1.38-3.42c0.59-1.16,1.44-2.1,2.55-2.83l1.05-0.74c0.04-0.03,0.08-0.04,0.12-0.07l17.99-31.72l1.89-3.33
		l18.52-32.65l-18.59-10.54l-3.33-1.89l-16.24-9.21l-3.33-1.89l-36.96-20.96c-0.25,1.9-0.99,3.74-2.16,5.23l13.49,7.65l-15.75,27.77
		l-14.76-8.37c-0.61,0.99-1.34,1.91-2.14,2.8c-0.03,0.11-0.06,0.22-0.09,0.33l15.1,8.56l-17.64,31.11l-18.87-10.7l4.29-7.57
		c-1.3-0.05-2.59-0.38-3.8-1.06l-3.82,6.74l-19.22-10.9l17.64-31.11l7,3.97c-0.75-1.54-1.2-3.32-1.39-5.19l-3.72-2.11l9.19-16.21
		c-0.16-0.99-0.16-1.99,0.1-2.95c-0.01,0.05-0.34-0.05-0.87-0.26c-0.63,0.19-1.3,0.31-2.01,0.35l-9.74,17.18l-14.66-8.31l6.97-12.29
		c-0.79-1.23-1.25-2.66-1.26-4.24c0-0.2-0.43-0.19-1.08-0.07l-87.35,154.03l82.71,46.9c3.35-0.32,6.52,0.08,9.82,1.29
		c0.08,0.03,0.19,0.06,0.3,0.1c0.37-0.05,0.74-0.1,1.1-0.13c0.69-0.07,1.36-0.13,2.04-0.2l-3.99-2.26l16.62-29.31l16.24,9.21
		l-13.14,23.17c1.12,0.69,2.1,1.61,2.85,2.74l13.62-24.02l14.98,8.5l-16.62,29.31l-10.25-5.81c-0.08,0.59-0.22,1.16-0.39,1.73
		c0.62,0.98,1.03,1.97,1.26,2.94c0.54,0.96,0.88,1.92,1.05,2.87l9.18,5.2L1034.77,688.94z M1025.26,654.63l-16.24-9.21l17.91-31.57
		l16.24,9.21L1025.26,654.63z M962.08,623.2l18.87,10.7l-16.61,29.3l-18.87-10.7L962.08,623.2z M942.13,650.61l-19.22-10.9
		l16.61-29.3l19.22,10.9L942.13,650.61z M1005.69,643.53l-19.53-11.08l17.91-31.57l19.53,11.08L1005.69,643.53z M1046.46,579.41
		l16.24,9.21l-17.64,31.11l-16.24-9.21L1046.46,579.41z M984.27,635.79l19.53,11.08l-16.61,29.3l-19.53-11.08L984.27,635.79z
		 M1063.36,630.11l-14.98-8.5l17.64-31.11L1081,599L1063.36,630.11z M1098.64,567.9l-15.75,27.77l-14.98-8.5l15.75-27.77
		L1098.64,567.9z M1080.33,557.52l-15.75,27.77l-16.24-9.21l15.75-27.77L1080.33,557.52z M1041.23,535.35l19.53,11.08l-15.75,27.77
		l-19.53-11.08L1041.23,535.35z M1023.6,566.45l19.53,11.08l-17.64,31.11l-19.53-11.08L1023.6,566.45z M1000.74,599l-17.91,31.57
		l-18.87-10.7l17.91-31.57L1000.74,599z M978.54,586.41l-17.91,31.57l-19.22-10.9l17.91-31.57L978.54,586.41z M960.87,530.87
		l14.66,8.31l-17.64,31.11l-14.66-8.31L960.87,530.87z M941.34,565.31l14.66,8.31l-17.91,31.57l-14.66-8.31L941.34,565.31z
		 M921.54,600.21l14.66,8.31l-16.61,29.3l-14.66-8.31L921.54,600.21z M886.42,662.15l16.62-29.31l14.66,8.31l-16.62,29.31
		L886.42,662.15z M904.41,672.35l16.62-29.31l19.22,10.9l-16.62,29.31L904.41,672.35z M926.95,685.13l16.62-29.31l18.87,10.7
		l-16.62,29.31L926.95,685.13z M968.68,708.8l-19.53-11.08l16.62-29.31l19.53,11.08L968.68,708.8z M990.52,678.05l16.61-29.3
		l16.24,9.21l-16.61,29.3L990.52,678.05z"/>
</g>
<path class="st3" d="M1147.76,294.55c28.05-7.17,15.3-17.38,3.88-18.79c-15.17-1.87,0.98-17.1,2.69-19.69
	c5.6-8.43-4.77-3.16-5.31-5.63c-3.37-15.29-8.55,1.87-17.66,5.34c-2.13,0.81-4.03-6.68-15.51-6.29c-1.9,0.07-1.08,10.4-2.43,11.63
	c-22.59,20.55-17.38,28.51-4.14,26.85C1140.37,284.09,1132.99,298.33,1147.76,294.55z"/>
<path class="st4" d="M1107.84,266.47c-9.04-13.94-3.11-28.2-3.11-28.2l-3.4-2.74c-8.1,15.14,3.42,34.35,3.42,34.35L1107.84,266.47z"
	/>
<path class="st5" d="M1128.22,253.89c0,0,5.06-1.69,5.42-6.67c0.35-4.98,4.04-8.69,8.17-10.4l0.69,3.2c0,0-4.03,0.75-6.66,6.5
	c0,0-0.25,2.82-2,5.71c-1.76,2.89-3.64,3.51-3.64,3.51L1128.22,253.89z"/>
<path class="st6" d="M1144.9,269.14c0,0,13.08,3.02,22.06-11.04l3.05,1.29c0,0-7.2,12.83-24.45,13.3c0,0-0.42-0.72-0.64-1.89
	C1144.7,269.63,1144.9,269.14,1144.9,269.14z"/>
<path class="st7" d="M1183.23,351.31l-21.48-7.28l-133.85,42.09c-0.5,1.74-1.54,3.31-2.89,4.55c-0.17,0.33-0.34,0.67-0.55,0.98
	c-0.35,1.39-1.02,2.68-1.95,3.78c-0.06,0.18-0.13,0.35-0.2,0.52c-0.21,1.9-1.06,3.66-2.32,5.1c-0.31,1.6-1.06,3.06-2.12,4.31
	c0.1,2.74-1.17,5.26-3.12,7.09c-0.72,1.56-1.84,2.93-3.23,3.97c-0.2,0.22-0.44,0.4-0.66,0.6c-0.04,0.05-0.09,0.1-0.14,0.15
	c-0.24,2.24-1.37,4.29-3,5.84c-0.6,1.13-1.41,2.15-2.39,3c-0.69,1.74-1.9,3.26-3.42,4.41l-0.28,0.49l173.91-56.96L1183.23,351.31z"
	/>
<path class="st7" d="M1021.26,455.23c0.95,0.1,1.89,0.33,2.8,0.77c0.79,0.23,1.57,0.54,2.3,1.02c0.89-0.42,1.82-0.74,2.78-0.89
	c0,0,0.01,0,0.01,0c0.52-0.08,1.03-0.12,1.55-0.11c0.16,0,0.31,0.01,0.47,0.02c0.37,0.03,0.75,0.07,1.12,0.14
	c0.12,0.02,0.25,0.02,0.38,0.05l125.61-31.32l3.84-11.33L992.8,456.99l-3.4,10.03l20.77-5.18
	C1011.8,457.53,1016.68,454.49,1021.26,455.23z"/>
<polygon class="st7" points="1012.63,502.44 1146.12,460.77 1138.48,483.31 1044.87,513.37 "/>
<path class="st7" d="M1064.36,634.78c0.25-0.25,0.52-0.5,0.79-0.73c0.03-0.03,0.06-0.06,0.09-0.08l8.29-13.52L945.3,702l13.24,7.74
	l100.56-65.76l2.26-3.68C1061.67,638.17,1062.8,636.27,1064.36,634.78z"/>
<polygon class="st7" points="925.44,690.73 1097.32,578.66 1105.02,565.07 918.56,686.83 "/>
<path class="st7" d="M1058.23,538.53l-55.63,28.51c-0.03,0.93-0.22,1.82-0.52,2.67c-1.32,4.81-6.7,8.29-11.63,7.31
	c-2.01,0.49-4.14,0.35-6.09-0.63l-76.23,39.06l-11.73,20.68l181.56-86.41L1058.23,538.53z"/>
<path class="st7" d="M846.58,727.91c0.77-0.34,1.57-0.59,2.39-0.73c0.59-0.17,1.18-0.31,1.78-0.36c1.41-2.04,3.54-3.62,5.93-4.29
	c0.82-0.3,1.67-0.51,2.54-0.59c3.19-0.61,6.64,0.35,9.08,3.81c0,0.01,0.01,0.01,0.01,0.01l68.01-10.15l-19.47-24.71l-120.94,30.34
	l-23.97,18.89l63.87-9.53C838.55,727.78,842.84,726.38,846.58,727.91z"/>
<path class="st7" d="M945.91,773.42c-0.62-0.87-1.03-1.74-1.32-2.61c-0.01-0.03-0.02-0.06-0.04-0.1c-0.04-0.13-0.11-0.27-0.15-0.4
	c-0.46-1.24-0.62-2.48-0.53-3.66l-0.17-0.45l-186.23,42.19l3.8,4.82l185.84-37.93l-0.27-0.72
	C946.52,774.21,946.21,773.84,945.91,773.42z"/>
<path class="st8" d="M1134.72,291.28c0,0,19.34-0.57,27.86-11.07c0,0,3.87,3.34,1.14,6.66c-2.74,3.32-9.66,6.78-18.84,8.23
	c0,0-2.34,0.53-5.21-0.62c0,0-1.2-0.55-2.08-1.17"/>
<path class="st9" d="M1102.69,324.01l21.26,7.21l7.07-20.87C1131.02,310.35,1120.31,321.52,1102.69,324.01z"/>
<path class="st9" d="M1145.44,269.11c0,0-5.49-9.02,1.28-13.55c6.78-4.54,8.72-1.4,8.72-1.4s-0.31,1.3-3.52,4.78
	c-3.21,3.48-5.4,7.48-5.4,7.48L1145.44,269.11z"/>
<path class="st9" d="M1115.85,249.49c0,0,6.73-0.49,10.41,2.67c3.68,3.17-2.62,7.65-2.98,7.83c-0.35,0.18-9.71,0.92-9.71,0.92
	s0.48-1.35,0.77-4.86s0.29-3.51,0.29-3.51S1114.87,249.46,1115.85,249.49z"/>
<polygon class="st9" points="1038.5,511.21 1060.15,518.55 1057.09,523.93 1034.77,517.78 "/>
<polygon class="st9" points="944.52,711.62 925.51,698.03 930.87,693.81 951.87,705.83 "/>
</svg>
