<svg xmlns="http://www.w3.org/2000/svg" viewBox="0 0 183.65 164.47"><defs><style>.cls-1{fill:#ccc;}.cls-2{fill:#663d6f;}.cls-3{fill:#796097;}</style></defs><title>spatula normal</title><g id="Layer_2" data-name="Layer 2"><g id="Layer_1-2" data-name="Layer 1"><path class="cls-1" d="M0,126.46a7.39,7.39,0,0,0,1.47,4l27.29,31.76a7.38,7.38,0,0,0,3.78,2.07,6.76,6.76,0,0,0,4.46-.65l37.5-32.22a7.42,7.42,0,0,0,2.24-3.22,6.52,6.52,0,0,0,.33-4.29q-4.55-9.37-9.08-18.75L119.34,61.1s2.79,1.4,2.82,1.4l2.69-.83C142.66,47.44,161,33.81,178.78,19.58l.1-.08c1.73-1.48,4.48-4.88,4.77-7.28a13,13,0,0,0-.89-4.54,14.06,14.06,0,0,0-2-3.56,14.13,14.13,0,0,0-3.2-2.55A13,13,0,0,0,173.15,0c-1.64,0-3.91,1-5.74,2.07h0a17.65,17.65,0,0,0-2.17,1.55.38.38,0,0,0-.09.09c-16.35,15.08-32.21,30.75-48.54,45.86l-1.2,1.1s-1.22,2.53-1.22,2.55,1,3,1,3L63.8,100.33,46.64,88.53a6.51,6.51,0,0,0-4.29-.33,7.37,7.37,0,0,0-3.53,1.73L1.32,122.15A6.67,6.67,0,0,0,0,126.46Zm60.18-3.29a3.42,3.42,0,0,1,4.46,5.19L35.8,153.14A3.42,3.42,0,1,1,31.34,148ZM52.87,109.4a3.42,3.42,0,1,1,4.46,5.19L25.6,141.85a3.42,3.42,0,1,1-4.46-5.19Zm-12.51-9.31a3.42,3.42,0,1,1,4.46,5.19L16,130.07a3.43,3.43,0,0,1-4.46-5.2Z"/><path class="cls-2" d="M164.94,3.87l.2-.16A18.14,18.14,0,0,1,167.61,2,11.24,11.24,0,0,1,172.87.25a13.24,13.24,0,0,1,4.35,1.56,14.4,14.4,0,0,1,3.2,2.56,14,14,0,0,1,2.05,3.55,13.07,13.07,0,0,1,.89,4.54c-.27,2.31-2.84,5.55-4.58,7.12l-.19.17c-17.83,14.26-36.19,27.91-54,42.17l-2.69.83s-2.79-1.4-2.81-1.41l-4.2-4.88s-1-3-1-3,1.23-2.53,1.22-2.55l1.5-1.38C132.87,34.49,148.66,18.89,164.94,3.87Z"/><path class="cls-3" d="M165.14,3.71a.38.38,0,0,1,.09-.09,17.65,17.65,0,0,1,2.17-1.55h0l.2,0a10.16,10.16,0,0,1,2.59-.21,5.86,5.86,0,0,1,4.21,1.4,5.75,5.75,0,0,1,1.32,3.87,7.62,7.62,0,0,1-.9,4.79,7.28,7.28,0,0,1-3.46,3l-51.18,42a3.82,3.82,0,0,1-2.65-.74c-1.33-1.08-1.32-3-1.32-3.87a10.39,10.39,0,0,1,.38-2.64,0,0,0,0,1,0,0c16.26-15,32.05-30.65,48.33-45.67Z"/></g></g></svg>